<svg xmlns="http://www.w3.org/2000/svg" width="121" height="18" viewBox="0 0 121 18" fill="none"><g clip-path="url(#clip0_119_79)"><path d="M46.733 7.92H0.596197C0.287073 7.92 0.0441895 7.68706 0.0441895 7.39059C0.0441895 7.1047 0.287073 6.86118 0.596197 6.86118H46.733C47.0421 6.86118 47.285 7.1047 47.285 7.39059C47.285 7.68706 47.0421 7.92 46.733 7.92Z" fill="#FE7A19"/><path fill-rule="evenodd" clip-rule="evenodd" d="M60.4779 14.7176C60.3344 14.7176 60.1909 14.6647 60.0915 14.5588L53.0038 7.77177C52.794 7.56 52.794 7.23177 53.0038 7.02L60.0915 0.222355C60.3013 0.0211781 60.6546 0.0211781 60.8754 0.222355L67.9521 7.02C68.0625 7.1153 68.1177 7.25294 68.1177 7.39059C68.1177 7.53882 68.0625 7.66588 67.9521 7.77177L60.8754 14.5588C60.765 14.6647 60.6325 14.7176 60.4779 14.7176ZM54.174 7.39059L60.4779 13.4365L66.7819 7.39059L60.4779 1.34471L54.174 7.39059Z" fill="#FE7A19"/><path d="M57.1548 17.9153C57.0003 17.9153 56.8678 17.8518 56.7574 17.7565L46.3465 7.77176C46.1257 7.56 46.1257 7.23176 46.3465 7.02C46.5673 6.80823 46.9096 6.80823 47.1304 7.02L57.1548 16.6341L60.0915 13.8176C60.3013 13.6059 60.6545 13.6059 60.8753 13.8176C61.0851 14.0188 61.0851 14.3576 60.8753 14.5588L57.5412 17.7565C57.4419 17.8518 57.2983 17.9153 57.1548 17.9153Z" fill="#FE7A19"/><path d="M120.371 7.92H74.2229C73.9248 7.92 73.6709 7.68706 73.6709 7.39059C73.6709 7.1047 73.9248 6.86118 74.2229 6.86118H120.371C120.669 6.86118 120.923 7.1047 120.923 7.39059C120.923 7.68706 120.669 7.92 120.371 7.92Z" fill="#FE7A19"/><path d="M63.812 17.9153C63.6685 17.9153 63.525 17.8518 63.4256 17.7565L60.0915 14.5588C59.8707 14.3576 59.8707 14.0188 60.0915 13.8176C60.3013 13.6059 60.6546 13.6059 60.8754 13.8176L63.812 16.6341L73.8365 7.02C74.0462 6.80823 74.3995 6.80823 74.6203 7.02C74.8301 7.23176 74.8301 7.56 74.6203 7.77176L64.1984 17.7565C64.0991 17.8518 63.9556 17.9153 63.812 17.9153Z" fill="#FE7A19"/></g><defs><clipPath id="clip0_119_79"><rect width="121" height="18" fill="white"/></clipPath></defs></svg>