<?xml version="1.0" encoding="UTF-8"?>
<svg version="1.1" xmlns="http://www.w3.org/2000/svg" width="512" height="512">
<path d="M0 0 C1.28810629 -0.00623996 2.57621257 -0.01247993 3.90335238 -0.01890898 C7.44908525 -0.03549037 10.99438331 -0.0274078 14.54011703 -0.0149641 C18.3751215 -0.00587016 22.21005402 -0.01990438 26.04504395 -0.03088379 C33.54437791 -0.04862444 41.0435513 -0.04484987 48.54289143 -0.03323323 C54.63670727 -0.02418562 60.73047823 -0.02298062 66.82429886 -0.02732849 C67.69282828 -0.02794142 68.56135771 -0.02855436 69.45620621 -0.02918586 C71.22073869 -0.03046479 72.98527116 -0.03176165 74.74980362 -0.03307623 C91.27438081 -0.04446791 107.79886907 -0.03138839 124.32343169 -0.00987476 C138.50298854 0.00801391 152.68241447 0.00487484 166.86196899 -0.0135498 C183.33825956 -0.03494882 199.81447242 -0.04338935 216.29077494 -0.03110075 C218.04684296 -0.02982657 219.80291099 -0.02856908 221.55897903 -0.02732849 C222.42296123 -0.02671139 223.28694343 -0.02609429 224.17710691 -0.02545848 C230.26683675 -0.02200409 236.35651727 -0.02783546 242.44623947 -0.0372467 C249.86243738 -0.04845646 257.27846591 -0.04544749 264.69464438 -0.02412373 C268.47863301 -0.01360235 272.26233906 -0.00951003 276.04632568 -0.02272034 C280.14522554 -0.036814 284.2434101 -0.02000149 288.34228516 0 C290.14182052 -0.01338433 290.14182052 -0.01338433 291.97771013 -0.02703905 C299.8807838 0.04811141 299.8807838 0.04811141 303.94318581 2.10218048 C307.84399347 7.18304366 308.08368127 13.14914051 308.04466724 19.34629822 C308.04787372 20.10866936 308.0510802 20.87104051 308.05438384 21.65651381 C308.06267688 24.2078946 308.05676203 26.75904022 308.05088806 29.3104248 C308.05390905 31.15938948 308.05779827 33.0083529 308.06248063 34.85731411 C308.07277592 39.93591095 308.07057491 45.01443732 308.06630003 50.09303999 C308.06383563 55.57095574 308.07284336 61.0488544 308.08033752 66.52676392 C308.09309396 77.25712422 308.09487708 87.98745952 308.09253726 98.71782613 C308.0907552 107.43756848 308.09250134 116.15730323 308.0967617 124.87704468 C308.09735689 126.11743702 308.09795208 127.35782937 308.09856531 128.63580936 C308.09977704 131.15553451 308.10099117 133.67525965 308.10220768 136.19498479 C308.10999591 153.1153267 308.11391327 170.0356655 308.10989094 186.95600891 C308.10973456 187.61759167 308.10957819 188.27917442 308.10941707 188.96080514 C308.10861129 192.3139477 308.10776552 195.66709025 308.10690377 199.0202328 C308.10664714 200.01914611 308.10664714 200.01914611 308.10638532 201.03823949 C308.10603867 202.38493538 308.10569014 203.73163127 308.10533973 205.07832716 C308.09998117 226.03827804 308.10791716 246.99818685 308.12637329 267.95812988 C308.14708555 291.50783726 308.1577865 315.05752524 308.15379781 338.60724354 C308.15188335 351.07617995 308.15439722 363.54507803 308.16851234 376.01400757 C308.18040525 386.62738667 308.18185446 397.24070385 308.16972218 407.85408378 C308.16381913 413.27060261 308.16277343 418.68700805 308.17472458 424.10351944 C308.18553456 429.06034547 308.18253845 434.01696278 308.16846289 438.97377884 C308.16580248 440.76843317 308.1682244 442.56310361 308.17619876 444.35774219 C308.18627933 446.79527126 308.17790496 449.23207123 308.16492176 451.66957092 C308.17223111 452.36792765 308.17954045 453.06628438 308.18707129 453.78580344 C308.13174317 458.78988293 307.05573819 462.13447026 304.79019165 466.50793457 C299.85319095 471.13161627 295.32472992 471.07005218 288.91937256 470.98895264 C287.93010989 470.99237034 286.94084722 470.99578804 285.9216069 470.9993093 C282.60943989 471.00589366 279.29808469 470.98390219 275.98599243 470.96203613 C273.61075357 470.96090778 271.23551332 470.96154128 268.86027527 470.96380615 C263.08174606 470.96483545 257.30348241 470.94749677 251.52501388 470.92205551 C244.7998375 470.89343742 238.07469864 470.88747279 231.34946989 470.88290283 C219.35667266 470.8741537 207.36398441 470.84754853 195.37124634 470.80969238 C183.7231399 470.77296238 172.07506308 470.74465548 160.4269104 470.72766113 C159.34947601 470.72608479 159.34947601 470.72608479 158.25027527 470.72447661 C154.64673809 470.71925636 151.0432007 470.71420155 147.43966317 470.70922899 C117.55642741 470.66777885 87.67332798 470.5962381 57.79019165 470.50793457 C57.79019165 484.36793457 57.79019165 498.22793457 57.79019165 512.50793457 C54.06678569 511.57708308 52.60085317 510.87016916 49.6378479 508.67199707 C48.86118774 508.10223145 48.08452759 507.53246582 47.28433228 506.94543457 C46.48189087 506.34730957 45.67944946 505.74918457 44.85269165 505.13293457 C38.01960181 500.02419552 38.01960181 500.02419552 30.79019165 495.50793457 C28.10245355 497.40343052 25.41504563 499.29939409 22.72769165 501.19543457 C21.5994397 501.9911084 21.5994397 501.9911084 20.44839478 502.80285645 C19.70396118 503.32814941 18.95952759 503.85344238 18.1925354 504.39465332 C17.45374146 504.91462891 16.71494751 505.43460449 15.95376587 505.97033691 C14.54072682 506.97454814 13.13564429 507.99007674 11.73989868 509.01818848 C6.99212066 512.50793457 6.99212066 512.50793457 4.79019165 512.50793457 C4.79019165 498.64793457 4.79019165 484.78793457 4.79019165 470.50793457 C0.17019165 470.50793457 -4.44980835 470.50793457 -9.20980835 470.50793457 C-20.71569207 468.53217676 -30.22591594 463.9547952 -37.70980835 454.76184082 C-42.42383012 447.67853206 -45.33165138 440.31515899 -45.34402943 431.82886505 C-45.34638166 431.14321936 -45.34873389 430.45757368 -45.3511574 429.75115085 C-45.35785335 427.43670528 -45.35738899 425.12231578 -45.35697937 422.80786133 C-45.36027764 421.13844196 -45.36400313 419.46902339 -45.36812085 417.79960585 C-45.37815344 413.19858048 -45.38185968 408.59756815 -45.38451016 403.99653339 C-45.38840956 399.03926856 -45.39798825 394.08201409 -45.40672302 389.12475586 C-45.42649924 377.14513047 -45.43655577 365.16550423 -45.44545081 353.18586659 C-45.44983241 347.5458211 -45.4551996 341.90577656 -45.46043968 336.26573181 C-45.47745422 317.51848801 -45.49194814 298.77124479 -45.49918842 280.02399445 C-45.50109836 275.15731302 -45.50301868 270.2906316 -45.50497437 265.4239502 C-45.50545811 264.21434252 -45.50594185 263.00473484 -45.50644024 261.75847238 C-45.51473954 242.16602339 -45.54007377 222.57363548 -45.57255504 202.98121315 C-45.60562436 182.87023314 -45.62363713 162.75928416 -45.62683266 142.64827681 C-45.62899803 131.35508406 -45.63775052 120.06198034 -45.66329384 108.76881409 C-45.68499918 99.15017138 -45.6930521 89.53163931 -45.68332706 79.91297489 C-45.67878171 75.00630917 -45.6806823 70.09987173 -45.7000885 65.1932373 C-45.71771629 60.69735709 -45.71672551 56.20187178 -45.70119121 51.70598739 C-45.69881454 50.08341084 -45.70314175 48.46080697 -45.71501986 46.83827215 C-45.80825031 33.25691473 -43.51687334 21.95609565 -34.20980835 11.50793457 C-24.14224618 2.53990138 -13.20567604 -0.09932746 0 0 Z " fill="#005C9F" transform="translate(125.20980834960938,-0.5079345703125)"/>
<path d="M0 0 C1.96807781 -0.00512655 1.96807781 -0.00512655 3.97591478 -0.01035666 C7.58834458 -0.01923599 11.20029361 -0.00339134 14.81266224 0.01675558 C18.71911648 0.03411882 22.6255462 0.02817764 26.5320282 0.02514648 C33.29050241 0.0230547 40.0488215 0.03554567 46.8072567 0.05809784 C56.57864911 0.09068259 66.34996693 0.10103146 76.12140778 0.10604981 C91.97700251 0.11479232 107.83251466 0.14137953 123.68806458 0.17926025 C139.08519581 0.21600739 154.48230456 0.24430591 169.87947083 0.2612915 C170.82943246 0.2623424 171.77939409 0.26339329 172.75814243 0.26447603 C177.52408404 0.26969639 182.29002581 0.27475117 187.05596769 0.27972364 C226.55961182 0.32115318 266.06316379 0.39157312 305.56672668 0.48101807 C305.6594063 11.86836947 305.73048149 23.25563114 305.77397537 34.64328289 C305.79485029 39.93104563 305.82316646 45.21855032 305.8684845 50.50616455 C305.91194524 55.60900725 305.93586451 60.71160175 305.94623566 65.81461525 C305.95362659 67.7614921 305.96805934 69.70835537 305.98964691 71.65512657 C306.0186839 74.38213838 306.02268256 77.10812459 306.02082825 79.83526611 C306.03520935 80.64015472 306.04959045 81.44504333 306.06440735 82.27432251 C306.03730292 85.95806766 305.72311738 88.22464161 303.78834534 91.39637756 C300.47149554 94.50872064 297.8578712 95.73184046 293.31074905 95.72711372 C292.46328653 95.73109582 291.615824 95.73507792 290.74268079 95.73918068 C289.81661361 95.733355 288.89054644 95.72752932 287.93641663 95.7215271 C286.94886281 95.72323595 285.96130899 95.7249448 284.9438293 95.72670543 C281.62567244 95.73000684 278.30771657 95.7189858 274.98957825 95.70806885 C272.61463424 95.70750488 270.23968989 95.70782102 267.86474609 95.70895386 C262.07934011 95.70946917 256.29400025 95.70078643 250.50860938 95.68807854 C243.77690381 95.67378601 237.04520767 95.6707886 230.31348905 95.6685022 C218.30853215 95.66412479 206.30360242 95.65081445 194.29866028 95.63189697 C182.63687781 95.61353935 170.97510272 95.59938227 159.31330872 95.59088135 C158.23508616 95.59009318 158.23508616 95.59009318 157.13508132 95.58928908 C153.52900273 95.58667901 149.92292409 95.5841516 146.31684542 95.58166528 C116.40011957 95.56093136 86.48342773 95.52515421 56.56672668 95.48101807 C56.56672668 109.34101807 56.56672668 123.20101807 56.56672668 137.48101807 C52.84332073 136.55016658 51.3773882 135.84325266 48.41438293 133.64508057 C47.63772278 133.07531494 46.86106262 132.50554932 46.06086731 131.91851807 C45.2584259 131.32039307 44.4559845 130.72226807 43.62922668 130.10601807 C36.79613685 124.99727902 36.79613685 124.99727902 29.56672668 120.48101807 C26.87898858 122.37651401 24.19158067 124.27247758 21.50422668 126.16851807 C20.75205872 126.69896729 19.99989075 127.2294165 19.22492981 127.77593994 C18.10827942 128.56387939 18.10827942 128.56387939 16.96907043 129.36773682 C16.23027649 129.8877124 15.49148254 130.40768799 14.7303009 130.94342041 C13.31726186 131.94763164 11.91217932 132.96316024 10.51643372 133.99127197 C5.7686557 137.48101807 5.7686557 137.48101807 3.56672668 137.48101807 C3.56672668 123.62101807 3.56672668 109.76101807 3.56672668 95.48101807 C-1.05327332 95.48101807 -5.67327332 95.48101807 -10.43327332 95.48101807 C-21.93915703 93.50526026 -31.4493809 88.9278787 -38.93327332 79.73492432 C-45.08040832 70.49821365 -46.68683206 62.03423315 -46.78337097 51.15142822 C-46.80776671 49.14762932 -46.86432228 47.14430428 -46.92155457 45.14117432 C-47.02243299 33.85399972 -44.63095385 23.21232342 -37.28092957 14.32086182 C-26.44049971 3.52626888 -15.02241263 -0.14475338 0 0 Z " fill="#F8B601" transform="translate(126.43327331542969,374.51898193359375)"/>
<path d="M0 0 C1.14462623 -0.0034177 2.28925246 -0.0068354 3.46856433 -0.01035666 C7.27648878 -0.01690754 11.08369706 0.00499537 14.89155579 0.0269165 C17.63206422 0.03027813 20.37255903 0.02758577 23.11306763 0.02514648 C28.99903362 0.02305634 34.88482127 0.03552997 40.77074242 0.05809784 C49.2806034 0.09070509 57.79037877 0.10103374 66.30029545 0.10604981 C80.10941019 0.11478883 93.91843003 0.14136646 107.72749329 0.17926025 C121.13601713 0.2160165 134.54451513 0.24431054 147.95307922 0.2612915 C148.78057404 0.2623424 149.60806885 0.26339329 150.46063926 0.26447603 C154.61223393 0.26969645 158.76382878 0.27475122 162.91542375 0.27972364 C197.31810201 0.32114228 231.72065684 0.39265898 266.12324524 0.48101807 C266.12324524 7.74101807 266.12324524 15.00101807 266.12324524 22.48101807 C264.13961975 22.48512695 262.15599426 22.48923584 260.11225891 22.49346924 C253.56217041 22.51285601 247.01254399 22.55514403 240.46268749 22.61310863 C236.49098327 22.64741672 232.51966522 22.67249441 228.54780579 22.67657471 C224.71545249 22.6808497 220.88397087 22.70924373 217.05188942 22.75444984 C215.58910001 22.76745084 214.12620642 22.77172328 212.66336632 22.76717186 C210.61542244 22.76228344 208.5700438 22.78826979 206.52241516 22.82159424 C204.77368355 22.83158699 204.77368355 22.83158699 202.98962402 22.84178162 C199.94100012 23.21110769 199.94100012 23.21110769 198.21548462 25.82301331 C196.83101151 29.19217961 197.04917561 31.02865139 198.12324524 34.48101807 C201.66694282 36.84348312 203.22575332 36.75106652 207.43061829 36.79986572 C208.73174057 36.81973541 210.03286285 36.8396051 211.37341309 36.8600769 C212.79392833 36.87195338 214.21444536 36.88361623 215.63496399 36.89508057 C217.08800357 36.91379041 218.54103227 36.93336369 219.99404907 36.95376587 C223.81622401 37.00511271 227.63843419 37.0447246 231.46076965 37.08190918 C235.36202224 37.12193294 239.26312794 37.17303268 243.16426086 37.22320557 C250.81716257 37.31999511 258.47012103 37.40336624 266.12324524 37.48101807 C266.12324524 42.43101807 266.12324524 47.38101807 266.12324524 52.48101807 C264.65719691 52.48156283 263.19114859 52.4821076 261.68067455 52.48266888 C226.90521894 52.49670309 192.12988042 52.53641063 157.3544942 52.60787369 C153.07729765 52.61664078 148.80010069 52.62519053 144.52290344 52.63360596 C143.67136516 52.63528502 142.81982689 52.63696408 141.94248442 52.63869403 C128.14170427 52.66538767 114.34096565 52.6744608 100.54016235 52.67705949 C86.3866843 52.68011541 72.23332663 52.7020201 58.07990295 52.74154264 C49.34146261 52.76534647 40.60326233 52.77432356 31.86479399 52.76453117 C25.87822322 52.75922882 19.89186821 52.77218065 13.90535887 52.79968097 C10.44770123 52.81501933 6.99052623 52.82212332 3.53285408 52.80761528 C-0.2106889 52.79609111 -3.95285398 52.81496441 -7.69628906 52.84178162 C-8.7964708 52.83110836 -9.89665254 52.8204351 -11.03017312 52.80943841 C-13.74019147 52.84590328 -16.22727375 52.91278832 -18.87675476 53.48101807 C-21.24732586 55.64454047 -21.24732586 55.64454047 -21.87675476 58.48101807 C-21.89045603 61.65139477 -21.89045603 61.65139477 -20.87675476 64.48101807 C-17.5892806 66.67266751 -16.39180652 66.76781193 -12.55253601 66.89508057 C-11.52450867 66.93375244 -10.49648132 66.97242432 -9.43730164 67.01226807 C-8.36544617 67.04320557 -7.2935907 67.07414307 -6.18925476 67.10601807 C-5.10579773 67.14468994 -4.0223407 67.18336182 -2.90605164 67.22320557 C-0.22990142 67.31751923 2.44664866 67.40035933 5.12324524 67.48101807 C5.12324524 71.44101807 5.12324524 75.40101807 5.12324524 79.48101807 C-0.76644778 79.67902934 -6.6541988 79.82405896 -12.5464325 79.92047119 C-14.54970548 79.96066306 -16.55274436 80.01522912 -18.55522156 80.08453369 C-21.43772554 80.18178513 -24.31712659 80.2269834 -27.20097351 80.26226807 C-28.54031197 80.32420349 -28.54031197 80.32420349 -29.90670776 80.38739014 C-32.46472879 80.38922915 -34.45159597 80.30226754 -36.87675476 79.48101807 C-39.1877013 77.08513323 -40.52548055 74.50009459 -41.87675476 71.48101807 C-42.19778671 70.84517288 -42.51881866 70.2093277 -42.84957886 69.55421448 C-45.98875069 63.12685481 -45.39053312 55.7688126 -45.37675476 48.79351807 C-45.40511414 47.50767822 -45.43347351 46.22183838 -45.46269226 44.89703369 C-45.48522652 33.74821055 -42.97669859 23.0940895 -35.72441101 14.32086182 C-25.47580502 4.11559031 -14.29788095 -0.15871105 0 0 Z " fill="#F9D100" transform="translate(124.87675476074219,374.51898193359375)"/>
<path d="M0 0 C6.17467586 -0.09898364 12.34888843 -0.1715236 18.52416992 -0.21972656 C20.62418667 -0.23982397 22.72414758 -0.26710666 24.82397461 -0.30175781 C27.84502958 -0.3503577 30.86534377 -0.37298762 33.88671875 -0.390625 C35.29167854 -0.42159271 35.29167854 -0.42159271 36.72502136 -0.45318604 C40.78739569 -0.45457989 43.36976272 -0.33259254 47.00708008 1.58691406 C51.12705494 6.57550056 51.29287048 12.62287071 51.24609566 18.85791683 C51.24840335 19.62238515 51.25071103 20.38685347 51.25308865 21.1744875 C51.25837722 23.73294481 51.2494141 26.29114977 51.24050903 28.84959412 C51.24138133 30.70354667 51.24313277 32.55749897 51.24568737 34.41144997 C51.25016007 39.50357117 51.24215821 44.59560826 51.23213124 49.68771875 C51.22349798 55.17980787 51.22641682 60.67189221 51.22793579 66.16398621 C51.22898472 75.67863019 51.22270728 85.19324675 51.21146011 94.70788383 C51.19520917 108.46446568 51.18999752 122.22103426 51.18748413 135.97762466 C51.18310639 158.29653224 51.16981233 180.61542701 51.15087891 202.93432617 C51.1325076 224.6156405 51.11834157 246.29695093 51.10986328 267.97827148 C51.10960023 268.64668785 51.10933718 269.31510422 51.10906615 270.00377562 C51.10616743 277.38241031 51.10338375 284.76104504 51.10064721 292.13967979 C51.07991226 347.75979662 51.04468458 403.37989761 51 459 C50.67 459 50.34 459 50 459 C50 431.28 50 403.56 50 375 C36.47 375 22.94 375 9 375 C8.90948565 343.48314939 8.83791366 311.96634854 8.79573868 280.44939865 C8.79073614 276.72456633 8.78555882 272.99973427 8.78027344 269.27490234 C8.7792242 268.53338699 8.77817495 267.79187164 8.77709392 267.02788612 C8.75971097 255.03731216 8.72818498 243.04681527 8.69138882 231.05628696 C8.65392053 218.74361871 8.63175173 206.43099069 8.62364602 194.11826777 C8.61817041 186.52682779 8.60090589 178.93560571 8.56833413 171.34423283 C8.54459696 165.51320591 8.54219497 159.68231717 8.54756927 153.8512516 C8.54647205 151.46646856 8.53855854 149.08167698 8.5231781 146.69694328 C8.3891944 124.84437979 8.3891944 124.84437979 12.04330826 116.35946274 C16.49306359 105.38515259 14.28788899 91.96465733 11 81 C10.65803085 80.25335083 10.31606171 79.50670166 9.96372986 78.73742676 C8.81415198 75.47210794 8.74146934 72.82204563 8.72875977 69.36132812 C8.72353302 68.71514023 8.71830627 68.06895233 8.71292114 67.40318298 C8.7027214 66.00749626 8.69690779 64.61177193 8.69503975 63.21604919 C8.69136188 61.00457165 8.67459817 58.79353688 8.65428162 56.58215332 C8.59899742 50.29752844 8.56817386 44.01283984 8.54370117 37.72802734 C8.52780555 33.87715361 8.4975705 30.02659719 8.45893669 26.17588806 C8.44730915 24.71194329 8.44135654 23.24794175 8.44125557 21.78395081 C8.44106298 19.73518815 8.42276068 17.68729853 8.40063477 15.63867188 C8.39556412 14.47460815 8.39049347 13.31054443 8.38526917 12.11120605 C7.78869984 7.29366483 5.9413618 4.81000899 2.3125 1.6875 C1.549375 1.130625 0.78625 0.57375 0 0 Z " fill="#005182" transform="translate(382,0)"/>
<path d="M0 0 C13.52703936 11.34387794 21.4961696 27.08299403 23.125 44.61328125 C23.76073537 62.15560401 17.79382803 77.23792391 6.625 90.5625 C-4.92740635 102.58966278 -19.76242229 110.0815888 -36.57006836 110.59350586 C-53.60480864 110.8142917 -69.63749589 105.89331063 -82.47265625 94.09375 C-89.3908826 86.65547474 -94.47799651 78.68018358 -98.1875 69.25 C-98.53941406 68.44433594 -98.89132812 67.63867188 -99.25390625 66.80859375 C-104.37670173 52.76913334 -101.88521753 35.24974343 -95.93017578 22.01928711 C-92.46248167 14.69849113 -87.99327308 8.89337384 -82.1875 3.25 C-81.57390625 2.61578125 -80.9603125 1.9815625 -80.328125 1.328125 C-57.97023138 -20.26539619 -23.45235395 -17.65154409 0 0 Z " fill="#FEDCD3" transform="translate(374.1875,52.75)"/>
<path d="M0 0 C4.31086569 3.32124087 8.39209455 6.92511388 12 11 C12 15.09835897 10.51154258 15.87979305 7.65722656 18.76269531 C7.19548035 19.23291107 6.73373413 19.70312683 6.25799561 20.18759155 C4.72665936 21.74236144 3.18433315 23.28564473 1.640625 24.828125 C0.57373796 25.90210915 -0.49284751 26.97639295 -1.55914307 28.05096436 C-3.79694729 30.3022276 -6.04061912 32.54744731 -8.28808594 34.7890625 C-11.17142993 37.66650551 -14.03609934 40.56178176 -16.8962059 43.46229935 C-19.09402465 45.68592907 -21.30317191 47.89802584 -23.5157547 50.10695648 C-24.57708124 51.16998009 -25.63441145 52.23700889 -26.68767548 53.30802155 C-28.16007266 54.80248067 -29.64739151 56.28029085 -31.13964844 57.75488281 C-31.98348083 58.60076965 -32.82731323 59.44665649 -33.69671631 60.31817627 C-36 62 -36 62 -38.16758728 61.88716125 C-40.85718174 60.5849961 -42.49213442 58.71292278 -44.51953125 56.52734375 C-45.37740234 55.62822266 -46.23527344 54.72910156 -47.11914062 53.80273438 C-48.91118202 51.896335 -50.69510133 49.98226726 -52.47070312 48.06054688 C-53.33244141 47.16271484 -54.19417969 46.26488281 -55.08203125 45.33984375 C-55.85780518 44.50831787 -56.6335791 43.67679199 -57.43286133 42.82006836 C-60.82177971 40.41736873 -62.9305923 40.52295784 -67 41 C-67.99 41.66 -68.98 42.32 -70 43 C-70.59711327 46.85161047 -70.93931801 49.4352806 -68.90374756 52.82614136 C-67.31368095 54.69479134 -65.63861796 56.39210334 -63.8671875 58.08984375 C-62.92300461 59.03483482 -62.92300461 59.03483482 -61.95974731 59.99891663 C-60.62916313 61.32182306 -59.28880341 62.63496093 -57.93945312 63.9387207 C-55.8795359 65.93310839 -53.85654343 67.96001483 -51.8359375 69.99414062 C-50.53589661 71.27811296 -49.23387656 72.5600851 -47.9296875 73.83984375 C-47.32631561 74.44392563 -46.72294373 75.04800751 -46.10128784 75.6703949 C-43.51580528 78.14248461 -41.3467208 79.84366684 -38.06689453 81.32250977 C-33.02022142 80.79180962 -30.47180742 77.4977031 -27 74 C-26.16968262 73.19015656 -25.33936523 72.38031311 -24.48388672 71.54592896 C-21.61338156 68.73002579 -18.7731961 65.88598994 -15.9375 63.03515625 C-14.8954026 61.99118934 -13.85308091 60.94744628 -12.81054688 59.90391541 C-10.09255554 57.18214078 -7.3775831 54.45737477 -4.66326904 51.73193359 C-1.88282982 48.94118927 0.90051029 46.15334129 3.68359375 43.36523438 C9.12520842 37.91295642 14.56363103 32.45750891 20 27 C21.485 27.495 21.485 27.495 23 28 C29.36106201 41.38163211 29.01580868 58.67436657 24.25634766 72.47509766 C17.64899877 89.93006713 5.8422256 102.28373805 -11 110 C-24.70857947 115.71732225 -41.18778767 116.32141435 -55.18359375 111.19140625 C-56.11300781 110.79824219 -57.04242188 110.40507812 -58 110 C-58.87785156 109.63777344 -59.75570312 109.27554688 -60.66015625 108.90234375 C-76.86128304 101.51543123 -87.58321501 88.25585531 -94 72 C-99.53256298 54.86570796 -97.86526894 38.3119274 -89.875 22.3125 C-81.79892662 8.17506665 -70.05169269 -1.1797279 -55 -7 C-54.17242187 -7.32097656 -53.34484375 -7.64195313 -52.4921875 -7.97265625 C-35.0840035 -13.69553019 -15.17308641 -9.75697158 0 0 Z " fill="#FCDDD4" transform="translate(213,49)"/>
<path d="M0 0 C13.04535509 9.81865876 21.83797205 23.83671237 24.94921875 39.91796875 C27.48109929 58.83925455 22.52373689 74.88367443 11.32421875 89.96484375 C1.464412 101.7277382 -12.2833714 110.04175504 -27.61328125 112.1875 C-30.88550076 112.30023352 -34.15215323 112.28173539 -37.42578125 112.25 C-38.30943359 112.24548828 -39.19308594 112.24097656 -40.10351562 112.23632812 C-42.27346684 112.22459866 -44.44338297 112.20666495 -46.61328125 112.1875 C-43.4586563 110.0844167 -40.77807723 109.21105814 -37.17578125 108.0625 C-27.10892128 104.63821947 -14.58234843 98.12563436 -9.61328125 88.1875 C-10.94480225 87.34493652 -10.94480225 87.34493652 -12.30322266 86.48535156 C-15.39569239 84.42068357 -17.95691477 82.07316994 -20.57421875 79.421875 C-21.45722656 78.53242188 -22.34023438 77.64296875 -23.25 76.7265625 C-24.15363281 75.80617188 -25.05726563 74.88578125 -25.98828125 73.9375 C-26.91511719 73.00164062 -27.84195313 72.06578125 -28.796875 71.1015625 C-31.07361732 68.80134861 -33.34554296 66.49658555 -35.61328125 64.1875 C-39.14651297 65.6880231 -41.35864641 67.725499 -44.01953125 70.46875 C-44.84582031 71.31050781 -45.67210937 72.15226562 -46.5234375 73.01953125 C-47.80541016 74.34017578 -47.80541016 74.34017578 -49.11328125 75.6875 C-50.8064301 77.43172423 -52.50416833 79.17150821 -54.20703125 80.90625 C-54.95662109 81.67904297 -55.70621094 82.45183594 -56.47851562 83.24804688 C-59.2073645 85.7272298 -61.45500285 86.94990443 -65.05078125 87.6875 C-67.61328125 87.1875 -67.61328125 87.1875 -70.48828125 84.5625 C-72.61328125 81.1875 -72.61328125 81.1875 -72.55517578 78.30517578 C-71.3669543 74.37215653 -69.65612937 72.73001193 -66.66796875 69.9296875 C-66.17869904 69.45935089 -65.68942932 68.98901428 -65.18533325 68.50442505 C-63.63118573 67.01107244 -62.06206746 65.53512456 -60.48828125 64.0625 C-58.40891112 62.11589597 -56.34652386 60.15346488 -54.29296875 58.1796875 C-53.37241699 57.31714355 -52.45186523 56.45459961 -51.50341797 55.56591797 C-49.4252733 53.43042766 -49.4252733 53.43042766 -49.52978516 51.17382812 C-51.03897328 48.40709658 -52.9792347 46.57896234 -55.26953125 44.4140625 C-56.20925781 43.5065625 -57.14898437 42.5990625 -58.1171875 41.6640625 C-59.61396763 40.23551865 -61.11453174 38.81132202 -62.62060547 37.39257812 C-64.07681811 36.01517004 -65.51714079 34.62102432 -66.95703125 33.2265625 C-67.82521484 32.40365723 -68.69339844 31.58075195 -69.58789062 30.73291016 C-71.95059382 27.76358235 -72.50896158 25.96018279 -72.61328125 22.1875 C-70.55078125 18.8125 -70.55078125 18.8125 -67.61328125 16.1875 C-64.13003616 15.71869178 -62.30977165 15.73668943 -59.33203125 17.6640625 C-58.59984375 18.37304688 -57.86765625 19.08203125 -57.11328125 19.8125 C-56.27023437 20.61816406 -55.4271875 21.42382812 -54.55859375 22.25390625 C-53.5751728 23.23011132 -52.59356465 24.20814431 -51.61328125 25.1875 C-51.01225586 25.78159668 -50.41123047 26.37569336 -49.79199219 26.98779297 C-45.70542899 31.0279882 -41.65044928 35.09797677 -37.61328125 39.1875 C-33.85541998 37.64014536 -31.61071766 35.33361613 -28.83984375 32.3984375 C-27.93234375 31.45742187 -27.02484375 30.51640625 -26.08984375 29.546875 C-24.65906765 28.05414777 -23.23348268 26.5573879 -21.81835938 25.04980469 C-20.44364463 23.59024277 -19.04820163 22.15029236 -17.65234375 20.7109375 C-16.82943848 19.84388184 -16.0065332 18.97682617 -15.15869141 18.08349609 C-12.07324173 15.78524152 -10.37375193 15.79155301 -6.61328125 16.1875 C-15.54549465 4.01174542 -26.52293116 -5.52005998 -41.61328125 -8.8125 C-44.60776919 -9.22652888 -47.60165038 -9.55299439 -50.61328125 -9.8125 C-50.61328125 -10.1425 -50.61328125 -10.4725 -50.61328125 -10.8125 C-32.84411712 -14.99148124 -14.71529392 -10.20612314 0 0 Z " fill="#F3C4B9" transform="translate(371.61328125,50.8125)"/>
<path d="M0 0 C16.83 0 33.66 0 51 0 C52.02628425 23.3479666 52.10870284 46.63390741 52 70 C48.66277321 69.38114549 46.56182074 68.17762646 43.84765625 66.1640625 C43.07099609 65.59429687 42.29433594 65.02453125 41.49414062 64.4375 C40.69169922 63.839375 39.88925781 63.24125 39.0625 62.625 C32.22941016 57.51626095 32.22941016 57.51626095 25 53 C22.3122619 54.89549595 19.62485398 56.79145951 16.9375 58.6875 C16.18533203 59.21794922 15.43316406 59.74839844 14.65820312 60.29492188 C13.91376953 60.82021484 13.16933594 61.34550781 12.40234375 61.88671875 C11.6635498 62.40669434 10.92475586 62.92666992 10.16357422 63.46240234 C8.75053517 64.46661357 7.34545264 65.48214217 5.94970703 66.51025391 C1.20192901 70 1.20192901 70 -1 70 C-1.10870284 46.63390741 -1.02628425 23.3479666 0 0 Z " fill="#ED500A" transform="translate(131,442)"/>
<path d="M0 0 C1.61358398 -0.00290039 1.61358398 -0.00290039 3.25976562 -0.00585938 C4.37416016 0.01798828 5.48855469 0.04183594 6.63671875 0.06640625 C7.73951172 0.05544922 8.84230469 0.04449219 9.97851562 0.03320312 C18.08107379 0.10576335 23.5692048 1.4120505 29.75 6.70703125 C37.98361348 16.1850625 39.71963637 25.46662998 39.6015625 37.890625 C38.91958095 47.08296788 36.0931889 56.11657952 29.32421875 62.62890625 C21.99062802 67.96526376 15.12508331 67.90038228 6.38671875 68.00390625 C4.59717773 68.05998047 4.59717773 68.05998047 2.77148438 68.1171875 C1.62486328 68.12878906 0.47824219 68.14039063 -0.703125 68.15234375 C-2.27694946 68.18207275 -2.27694946 68.18207275 -3.88256836 68.21240234 C-6.67578125 67.62890625 -6.67578125 67.62890625 -9.01367188 65.89501953 C-11.65197872 60.71063806 -11.26579035 55.58346079 -11.2421875 49.84765625 C-11.24838608 48.60141479 -11.25458466 47.35517334 -11.26097107 46.07116699 C-11.26988472 42.76517437 -11.25876921 39.45992504 -11.24188232 36.1539917 C-11.23828404 34.13047693 -11.25221722 32.1078782 -11.27270508 30.08447266 C-11.30953745 26.19259746 -11.31222005 22.30217205 -11.3046875 18.41015625 C-11.32457481 16.60218567 -11.32457481 16.60218567 -11.34486389 14.75769043 C-11.25272722 6.48974729 -11.25272722 6.48974729 -8.49121094 2.36938477 C-5.34921045 0.42702252 -3.66789871 -0.0027411 0 0 Z " fill="#E59894" transform="translate(291.67578125,221.37109375)"/>
<path d="M0 0 C1.02994835 -0.00935994 1.02994835 -0.00935994 2.08070374 -0.01890898 C4.38097496 -0.03486111 6.68018972 -0.02222711 8.98046875 -0.00964355 C10.62972634 -0.01506373 12.27897909 -0.0221858 13.92822266 -0.03088379 C18.40757091 -0.04913268 22.886551 -0.04204323 27.36590576 -0.02936745 C32.05123901 -0.01924786 36.73654052 -0.02863023 41.421875 -0.03491211 C49.29042222 -0.04219156 57.15881932 -0.03259303 65.02734375 -0.0135498 C74.12742646 0.00821953 83.22715071 0.00116837 92.32722473 -0.02085543 C100.13710094 -0.03900097 107.94686917 -0.0415719 115.75675964 -0.03110075 C120.42269772 -0.02486116 125.08846725 -0.02404295 129.75439453 -0.0372467 C134.14085692 -0.04879232 138.52685669 -0.0408033 142.91326904 -0.01766968 C144.52414176 -0.01237565 146.13505333 -0.01390823 147.74591064 -0.02272034 C149.94311376 -0.03363283 152.13882949 -0.01996683 154.3359375 0 C156.18094849 0.00226215 156.18094849 0.00226215 158.06323242 0.00457001 C161.77502409 0.60635521 162.96167599 1.50749407 165.16796875 4.50793457 C165.73046875 8.00793457 165.73046875 8.00793457 165.16796875 11.50793457 C162.48236668 14.30079792 160.80847268 15.40756401 156.95580196 16.01129913 C155.73409078 16.01280724 154.51237959 16.01431534 153.25364685 16.01586914 C152.57024375 16.0221091 151.88684064 16.02834907 151.18272835 16.03477812 C148.89937833 16.05069637 146.61709762 16.03810961 144.33374023 16.0255127 C142.6941872 16.03093432 141.05463904 16.03805721 139.4151001 16.04675293 C134.96680078 16.06498306 130.51887268 16.05792049 126.07056689 16.04523659 C121.41593599 16.03510901 116.76133686 16.04450143 112.10670471 16.05078125 C104.29121188 16.05805764 96.47587027 16.04846943 88.66040039 16.02941895 C79.62221208 16.00764259 70.58438458 16.0147071 61.54620498 16.03672457 C53.7872634 16.05486974 46.02843051 16.05744145 38.26947457 16.04696989 C33.63485012 16.04073107 29.00039535 16.03991012 24.36578178 16.05311584 C20.00967365 16.06466119 15.65403138 16.05667296 11.29797363 16.03353882 C9.69838803 16.02824498 8.09876328 16.02977706 6.49919319 16.03858948 C4.31736665 16.04950252 2.1370378 16.03583549 -0.04469299 16.01586914 C-1.87669424 16.01360699 -1.87669424 16.01360699 -3.7457056 16.01129913 C-7.44400314 15.40812496 -8.63400906 14.49919767 -10.83203125 11.50793457 C-11.38294571 7.65153337 -11.569466 5.51324844 -9.2277832 2.32093048 C-6.01664303 -0.10911408 -4.0073851 0.00491342 0 0 Z " fill="#FAB700" transform="translate(134.83203125,396.4920654296875)"/>
<path d="M0 0 C3.75530437 0.47355667 4.90131617 1.40473232 7.59765625 4.015625 C8.44070313 4.82128906 9.28375 5.62695312 10.15234375 6.45703125 C11.1357647 7.43323632 12.11737285 8.41126931 13.09765625 9.390625 C13.69868164 9.98472168 14.29970703 10.57881836 14.91894531 11.19091797 C19.00550851 15.2311132 23.06048822 19.30110177 27.09765625 23.390625 C30.85551752 21.84327036 33.10021984 19.53674113 35.87109375 16.6015625 C36.77859375 15.66054687 37.68609375 14.71953125 38.62109375 13.75 C40.05186985 12.25727277 41.47745482 10.7605129 42.89257812 9.25292969 C44.26729287 7.79336777 45.66273587 6.35341736 47.05859375 4.9140625 C48.29295166 3.613479 48.29295166 3.613479 49.55224609 2.28662109 C52.68510129 -0.04694436 54.27367902 -0.16403745 58.09765625 0.390625 C60.97265625 2.515625 60.97265625 2.515625 63.09765625 5.390625 C63.52831647 8.86399333 63.54249351 10.70336321 61.62109375 13.671875 C60.91210938 14.4040625 60.203125 15.13625 59.47265625 15.890625 C58.66699219 16.73367187 57.86132812 17.57671875 57.03125 18.4453125 C56.05504493 19.42873345 55.07701194 20.4103416 54.09765625 21.390625 C53.50355957 21.99165039 52.90946289 22.59267578 52.29736328 23.21191406 C48.25716805 27.29847726 44.18717948 31.35345697 40.09765625 35.390625 C44.43595691 40.5911966 49.01341005 45.40135417 53.84765625 50.140625 C55.17811219 51.44554435 56.50633573 52.75274471 57.83203125 54.0625 C58.70166504 54.91473145 58.70166504 54.91473145 59.58886719 55.78417969 C61.86507568 58.20771559 63.03155284 59.95623119 63.53515625 63.265625 C63.09765625 66.390625 63.09765625 66.390625 61.03515625 69.328125 C58.09765625 71.390625 58.09765625 71.390625 54.75756836 71.32641602 C50.38443897 70.2082648 48.71741247 68.70694061 45.6015625 65.48046875 C45.12315414 64.99357071 44.64474579 64.50667267 44.15184021 64.00502014 C42.63983478 62.45965584 41.15013329 60.89470878 39.66015625 59.328125 C38.63356988 58.27141636 37.60558744 57.21606209 36.57617188 56.16210938 C34.0669936 53.58708289 31.57737978 50.99406507 29.09765625 48.390625 C25.56442453 49.8911481 23.35229109 51.928624 20.69140625 54.671875 C19.86511719 55.51363281 19.03882813 56.35539062 18.1875 57.22265625 C17.33285156 58.10308594 16.47820312 58.98351562 15.59765625 59.890625 C13.9045074 61.63484923 12.20676917 63.37463321 10.50390625 65.109375 C9.75431641 65.88216797 9.00472656 66.65496094 8.23242188 67.45117188 C5.503573 69.9303548 3.25593465 71.15302943 -0.33984375 71.890625 C-2.90234375 71.390625 -2.90234375 71.390625 -5.77734375 68.765625 C-7.90234375 65.390625 -7.90234375 65.390625 -7.84423828 62.50830078 C-6.6560168 58.57528153 -4.94519187 56.93313693 -1.95703125 54.1328125 C-1.46776154 53.66247589 -0.97849182 53.19213928 -0.47439575 52.70755005 C1.07975177 51.21419744 2.64887004 49.73824956 4.22265625 48.265625 C6.30202638 46.31902097 8.36441364 44.35658988 10.41796875 42.3828125 C11.33852051 41.52026855 12.25907227 40.65772461 13.20751953 39.76904297 C15.2856642 37.63355266 15.2856642 37.63355266 15.18115234 35.37695312 C13.67196422 32.61022158 11.7317028 30.78208734 9.44140625 28.6171875 C8.50167969 27.7096875 7.56195313 26.8021875 6.59375 25.8671875 C5.09696987 24.43864365 3.59640576 23.01444702 2.09033203 21.59570312 C0.63411939 20.21829504 -0.80620329 18.82414932 -2.24609375 17.4296875 C-3.11427734 16.60678223 -3.98246094 15.78387695 -4.87695312 14.93603516 C-7.23965632 11.96670735 -7.79802408 10.16330779 -7.90234375 6.390625 C-4.35517086 0.58616028 -4.35517086 0.58616028 0 0 Z " fill="#ED530E" transform="translate(306.90234375,66.609375)"/>
<path d="M0 0 C68.64 0 137.28 0 208 0 C208 6.16163774 207.97473389 6.90836217 204 11 C200.86729196 12.56635402 197.52932474 12.13309302 194.09078979 12.12025452 C193.26420337 12.12110894 192.43761694 12.12196337 191.58598244 12.12284368 C188.80062679 12.12449819 186.01533062 12.11897758 183.22998047 12.11352539 C181.239563 12.11324349 179.24914543 12.11340132 177.25872803 12.1139679 C171.8416548 12.11425575 166.42460356 12.10836103 161.00753546 12.10139394 C155.3513891 12.09515832 149.69524228 12.09455644 144.03909302 12.09336853 C133.32228304 12.09025583 122.60548322 12.08204326 111.88867772 12.07201904 C99.69055764 12.06085601 87.4924371 12.05534697 75.29431319 12.05032361 C50.19620316 12.0398606 25.09810215 12.02226234 0 12 C0 8.04 0 4.08 0 0 Z " fill="#F9D100" transform="translate(182,442)"/>
<path d="M0 0 C2.9375 2.0625 2.9375 2.0625 5 5 C5.12313096 9.81383412 4.01016477 12.37732937 0.796875 15.7890625 C-0.53705896 17.08337465 -1.8866138 18.36174951 -3.25 19.625 C-4.25353516 20.58792969 -4.25353516 20.58792969 -5.27734375 21.5703125 C-6.53514771 22.77622278 -7.79906577 23.97581574 -9.07128906 25.16650391 C-13.19702948 29.08856853 -17.16372972 33.1744423 -21.15405273 37.23339844 C-26.10806524 42.26885614 -31.0745775 47.29178425 -36.04850674 52.3075676 C-39.04985634 55.33508948 -42.04631713 58.3671508 -45.0324707 61.40966797 C-47.93206986 64.36361745 -50.84373867 67.30515972 -53.7641468 70.23853302 C-54.8717112 71.35531582 -55.97487502 72.47648118 -57.0734539 73.60210419 C-58.60968319 75.17467466 -60.16090525 76.73084892 -61.71655273 78.28417969 C-62.59415756 79.17288757 -63.47176239 80.06159546 -64.3759613 80.97723389 C-67.35866497 83.27648043 -69.2683641 83.81010489 -73 84 C-74.89648438 82.98608398 -74.89648438 82.98608398 -76.59375 81.30859375 C-77.27050781 80.65874512 -77.94726562 80.00889648 -78.64453125 79.33935547 C-79.42183594 78.56736816 -80.19914062 77.79538086 -81 77 C-82.47912255 75.61519903 -83.95833082 74.23048809 -85.43920898 72.8475647 C-87.60302557 70.80896975 -89.73163748 68.73561042 -91.85742188 66.6574707 C-92.95898082 65.58783863 -94.06850666 64.52635474 -95.18554688 63.47290039 C-96.82044285 61.92933539 -98.42749603 60.36097688 -100.03125 58.78515625 C-100.7810614 58.09257469 -100.7810614 58.09257469 -101.54602051 57.38600159 C-104.30357471 54.61253654 -105.3220229 52.58632853 -105.40820312 48.76342773 C-105 45 -105 45 -103.4375 43 C-100.06604932 41.61684075 -97.62503356 41.65238082 -94 42 C-91.34106445 43.94360352 -91.34106445 43.94360352 -88.86328125 46.62890625 C-87.50299805 48.05686523 -87.50299805 48.05686523 -86.11523438 49.51367188 C-85.17936116 50.52844852 -84.24513259 51.54474425 -83.3125 52.5625 C-81.46918174 54.55824224 -79.60953016 56.53381907 -77.73828125 58.50390625 C-76.92399658 59.38892822 -76.10971191 60.2739502 -75.27075195 61.18579102 C-73.25348522 63.19459716 -73.25348522 63.19459716 -71.22772217 62.96273804 C-67.86400004 61.50906339 -65.60841695 58.990644 -63.08569336 56.41040039 C-62.5047139 55.82825272 -61.92373444 55.24610504 -61.32514954 54.64631653 C-59.40632518 52.72030438 -57.49823644 50.78400037 -55.58984375 48.84765625 C-54.2582612 47.50793749 -52.92593974 46.16895278 -51.59291077 44.83067322 C-48.08427607 41.3049123 -44.58430236 37.77068266 -41.08648682 34.23419189 C-35.48624738 28.57478324 -29.87331679 22.92796813 -24.25979805 17.28173637 C-22.29886052 15.30682634 -20.34178162 13.32815491 -18.38523865 11.34889221 C-17.18521324 10.13884344 -15.98510867 8.92887316 -14.78491211 7.71899414 C-14.24093781 7.16671143 -13.6969635 6.61442871 -13.13650513 6.04541016 C-6.25577334 -0.87580827 -6.25577334 -0.87580827 0 0 Z " fill="#1FC1FE" transform="translate(247,47)"/>
<path d="M0 0 C4.69009172 3.29365784 8.4269899 7.72959287 9.90234375 13.3359375 C10.15234375 16.0234375 10.15234375 16.0234375 9.90234375 18.3359375 C7.90234375 20.3359375 7.90234375 20.3359375 5.51953125 20.53125 C4.61460937 20.50804687 3.7096875 20.48484375 2.77734375 20.4609375 C1.86726563 20.44289062 0.9571875 20.42484375 0.01953125 20.40625 C-0.67914063 20.38304687 -1.3778125 20.35984375 -2.09765625 20.3359375 C-2.58685547 19.39621094 -2.58685547 19.39621094 -3.0859375 18.4375 C-3.52292969 17.62023437 -3.95992187 16.80296875 -4.41015625 15.9609375 C-4.83941406 15.14882812 -5.26867187 14.33671875 -5.7109375 13.5 C-7.06544349 11.06759707 -7.06544349 11.06759707 -10.09765625 9.3359375 C-14.42852395 8.63845693 -18.03631597 8.80526736 -21.97265625 10.7734375 C-26.97595091 16.80682223 -27.5839565 24.25515408 -27.47265625 31.8359375 C-27.48425781 32.62613281 -27.49585938 33.41632813 -27.5078125 34.23046875 C-27.4745188 41.01128558 -26.38891801 47.57294537 -21.97265625 52.8984375 C-17.94110412 54.91421357 -14.52175812 55.00236301 -10.09765625 54.3359375 C-7.20600017 53.10544555 -5.70399617 52.1544964 -3.84765625 49.6484375 C-2.74347343 46.24387382 -2.45370232 42.89639817 -2.09765625 39.3359375 C-3.36222656 39.38814453 -3.36222656 39.38814453 -4.65234375 39.44140625 C-5.74804688 39.46847656 -6.84375 39.49554688 -7.97265625 39.5234375 C-9.60847656 39.57564453 -9.60847656 39.57564453 -11.27734375 39.62890625 C-12.20804688 39.53222656 -13.13875 39.43554688 -14.09765625 39.3359375 C-16.39929507 35.88347926 -16.44255947 34.38855037 -16.09765625 30.3359375 C-13.29237238 27.53065363 -11.24593781 28.04649064 -7.41210938 28.01367188 C-6.54521484 28.01689453 -5.67832031 28.02011719 -4.78515625 28.0234375 C-3.92986328 28.00732422 -3.07457031 27.99121094 -2.19335938 27.97460938 C2.64096128 27.97086474 6.00625546 28.13974531 9.90234375 31.3359375 C12.58083314 36.69291628 11.39225077 44.66025588 9.65234375 50.2109375 C7.34448514 56.17470297 4.27501715 60.75415523 -1.09765625 64.3359375 C-8.66481778 67.35199188 -17.87311157 67.75895153 -25.66015625 65.1484375 C-32.91516945 61.3230669 -37.40265532 54.90121876 -40.21875 47.31640625 C-41.60146641 42.13657505 -41.46606079 36.84926847 -41.47265625 31.5234375 C-41.49714844 30.49412109 -41.52164063 29.46480469 -41.546875 28.40429688 C-41.58463773 18.45381744 -39.02435906 10.29092946 -32.05859375 3.03125 C-23.38662336 -4.46603117 -10.09600269 -5.30181147 0 0 Z " fill="#E59894" transform="translate(173.09765625,223.6640625)"/>
<path d="M0 0 C1.19109375 0.00773438 1.19109375 0.00773438 2.40625 0.015625 C3.2003125 0.01046875 3.994375 0.0053125 4.8125 0 C6.90625 0.265625 6.90625 0.265625 8.90625 2.265625 C9.16453552 4.21209717 9.16453552 4.21209717 9.17749023 6.62011719 C9.18767685 7.52155457 9.19786346 8.42299194 9.20835876 9.35174561 C9.21049881 10.32879456 9.21263885 11.30584351 9.21484375 12.3125 C9.24001212 14.37500272 9.26541002 16.43750266 9.29101562 18.5 C9.31972349 21.75650254 9.34373458 25.01295639 9.36254883 28.26953125 C9.38424554 31.40911716 9.42369955 34.54811745 9.46484375 37.6875 C9.46495956 38.65645203 9.46507538 39.62540405 9.4651947 40.62371826 C9.54239394 45.9138334 9.92663092 49.69801014 12.90625 54.265625 C16.25495986 56.89675418 19.78613064 56.62703898 23.90625 56.265625 C27.19216672 54.92138634 28.56991877 53.77797195 30.51708984 50.81176758 C32.39252311 46.02430391 32.36575236 41.75060654 32.3828125 36.65234375 C32.39839203 35.64218704 32.41397156 34.63203033 32.43002319 33.59126282 C32.47740296 30.37855745 32.50527516 27.16606864 32.53125 23.953125 C32.5677084 20.7224794 32.60824659 17.49195751 32.65390015 14.26142883 C32.68118935 12.25384268 32.70251324 10.24616525 32.71743774 8.2384491 C32.72769989 7.33693619 32.73796204 6.43542328 32.74853516 5.5065918 C32.75503082 4.70972458 32.76152649 3.91285736 32.76821899 3.09184265 C32.90625 1.265625 32.90625 1.265625 33.90625 0.265625 C35.90234375 0.09765625 35.90234375 0.09765625 38.34375 0.078125 C39.54837891 0.05685547 39.54837891 0.05685547 40.77734375 0.03515625 C42.90625 0.265625 42.90625 0.265625 44.90625 2.265625 C45.17367554 4.30580139 45.17367554 4.30580139 45.19677734 6.84790039 C45.20953705 7.79971695 45.22229675 8.75153351 45.23544312 9.73219299 C45.23766876 10.76545212 45.23989441 11.79871124 45.2421875 12.86328125 C45.2488443 13.92671249 45.2555011 14.99014374 45.26235962 16.08580017 C45.27250346 18.3429084 45.27717611 20.60004673 45.27685547 22.85717773 C45.28120181 26.29006526 45.31742966 29.72163932 45.35546875 33.15429688 C45.3613421 35.34895395 45.36530802 37.54361712 45.3671875 39.73828125 C45.38155853 40.75737076 45.39592957 41.77646027 45.41073608 42.82643127 C45.36476641 50.10209123 44.26614914 56.65125374 39.15609741 62.14833069 C32.20392348 68.55436208 25.09888153 68.78826929 16.03125 68.58203125 C9.9050438 68.25344883 6.16595075 66.39978682 1.65625 62.140625 C-3.13106305 54.27575357 -4.69002965 47.21500079 -4.5546875 38.078125 C-4.55377106 37.05380371 -4.55285461 36.02948242 -4.5519104 34.97412109 C-4.54591184 32.82954212 -4.53028014 30.68497004 -4.50537109 28.54052734 C-4.46853904 25.24675993 -4.46435452 21.95410946 -4.46484375 18.66015625 C-4.45502331 16.57030272 -4.44337102 14.48045681 -4.4296875 12.390625 C-4.42746185 11.40425049 -4.42523621 10.41787598 -4.42294312 9.40161133 C-4.41018341 8.49306396 -4.39742371 7.5845166 -4.38427734 6.6484375 C-4.37665375 5.84809082 -4.36903015 5.04774414 -4.36117554 4.22314453 C-3.96354838 1.31256638 -2.88577775 0.36610613 0 0 Z " fill="#E59894" transform="translate(198.09375,221.734375)"/>
<path d="M0 0 C0.74521912 0.00470306 1.49043823 0.00940613 2.25823975 0.01425171 C4.62624402 0.03551823 6.99197319 0.09211664 9.359375 0.1484375 C10.9661248 0.16495186 12.57289845 0.17929806 14.1796875 0.19140625 C25.91341692 0.32747942 25.91341692 0.32747942 27.109375 1.5234375 C27.2072807 3.02081874 27.23912364 4.52286642 27.234375 6.0234375 C27.23824219 7.24546875 27.23824219 7.24546875 27.2421875 8.4921875 C27.109375 10.5234375 27.109375 10.5234375 26.109375 11.5234375 C24.25762794 11.68130058 22.4002839 11.77451106 20.54296875 11.83984375 C19.41826172 11.88173828 18.29355469 11.92363281 17.13476562 11.96679688 C15.95076172 12.00611328 14.76675781 12.04542969 13.546875 12.0859375 C12.35900391 12.12912109 11.17113281 12.17230469 9.94726562 12.21679688 C7.00145303 12.32327203 4.05542998 12.42389431 1.109375 12.5234375 C0.779375 17.4734375 0.449375 22.4234375 0.109375 27.5234375 C1.67429687 27.50023437 3.23921875 27.47703125 4.8515625 27.453125 C6.89582858 27.43437027 8.9400998 27.41616975 10.984375 27.3984375 C12.01691406 27.38167969 13.04945313 27.36492187 14.11328125 27.34765625 C15.09941406 27.34121094 16.08554687 27.33476562 17.1015625 27.328125 C18.46837158 27.31241455 18.46837158 27.31241455 19.86279297 27.29638672 C22.109375 27.5234375 22.109375 27.5234375 24.109375 29.5234375 C24.359375 33.0234375 24.359375 33.0234375 24.109375 36.5234375 C22.109375 38.5234375 22.109375 38.5234375 19.86279297 38.75048828 C18.95158691 38.74001465 18.04038086 38.72954102 17.1015625 38.71875 C16.11542969 38.71230469 15.12929688 38.70585937 14.11328125 38.69921875 C13.08074219 38.68246094 12.04820312 38.66570312 10.984375 38.6484375 C9.94410156 38.63941406 8.90382813 38.63039063 7.83203125 38.62109375 C5.25771503 38.59747617 2.68351662 38.56160434 0.109375 38.5234375 C0.439375 44.1334375 0.769375 49.7434375 1.109375 55.5234375 C3.79900391 55.61431641 3.79900391 55.61431641 6.54296875 55.70703125 C8.87761324 55.79141599 11.21224819 55.87606501 13.546875 55.9609375 C15.32288086 56.01991211 15.32288086 56.01991211 17.13476562 56.08007812 C18.82182617 56.14291992 18.82182617 56.14291992 20.54296875 56.20703125 C22.10615845 56.26201782 22.10615845 56.26201782 23.70092773 56.31811523 C26.109375 56.5234375 26.109375 56.5234375 27.109375 57.5234375 C27.27734375 59.51953125 27.27734375 59.51953125 27.296875 61.9609375 C27.31105469 62.76402344 27.32523437 63.56710937 27.33984375 64.39453125 C27.109375 66.5234375 27.109375 66.5234375 25.109375 68.5234375 C20.60426792 68.94767406 16.08410898 68.89502823 11.5612793 68.89404297 C9.31546372 68.89840142 7.07163754 68.93466859 4.82617188 68.97265625 C3.39323587 68.9785275 1.96029055 68.98249483 0.52734375 68.984375 C-0.77436768 68.99259277 -2.0760791 69.00081055 -3.41723633 69.00927734 C-7.43136886 68.44780101 -9.05339706 67.35703516 -11.890625 64.5234375 C-13.18192234 61.94084283 -13.04604359 60.03538008 -13.08349609 57.14331055 C-13.09955902 56.01841721 -13.11562195 54.89352386 -13.13217163 53.73454285 C-13.17653976 48.58777659 -13.21812602 43.44109949 -13.24072266 38.29418945 C-13.25405711 35.57704971 -13.28189882 32.8606619 -13.32275391 30.14379883 C-13.38156668 26.2326052 -13.39938463 22.32177698 -13.4140625 18.41015625 C-13.43673187 17.19543137 -13.45940125 15.98070648 -13.48275757 14.72917175 C-13.46193157 6.44016776 -13.46193157 6.44016776 -10.85107422 2.25073242 C-7.15615687 0.0949069 -4.16064497 -0.13195835 0 0 Z " fill="#E39894" transform="translate(352.890625,221.4765625)"/>
<path d="M0 0 C0.99 0.33 1.98 0.66 3 1 C9.36106201 14.38163211 9.01580868 31.67436657 4.25634766 45.47509766 C-2.35100123 62.93006713 -14.1577744 75.28373805 -31 83 C-42.18657059 87.66548916 -53.11281227 87.43052189 -65 87 C-62.21896283 85.14597522 -59.69001688 84.12901627 -56.55371094 83.04589844 C-49.65725734 80.65584922 -43.83807975 78.03515281 -38.015625 73.515625 C-36 72 -36 72 -33.859375 71.046875 C-31.48467022 69.70985634 -31.10375784 68.45529806 -30 66 C-28.92013878 64.626373 -27.81367077 63.2734232 -26.6875 61.9375 C-22.79843123 57.00541695 -20.18528956 51.87483666 -18 46 C-17.72510742 45.2685376 -17.45021484 44.5370752 -17.16699219 43.78344727 C-15.29936626 38.33158037 -14.90692934 34.11657864 -15.49804688 28.4128418 C-16.18055333 21.36887252 -16.32918974 15.9669505 -11.671875 10.3046875 C-8.0659273 6.53179778 -4.1572384 3.15109826 0 0 Z " fill="#F4C5BA" transform="translate(233,76)"/>
<path d="M0 0 C8.25 0 16.5 0 25 0 C25.39265461 7.33981822 25.72965317 14.64286116 25.93383789 21.98486328 C26.01892147 24.47472862 26.13464624 26.96375445 26.2824707 29.45068359 C27.44626427 49.54525079 27.44626427 49.54525079 23.38934326 55.2746582 C19.47079361 59.05100387 15.03284149 61.57394024 10.14645386 63.90148926 C7.94686539 65.02719319 6.05296916 66.31735802 4.07055664 67.78808594 C1 70 1 70 -1 70 C-1.10870284 46.63390741 -1.02628425 23.3479666 0 0 Z " fill="#FE6913" transform="translate(131,442)"/>
<path d="M0 0 C4.70232084 0.06700198 7.95378126 0.33243217 11.8125 3.25 C16.63263918 9.68721814 17.03581375 15.78241616 17.125 23.5 C17.15400391 24.32113281 17.18300781 25.14226562 17.21289062 25.98828125 C17.28733273 33.21489133 15.45937987 38.53525141 10.375 43.75 C6.53392775 45.36729358 4.21447825 45.40535002 0.08984375 45.34375 C-1.67178101 45.32344727 -1.67178101 45.32344727 -3.46899414 45.30273438 C-4.81465454 45.27663086 -4.81465454 45.27663086 -6.1875 45.25 C-6.21277124 39.00204325 -6.23033344 32.75409959 -6.24243164 26.50610352 C-6.24747298 24.37881986 -6.25430591 22.25153969 -6.26293945 20.12426758 C-6.27501379 17.07372174 -6.28073014 14.02322155 -6.28515625 10.97265625 C-6.29031754 10.01537125 -6.29547882 9.05808624 -6.30079651 8.0717926 C-6.30087204 7.19095505 -6.30094757 6.31011749 -6.30102539 5.40258789 C-6.303246 4.62315323 -6.30546661 3.84371857 -6.30775452 3.04066467 C-6.05096545 -0.78308445 -3.21147822 0.05200774 0 0 Z " fill="#035C9F" transform="translate(300.1875,232.75)"/>
<path d="M0 0 C1.19109375 0.00773438 1.19109375 0.00773438 2.40625 0.015625 C3.2003125 0.01046875 3.994375 0.0053125 4.8125 0 C6.90625 0.265625 6.90625 0.265625 8.90625 2.265625 C9.16694641 4.92236328 9.16694641 4.92236328 9.1809082 8.3359375 C9.19044022 9.61065918 9.19997223 10.88538086 9.20979309 12.19873047 C9.2095317 13.59602892 9.20859482 14.99332739 9.20703125 16.390625 C9.21091649 17.81787237 9.2152508 19.24511858 9.22001648 20.67236328 C9.22748374 23.66507718 9.22718355 26.65767312 9.22192383 29.65039062 C9.21612464 33.49087921 9.23306802 37.33088624 9.2562685 41.17129517 C9.27097882 44.11892534 9.27188134 47.06643875 9.26875877 50.01409912 C9.26927323 51.43032791 9.2745342 52.84656303 9.28457069 54.26275635 C9.29686581 56.24023786 9.28822728 58.21781638 9.27856445 60.1953125 C9.27919388 61.32179199 9.2798233 62.44827148 9.2804718 63.60888672 C9.15697861 64.48561035 9.03348541 65.36233398 8.90625 66.265625 C4.83775591 68.97795439 2.74148216 68.57262387 -2.09375 68.265625 C-4.82836759 65.53100741 -4.34713265 64.02277827 -4.35253906 60.1953125 C-4.35884338 58.92059082 -4.36514771 57.64586914 -4.37164307 56.33251953 C-4.36806339 54.93521996 -4.36396146 53.53792163 -4.359375 52.140625 C-4.36072171 50.71337823 -4.36266229 49.28613191 -4.36517334 47.85888672 C-4.36812434 44.86616655 -4.36382782 41.87356569 -4.35449219 38.88085938 C-4.34309755 35.04046127 -4.34965717 31.20034268 -4.36163712 27.35995483 C-4.36885643 24.412332 -4.36656748 21.46477569 -4.36138153 18.51715088 C-4.36004523 17.10093147 -4.36169209 15.68470606 -4.36634064 14.26849365 C-4.37140675 12.29097607 -4.36231908 10.31343738 -4.35253906 8.3359375 C-4.35094788 7.20945801 -4.34935669 6.08297852 -4.34771729 4.92236328 C-4.03409803 1.64160888 -3.37202893 0.42779471 0 0 Z " fill="#E39894" transform="translate(260.09375,221.734375)"/>
<path d="M0 0 C5.54130433 5.54130433 6.31639621 17.38747853 6.5625 24.875 C6.36180231 33.72315019 3.88034329 41.68815221 1 50 C-2 50 -2 50 -3.296875 48.77734375 C-3.77640625 48.17019531 -4.2559375 47.56304687 -4.75 46.9375 C-8.56297752 42.36358119 -12.71619186 38.19217183 -16.9375 34 C-17.62489258 33.31671631 -18.31228516 32.63343262 -19.02050781 31.92944336 C-20.6783658 30.28428368 -22.33809559 28.64107051 -24 27 C-19.09041009 21.10849211 -13.80943442 15.75978783 -8.30273438 10.4296875 C-4.98048412 7.16431363 -2.1470831 4.19766808 0 0 Z " fill="#FEDDD4" transform="translate(370,76)"/>
<path d="M0 0 C20.28402286 -0.8279193 37.00260166 3.255894 52.34423828 17.12915039 C53.62980745 18.35270975 54.82350303 19.67122594 56 21 C56 24 56 24 53.59375 26.69921875 C52.5700032 27.70302243 51.5383946 28.69885649 50.5 29.6875 C49.97535156 30.19861328 49.45070312 30.70972656 48.91015625 31.23632812 C47.61339096 32.49772708 46.30753883 33.74977212 45 35 C42.31768159 32.51637185 40.33920491 29.74174143 38.25 26.75 C28.63949656 13.49413319 16.31553888 4.98241033 0 2 C0 1.34 0 0.68 0 0 Z " fill="#F3C5BA" transform="translate(169,39)"/>
</svg>
