<svg xmlns="http://www.w3.org/2000/svg" width="32" height="32" viewBox="0 0 32 32" fill="none"><path d="M17.7965 9.91257C17.0817 10.6259 15.923 10.6259 15.2081 9.91257C14.4935 9.19922 14.4935 8.04255 15.2081 7.3292C15.923 6.61585 17.0817 6.61585 17.7965 7.3292C18.5112 8.04255 18.5112 9.19922 17.7965 9.91257Z" fill="#195AFE"></path><path d="M20.2967 12.6804C20.0738 12.6804 19.8508 12.5953 19.681 12.4249C19.3415 12.0849 19.3422 11.5341 19.6821 11.1948C20.3711 10.5072 20.7504 9.59305 20.7504 8.62088C20.7504 7.64871 20.3711 6.73459 19.6821 6.04697C19.3422 5.70745 19.3415 5.15682 19.681 4.81664C20.0203 4.47667 20.5712 4.47601 20.9111 4.81554C21.9295 5.83191 22.4902 7.18318 22.4902 8.62088C22.4902 10.0584 21.9295 11.4098 20.9111 12.4262C20.7414 12.5958 20.519 12.6804 20.2967 12.6804Z" fill="#195AFE"></path><path d="M22.2644 15.2416C22.0414 15.2416 21.8184 15.1565 21.6487 14.9863C21.3091 14.6461 21.3098 14.0955 21.6498 13.7559C23.0241 12.3842 23.7812 10.5606 23.7812 8.62088C23.7812 6.68115 23.0241 4.85754 21.6498 3.48581C21.3098 3.14629 21.3091 2.59566 21.6487 2.25548C21.9882 1.91552 22.5388 1.91486 22.8788 2.25438C24.5826 3.95485 25.5211 6.21585 25.5209 8.62088C25.5209 11.0259 24.5826 13.2871 22.8788 14.9876C22.709 15.1569 22.4867 15.2416 22.2644 15.2416Z" fill="#195AFE"></path><path d="M12.7035 12.6804C12.4812 12.6804 12.2588 12.5958 12.0889 12.4262C11.0705 11.4099 10.5098 10.0584 10.5098 8.6209C10.5098 7.1832 11.0705 5.83193 12.0889 4.81556C12.4288 4.47604 12.9797 4.47648 13.319 4.81666C13.6585 5.15662 13.6578 5.70747 13.3179 6.04699C12.6289 6.73461 12.2496 7.64873 12.2496 8.6209C12.2496 9.59307 12.6289 10.5072 13.3179 11.1948C13.6578 11.5341 13.6585 12.085 13.319 12.4249C13.1492 12.5951 12.9262 12.6804 12.7035 12.6804Z" fill="#195AFE"></path><path d="M10.7358 15.2416C10.5133 15.2416 10.291 15.1569 10.1212 14.9874C8.41743 13.2869 7.47913 11.0259 7.47913 8.62087C7.47913 6.21562 8.41743 3.95462 10.1212 2.25415C10.4612 1.91484 11.012 1.91528 11.3513 2.25547C11.6908 2.59543 11.6902 3.14606 11.3502 3.48558C9.97585 4.8573 9.21874 6.68092 9.21874 8.62065C9.21874 10.5604 9.97585 12.3842 11.3502 13.7559C11.6902 14.0955 11.6908 14.6461 11.3513 14.9863C11.1816 15.1565 10.9586 15.2416 10.7358 15.2416Z" fill="#195AFE"></path><path d="M27.9653 16.7455H5.03494C3.91104 16.7455 3 17.6565 3 18.7802V28.7876C3 29.9115 3.91104 30.8225 5.03494 30.8225H27.9651C29.089 30.8225 30 29.9115 30 28.7876V18.7802C30 17.6565 29.089 16.7455 27.9653 16.7455ZM9.69173 28.2116H6.48671C6.00645 28.2116 5.61701 27.8222 5.61701 27.3417V20.2263C5.61701 19.746 6.00645 19.3563 6.48671 19.3563C6.96719 19.3563 7.35663 19.7458 7.35663 20.2263V26.4718H9.69173C10.1722 26.4718 10.5616 26.8612 10.5616 27.3417C10.5616 27.8222 10.1722 28.2116 9.69173 28.2116ZM13.2567 27.3417C13.2567 27.8222 12.8673 28.2116 12.3868 28.2116C11.9063 28.2116 11.5169 27.8222 11.5169 27.3417V20.2263C11.5169 19.746 11.9063 19.3563 12.3868 19.3563C12.8673 19.3563 13.2567 19.7458 13.2567 20.2263V27.3417ZM20.5758 20.4778L18.4276 27.5931C18.4274 27.5937 18.4272 27.5944 18.427 27.595C18.1937 28.3913 17.0042 28.3717 16.7628 27.595C16.7626 27.5944 16.7623 27.5937 16.7621 27.5931L14.6139 20.4778C14.4752 20.0178 14.7353 19.5325 15.1953 19.3935C15.6549 19.2547 16.1407 19.5149 16.2794 19.9749L17.5949 24.3318L18.9103 19.9749C19.0493 19.5149 19.5346 19.2545 19.9946 19.3935C20.4544 19.5325 20.7148 20.0178 20.5758 20.4778ZM25.9275 22.4661C26.408 22.4661 26.7974 22.8556 26.7974 23.3361C26.7974 23.8163 26.408 24.206 25.9275 24.206H23.4589V26.4718H26.3961C26.8766 26.4718 27.266 26.8612 27.266 27.3417C27.266 27.8222 26.8766 28.2116 26.3961 28.2116H22.589C22.1085 28.2116 21.7191 27.8222 21.7191 27.3417V20.2263C21.7191 19.746 22.1085 19.3563 22.589 19.3563H26.5133C26.9935 19.3563 27.3832 19.7458 27.3832 20.2263C27.3832 20.7067 26.9935 21.0962 26.5133 21.0962H23.4587V22.4661H25.9275Z" fill="#ffaa00"></path></svg>