<svg xmlns="http://www.w3.org/2000/svg" width="32" height="32" viewBox="0 0 32 32" fill="none"><path d="M16 1.33331C13.0992 1.33331 10.2635 2.1935 7.85162 3.80509C5.4397 5.41669 3.55984 7.70731 2.44975 10.3873C1.33967 13.0673 1.04922 16.0162 1.61514 18.8613C2.18105 21.7064 3.57792 24.3197 5.62909 26.3709C7.68026 28.4221 10.2936 29.8189 13.1387 30.3848C15.9837 30.9507 18.9327 30.6603 21.6127 29.5502C24.2927 28.4401 26.5833 26.5603 28.1949 24.1483C29.8065 21.7364 30.6667 18.9008 30.6667 16C30.6621 12.1115 29.1154 8.38369 26.3658 5.63415C23.6163 2.88461 19.8884 1.3379 16 1.33331ZM20.9427 20.9426C20.6926 21.1926 20.3535 21.333 20 21.333C19.6464 21.333 19.3074 21.1926 19.0573 20.9426L15.0573 16.9426C14.8073 16.6927 14.6667 16.3536 14.6667 16V7.99998C14.6667 7.64636 14.8071 7.30722 15.0572 7.05717C15.3072 6.80712 15.6464 6.66665 16 6.66665C16.3536 6.66665 16.6927 6.80712 16.9428 7.05717C17.1928 7.30722 17.3333 7.64636 17.3333 7.99998V15.448L20.9427 19.0573C21.1926 19.3074 21.333 19.6464 21.333 20C21.333 20.3535 21.1926 20.6926 20.9427 20.9426Z" fill="#ffaa00"></path></svg>