<svg xmlns="http://www.w3.org/2000/svg" width="32" height="32" viewBox="0 0 32 32" fill="none"><path d="M12 2.85713C10.8572 4.79999 10.0572 7.42856 9.60001 10.2857H3.54287C5.14287 6.74285 8.22859 3.99999 12 2.85713ZM9.25716 12.5714H2.74287C2.17144 14.7428 2.17144 17.2571 2.74287 19.4286H9.37144C9.14287 17.1428 9.14287 14.8571 9.25716 12.5714ZM9.60001 21.7143H3.54287C5.14287 25.2571 8.22859 28 12 29.1428C10.8572 27.2 10.0572 24.5714 9.60001 21.7143ZM22.4 21.7143C21.9429 24.5714 21.1429 27.2 20 29.1428C23.7714 28 26.8572 25.2571 28.4572 21.7143H22.4ZM29.2572 12.5714H22.6286C22.8572 14.8571 22.8572 17.1428 22.6286 19.4286H29.2572C29.8286 17.2571 29.8286 14.7428 29.2572 12.5714ZM20 2.85713C21.1429 4.79999 21.9429 7.42856 22.4 10.2857H28.4572C26.8572 6.74285 23.7714 3.99999 20 2.85713ZM16.2286 2.28571C16.2286 2.28571 16.1143 2.28571 16 2.28571C15.8857 2.28571 15.8857 2.28571 15.7714 2.28571C14.4 2.51428 12.5714 5.48571 11.7714 10.2857H20C19.3143 5.48571 17.6 2.51428 16.2286 2.28571ZM20.4572 12.5714H11.6572C11.4286 14.6286 11.4286 17.3714 11.6572 19.4286H20.4572C20.5714 17.3714 20.5714 14.6286 20.4572 12.5714ZM11.8857 21.7143C12.6857 26.5143 14.4 29.4857 15.8857 29.7143H16.1143C16.1143 29.7143 16.2286 29.7143 16.3429 29.7143C17.7143 29.4857 19.5429 26.5143 20.3429 21.7143H11.8857Z" fill="#ffaa00"></path></svg>