<svg xmlns="http://www.w3.org/2000/svg" width="32" height="32" viewBox="0 0 32 32" fill="none"><path d="M26.1651 4H23.7352V6.42991C23.7352 6.91589 23.3302 7.23988 22.9252 7.23988C22.5203 7.23988 22.1153 6.91589 22.1153 6.42991V4H9.15576V6.42991C9.15576 6.91589 8.75078 7.23988 8.34579 7.23988C7.94081 7.23988 7.53583 6.91589 7.53583 6.42991V4H5.10592C3.89097 4 3 5.05296 3 6.42991V9.34579H28.919V6.42991C28.919 5.05296 27.4611 4 26.1651 4ZM3 11.0467V25.8692C3 27.3271 3.89097 28.2991 5.18692 28.2991H26.2461C27.5421 28.2991 29 27.2461 29 25.8692V11.0467H3ZM10.2087 24.6542H8.2648C7.94081 24.6542 7.61682 24.4112 7.61682 24.0062V21.9813C7.61682 21.6573 7.85981 21.3333 8.2648 21.3333H10.2897C10.6137 21.3333 10.9377 21.5763 10.9377 21.9813V24.0062C10.8567 24.4112 10.6137 24.6542 10.2087 24.6542ZM10.2087 17.3645H8.2648C7.94081 17.3645 7.61682 17.1215 7.61682 16.7165V14.6916C7.61682 14.3676 7.85981 14.0436 8.2648 14.0436H10.2897C10.6137 14.0436 10.9377 14.2866 10.9377 14.6916V16.7165C10.8567 17.1215 10.6137 17.3645 10.2087 17.3645ZM16.6885 24.6542H14.6636C14.3396 24.6542 14.0156 24.4112 14.0156 24.0062V21.9813C14.0156 21.6573 14.2586 21.3333 14.6636 21.3333H16.6885C17.0125 21.3333 17.3364 21.5763 17.3364 21.9813V24.0062C17.3364 24.4112 17.0935 24.6542 16.6885 24.6542ZM16.6885 17.3645H14.6636C14.3396 17.3645 14.0156 17.1215 14.0156 16.7165V14.6916C14.0156 14.3676 14.2586 14.0436 14.6636 14.0436H16.6885C17.0125 14.0436 17.3364 14.2866 17.3364 14.6916V16.7165C17.3364 17.1215 17.0935 17.3645 16.6885 17.3645ZM23.1682 24.6542H21.1433C20.8193 24.6542 20.4953 24.4112 20.4953 24.0062V21.9813C20.4953 21.6573 20.7383 21.3333 21.1433 21.3333H23.1682C23.4922 21.3333 23.8162 21.5763 23.8162 21.9813V24.0062C23.8162 24.4112 23.5732 24.6542 23.1682 24.6542ZM23.1682 17.3645H21.1433C20.8193 17.3645 20.4953 17.1215 20.4953 16.7165V14.6916C20.4953 14.3676 20.7383 14.0436 21.1433 14.0436H23.1682C23.4922 14.0436 23.8162 14.2866 23.8162 14.6916V16.7165C23.8162 17.1215 23.5732 17.3645 23.1682 17.3645Z" fill="#ffaa00"></path></svg>