<?xml version="1.0" encoding="UTF-8"?>
<svg version="1.1" xmlns="http://www.w3.org/2000/svg" width="256" height="256">
<path d="M0 0 C0.87896606 -0.00438225 1.75793212 -0.00876451 2.66353351 -0.01327956 C5.62056521 -0.02667661 8.57756711 -0.03284847 11.53462219 -0.03897095 C13.65013769 -0.0468712 15.76565183 -0.0551401 17.88116455 -0.06375122 C24.83896089 -0.08998027 31.79676327 -0.10527978 38.7545929 -0.11953735 C41.14883236 -0.12489668 43.54307179 -0.13027418 45.93731117 -0.13566971 C55.89602862 -0.15729975 65.85474443 -0.1760368 75.81347942 -0.1872921 C90.09035954 -0.20353329 104.36696758 -0.23671408 118.64374512 -0.29369295 C128.67951644 -0.33238165 138.71521494 -0.35192355 148.75105888 -0.35721266 C154.74629956 -0.36086755 160.74125012 -0.37290399 166.73641014 -0.4053154 C172.37780144 -0.43537683 178.01872675 -0.44171446 183.66018105 -0.42993164 C185.72897706 -0.42971075 187.79779458 -0.43802874 189.86651611 -0.45558548 C192.69518067 -0.47828192 195.52215618 -0.46997978 198.35083008 -0.45410156 C199.16592582 -0.46798365 199.98102156 -0.48186574 200.82081717 -0.49616849 C206.78491344 -0.41390789 210.89176823 1.33952152 215.49287415 5.15390015 C219.89240624 10.32820548 220.07370594 15.50962145 220.02632141 22.09310913 C220.03493698 23.0663916 220.04355255 24.03967407 220.0524292 25.04244995 C220.0750477 28.24523864 220.06835747 31.44714939 220.0592804 34.6499939 C220.06451789 36.8852718 220.07079483 39.12054748 220.07806396 41.3558197 C220.0884607 46.03544532 220.08391707 50.71476671 220.06929016 55.39437866 C220.05210645 61.38102153 220.07559725 67.36670426 220.11077976 73.35324001 C220.13277685 77.96791401 220.13130655 82.5823591 220.12301445 87.19706917 C220.12219615 89.40379959 220.12903616 91.61054703 220.14378548 93.81722832 C220.16127283 96.90717863 220.1466528 99.99541418 220.12397766 103.08529663 C220.14151596 104.44229424 220.14151596 104.44229424 220.15940857 105.82670593 C220.0690498 111.90141825 218.84883336 116.71977856 214.49287415 121.15390015 C209.03525174 124.9939815 205.07984252 125.73387011 198.4980011 125.66183472 C197.61491178 125.66807468 196.73182245 125.67431464 195.82197285 125.68074369 C192.87475886 125.69664733 189.92837494 125.68407968 186.9811554 125.67147827 C184.86342386 125.67690055 182.74569609 125.6840238 180.62797546 125.69271851 C174.88420728 125.71094206 169.14072674 125.70388817 163.39695358 125.69120216 C157.38375325 125.68106958 151.37057741 125.69046857 145.3573761 125.69674683 C135.25959353 125.70402245 125.16192801 125.69443767 115.06416321 125.67538452 C103.3926 125.65361604 91.7213163 125.66066746 80.04975986 125.68269014 C70.02578878 125.70084647 60.0019018 125.70340129 49.97791958 125.69293547 C43.9923488 125.68670186 38.00690937 125.68586139 32.02134705 125.69908142 C26.39386039 125.71064257 20.76673383 125.70260895 15.13928604 125.67950439 C13.07492801 125.67421878 11.01053963 125.67572854 8.9461937 125.68455505 C6.12630347 125.69549973 3.30756425 125.68175971 0.48774719 125.66183472 C-0.32753291 125.6707576 -1.14281301 125.67968049 -1.98279858 125.68887377 C-7.60680742 125.61189035 -10.86231971 124.3571494 -15.50712585 121.15390015 C-19.1138826 117.26239945 -20.62347694 114.29186549 -20.65429688 109.00588989 C-20.66145218 108.16205246 -20.66860748 107.31821503 -20.67597961 106.44880676 C-20.67866852 105.52616531 -20.68135742 104.60352386 -20.68412781 103.65292358 C-20.69069901 102.67861893 -20.6972702 101.70431427 -20.70404053 100.70048523 C-20.72377477 97.47141444 -20.7354365 94.24239016 -20.7454071 91.01327515 C-20.74948263 89.91047462 -20.75355816 88.8076741 -20.75775719 87.67145538 C-20.77861855 81.83438809 -20.79291995 75.99734431 -20.80229187 70.1602478 C-20.81335584 64.13322448 -20.84775578 58.10657039 -20.88746357 52.07967758 C-20.91361664 47.44364742 -20.92198257 42.80770541 -20.92557335 38.17160797 C-20.93044273 35.95008094 -20.94206666 33.72855793 -20.96061134 31.50710297 C-20.98497403 28.39525647 -20.98404268 25.28436762 -20.97709656 22.17245483 C-20.98990662 21.25791031 -21.00271667 20.34336578 -21.01591492 19.40110779 C-20.96771985 13.46598429 -19.94335525 10.02780778 -16.50712585 5.15390015 C-11.22115118 0.25470411 -6.95201867 0.0041881 0 0 Z M3.49287415 28.15390015 C2.88709751 31.30865409 2.88709751 31.30865409 2.97529602 34.87850952 C2.96828674 35.54566483 2.96127747 36.21282013 2.95405579 36.90019226 C2.93648784 39.09977157 2.94809262 41.29805836 2.96162415 43.49765015 C2.95892884 45.02935024 2.9550461 46.56104867 2.95002747 48.09274292 C2.94413411 51.30063185 2.95268958 54.50807483 2.97138977 57.71591187 C2.99417991 61.82536058 2.98105586 65.93376436 2.95709991 70.04317474 C2.94263715 73.20539201 2.94724997 76.36736203 2.95761108 79.52958679 C2.96027708 81.04463322 2.95701302 82.55970218 2.94769287 84.07472229 C2.93751854 86.19351547 2.95303684 88.31062299 2.97529602 90.42929077 C2.97847839 91.63412109 2.98166077 92.83895142 2.98493958 94.08029175 C3.59438301 97.76814955 4.51160646 98.95786296 7.49287415 101.15390015 C10.19594906 101.54008055 12.48281782 101.69264505 15.18037415 101.6499939 C16.28965271 101.65217674 16.28965271 101.65217674 17.42134094 101.65440369 C18.98135833 101.65274729 20.54139248 101.6412148 22.10127258 101.62045288 C24.48511879 101.59149436 26.86674012 101.59984808 29.25068665 101.61288452 C30.76892659 101.60664663 32.28715953 101.59825529 33.80537415 101.5874939 C34.87114685 101.59189735 34.87114685 101.59189735 35.95845032 101.59638977 C40.06073461 101.51843523 42.58149378 101.14500117 45.49287415 98.15390015 C46.58092561 95.79727755 46.58092561 95.79727755 46.49287415 93.15390015 C44.74173889 89.44128787 44.74173889 89.44128787 41.49287415 87.15390015 C39.67945572 87.06918651 37.86293254 87.04668931 36.04756165 87.0562439 C34.97119446 87.05946655 33.89482727 87.06268921 32.7858429 87.06600952 C31.09394836 87.07857788 31.09394836 87.07857788 29.36787415 87.09140015 C28.23221008 87.09591187 27.09654602 87.10042358 25.9264679 87.10507202 C23.11521776 87.116884 20.30407184 87.13335508 17.49287415 87.15390015 C17.50175659 86.4236261 17.51063904 85.69335205 17.51979065 84.94094849 C17.59997505 78.05512954 17.66085807 71.16938047 17.70012283 64.28321457 C17.72098827 60.74299943 17.74928541 57.20317041 17.79463196 53.66317749 C17.84645153 49.59233924 17.86582783 45.52190587 17.88349915 41.45077515 C17.90414429 40.18086731 17.92478943 38.91095947 17.94606018 37.60256958 C17.94651337 35.83118622 17.94651337 35.83118622 17.94697571 34.02401733 C17.95585815 32.98477112 17.9647406 31.9455249 17.97389221 30.87478638 C17.3655908 27.4339199 16.22925939 26.26325674 13.49287415 24.15390015 C8.54450051 23.32917121 6.52204522 24.23119075 3.49287415 28.15390015 Z M57.32991028 26.26242065 C55.1227825 29.7364213 54.98648135 31.70114899 54.97529602 35.79257202 C54.96828674 36.43875992 54.96127747 37.08494781 54.95405579 37.75071716 C54.93652867 39.87513906 54.94807779 41.99821601 54.96162415 44.12265015 C54.95892766 45.60568496 54.95504394 47.08871805 54.95002747 48.57174683 C54.94413965 51.67531212 54.95267158 54.77841597 54.97138977 57.88192749 C54.9941797 61.85337811 54.98105266 65.82374741 54.95709991 69.79515839 C54.94262207 72.85619199 54.94725685 75.91697066 54.95761108 78.97801208 C54.96027292 80.44199248 54.9570277 81.90599628 54.94769287 83.36994934 C54.9374935 85.41899615 54.95307116 87.46631004 54.97529602 89.51522827 C54.97847839 90.67929199 54.98166077 91.84335571 54.98493958 93.04269409 C55.60067499 96.81420299 56.78619414 98.49597258 59.49287415 101.15390015 C62.97075089 101.73354627 64.73524604 101.58390529 67.80537415 99.84140015 C70.99367809 96.6530962 70.62827354 93.19583642 70.65400696 88.9258728 C70.6636145 87.64088898 70.67322205 86.35590515 70.68312073 85.03198242 C70.68796862 83.62731097 70.69224747 82.22263745 70.69599915 80.81796265 C70.70175293 79.37691242 70.70751063 77.93586221 70.71327209 76.49481201 C70.72377343 73.47361902 70.72962181 70.45245257 70.73310852 67.4312439 C70.73859252 63.56532946 70.76262181 59.69976736 70.79108047 55.83396339 C70.80972981 52.85706567 70.81491366 49.88025244 70.8164444 46.90330124 C70.81946612 45.47837777 70.82747847 44.05345562 70.84062958 42.62858963 C70.85773664 40.63270315 70.85395828 38.63667096 70.84931946 36.64071655 C70.85296509 35.50615021 70.85661072 34.37158386 70.86036682 33.20263672 C70.44805576 29.78208473 69.53554368 27.9030911 67.49287415 25.15390015 C63.58648304 23.20070459 60.49381974 23.17814907 57.32991028 26.26242065 Z M84.61787415 25.34140015 C82.57953593 28.62538949 82.33280216 31.33838575 83.07374573 35.11325073 C83.40445068 36.20625488 83.73515564 37.29925903 84.07588196 38.42538452 C84.4466687 39.67017578 84.81745544 40.91496704 85.19947815 42.19747925 C85.61454074 43.54767291 86.03005892 44.89772659 86.44599915 46.24765015 C86.86703371 47.64075759 87.28724844 49.03411304 87.7066803 50.42770386 C88.58739093 53.34501789 89.47587174 56.25981105 90.37031555 59.17294312 C91.51374122 62.8981469 92.64096504 66.62800615 93.76279068 70.3597641 C94.62910014 73.23706534 95.50234851 76.11222255 96.37784576 78.98674011 C96.79580323 80.36086609 97.21200856 81.73552631 97.62639618 83.11073303 C98.20823984 85.03669074 98.80006861 86.95962325 99.39228821 88.88241577 C99.72617554 89.97541992 100.06006287 91.06842407 100.40406799 92.19454956 C101.49588622 95.16208689 102.63629232 97.59366656 104.49287415 100.15390015 C107.84880277 101.49050159 107.84880277 101.49050159 111.49287415 101.15390015 C115.56603624 97.81336014 117.3099896 94.89591561 118.82051086 89.89828491 C119.20375519 88.65672134 119.58699951 87.41515778 119.9818573 86.13597107 C120.37948184 84.78929614 120.77636548 83.44240225 121.17256165 82.0953064 C121.59276954 80.70404042 122.01402074 79.31308917 122.43626404 77.92243958 C123.31532031 75.01451279 124.1830854 72.10352639 125.04267883 69.18978882 C126.1426791 65.46373517 127.26828702 61.74602527 128.40218925 58.03016758 C129.27481938 55.16163019 130.13482045 52.28942748 130.99098587 49.41593742 C131.40122952 48.04379001 131.81509547 46.67272 132.23270798 45.30279732 C132.8149463 43.3852841 133.37865995 41.46217581 133.94160461 39.53890991 C134.26627716 38.44812637 134.59094971 37.35734283 134.92546082 36.23350525 C135.66622796 32.21303169 135.52741635 28.78738784 133.30537415 25.27890015 C130.58115071 23.58800284 128.63354316 23.76932843 125.49287415 24.15390015 C123.04258683 25.32617924 121.79292297 26.48109245 120.68147278 28.97332764 C119.87016426 31.36390667 119.1610513 33.76672875 118.47724915 36.1968689 C118.2165564 37.08046585 117.95586365 37.96406281 117.68727112 38.87443542 C116.85902336 41.69302849 116.05076278 44.51691198 115.24287415 47.34140015 C114.6842865 49.25519392 114.12440576 51.16861078 113.56318665 53.08163452 C112.19138174 57.76815077 110.83747173 62.459509 109.49287415 67.15390015 C107.56194296 62.13816764 105.84086897 57.16068929 104.3717804 51.9859314 C103.99013329 50.66742303 103.60795632 49.34906794 103.22529602 48.03085327 C102.63646166 45.99170978 102.0512502 43.95177984 101.47505188 41.9090271 C100.90956814 39.9106023 100.32937378 37.91692524 99.7467804 35.9234314 C99.40977112 34.74369751 99.07276184 33.56396362 98.72554016 32.34848022 C97.41496266 28.95198457 96.04723288 26.74061149 93.49287415 24.15390015 C89.97183289 23.65971892 87.67999344 23.40205793 84.61787415 25.34140015 Z M146.49287415 28.15390015 C145.88709751 31.30865409 145.88709751 31.30865409 145.97529602 34.87850952 C145.96828674 35.54566483 145.96127747 36.21282013 145.95405579 36.90019226 C145.93648784 39.09977157 145.94809262 41.29805836 145.96162415 43.49765015 C145.95892884 45.02935024 145.9550461 46.56104867 145.95002747 48.09274292 C145.94413411 51.30063185 145.95268958 54.50807483 145.97138977 57.71591187 C145.99417991 61.82536058 145.98105586 65.93376436 145.95709991 70.04317474 C145.94263715 73.20539201 145.94724997 76.36736203 145.95761108 79.52958679 C145.96027708 81.04463322 145.95701302 82.55970218 145.94769287 84.07472229 C145.93751854 86.19351547 145.95303684 88.31062299 145.97529602 90.42929077 C145.97847839 91.63412109 145.98166077 92.83895142 145.98493958 94.08029175 C146.59629635 97.77972751 147.48395453 98.96915154 150.49287415 101.15390015 C152.46280203 101.75344317 152.46280203 101.75344317 154.55537415 101.68734741 C155.34299133 101.70318375 156.13060852 101.71902008 156.9420929 101.7353363 C157.78385071 101.73037643 158.62560852 101.72541656 159.49287415 101.7203064 C160.36556946 101.72650497 161.23826477 101.73270355 162.1374054 101.73908997 C163.97984198 101.74618402 165.82234271 101.7430213 167.66474915 101.73031616 C170.48365654 101.7164455 173.2992469 101.75052967 176.11787415 101.78866577 C177.90954162 101.78961695 179.70121326 101.78775819 181.49287415 101.7828064 C182.75551086 101.80269371 182.75551086 101.80269371 184.0436554 101.82298279 C188.22022891 101.75652225 189.87607311 101.7181062 193.05537415 98.80990601 C194.74078229 96.19919475 194.74078229 96.19919475 194.49287415 93.02890015 C193.31309267 89.63702842 192.57832133 88.90519486 189.49287415 87.15390015 C186.29956942 86.74092861 186.29956942 86.74092861 182.75849915 86.8609314 C180.81523743 86.87543335 180.81523743 86.87543335 178.8327179 86.89022827 C177.4694306 86.91529231 176.10614935 86.94068713 174.74287415 86.96640015 C173.3639823 86.98145496 171.9850748 86.99514198 170.6061554 87.00741577 C167.23489351 87.04277866 163.86383429 87.09658533 160.49287415 87.15390015 C160.49287415 80.22390015 160.49287415 73.29390015 160.49287415 66.15390015 C163.02201477 66.18870483 163.02201477 66.18870483 165.60224915 66.22421265 C167.81578639 66.24297144 170.02932841 66.26117152 172.24287415 66.27890015 C173.35404602 66.29565796 174.4652179 66.31241577 175.61006165 66.3296814 C176.67998352 66.33612671 177.7499054 66.34257202 178.85224915 66.34921265 C179.83677063 66.35968628 180.82129211 66.37015991 181.83564758 66.38095093 C184.58718228 66.14584184 186.17829715 65.62746625 188.49287415 64.15390015 C190.23110616 61.75348451 190.52267409 60.56116602 190.30537415 57.59140015 C189.43036313 54.9663671 188.63123244 53.86458678 186.49287415 52.15390015 C183.88336179 50.84914397 181.9658613 51.04088442 179.04756165 51.0562439 C177.97119446 51.05946655 176.89482727 51.06268921 175.7858429 51.06600952 C174.09394836 51.07857788 174.09394836 51.07857788 172.36787415 51.09140015 C171.23221008 51.09591187 170.09654602 51.10042358 168.9264679 51.10507202 C166.11524768 51.11688387 163.30405443 51.13481974 160.49287415 51.15390015 C160.49287415 46.86390015 160.49287415 42.57390015 160.49287415 38.15390015 C163.65429993 38.24091187 163.65429993 38.24091187 166.8795929 38.3296814 C168.93155661 38.36872757 170.98347822 38.3990569 173.03559875 38.42855835 C174.45668705 38.45363162 175.87764728 38.48770013 177.29829407 38.53109741 C179.34654876 38.59207873 181.39309298 38.62017777 183.4420929 38.6421814 C185.28807068 38.68145752 185.28807068 38.68145752 187.17134094 38.7215271 C191.40777235 37.9975504 192.85257727 36.46881303 195.49287415 33.15390015 C196.24308659 30.61022347 196.24308659 30.61022347 195.49287415 28.15390015 C193.83073956 25.7396886 192.51259018 24.35338161 189.57344055 23.77841187 C187.13181554 23.62317637 184.72063289 23.59971306 182.27412415 23.62265015 C181.37923279 23.61882324 180.48434143 23.61499634 179.56233215 23.61105347 C177.67279432 23.60833494 175.78321883 23.61569199 173.89375305 23.63241577 C171.00276225 23.65382691 168.11425648 23.63261281 165.2233429 23.60702515 C163.38609783 23.60966843 161.54885431 23.61479343 159.71162415 23.62265015 C158.84799255 23.61455322 157.98436096 23.6064563 157.09455872 23.59811401 C156.28692078 23.61072266 155.47928284 23.6233313 154.64717102 23.63632202 C153.58605103 23.64109558 153.58605103 23.64109558 152.50349426 23.64596558 C149.48653524 24.40812735 148.33592259 25.67120398 146.49287415 28.15390015 Z " fill="#ffaa00" transform="translate(28.507125854492188,130.84609985351563)"/>
<path d="M0 0 C2.954343 2.51119155 3.87804043 4.00941731 4.3515625 7.85546875 C3.9038955 11.85960138 2.57637828 13.24094712 -0.125 16.1875 C-13.19009374 31.34464957 -17.43454597 48.41668856 -16 68 C-14.17334656 81.21724844 -8.17538893 91.82938066 0.265625 101.90625 C2.4838537 104.58411168 3.90749629 106.39211849 4.4375 109.875 C4 113 4 113 1.9375 115.875 C-1 118 -1 118 -4.5 118.625 C-9.00204017 117.82106426 -10.08786921 116.49455694 -13 113 C-13.54527344 112.41863281 -14.09054688 111.83726563 -14.65234375 111.23828125 C-28.27349291 96.54413128 -34.9146015 76.10302149 -34.28515625 56.15234375 C-32.3909496 35.21227851 -25.44451962 15.93695325 -10 1 C-6.78447181 -0.60776409 -3.47794 -0.60485913 0 0 Z " fill="#ffaa00" transform="translate(81,0)"/>
<path d="M0 0 C9.09139295 2.60447378 14.415388 13.98956206 18.96484375 21.58203125 C28.77478065 39.76145863 30.5998972 61.82442973 25.15625 81.65625 C21.02018243 95.36740867 13.56633428 110.56084857 1.1953125 118.62890625 C-1.8671875 119.25390625 -1.8671875 119.25390625 -4.8046875 118.62890625 C-7.6796875 116.56640625 -7.6796875 116.56640625 -9.8046875 113.62890625 C-10.33441778 109.40096553 -10.30935717 107.36103267 -7.86328125 103.8125 C-6.99832031 102.90628906 -6.13335937 102.00007813 -5.2421875 101.06640625 C6.17604438 88.35087836 11.17396153 72.76830648 10.5390625 55.74609375 C9.46886159 39.65485864 2.94009709 26.00148149 -8.08203125 14.26171875 C-10.31772506 10.84480804 -10.22290959 8.63725956 -9.8046875 4.62890625 C-7.30077704 0.56005175 -4.66391287 0.16049903 0 0 Z " fill="#ffaa00" transform="translate(180.8046875,-0.62890625)"/>
<path d="M0 0 C6.54483156 1.69262885 9.70650553 6.96847255 13.203125 12.4296875 C20.04479872 24.49659554 20.99502653 37.60391679 17.625 50.9375 C15.08483552 59.57405923 10.39446081 67.99053862 2.625 72.9375 C-1.33768075 73.43283509 -3.45101619 73.59401481 -6.75 71.25 C-8.61188689 68.60039173 -9.29778899 67.18036253 -9.375 63.9375 C-8.10032691 60.71727324 -6.69705342 58.31149752 -4.4375 55.6875 C1.23456501 48.12474665 2.63234547 40.23026198 1.625 30.9375 C0.43975581 24.31283158 -2.63364298 20.13274425 -6.84375 15.00390625 C-8.86571039 12.27529134 -9.52947228 10.33589012 -9.375 6.9375 C-7.28281328 2.33468921 -5.30981481 -0.0983299 0 0 Z " fill="#ffaa00" transform="translate(162.375,22.0625)"/>
<path d="M0 0 C2.63710664 2.21176686 2.95085167 3.75425836 3.625 7.125 C2.8341797 12.02808586 0.66984185 14.61113965 -2.2421875 18.54296875 C-7.62620388 26.0686272 -7.9288022 33.91026159 -7 43 C-5.63299088 48.18227751 -3.10608344 51.95090014 0.25 56.0625 C2.42530573 58.82856135 3.45477696 60.70805126 3.625 64.25 C3 68 3 68 1.5 70.5 C-1.2679061 72.16074366 -3.52255358 72.93802882 -6.78125 72.76171875 C-12.75900737 70.70949571 -16.56145616 64.46856916 -19.609375 59.23828125 C-25.57083251 46.94715856 -26.67059723 34.15382012 -23.046875 20.9921875 C-20.26831717 13.05048863 -15.91678808 4.76953753 -9.125 -0.4375 C-5.80197473 -1.31712433 -3.30080822 -0.84020573 0 0 Z " fill="#ffaa00" transform="translate(99,23)"/>
<path d="M0 0 C4.33411938 2.92081959 7.92943998 6.01151705 9.578125 11.11328125 C10.43642823 16.51499398 9.740795 21.2396432 6.875 25.9375 C3.86992389 29.15836615 0.74041655 31.76715508 -3.734375 32.17578125 C-14.27381343 32.42484758 -14.27381343 32.42484758 -19.125 27.9375 C-22.97896449 23.77105191 -23.90738331 21.20071362 -24.4375 15.6875 C-24.05009604 11.03865244 -22.82520218 7.73594955 -20.125 3.9375 C-13.8902778 -1.02482991 -7.59606605 -2.58266246 0 0 Z " fill="#ffaa00" transform="translate(135.125,43.0625)"/>
</svg>
