<?xml version="1.0" encoding="UTF-8"?>
<svg version="1.1" xmlns="http://www.w3.org/2000/svg" width="512" height="512">
<path d="M0 0 C1.6406543 -0.05607422 1.6406543 -0.05607422 3.31445312 -0.11328125 C4.37212891 -0.12488281 5.42980469 -0.13648438 6.51953125 -0.1484375 C7.48608643 -0.16825684 8.4526416 -0.18807617 9.44848633 -0.20849609 C14.37412656 0.84082026 16.54946104 4.41116043 19.22045898 8.44604492 C19.86829346 9.57115479 20.51612793 10.69626465 21.18359375 11.85546875 C21.53962173 12.46836258 21.89564972 13.08125641 22.26246643 13.71272278 C23.39070602 15.65848386 24.5081209 17.61020018 25.625 19.5625 C26.73749422 21.48980601 27.85217846 23.41583361 28.96699524 25.34179688 C29.69064188 26.59384242 30.4124963 27.84692566 31.13249207 29.10107422 C33.6959321 33.56113575 36.35545731 37.95262558 39.09667969 42.30541992 C41.09693475 46.10044278 41.07761796 48.12982204 40.1875 52.375 C37.74429832 56.11684042 34.69734834 59.27876677 31.08203125 61.90368652 C27.25909143 64.90291012 25.42653546 67.19333958 24.44921875 72.0246582 C24.06319436 76.60728328 24.13013057 81.18687252 24.1875 85.78125 C24.17997352 87.4737738 24.16893256 89.1662853 24.15454102 90.85876465 C24.12621326 95.29135552 24.14532598 99.7224947 24.17462158 104.1550293 C24.19607835 108.68678061 24.17225477 113.21827504 24.15234375 117.75 C24.11997033 126.62532681 24.13775744 135.49977987 24.1875 144.375 C25.00734375 144.32859375 25.8271875 144.2821875 26.671875 144.234375 C27.74953125 144.19828125 28.8271875 144.1621875 29.9375 144.125 C31.00484375 144.07859375 32.0721875 144.0321875 33.171875 143.984375 C36.1875 144.375 36.1875 144.375 38.54974365 146.20159912 C40.80127048 149.18951023 40.64560411 151.17927375 40.578125 154.890625 C40.55878906 156.76621094 40.55878906 156.76621094 40.5390625 158.6796875 C40.48878906 160.63261719 40.48878906 160.63261719 40.4375 162.625 C40.41945313 163.94242188 40.40140625 165.25984375 40.3828125 166.6171875 C40.33566882 169.87010156 40.26392616 173.12264217 40.1875 176.375 C46.1275 176.375 52.0675 176.375 58.1875 176.375 C58.8475 174.725 59.5075 173.075 60.1875 171.375 C61.22439272 169.43503488 62.29541548 167.51311842 63.390625 165.60546875 C64.35633423 163.9188916 64.35633423 163.9188916 65.34155273 162.19824219 C66.04009338 160.98626562 66.73874512 159.77435307 67.4375 158.5625 C68.15783127 157.30773072 68.87796221 156.05284642 69.59790039 154.79785156 C74.23757863 146.7192027 78.9225539 138.66727006 83.625 130.625 C87.60995371 123.80687492 91.59413506 116.98883633 95.5 110.125 C95.86730225 109.48723633 96.23460449 108.84947266 96.61303711 108.19238281 C99.96504231 102.25907997 100.92696589 97.19345174 100.1875 90.375 C99.55160218 88.13686184 98.88122339 85.90839539 98.1875 83.6875 C93.28593662 67.26513156 94.99584762 49.04713153 102.6875 33.875 C110.94202704 18.650931 123.87035501 8.2465333 140.1875 2.375 C152.91890685 -1.3249559 169.8975051 -1.92517146 182.1875 3.375 C182.79255371 3.63313477 183.39760742 3.89126953 184.02099609 4.15722656 C201.95895055 11.98044456 213.86030928 24.08677068 221.21484375 42.328125 C226.96016834 60.32552734 225.47048413 79.13079662 217.125 96.0625 C206.99447365 113.60770946 191.99534405 122.98587516 172.65625 128.35546875 C171.5321875 128.67128906 170.408125 128.98710937 169.25 129.3125 C167.75146484 129.69728516 167.75146484 129.69728516 166.22265625 130.08984375 C156.76481527 134.09451516 152.82697278 142.50936904 148.125 151.125 C147.09527916 152.98058955 146.06165066 154.83395964 145.02748108 156.68707275 C144.08756017 158.37616276 143.15662617 160.07024478 142.22631836 161.76464844 C139.66416274 166.37025293 136.91633689 170.86693275 134.1875 175.375 C134.85291306 175.37642502 135.51832611 175.37785004 136.2039032 175.37931824 C143.13106481 175.39900806 150.05734441 175.45326709 156.98413086 175.52758789 C159.56902742 175.55078173 162.15401867 175.56516681 164.73901367 175.57055664 C168.45551663 175.57983541 172.17052729 175.62080709 175.88671875 175.66796875 C177.04209641 175.6640361 178.19747406 175.66010345 179.38786316 175.65605164 C187.41694193 175.80198455 187.41694193 175.80198455 191.23779297 178.64331055 C191.88119629 179.54476807 192.52459961 180.44622559 193.1875 181.375 C194.08553345 182.46095459 194.08553345 182.46095459 195.00170898 183.56884766 C195.55673096 184.30151855 196.11175293 185.03418945 196.68359375 185.7890625 C197.31716797 186.62244141 197.95074219 187.45582031 198.60351562 188.31445312 C199.27060547 189.20068359 199.93769531 190.08691406 200.625 191 C201.32947266 191.93005859 202.03394531 192.86011719 202.75976562 193.81835938 C207.85370888 200.55993926 212.87659999 207.35222014 217.86767578 214.17016602 C223.1880644 221.42157408 228.6417054 228.56893646 234.12304688 235.69921875 C234.76951172 236.54226562 235.41597656 237.3853125 236.08203125 238.25390625 C236.65800049 239.0022876 237.23396973 239.75066895 237.82739258 240.52172852 C240.21753664 243.77851969 240.39149043 246.28186084 240.61328125 250.3046875 C239.95376864 253.51149193 238.84346737 254.43871572 236.1875 256.375 C232.84807439 256.94043021 229.55023292 256.83968169 226.171875 256.765625 C225.20090881 256.75996521 224.22994263 256.75430542 223.22955322 256.74847412 C220.13169831 256.72610311 217.03500467 256.67590473 213.9375 256.625 C211.83595422 256.60493597 209.73439028 256.58668503 207.6328125 256.5703125 C202.4835689 256.52963917 197.33683249 256.45134925 192.1875 256.375 C192.1875 266.935 192.1875 277.495 192.1875 288.375 C194.4975 289.035 196.8075 289.695 199.1875 290.375 C202.06176758 292.64990234 202.06176758 292.64990234 204.83203125 295.4609375 C205.3278923 295.95912994 205.82375336 296.45732239 206.3346405 296.97061157 C207.37316436 298.01882038 208.40568635 299.07300688 209.43237305 300.1328125 C211.00075655 301.75078047 212.58720321 303.34914028 214.17773438 304.9453125 C223.21474472 314.10821092 223.21474472 314.10821092 224.1875 317.375 C224.07800675 321.42710999 223.7452302 323.66450023 221.22216797 326.87866211 C220.38314941 327.62897705 219.54413086 328.37929199 218.6796875 329.15234375 C217.32423828 330.41788086 217.32423828 330.41788086 215.94140625 331.70898438 C214.01977154 333.44679921 212.09265582 335.17857216 210.16015625 336.90429688 C205.25266471 341.10679203 205.25266471 341.10679203 202.79394531 346.78564453 C203.02628814 349.23760996 203.02628814 349.23760996 204.1875 352.375 C205.13592773 352.35405273 206.08435547 352.33310547 207.06152344 352.31152344 C210.58766425 352.2432644 214.11310099 352.19316071 217.63964844 352.15527344 C219.16450085 352.13518401 220.68927648 352.10790684 222.21386719 352.07324219 C224.40839598 352.02460204 226.60190469 352.00200604 228.796875 351.984375 C230.11655273 351.96342773 231.43623047 351.94248047 232.79589844 351.92089844 C236.1875 352.375 236.1875 352.375 238.61621094 353.83691406 C240.95766142 357.61903326 240.76077435 361.00613969 240.71875 365.375 C240.7225769 366.24769531 240.72640381 367.12039063 240.73034668 368.01953125 C240.7330649 369.86199092 240.72570994 371.70448924 240.70898438 373.546875 C240.68757248 376.36545934 240.70878801 379.18149485 240.734375 382 C240.73173171 383.79167229 240.72660669 385.58334299 240.71875 387.375 C240.72684692 388.21675781 240.73494385 389.05851562 240.74328613 389.92578125 C240.68486294 393.57527093 240.56415961 395.76658587 238.61621094 398.91308594 C235.22678916 400.95328071 232.73781481 400.8281796 228.796875 400.765625 C228.09226135 400.75996521 227.38764771 400.75430542 226.66168213 400.74847412 C224.41958572 400.72615078 222.17911012 400.67596754 219.9375 400.625 C218.41408565 400.60492952 216.89064614 400.5866797 215.3671875 400.5703125 C211.6401017 400.52630118 207.91395913 400.45730372 204.1875 400.375 C203.12705139 403.57488515 202.65560813 405.11699732 203.1875 408.375 C206.00744189 412.22044577 209.51542222 415.26995477 213.0625 418.4375 C214.94826896 420.14287994 216.82126808 421.86251286 218.6796875 423.59765625 C219.51870605 424.34797119 220.35772461 425.09828613 221.22216797 425.87133789 C223.79878199 429.1537201 224.22441986 431.21470026 224.1875 435.375 C221.90603167 439.7266896 218.79729337 443.02148329 215.34375 446.484375 C214.42722656 447.40347656 213.51070313 448.32257813 212.56640625 449.26953125 C212.09348145 449.7382666 211.62055664 450.20700195 211.13330078 450.68994141 C209.68412672 452.12834822 208.24600827 453.57719574 206.80859375 455.02734375 C205.89207031 455.94128906 204.97554688 456.85523438 204.03125 457.796875 C203.19787109 458.62799805 202.36449219 459.45912109 201.50585938 460.31542969 C198.00511987 463.42539583 196.50592307 464.41062549 191.73608398 464.28173828 C187.60592427 463.2263951 186.22328236 462.01288656 183.41015625 458.8671875 C182.14461914 457.51173828 182.14461914 457.51173828 180.85351562 456.12890625 C179.11570079 454.20727154 177.38392784 452.28015582 175.65820312 450.34765625 C171.45570797 445.44016471 171.45570797 445.44016471 165.77685547 442.98144531 C163.32489004 443.21378814 163.32489004 443.21378814 160.1875 444.375 C160.20844727 445.32342773 160.22939453 446.27185547 160.25097656 447.24902344 C160.3192356 450.77516425 160.36933929 454.30060099 160.40722656 457.82714844 C160.42731599 459.35200085 160.45459316 460.87677648 160.48925781 462.40136719 C160.53789796 464.59589598 160.56049396 466.78940469 160.578125 468.984375 C160.59907227 470.30405273 160.62001953 471.62373047 160.64160156 472.98339844 C160.1875 476.375 160.1875 476.375 158.72558594 478.80371094 C154.94346674 481.14516142 151.55636031 480.94827435 147.1875 480.90625 C146.31480469 480.9100769 145.44210937 480.91390381 144.54296875 480.91784668 C142.70050908 480.9205649 140.85801076 480.91320994 139.015625 480.89648438 C136.19704066 480.87507248 133.38100515 480.89628801 130.5625 480.921875 C128.77082771 480.91923171 126.97915701 480.91410669 125.1875 480.90625 C124.34574219 480.91434692 123.50398438 480.92244385 122.63671875 480.93078613 C118.98722907 480.87236294 116.79591413 480.75165961 113.64941406 478.80371094 C111.60921929 475.41428916 111.7343204 472.92531481 111.796875 468.984375 C111.80253479 468.27976135 111.80819458 467.57514771 111.81402588 466.84918213 C111.83634922 464.60708572 111.88653246 462.36661012 111.9375 460.125 C111.95757048 458.60158565 111.9758203 457.07814614 111.9921875 455.5546875 C112.03619882 451.8276017 112.10519628 448.10145913 112.1875 444.375 C108.98761485 443.31455139 107.44550268 442.84310813 104.1875 443.375 C100.34205423 446.19494189 97.29254523 449.70292222 94.125 453.25 C92.41962006 455.13576896 90.69998714 457.00876808 88.96484375 458.8671875 C88.21452881 459.70620605 87.46421387 460.54522461 86.69116211 461.40966797 C83.4087799 463.98628199 81.34779974 464.41191986 77.1875 464.375 C72.50585366 461.78751001 70.2345264 459.09048568 67.30807495 454.70481873 C62.99542587 449.90594856 59.93339372 448.66228608 53.53461576 448.14692318 C48.10380063 447.95388981 42.69073878 448.00896066 37.25830078 448.09790039 C34.81013999 448.097689 32.36197547 448.09257726 29.91383362 448.08294678 C24.65492254 448.07280818 19.39728151 448.0958605 14.13867569 448.1490345 C6.53151957 448.22554522 -1.07468357 448.23707486 -8.68217303 448.23237663 C-21.03220969 448.22612564 -33.38163073 448.26587676 -45.73144531 448.33764648 C-57.71287042 448.40712223 -69.69420098 448.46482383 -81.67578125 448.49975586 C-82.4146543 448.50192043 -83.15352735 448.50408501 -83.9147905 448.50631518 C-91.98004187 448.52942662 -100.04528957 448.54716386 -108.11056709 448.55782986 C-108.81912329 448.55877414 -109.5276795 448.55971841 -110.2577071 448.56069131 C-113.08991887 448.5643756 -115.92213045 448.56797446 -118.75434317 448.57085448 C-127.04482115 448.5793798 -135.33483311 448.60476766 -143.62513383 448.66068202 C-149.43308812 448.69933107 -155.24098138 448.71929456 -161.04904366 448.73260498 C-163.43399444 448.74167608 -165.81893009 448.75772689 -168.20378304 448.78115654 C-171.45134567 448.81229382 -174.69807984 448.81912821 -177.94577026 448.81996155 C-178.89614383 448.83522528 -179.84651739 448.85048902 -180.82569015 448.86621529 C-184.65061357 448.84569086 -187.07912542 448.81494163 -190.39910698 446.82332897 C-192.3299291 443.47869116 -192.35431777 440.51311397 -192.29351807 436.7567749 C-192.29693577 435.98564936 -192.30035347 435.21452382 -192.30387473 434.42003083 C-192.31046771 431.83400533 -192.28845497 429.24901593 -192.26660156 426.66308594 C-192.26547339 424.81030298 -192.26610636 422.95751824 -192.26837158 421.10473633 C-192.26952083 416.07191965 -192.24597739 411.03948309 -192.21807575 406.00675488 C-192.1930972 400.74835822 -192.1907229 395.48995318 -192.18597412 390.23150635 C-192.17353392 380.27258537 -192.14069813 370.3138397 -192.10057616 360.35499597 C-192.05589098 349.01777968 -192.03387959 337.68055509 -192.01379442 326.34327269 C-191.97196646 303.02041787 -191.90159406 279.69771875 -191.8125 256.375 C-193.12444336 256.39594727 -194.43638672 256.41689453 -195.78808594 256.43847656 C-200.65581344 256.5108797 -205.52349335 256.55680113 -210.39160156 256.59472656 C-212.49845382 256.61484126 -214.60525025 256.64213667 -216.71191406 256.67675781 C-219.74037447 256.72528168 -222.76809678 256.74797016 -225.796875 256.765625 C-227.20957672 256.79659271 -227.20957672 256.79659271 -228.65081787 256.82818604 C-235.15532919 256.83041763 -235.15532919 256.83041763 -238.39941406 254.58227539 C-240.10639361 251.91593087 -240.49515246 249.70883582 -240.3203125 246.55224609 C-239.31275878 242.23235953 -236.53539873 239.09402011 -233.8125 235.6875 C-233.18601563 234.87152344 -232.55953125 234.05554688 -231.9140625 233.21484375 C-230.57824727 231.47775596 -229.23425786 229.74692823 -227.8828125 228.02197266 C-225.16065907 224.54159677 -222.48765002 221.02498722 -219.81396484 217.50732422 C-218.47822263 215.75055762 -217.13999853 213.99567538 -215.79931641 212.24267578 C-210.0735574 204.75343306 -204.46969802 197.17878603 -198.8984375 189.57421875 C-198.38893555 188.88118652 -197.87943359 188.1881543 -197.35449219 187.47412109 C-196.28360374 186.0163157 -195.21683503 184.5554786 -194.15332031 183.09228516 C-193.62061523 182.36702637 -193.08791016 181.64176758 -192.5390625 180.89453125 C-192.06291504 180.24202393 -191.58676758 179.5895166 -191.09619141 178.91723633 C-189.8125 177.375 -189.8125 177.375 -187.8125 176.375 C-185.84215512 176.25483328 -183.86785064 176.19764667 -181.89404297 176.16967773 C-180.65290741 176.14973251 -179.41177185 176.12978729 -178.13302612 176.10923767 C-176.7735812 176.0922534 -175.41413495 176.07537459 -174.0546875 176.05859375 C-172.66748433 176.03802419 -171.28028743 176.01702772 -169.89309692 175.99562073 C-166.24022495 175.94040019 -162.58729641 175.89099089 -158.93432617 175.84277344 C-155.20746826 175.79255825 -151.48069259 175.73687229 -147.75390625 175.68164062 C-140.44017379 175.57405929 -133.12637299 175.47261432 -125.8125 175.375 C-127.817209 171.87168886 -129.82544682 168.3704253 -131.83666992 164.87084961 C-132.51727853 163.68550563 -133.19699844 162.49965082 -133.87573242 161.31323242 C-142.21489152 143.93329699 -142.21489152 143.93329699 -156.74707031 132.78857422 C-158.80782038 132.36071086 -160.84870339 132.0682906 -162.9375 131.8125 C-178.4652724 129.47142608 -191.8166749 124.70848229 -203.8125 114.375 C-204.41835937 113.86453125 -205.02421875 113.3540625 -205.6484375 112.828125 C-217.12356984 102.3395425 -223.10770923 87.02235201 -224.75 71.8125 C-225.3879286 56.1735838 -221.73450682 39.8244156 -211.375 27.69140625 C-209.8125 26.375 -209.8125 26.375 -206.4375 25.9375 C-202.13473397 26.45679935 -200.93368004 27.44238429 -197.8125 30.375 C-195.87133789 33.24072266 -195.87133789 33.24072266 -194.03515625 36.5390625 C-193.70132431 37.13117523 -193.36749237 37.72328796 -193.02354431 38.33334351 C-191.96417315 40.2169072 -190.91920671 42.10799515 -189.875 44 C-188.83440294 45.86314118 -187.79086929 47.72461323 -186.74691772 49.58587646 C-186.06802426 50.79762129 -185.3909383 52.01038069 -184.71572876 53.22418213 C-182.20691696 57.72296018 -179.56978423 62.12893762 -176.84155273 66.49755859 C-175.8125 68.375 -175.8125 68.375 -175.8125 70.375 C-169.5425 70.375 -163.2725 70.375 -156.8125 70.375 C-155.61625 68.18875 -154.42 66.0025 -153.1875 63.75 C-152.80384277 63.07372559 -152.42018555 62.39745117 -152.02490234 61.70068359 C-150.41686975 58.62347358 -149.67522594 56.92611911 -150.52490234 53.51489258 C-151.83273538 50.32565468 -153.33382358 47.46033234 -155.078125 44.48828125 C-155.72136719 43.38419922 -156.36460937 42.28011719 -157.02734375 41.14257812 C-157.70544552 39.99071839 -158.3838321 38.83902627 -159.0625 37.6875 C-161.65658216 33.25615533 -164.2377452 28.81759548 -166.8125 24.375 C-167.41384766 23.36099121 -168.01519531 22.34698242 -168.63476562 21.30224609 C-169.18326172 20.35043457 -169.73175781 19.39862305 -170.296875 18.41796875 C-170.78381836 17.58676514 -171.27076172 16.75556152 -171.77246094 15.89916992 C-173.02992134 12.84731943 -173.13104291 10.64809122 -172.8125 7.375 C-170.84349953 4.49479208 -169.33798305 2.72656878 -165.84423828 1.92138672 C-163.498228 1.7330975 -161.22723531 1.73409216 -158.875 1.8125 C-157.61018799 1.83848267 -157.61018799 1.83848267 -156.31982422 1.86499023 C-138.42612468 2.53205758 -122.98391812 10.38435182 -110.8125 23.375 C-100.49781426 35.76043704 -95.21154632 50.63362464 -95.375 66.6875 C-95.37822266 67.68861816 -95.38144531 68.68973633 -95.38476562 69.72119141 C-95.51830256 76.8527543 -96.63455641 82.74141088 -98.90625 89.5078125 C-101.49588154 97.70087091 -99.27265113 103.81532198 -95.8125 111.375 C-93.85045112 115.07462607 -91.71891815 118.66093263 -89.5625 122.25 C-88.31511809 124.35600839 -87.06908139 126.46281399 -85.82421875 128.5703125 C-85.17243652 129.67149414 -84.5206543 130.77267578 -83.84912109 131.90722656 C-80.29277884 137.94224462 -76.83968234 144.03708163 -73.375 150.125 C-71.46879719 153.47338951 -69.56275027 156.82069358 -67.62573242 160.15136719 C-66.39487135 162.33963831 -65.23236923 164.56749572 -64.1340332 166.82519531 C-61.40850211 172.66531943 -61.40850211 172.66531943 -56.4831543 176.40722656 C-53.86416879 176.78111266 -51.51353274 176.78953208 -48.875 176.625 C-48.00037109 176.61855469 -47.12574219 176.61210937 -46.22460938 176.60546875 C-44.08598713 176.58209583 -41.94836997 176.48595428 -39.8125 176.375 C-39.83344727 175.54774414 -39.85439453 174.72048828 -39.87597656 173.86816406 C-39.95911619 170.1205663 -40.01115531 166.37316251 -40.0625 162.625 C-40.11277344 160.67207031 -40.11277344 160.67207031 -40.1640625 158.6796875 C-40.17695313 157.42929688 -40.18984375 156.17890625 -40.203125 154.890625 C-40.22407227 153.73852539 -40.24501953 152.58642578 -40.26660156 151.39941406 C-39.70023738 147.62730683 -38.80114665 146.68596371 -35.8125 144.375 C-32.796875 143.984375 -32.796875 143.984375 -29.5625 144.125 C-28.48484375 144.16109375 -27.4071875 144.1971875 -26.296875 144.234375 C-25.47703125 144.28078125 -24.6571875 144.3271875 -23.8125 144.375 C-23.61768094 134.70730244 -23.50035003 125.04250575 -23.47828102 115.37286186 C-23.465672 110.88106987 -23.42772909 106.39264756 -23.32910156 101.90185547 C-21.73983485 79.98995082 -21.73983485 79.98995082 -29.86849976 60.81350708 C-32.69179754 58.31200105 -35.58864372 56.33420216 -38.8125 54.375 C-40.41719846 51.16560308 -40.21241545 47.86206215 -39.8125 44.375 C-38.39477539 41.02685547 -38.39477539 41.02685547 -36.41015625 37.7421875 C-36.05416855 37.14302521 -35.69818085 36.54386292 -35.33140564 35.92654419 C-34.19539018 34.0241094 -33.03573165 32.13743163 -31.875 30.25 C-31.13060399 29.0087452 -30.38775373 27.76656204 -29.64648438 26.5234375 C-27.40563078 22.78392073 -25.11899721 19.07432684 -22.8125 15.375 C-22.40151062 14.71487915 -21.99052124 14.0547583 -21.56707764 13.37463379 C-20.34199224 11.41456843 -19.10847015 9.46013741 -17.87109375 7.5078125 C-17.49372574 6.90597137 -17.11635773 6.30413025 -16.72755432 5.68405151 C-12.36747057 -1.13103239 -7.58060006 0.09724385 0 0 Z M150.9375 51.375 C148.71 52.695 146.4825 54.015 144.1875 55.375 C144.1875 61.315 144.1875 67.255 144.1875 73.375 C146.37375 74.715625 148.56 76.05625 150.8125 77.4375 C151.48877441 77.86426025 152.16504883 78.29102051 152.86181641 78.73071289 C155.90953764 80.53317161 157.63811141 81.39321952 161.25 81.2734375 C169.53519203 78.74215457 169.53519203 78.74215457 176.1875 73.375 C177.70402168 67.5165811 176.86576802 61.30984521 176.1875 55.375 C173.94333701 54.03090238 171.69307204 52.69970104 169.4375 51.375 C168.80328125 50.9934375 168.1690625 50.611875 167.515625 50.21875 C160.69329891 46.23905978 157.3096705 47.54282693 150.9375 51.375 Z " fill="#231F1F" transform="translate(255.8125,15.625)"/>
<path d="M0 0 C0.33 0 0.66 0 1 0 C1 73.59 1 147.18 1 223 C-54.44 223 -109.88 223 -167 223 C-167 164.92 -167 106.84 -167 47 C-102.25 46.625 -102.25 46.625 -81.79394531 46.52197266 C-75.75057073 46.48207053 -75.75057073 46.48207053 -69.70721436 46.43954468 C-67.01234603 46.42184178 -64.31763396 46.40731208 -61.6227417 46.39730835 C-57.54427515 46.38195385 -53.46606423 46.35097069 -49.38769531 46.31884766 C-48.18420063 46.31667551 -46.98070595 46.31450336 -45.74074173 46.3122654 C-44.09515337 46.29553811 -44.09515337 46.29553811 -42.4163208 46.2784729 C-41.46134327 46.27294214 -40.50636574 46.26741138 -39.52244949 46.26171303 C-36.05126721 45.90156563 -33.85916875 44.94742984 -31.51464844 42.36206055 C-31.0509082 41.71019775 -30.58716797 41.05833496 -30.109375 40.38671875 C-29.57223877 39.64301025 -29.03510254 38.89930176 -28.48168945 38.13305664 C-27.91023193 37.32602295 -27.33877441 36.51898926 -26.75 35.6875 C-25.51081201 33.9701281 -24.26985533 32.25403134 -23.02734375 30.5390625 C-22.37620605 29.63833008 -21.72506836 28.73759766 -21.05419922 27.80957031 C-17.54328195 23.00761691 -13.92794598 18.2859719 -10.3125 13.5625 C-9.62961914 12.66942139 -8.94673828 11.77634277 -8.24316406 10.85620117 C-7.02523398 9.26367645 -5.80666471 7.67164013 -4.5871582 6.08032227 C-3.49156133 4.64429997 -2.41564816 3.19312059 -1.35620117 1.73022461 C-0.68488159 0.87376343 -0.68488159 0.87376343 0 0 Z " fill="#A87B4F" transform="translate(247,225)"/>
<path d="M0 0 C5.28 0 10.56 0 16 0 C16.04898438 1.97484375 16.09796875 3.9496875 16.1484375 5.984375 C16.22346811 8.57293092 16.29901581 11.16147189 16.375 13.75 C16.4059375 15.05195313 16.436875 16.35390625 16.46875 17.6953125 C16.50742187 18.94570313 16.54609375 20.19609375 16.5859375 21.484375 C16.6173584 22.63647461 16.6487793 23.78857422 16.68115234 24.97558594 C16.98966335 27.90195218 17.32709697 29.60254071 19 32 C21.47680336 33.21229953 23.79595116 34.20181774 26.375 35.125 C33.88719512 37.93127979 33.88719512 37.93127979 36.0390625 39.2421875 C39.34655547 40.52038199 41.82042275 40.38721694 45 39 C48.62299503 36.10628465 51.75844743 32.80511995 54.9375 29.4375 C55.81212891 28.53580078 56.68675781 27.63410156 57.58789062 26.70507812 C59.73943887 24.48298732 61.87572719 22.24812786 64 20 C68.52615993 23.67832017 72.39424999 27.41086363 76 32 C75.42967041 32.53890869 74.85934082 33.07781738 74.27172852 33.63305664 C71.68619985 36.0935429 69.12444082 38.57747235 66.5625 41.0625 C65.21575195 42.33383789 65.21575195 42.33383789 63.84179688 43.63085938 C58.79204145 48.51548594 58.79204145 48.51548594 55.73046875 54.71484375 C56.04465097 58.54422417 57.00690578 61.08021516 58.75 64.5 C59.306875 65.61890625 59.86375 66.7378125 60.4375 67.890625 C61.2109375 69.42976563 61.2109375 69.42976563 62 71 C62.59786779 72.41059432 63.18506621 73.82589606 63.75 75.25 C64.70390672 78.11411929 64.70390672 78.11411929 67 79 C69.17674783 79.15469367 71.3578348 79.25002106 73.5390625 79.31640625 C74.84101563 79.35830078 76.14296875 79.40019531 77.484375 79.44335938 C78.86458045 79.48317299 80.24478883 79.52288522 81.625 79.5625 C83.01303415 79.60569407 84.40105528 79.64930865 85.7890625 79.69335938 C89.19258129 79.79971934 92.596277 79.90038918 96 80 C96 85.28 96 90.56 96 96 C93.95296875 96.02578125 91.9059375 96.0515625 89.796875 96.078125 C87.80775005 96.11985489 85.81862535 96.16172403 83.82958984 96.20751953 C82.45048349 96.23569099 81.07121682 96.25692472 79.69189453 96.27099609 C77.70577051 96.29247545 75.72000091 96.34123132 73.734375 96.390625 C71.94338379 96.4220459 71.94338379 96.4220459 70.11621094 96.45410156 C66.41284276 97.10285832 65.27179482 98.06363035 63 101 C61.5253722 104.10755662 61.5253722 104.10755662 60.375 107.5 C58.08298829 113.8650771 58.08298829 113.8650771 56.7890625 115.96875 C55.49265496 119.30603674 55.59719777 121.78470042 57 125 C59.89371535 128.62299503 63.19488005 131.75844743 66.5625 134.9375 C67.46419922 135.81212891 68.36589844 136.68675781 69.29492188 137.58789062 C71.51701268 139.73943887 73.75187214 141.87572719 76 144 C72.32167983 148.52615993 68.58913637 152.39424999 64 156 C63.46109131 155.42967041 62.92218262 154.85934082 62.36694336 154.27172852 C59.9064571 151.68619985 57.42252765 149.12444082 54.9375 146.5625 C53.66616211 145.21575195 53.66616211 145.21575195 52.36914062 143.84179688 C47.47007004 138.76518631 47.47007004 138.76518631 41.21484375 135.765625 C37.80586145 136.01415348 35.65728627 136.634933 32.625 138.1875 C31.69171875 138.6515625 30.7584375 139.115625 29.796875 139.59375 C28.87390625 140.0578125 27.9509375 140.521875 27 141 C24.56691936 142.05291209 22.12555948 143.08272869 19.6796875 144.10546875 C17.81290439 144.89149185 17.81290439 144.89149185 17 147 C16.84530633 149.17674783 16.74997894 151.3578348 16.68359375 153.5390625 C16.64169922 154.84101563 16.59980469 156.14296875 16.55664062 157.484375 C16.51682701 158.86458045 16.47711478 160.24478883 16.4375 161.625 C16.39430593 163.01303415 16.35069135 164.40105528 16.30664062 165.7890625 C16.20028066 169.19258129 16.09961082 172.596277 16 176 C10.72 176 5.44 176 0 176 C-0.04898438 173.94136719 -0.09796875 171.88273438 -0.1484375 169.76171875 C-0.20406694 167.76601267 -0.25976377 165.77030783 -0.31738281 163.7746582 C-0.3556435 162.38868093 -0.39050156 161.00260535 -0.421875 159.61645508 C-0.46758699 157.6229836 -0.52658925 155.62983086 -0.5859375 153.63671875 C-0.63306885 151.83787231 -0.63306885 151.83787231 -0.68115234 150.00268555 C-0.78429494 146.82117294 -0.78429494 146.82117294 -3 144 C-5.89210497 142.64254093 -5.89210497 142.64254093 -9.25 141.5 C-12.68423357 140.26557503 -15.81791262 139.10486708 -18.984375 137.28125 C-23.11541345 135.52609377 -24.71337273 135.52940524 -29 137 C-32.61563338 139.90354335 -35.75800041 143.19440652 -38.9375 146.5625 C-39.81212891 147.46419922 -40.68675781 148.36589844 -41.58789062 149.29492188 C-43.73943887 151.51701268 -45.87572719 153.75187214 -48 156 C-52.52615993 152.32167983 -56.39424999 148.58913637 -60 144 C-59.42967041 143.46109131 -58.85934082 142.92218262 -58.27172852 142.36694336 C-55.68619985 139.9064571 -53.12444082 137.42252765 -50.5625 134.9375 C-49.66466797 134.08994141 -48.76683594 133.24238281 -47.84179688 132.36914062 C-42.76518631 127.47007004 -42.76518631 127.47007004 -39.765625 121.21484375 C-40.01415348 117.80586145 -40.634933 115.65728627 -42.1875 112.625 C-42.65285156 111.69171875 -43.11820312 110.7584375 -43.59765625 109.796875 C-44.29181641 108.41242188 -44.29181641 108.41242188 -45 107 C-46.02094647 104.56680354 -47.02332706 102.12783271 -48.0078125 99.6796875 C-48.95959751 97.64902829 -48.95959751 97.64902829 -52 97 C-54.13661258 96.84929203 -56.27712124 96.7514034 -58.41796875 96.68359375 C-59.67158203 96.64169922 -60.92519531 96.59980469 -62.21679688 96.55664062 C-63.52712891 96.51732422 -64.83746094 96.47800781 -66.1875 96.4375 C-67.52279978 96.39429008 -68.85808652 96.350675 -70.19335938 96.30664062 C-73.46211234 96.20043566 -76.73104223 96.09970215 -80 96 C-80 90.72 -80 85.44 -80 80 C-78.02515625 79.95101562 -76.0503125 79.90203125 -74.015625 79.8515625 C-71.42706908 79.77653189 -68.83852811 79.70098419 -66.25 79.625 C-64.94804687 79.5940625 -63.64609375 79.563125 -62.3046875 79.53125 C-61.05429687 79.49257813 -59.80390625 79.45390625 -58.515625 79.4140625 C-57.36352539 79.3826416 -56.21142578 79.3512207 -55.02441406 79.31884766 C-52.11017376 79.01161503 -50.40047718 78.64546306 -48 77 C-46.52804255 74.1250363 -46.52804255 74.1250363 -45.4375 70.75 C-44.22778459 67.30726893 -43.10580076 64.18412706 -41.28515625 61.015625 C-39.52469758 56.8847007 -39.52884877 55.28824933 -41 51 C-43.90354335 47.38436662 -47.19440652 44.24199959 -50.5625 41.0625 C-51.46419922 40.18787109 -52.36589844 39.31324219 -53.29492188 38.41210938 C-55.51701268 36.26056113 -57.75187214 34.12427281 -60 32 C-56.32167983 27.47384007 -52.58913637 23.60575001 -48 20 C-47.46109131 20.57032959 -46.92218262 21.14065918 -46.36694336 21.72827148 C-43.9064571 24.31380015 -41.42252765 26.87555918 -38.9375 29.4375 C-37.66616211 30.78424805 -37.66616211 30.78424805 -36.36914062 32.15820312 C-31.48451406 37.20795855 -31.48451406 37.20795855 -25.28515625 40.26953125 C-21.45577583 39.95534903 -18.91978484 38.99309422 -15.5 37.25 C-14.38109375 36.69183594 -13.2621875 36.13367188 -12.109375 35.55859375 C-10.57023437 34.78708984 -10.57023437 34.78708984 -9 34 C-7.58915681 33.42304923 -6.1737901 32.85671729 -4.75 32.3125 C-3.8425 31.879375 -2.935 31.44625 -2 31 C-0.8992924 27.6978772 -0.79372928 25.05916721 -0.68359375 21.58203125 C-0.64169922 20.32841797 -0.59980469 19.07480469 -0.55664062 17.78320312 C-0.51732422 16.47287109 -0.47800781 15.16253906 -0.4375 13.8125 C-0.39429008 12.47720022 -0.350675 11.14191348 -0.30664062 9.80664062 C-0.20043566 6.53788766 -0.09970215 3.26895777 0 0 Z " fill="#FC9611" transform="translate(384,304)"/>
<path d="M0 0 C3.18589529 3.18589529 5.83796782 5.90513563 8.49609375 9.4140625 C9.1307959 10.24905273 9.76549805 11.08404297 10.41943359 11.94433594 C11.41837646 13.27126465 11.41837646 13.27126465 12.4375 14.625 C13.13182129 15.54055664 13.82614258 16.45611328 14.54150391 17.39941406 C19.99644618 24.61237657 25.36660281 31.88734132 30.65795898 39.22119141 C31.20137939 39.96804199 31.7447998 40.71489258 32.3046875 41.484375 C32.77890137 42.14147461 33.25311523 42.79857422 33.74169922 43.47558594 C34.94257776 45.14008178 34.94257776 45.14008178 37 46 C38.73555183 46.1050016 40.47508932 46.14658282 42.21377563 46.15821838 C43.31877914 46.1680072 44.42378265 46.17779602 45.56227112 46.18788147 C47.38890541 46.19651466 47.38890541 46.19651466 49.25244141 46.20532227 C51.1694561 46.22017166 51.1694561 46.22017166 53.12519836 46.23532104 C56.63527845 46.26239875 60.14537201 46.28339276 63.65549898 46.30332303 C67.32173919 46.32516494 70.9879377 46.3525624 74.65414429 46.37937927 C81.59912607 46.42933048 88.54413097 46.47426028 95.48915803 46.51740164 C103.39476467 46.56675329 111.30032947 46.62167909 119.20589566 46.67708123 C135.47055856 46.79093854 151.73525978 46.89776939 168 47 C168.20365433 53.54649397 168.34327236 60.09216531 168.43945312 66.64111328 C168.47956512 68.86635867 168.53407093 71.09139477 168.60351562 73.31591797 C168.70111068 76.52363777 168.74604888 79.72856116 168.78125 82.9375 C168.82254028 83.92427734 168.86383057 84.91105469 168.90637207 85.92773438 C168.91008416 91.70473594 168.09113211 94.52999545 163.95117188 98.69140625 C162.6576381 99.82176928 161.34784507 100.93498175 160 102 C153.125 100.125 153.125 100.125 152 99 C151.86554446 96.74470221 151.79631961 94.48546655 151.75390625 92.2265625 C151.72096355 90.830723 151.68775198 89.43488982 151.65429688 88.0390625 C151.60689211 85.83142523 151.56247888 83.62381286 151.52319336 81.41601562 C151.48346305 79.29008733 151.43191592 77.16469531 151.37890625 75.0390625 C151.3538501 73.76240723 151.32879395 72.48575195 151.30297852 71.17041016 C151.23727323 67.84345995 151.23727323 67.84345995 149 65 C145.23399049 63.7446635 141.68008555 63.79883958 137.75390625 63.76171875 C136.94638412 63.753647 136.138862 63.74557526 135.30686951 63.73725891 C133.59970231 63.72343849 131.89250772 63.71270721 130.18530273 63.70483398 C127.57547911 63.68758578 124.96691125 63.64367944 122.35742188 63.59960938 C120.69792597 63.58948494 119.03841932 63.58096806 117.37890625 63.57421875 C116.20999596 63.54795662 116.20999596 63.54795662 115.01747131 63.52116394 C111.62669056 63.53473837 109.39370236 63.75005714 106.50341797 65.58496094 C104.45477351 68.87583313 104.53302495 71.20332421 104.56640625 75.06640625 C104.55680482 76.45247511 104.5470341 77.8385428 104.53710938 79.22460938 C104.54572509 81.3994625 104.56261709 83.57402235 104.5847168 85.7487793 C104.59921791 87.85524438 104.58400667 89.96000234 104.56640625 92.06640625 C104.58102905 93.9527478 104.58102905 93.9527478 104.59594727 95.87719727 C104 99 104 99 101.71459961 100.99584961 C99 102 99 102 96.9699707 101.96704102 C94.21882229 100.61652684 92.5628859 98.77223593 90.48046875 96.52734375 C89.62259766 95.62822266 88.76472656 94.72910156 87.88085938 93.80273438 C86.08881798 91.896335 84.30489867 89.98226726 82.52929688 88.06054688 C81.66755859 87.16271484 80.80582031 86.26488281 79.91796875 85.33984375 C79.14219482 84.50831787 78.3664209 83.67679199 77.56713867 82.82006836 C74.19388411 80.42847418 72.0490759 80.56184599 68 81 C65.55377246 82.38389487 65.55377246 82.38389487 63.5 84.5625 C62.66597656 85.36945313 61.83195312 86.17640625 60.97265625 87.0078125 C60.51133301 87.47219727 60.05000977 87.93658203 59.57470703 88.41503906 C57.75228003 90.24933303 55.90562995 92.05768371 54.05859375 93.8671875 C51.37200315 96.51529829 48.68942818 99.16708067 46.02734375 101.83984375 C45.46781006 102.40050537 44.90827637 102.96116699 44.33178711 103.53881836 C42.21675288 105.85934629 41.99020637 107.09230772 41.65039062 110.29516602 C42.08569476 114.90811312 43.28872714 116.11003018 46.59375 119.27734375 C47.29292542 119.96166222 47.29292542 119.96166222 48.00622559 120.6598053 C49.48845339 122.10306709 50.9931636 123.51999507 52.5 124.9375 C53.51330956 125.91567243 54.52504758 126.89547565 55.53515625 127.87695312 C58.0084459 130.26779978 60.49655482 132.64081363 63 135 C61.125 141.875 61.125 141.875 60 143 C57.75583287 143.10992843 55.50848902 143.15593875 53.26171875 143.17578125 C51.87042769 143.19898616 50.47915161 143.22310377 49.08789062 143.24804688 C46.88897796 143.28312938 44.69061319 143.31248096 42.49145508 143.32592773 C40.37252892 143.34142916 38.25521712 143.38165534 36.13671875 143.42578125 C34.22959106 143.44765503 34.22959106 143.44765503 32.28393555 143.4699707 C29.00048361 143.78140898 29.00048361 143.78140898 26.58276367 145.5144043 C24.33900238 149.03804053 24.46419067 152.30014638 24.5390625 156.34375 C24.53997894 157.14985718 24.54089539 157.95596436 24.5418396 158.78649902 C24.54787117 160.48777163 24.563604 162.18903383 24.58837891 163.89013672 C24.62487314 166.49095894 24.62939822 169.09035475 24.62890625 171.69140625 C24.63873861 173.34636645 24.65039613 175.00131702 24.6640625 176.65625 C24.66628815 177.43238647 24.66851379 178.20852295 24.67080688 179.00817871 C24.74776607 184.32146033 24.74776607 184.32146033 27 189 C29.9528472 190.4764236 32.68448983 190.22272939 35.9765625 190.31640625 C37.00443375 190.3475779 37.00443375 190.3475779 38.05307007 190.37937927 C40.24361069 190.44480185 42.43427189 190.50372554 44.625 190.5625 C46.1093875 190.60569218 47.59376278 190.6493067 49.078125 190.69335938 C52.71862084 190.80047553 56.35925251 190.90176362 60 191 C61.625 193.75 61.625 193.75 63 197 C62.05804803 200.64026512 59.33005486 202.8737561 56.68359375 205.44140625 C55.83732422 206.27220703 54.99105469 207.10300781 54.11914062 207.95898438 C52.79172852 209.24772461 52.79172852 209.24772461 51.4375 210.5625 C49.68162734 212.26744089 47.9301004 213.97687227 46.18359375 215.69140625 C45.40556396 216.44623291 44.62753418 217.20105957 43.82592773 217.97875977 C41.79025721 219.96041399 41.79025721 219.96041399 41 223 C27.47 223 13.94 223 0 223 C0 149.41 0 75.82 0 0 Z " fill="#C3996B" transform="translate(264,225)"/>
<path d="M0 0 C10.28082533 7.48012672 18.28363165 18.95924375 20.30859375 31.6796875 C21.37197102 46.68702807 18.32058728 59.48035195 9.1171875 71.5546875 C-0.0751736 81.48910082 -11.39705861 85.54221105 -24.19921875 88.65625 C-40.72005346 93.49792639 -48.6360105 108.17957354 -56.50390625 122.2421875 C-57.17066033 123.42805145 -57.83797586 124.61359991 -58.50585938 125.79882812 C-58.83681107 126.3878038 -59.16776276 126.97677948 -59.50874329 127.58360291 C-60.18650335 128.77754871 -60.87308736 129.96652742 -61.56828308 131.15040588 C-63.43079442 134.33678479 -65.07847201 137.50040653 -66.53833008 140.89233398 C-71.01684127 150.65696842 -71.01684127 150.65696842 -75.6635437 152.43380737 C-81.35203327 153.53494996 -87.01666226 153.04956109 -92.75390625 152.6171875 C-94.49515468 152.54184736 -96.23671688 152.47342305 -97.97851562 152.41210938 C-102.22395959 152.24768125 -106.4542055 151.98968005 -110.69140625 151.6796875 C-106.84755274 143.77425716 -102.73533273 136.115075 -98.25390625 128.5546875 C-97.02827391 126.46636407 -95.80302782 124.37781391 -94.578125 122.2890625 C-92.94417737 119.50989451 -91.31002935 116.73084533 -89.67486572 113.95239258 C-87.9617787 111.04031756 -86.25230743 108.12622445 -84.55053711 105.20751953 C-83.2615115 102.99680968 -81.96705101 100.78925666 -80.66625977 98.58544922 C-75.28914965 89.34351835 -70.93717554 81.24236022 -71.19140625 70.3671875 C-71.20300781 69.12799561 -71.20300781 69.12799561 -71.21484375 67.86376953 C-71.3855819 61.77292303 -72.74583455 56.72194531 -74.78125 50.98046875 C-77.98047928 39.37811363 -76.06939945 27.30913289 -70.69140625 16.6796875 C-63.78227775 4.84367527 -53.27799485 -3.91582873 -39.98828125 -7.73046875 C-25.52097278 -10.31881422 -12.45198228 -8.009115 0 0 Z M-36.94140625 26.6796875 C-39.16890625 27.9996875 -41.39640625 29.3196875 -43.69140625 30.6796875 C-43.69140625 36.6196875 -43.69140625 42.5596875 -43.69140625 48.6796875 C-41.50515625 50.0203125 -39.31890625 51.3609375 -37.06640625 52.7421875 C-36.39013184 53.16894775 -35.71385742 53.59570801 -35.01708984 54.03540039 C-31.96936861 55.83785911 -30.24079484 56.69790702 -26.62890625 56.578125 C-18.34371422 54.04684207 -18.34371422 54.04684207 -11.69140625 48.6796875 C-10.17488457 42.8212686 -11.01313823 36.61453271 -11.69140625 30.6796875 C-13.93556924 29.33558988 -16.18583421 28.00438854 -18.44140625 26.6796875 C-19.075625 26.298125 -19.70984375 25.9165625 -20.36328125 25.5234375 C-27.18560734 21.54374728 -30.56923575 22.84751443 -36.94140625 26.6796875 Z " fill="#FC4F22" transform="translate(443.69140625,40.3203125)"/>
<path d="M0 0 C21.22717977 -0.25717961 42.45410201 -0.45104323 63.68252468 -0.56993389 C73.53977534 -0.62660944 83.39605697 -0.70384853 93.25268555 -0.82983398 C101.84573001 -0.93961602 110.43807264 -1.0104731 119.0317989 -1.03497344 C123.58084937 -1.04929205 128.12789246 -1.08283488 132.67629814 -1.16303062 C136.96234022 -1.23798461 141.24555889 -1.26067417 145.53219414 -1.24418449 C147.1008136 -1.24719843 148.6695323 -1.26892085 150.23758316 -1.31126022 C162.04626975 -1.6143344 162.04626975 -1.6143344 166.86821175 2.36995506 C169.16915117 5.14629698 171.1028499 7.93775841 173 11 C174.14837658 12.55402352 175.3074482 14.10029785 176.484375 15.6328125 C177.57558191 17.12826719 178.66409348 18.62569207 179.75 20.125 C185.09051744 27.44479787 190.53219171 34.67533155 196.08886719 41.83251953 C200 46.89593036 200 46.89593036 200 48 C178.77282023 48.25717961 157.54589799 48.45104323 136.31747532 48.56993389 C126.46022466 48.62660944 116.60394303 48.70384853 106.74731445 48.82983398 C98.15426999 48.93961602 89.56192736 49.0104731 80.9682011 49.03497344 C76.41915063 49.04929205 71.87210754 49.08283488 67.32370186 49.16303062 C63.03765978 49.23798461 58.75444111 49.26067417 54.46780586 49.24418449 C52.8991864 49.24719843 51.3304677 49.26892085 49.76241684 49.31126022 C37.95373025 49.6143344 37.95373025 49.6143344 33.13178825 45.63004494 C30.83084883 42.85370302 28.8971501 40.06224159 27 37 C25.85162342 35.44597648 24.6925518 33.89970215 23.515625 32.3671875 C22.42441809 30.87173281 21.33590652 29.37430793 20.25 27.875 C14.90948256 20.55520213 9.46780829 13.32466845 3.91113281 6.16748047 C0 1.10406964 0 1.10406964 0 0 Z " fill="#C3996B" transform="translate(272,208)"/>
<path d="M0 0 C1.20754881 0.00184359 2.41509762 0.00368717 3.65923882 0.00558662 C4.33065025 0.00387777 5.00206169 0.00216892 5.69381893 0.00040829 C7.95411755 -0.00289823 10.21412236 0.00813592 12.47439384 0.01904488 C14.09043178 0.01960874 15.70647022 0.01929292 17.32250786 0.01815987 C21.718988 0.01758438 26.11535972 0.02937023 30.51181459 0.04330778 C35.1029223 0.05578264 39.6940323 0.05698307 44.28515434 0.0593586 C52.98327336 0.06558293 61.6813423 0.08200661 70.37943923 0.10205758 C80.28013665 0.12438697 90.18083643 0.13540255 100.08155274 0.14544845 C120.45194834 0.16637203 140.8222988 0.20156648 161.19265556 0.24609566 C160.26016067 1.66082484 159.32548248 3.07411506 158.38992119 4.48681831 C157.86966362 5.27400246 157.34940605 6.0611866 156.8133831 6.87222481 C154.27535918 10.5896547 151.49018422 14.09733177 148.69265556 17.62109566 C142.85082695 25.04581022 137.19580914 32.59007413 131.63601494 40.22802925 C130.80553642 41.36619087 130.80553642 41.36619087 129.95828056 42.52734566 C129.4713372 43.19830269 128.98439384 43.86925972 128.48269463 44.56054878 C127.19265556 46.24609566 127.19265556 46.24609566 125.19265556 48.24609566 C122.38531113 48.49219131 122.38531113 48.49219131 118.72607231 48.48660469 C118.05466087 48.48831354 117.38324944 48.49002239 116.6914922 48.49178302 C114.43119358 48.49508954 112.17118877 48.4840554 109.91091728 48.47314644 C108.29487935 48.47258257 106.6788409 48.4728984 105.06280327 48.47403145 C100.66632313 48.47460693 96.2699514 48.46282108 91.87349653 48.44888353 C87.28238882 48.43640867 82.69127883 48.43520824 78.10015678 48.43283272 C69.40203777 48.42660838 60.70396883 48.41018471 52.00587189 48.39013374 C42.10517447 48.36780435 32.2044747 48.35678877 22.30375838 48.34674287 C1.93336279 48.32581928 -18.43698767 48.29062483 -38.80734444 48.24609566 C-37.87484954 46.83136647 -36.94017135 45.41807625 -36.00461006 44.005373 C-35.22422371 42.82459679 -35.22422371 42.82459679 -34.42807198 41.61996651 C-31.89004805 37.90253661 -29.10487309 34.39485954 -26.30734444 30.87109566 C-20.46551583 23.44638109 -14.81049802 15.90211718 -9.25070381 8.26416206 C-8.69705147 7.50538765 -8.14339912 6.74661324 -7.57296944 5.96484566 C-6.8425544 4.95841011 -6.8425544 4.95841011 -6.0973835 3.93164253 C-3.31038775 0.29019312 -3.31038775 0.29019312 0 0 Z " fill="#A87B4F" transform="translate(78.80734443664551,207.75390434265137)"/>
<path d="M0 0 C10.77578343 1.58986969 20.24538928 7.4106032 27 16 C35.08178326 27.73542278 38.24208292 38.75637384 37 53 C36.24846478 56.76678563 35.24084836 60.36746463 34 64 C32.66173009 68.01480974 32.69713575 71.73067399 32.625 75.9375 C32.58761719 76.72962891 32.55023438 77.52175781 32.51171875 78.33789062 C32.33596897 90.53297267 39.41286423 100.92741173 45.375 111.125 C46.07441986 112.33358568 46.77313721 113.54257815 47.47119141 114.75195312 C48.91309158 117.24740267 50.35900089 119.74045666 51.80859375 122.23144531 C54.67805979 127.1629007 57.5299411 132.10447479 60.38134766 137.04638672 C61.68631244 139.30698332 62.99320424 141.56646889 64.30224609 143.82470703 C64.89086426 144.84161621 65.47948242 145.85852539 66.0859375 146.90625 C66.6020459 147.79634766 67.1181543 148.68644531 67.64990234 149.60351562 C68.83572544 151.70840523 69.94359341 153.82790191 71 156 C47.37041001 158.64331818 47.37041001 158.64331818 40.93408203 154.75048828 C37.55989937 151.08491399 35.96034874 146.45022059 34.20117188 141.85595703 C31.80353246 136.15522819 28.54156641 130.90014216 25.4375 125.5625 C24.83510498 124.47404785 24.23270996 123.3855957 23.61206055 122.26416016 C16.72531628 110.05317106 8.45965653 99.88743618 -5.25390625 95.609375 C-8.78816439 94.8251015 -12.34343595 94.44920046 -15.9375 94.0625 C-27.09754974 92.8237848 -34.5736959 89.37104733 -43 82 C-43.92619141 81.24976562 -43.92619141 81.24976562 -44.87109375 80.484375 C-52.05356308 74.14972499 -58.09134362 62.61804205 -59 53 C-59.38174378 45.72990181 -59.6167596 38.86899395 -57 32 C-53.77765824 34.95205819 -51.75848144 37.88076173 -49.6875 41.71875 C-49.08679687 42.81574219 -48.48609375 43.91273437 -47.8671875 45.04296875 C-46 48.5 -46 48.5 -44.1328125 51.95703125 C-43.53210937 53.05402344 -42.93140625 54.15101562 -42.3125 55.28125 C-41.77238281 56.28220703 -41.23226562 57.28316406 -40.67578125 58.31445312 C-38.56090846 61.70367233 -36.77764142 64.47893622 -32.82446289 65.63769531 C-32.0483667 65.70053711 -31.27227051 65.76337891 -30.47265625 65.828125 C-29.60374756 65.90579102 -28.73483887 65.98345703 -27.83959961 66.06347656 C-26.92315674 66.1250293 -26.00671387 66.18658203 -25.0625 66.25 C-24.1247876 66.32444336 -23.1870752 66.39888672 -22.22094727 66.47558594 C-9.12102028 68.24707822 -9.12102028 68.24707822 3 65 C4.84262939 62.24180216 4.84262939 62.24180216 6.453125 58.890625 C6.91075226 57.98398102 6.91075226 57.98398102 7.37762451 57.059021 C8.01872312 55.78089935 8.65379359 54.49973854 9.28320312 53.21582031 C10.24405908 51.26207988 11.22973649 49.32242167 12.21875 47.3828125 C12.84008144 46.13618292 13.45992267 44.88880926 14.078125 43.640625 C14.91972168 41.94728027 14.91972168 41.94728027 15.77832031 40.21972656 C17.50895833 35.6586446 17.74520487 32.68902323 15.76245117 28.19506836 C14.91130737 26.78173218 14.91130737 26.78173218 14.04296875 25.33984375 C13.11581055 23.7784668 13.11581055 23.7784668 12.16992188 22.18554688 C11.51572266 21.11369141 10.86152344 20.04183594 10.1875 18.9375 C9.54490234 17.86177734 8.90230469 16.78605469 8.24023438 15.67773438 C5.95523571 11.85835319 3.65857451 8.04790743 1.2902832 4.27954102 C0 2 0 2 0 0 Z " fill="#FCCB00" transform="translate(107,36)"/>
<path d="M0 0 C10.12948859 6.28371665 16.16772897 15.35958564 19.4296875 26.6796875 C20.73681707 38.69152028 18.55428539 49.18227437 11.5546875 59.1171875 C10.54443815 60.33152763 9.50332356 61.52101096 8.4296875 62.6796875 C7.92953125 63.22109375 7.429375 63.7625 6.9140625 64.3203125 C-0.87011947 71.80219614 -11.98799565 75.00314596 -22.52563477 75.06689453 C-33.39390858 74.83590316 -42.63600272 69.53119295 -50.25 62.0234375 C-58.61862045 52.86375343 -61.16317954 42.23346679 -60.94921875 30.0234375 C-59.67741345 18.80008352 -53.05549935 9.00264282 -44.42578125 1.9921875 C-30.72651815 -7.69823861 -14.74792059 -7.57567957 0 0 Z " fill="#262120" transform="translate(412.5703125,357.3203125)"/>
<path d="M0 0 C4.74730701 4.42839003 8.53980207 9.44755949 12.4375 14.625 C13.13182129 15.54055664 13.82614258 16.45611328 14.54150391 17.39941406 C19.99644618 24.61237657 25.36660281 31.88734132 30.65795898 39.22119141 C31.20137939 39.96804199 31.7447998 40.71489258 32.3046875 41.484375 C32.77890137 42.14147461 33.25311523 42.79857422 33.74169922 43.47558594 C34.94257776 45.14008178 34.94257776 45.14008178 37 46 C38.73555183 46.1050016 40.47508932 46.14658282 42.21377563 46.15821838 C43.31877914 46.1680072 44.42378265 46.17779602 45.56227112 46.18788147 C47.38890541 46.19651466 47.38890541 46.19651466 49.25244141 46.20532227 C51.1694561 46.22017166 51.1694561 46.22017166 53.12519836 46.23532104 C56.63527845 46.26239875 60.14537201 46.28339276 63.65549898 46.30332303 C67.32173919 46.32516494 70.9879377 46.3525624 74.65414429 46.37937927 C81.59912607 46.42933048 88.54413097 46.47426028 95.48915803 46.51740164 C103.39476467 46.56675329 111.30032947 46.62167909 119.20589566 46.67708123 C135.47055856 46.79093854 151.73525978 46.89776939 168 47 C168.20365433 53.54649397 168.34327236 60.09216531 168.43945312 66.64111328 C168.47956512 68.86635867 168.53407093 71.09139477 168.60351562 73.31591797 C168.70111068 76.52363777 168.74604888 79.72856116 168.78125 82.9375 C168.82254028 83.92427734 168.86383057 84.91105469 168.90637207 85.92773438 C168.91008416 91.70473594 168.09113211 94.52999545 163.95117188 98.69140625 C162.6576381 99.82176928 161.34784507 100.93498175 160 102 C153.125 100.125 153.125 100.125 152 99 C151.86554446 96.74470221 151.79631961 94.48546655 151.75390625 92.2265625 C151.72096355 90.830723 151.68775198 89.43488982 151.65429688 88.0390625 C151.60689211 85.83142523 151.56247888 83.62381286 151.52319336 81.41601562 C151.48346305 79.29008733 151.43191592 77.16469531 151.37890625 75.0390625 C151.3538501 73.76240723 151.32879395 72.48575195 151.30297852 71.17041016 C151.23727323 67.84345995 151.23727323 67.84345995 149 65 C145.67447611 63.89149204 143.28890113 63.90195154 139.78515625 63.9375 C138.41496026 63.94722854 137.04476143 63.95656234 135.67456055 63.96557617 C134.92894867 63.97189056 134.18333679 63.97820496 133.41513062 63.98471069 C129.22208522 64.01196051 125.02904003 63.99541092 120.8359375 63.98828125 C113.78477192 63.9777584 106.73525897 64.00710552 99.68457031 64.08349609 C92.83443013 64.15728316 85.98525316 64.18722318 79.13471508 64.17878532 C75.28174823 64.17582238 71.43112596 64.19303371 67.5786438 64.25708008 C63.8872653 64.31788117 60.19928655 64.32556547 56.50756454 64.29583168 C55.13410528 64.29394992 53.76046825 64.31086231 52.38751602 64.34822655 C46.47496566 64.49970029 41.8515208 64.58740496 37.22685242 60.62243652 C34.92929286 57.84413409 32.94210416 55.0342504 31 52 C29.88413036 50.49481376 28.75988568 48.99573172 27.62109375 47.5078125 C26.55733369 46.04873953 25.49618441 44.58775997 24.4375 43.125 C18.42753997 34.88744891 12.2810835 26.76212662 6.06616211 18.67822266 C5.4191333 17.83437012 4.77210449 16.99051758 4.10546875 16.12109375 C3.52949951 15.3727124 2.95353027 14.62433105 2.36010742 13.85327148 C0.03139389 10.68018507 -0.11243393 8.76984623 -0.0625 4.875 C-0.05347656 3.96492187 -0.04445313 3.05484375 -0.03515625 2.1171875 C-0.02355469 1.41851562 -0.01195312 0.71984375 0 0 Z " fill="#A87B4F" transform="translate(264,225)"/>
<path d="M0 0 C7.15898616 0.11833035 12.56454962 3.73524642 18.625 7.25 C19.64851563 7.82363281 20.67203125 8.39726563 21.7265625 8.98828125 C31.45036283 14.54654733 31.45036283 14.54654733 35 19 C35.46500308 21.74133993 35.63644099 23.84235503 35.55859375 26.56640625 C35.55509666 27.64026833 35.55509666 27.64026833 35.55152893 28.73582458 C35.54182237 30.24286895 35.52010604 31.74987851 35.48706055 33.2565918 C35.4375756 35.55898232 35.4255728 37.85923451 35.41992188 40.16210938 C35.4058368 41.63023099 35.3896327 43.09833412 35.37109375 44.56640625 C35.3630497 45.5946627 35.3630497 45.5946627 35.35484314 46.64369202 C35.19477328 53.09402841 35.19477328 53.09402841 33 56 C30.48144531 57.81518555 30.48144531 57.81518555 27.328125 59.63671875 C26.18859375 60.29607422 25.0490625 60.95542969 23.875 61.63476562 C23.27945313 61.97161377 22.68390625 62.30846191 22.0703125 62.65551758 C20.26190622 63.68075006 18.46666418 64.72654223 16.671875 65.77539062 C6.16827541 71.7901208 6.16827541 71.7901208 1 72 C-1.91259766 70.8918457 -1.91259766 70.8918457 -4.9140625 69.17578125 C-6.00460937 68.55896484 -7.09515625 67.94214844 -8.21875 67.30664062 C-9.3428125 66.64857422 -10.466875 65.99050781 -11.625 65.3125 C-12.75679688 64.67376953 -13.88859375 64.03503906 -15.0546875 63.37695312 C-26.6259113 56.74817741 -26.6259113 56.74817741 -29 52 C-29.28263541 47.34438657 -29.31367651 42.688041 -29.35009766 38.0246582 C-29.36664362 36.47177123 -29.39391642 34.91896 -29.43212891 33.36645508 C-29.48704414 31.12280959 -29.50879138 28.88094675 -29.5234375 26.63671875 C-29.54610687 25.94696457 -29.56877625 25.25721039 -29.59213257 24.54655457 C-29.57597049 20.83867117 -29.13091055 19.16565949 -26.81005859 16.22875977 C-24.12189057 14.09667585 -21.51938849 12.3552469 -18.515625 10.703125 C-16.99001953 9.85427734 -16.99001953 9.85427734 -15.43359375 8.98828125 C-14.38300781 8.41464844 -13.33242188 7.84101562 -12.25 7.25 C-10.1503748 6.08974762 -8.0513805 4.92835257 -5.953125 3.765625 C-5.02661133 3.25805664 -4.10009766 2.75048828 -3.14550781 2.22753906 C-1.08672683 1.17425927 -1.08672683 1.17425927 0 0 Z M-6.25 23 C-8.4775 24.32 -10.705 25.64 -13 27 C-13 32.94 -13 38.88 -13 45 C-10.81375 46.340625 -8.6275 47.68125 -6.375 49.0625 C-5.69872559 49.48926025 -5.02245117 49.91602051 -4.32568359 50.35571289 C-1.27796236 52.15817161 0.45061141 53.01821952 4.0625 52.8984375 C12.34769203 50.36715457 12.34769203 50.36715457 19 45 C20.51652168 39.1415811 19.67826802 32.93484521 19 27 C16.75583701 25.65590238 14.50557204 24.32470104 12.25 23 C11.61578125 22.6184375 10.9815625 22.236875 10.328125 21.84375 C3.50579891 17.86405978 0.1221705 19.16782693 -6.25 23 Z " fill="#241F20" transform="translate(413,44)"/>
<path d="M0 0 C3.55994819 0.31813099 3.95595307 0.77293937 6.56054688 3.57421875 C7.31036985 4.82602263 8.02832556 6.09729255 8.71875 7.3828125 C9.10695923 8.04869385 9.49516846 8.7145752 9.8951416 9.40063477 C11.1253962 11.52554077 12.31250072 13.67127535 13.5 15.8203125 C14.32799212 17.26719474 15.15869314 18.71253039 15.9921875 20.15625 C18.02662842 23.69377739 20.02270717 27.25055208 22 30.8203125 C20.7315625 32.3053125 20.7315625 32.3053125 19.4375 33.8203125 C18.62062462 34.80825806 18.62062462 34.80825806 17.7872467 35.81616211 C16 37.8203125 16 37.8203125 14.16477966 39.29516602 C9.91427934 43.00556284 8.5847375 46.33677455 8.19421482 51.97515869 C8.04922415 56.23829456 8.06165687 60.4929311 8.09765625 64.7578125 C8.08826391 66.60727694 8.07580165 68.45672811 8.06040955 70.30615234 C8.02826227 75.15283059 8.03759733 79.99856002 8.05578613 84.84527588 C8.06696605 89.79929886 8.03861936 94.75308177 8.01367188 99.70703125 C7.97058899 109.41173013 7.97501707 119.1155499 8 128.8203125 C2.72 128.8203125 -2.56 128.8203125 -8 128.8203125 C-7.99363525 126.34789062 -7.98727051 123.87546875 -7.98071289 121.328125 C-7.964741 113.14165527 -7.98724066 104.95561278 -8.02846622 96.76924133 C-8.05227838 91.80770085 -8.06329759 86.84683099 -8.04467773 81.88525391 C-8.02717144 77.0931988 -8.04379593 72.30234603 -8.08367729 67.51043701 C-8.09294194 65.68611726 -8.09009221 63.86169284 -8.07469368 62.03741455 C-7.59621075 50.7127529 -7.59621075 50.7127529 -12.34155273 40.88671875 C-13.54027603 39.84031508 -14.75969065 38.81707271 -16 37.8203125 C-17.17009181 36.5082161 -18.3172273 35.17519289 -19.4375 33.8203125 C-20.283125 32.8303125 -21.12875 31.8403125 -22 30.8203125 C-19.62097623 26.52527599 -17.20388999 22.25507482 -14.74902344 18.00292969 C-13.91985153 16.55398581 -13.10135487 15.09887779 -12.29394531 13.63769531 C-11.12988716 11.53552642 -9.92897289 9.45866437 -8.71875 7.3828125 C-8.19009338 6.39849243 -8.19009338 6.39849243 -7.65075684 5.39428711 C-5.58683052 1.9486325 -3.9608008 0.35395276 0 0 Z " fill="#006CEE" transform="translate(256,31.1796875)"/>
<path d="M0 0 C0.33 0 0.66 0 1 0 C1.77314727 6.88226349 1.06349008 11.04857726 -3.1652832 16.56811523 C-3.77073975 17.30876221 -4.37619629 18.04940918 -5 18.8125 C-5.62285889 19.61437744 -6.24571777 20.41625488 -6.88745117 21.24243164 C-8.2181462 22.95379691 -9.55853334 24.65766291 -10.90771484 26.35449219 C-13.74155315 29.93762777 -16.49584455 33.57868815 -19.25366211 37.22045898 C-21.27344987 39.88596568 -23.30320657 42.54357434 -25.3359375 45.19921875 C-29.09161854 50.11175779 -32.80387022 55.05529434 -36.49609375 60.015625 C-38 62 -38 62 -39 63 C-40.6575762 63.09611419 -42.31926986 63.12187755 -43.97962952 63.12025452 C-45.59720909 63.12231651 -45.59720909 63.12231651 -47.24746704 63.12442017 C-48.4407663 63.12082489 -49.63406555 63.11722961 -50.86352539 63.11352539 C-52.11212845 63.11367142 -53.36073151 63.11381744 -54.64717102 63.1139679 C-58.08090994 63.11338891 -61.51458938 63.10835955 -64.94831777 63.10139394 C-68.53312459 63.09515998 -72.11793213 63.09455657 -75.70274353 63.09336853 C-82.49550045 63.09025534 -89.28824135 63.08204212 -96.08099121 63.07201904 C-103.81242494 63.06085753 -111.54385942 63.05534736 -119.27529919 63.05032361 C-135.18354234 63.03985949 -151.09176848 63.02205982 -167 63 C-167 57.72 -167 52.44 -167 47 C-165.38023254 46.99191315 -163.76046509 46.98382629 -162.09161377 46.97549438 C-146.84685895 46.89810017 -131.60219881 46.81049611 -116.35756302 46.71247292 C-108.51964522 46.66233784 -100.68173794 46.61589504 -92.84375 46.578125 C-86.0126557 46.54519768 -79.18164272 46.50536239 -72.35063815 46.45720994 C-68.73322571 46.43195226 -65.11586716 46.41016886 -61.4983902 46.39665604 C-57.46137291 46.38144668 -53.42461467 46.35081599 -49.38769531 46.31884766 C-47.58587296 46.31560738 -47.58587296 46.31560738 -45.74765015 46.31230164 C-44.64831146 46.30113815 -43.54897278 46.28997467 -42.4163208 46.2784729 C-41.46134327 46.27294214 -40.50636574 46.26741138 -39.52244949 46.26171303 C-36.05126721 45.90156563 -33.85916875 44.94742984 -31.51464844 42.36206055 C-31.0509082 41.71019775 -30.58716797 41.05833496 -30.109375 40.38671875 C-29.57223877 39.64301025 -29.03510254 38.89930176 -28.48168945 38.13305664 C-27.91023193 37.32602295 -27.33877441 36.51898926 -26.75 35.6875 C-25.51081201 33.9701281 -24.26985533 32.25403134 -23.02734375 30.5390625 C-22.37620605 29.63833008 -21.72506836 28.73759766 -21.05419922 27.80957031 C-17.54328195 23.00761691 -13.92794598 18.2859719 -10.3125 13.5625 C-9.62961914 12.66942139 -8.94673828 11.77634277 -8.24316406 10.85620117 C-7.02523398 9.26367645 -5.80666471 7.67164013 -4.5871582 6.08032227 C-3.49156133 4.64429997 -2.41564816 3.19312059 -1.35620117 1.73022461 C-0.68488159 0.87376343 -0.68488159 0.87376343 0 0 Z " fill="#8A5D3B" transform="translate(247,225)"/>
<path d="M0 0 C6.06343563 3.8805988 10.95667407 9.08758162 13.1875 16 C14.13678985 23.28524766 13.38341893 29.86836381 9.1875 36 C4.06918086 41.63306471 -0.62523732 45.50368783 -8.34375 46.2421875 C-14.72115754 46.54003346 -19.65057184 45.90691391 -24.8125 42 C-30.94998905 36.1959359 -34.90461478 30.73804388 -35.25 22.125 C-35.02618613 15.15233713 -33.53760694 10.85729496 -28.71875 5.8046875 C-20.54144386 -1.80020721 -10.69057161 -5.44614025 0 0 Z " fill="#EEEFEF" transform="translate(402.8125,370)"/>
<path d="M0 0 C1.73618591 -0.00006042 1.73618591 -0.00006042 3.50744629 -0.00012207 C5.95179684 0.00523347 8.39614694 0.02281732 10.84033203 0.05175781 C14.58028833 0.09359939 18.31844293 0.09282635 22.05859375 0.0859375 C24.43490834 0.09643055 26.81121365 0.10936926 29.1875 0.125 C30.3053186 0.12520142 31.42313721 0.12540283 32.5748291 0.12561035 C34.14170471 0.14947815 34.14170471 0.14947815 35.74023438 0.17382812 C37.11326721 0.18645691 37.11326721 0.18645691 38.51403809 0.19934082 C41.63433226 0.676399 43.54257635 1.76301627 46.09375 3.59375 C47.49832737 6.40290474 47.34270157 8.48185534 47.09375 11.59375 C45.31390595 14.7296657 44.57066793 15.43477736 41.09375 16.59375 C39.38740843 16.70601312 37.67714861 16.76271412 35.96728516 16.78662109 C34.92255035 16.80268402 33.87781555 16.81874695 32.80142212 16.83529663 C28.03363736 16.87977343 23.26599045 16.92079304 18.49804688 16.94384766 C15.98200239 16.96042624 13.46600536 16.98774082 10.95019531 17.02587891 C7.32331909 17.08057216 3.69754524 17.10250922 0.0703125 17.1171875 C-1.61582657 17.15119156 -1.61582657 17.15119156 -3.33602905 17.18588257 C-11.12480853 17.16476223 -11.12480853 17.16476223 -15.11572266 14.24853516 C-16.90625 11.59375 -16.90625 11.59375 -17.53125 8.59375 C-15.57756079 -0.78395819 -7.83903622 -0.11497667 0 0 Z " fill="#241F20" transform="translate(144.90625,415.40625)"/>
<path d="M0 0 C1.73618591 -0.00006042 1.73618591 -0.00006042 3.50744629 -0.00012207 C5.95179684 0.00523347 8.39614694 0.02281732 10.84033203 0.05175781 C14.58028833 0.09359939 18.31844293 0.09282635 22.05859375 0.0859375 C24.43490834 0.09643055 26.81121365 0.10936926 29.1875 0.125 C30.3053186 0.12520142 31.42313721 0.12540283 32.5748291 0.12561035 C34.14170471 0.14947815 34.14170471 0.14947815 35.74023438 0.17382812 C37.11326721 0.18645691 37.11326721 0.18645691 38.51403809 0.19934082 C41.63433226 0.676399 43.54257635 1.76301627 46.09375 3.59375 C47.49832737 6.40290474 47.34270157 8.48185534 47.09375 11.59375 C45.31390595 14.7296657 44.57066793 15.43477736 41.09375 16.59375 C39.38740843 16.70601312 37.67714861 16.76271412 35.96728516 16.78662109 C34.92255035 16.80268402 33.87781555 16.81874695 32.80142212 16.83529663 C28.03363736 16.87977343 23.26599045 16.92079304 18.49804688 16.94384766 C15.98200239 16.96042624 13.46600536 16.98774082 10.95019531 17.02587891 C7.32331909 17.08057216 3.69754524 17.10250922 0.0703125 17.1171875 C-1.61582657 17.15119156 -1.61582657 17.15119156 -3.33602905 17.18588257 C-11.12480853 17.16476223 -11.12480853 17.16476223 -15.11572266 14.24853516 C-16.90625 11.59375 -16.90625 11.59375 -17.53125 8.59375 C-15.57756079 -0.78395819 -7.83903622 -0.11497667 0 0 Z " fill="#241F20" transform="translate(144.90625,391.40625)"/>
<path d="M0 0 C1.73618591 -0.00006042 1.73618591 -0.00006042 3.50744629 -0.00012207 C5.95179684 0.00523347 8.39614694 0.02281732 10.84033203 0.05175781 C14.58028833 0.09359939 18.31844293 0.09282635 22.05859375 0.0859375 C24.43490834 0.09643055 26.81121365 0.10936926 29.1875 0.125 C30.3053186 0.12520142 31.42313721 0.12540283 32.5748291 0.12561035 C34.14170471 0.14947815 34.14170471 0.14947815 35.74023438 0.17382812 C37.11326721 0.18645691 37.11326721 0.18645691 38.51403809 0.19934082 C41.63433226 0.676399 43.54257635 1.76301627 46.09375 3.59375 C47.49832737 6.40290474 47.34270157 8.48185534 47.09375 11.59375 C45.31390595 14.7296657 44.57066793 15.43477736 41.09375 16.59375 C39.38740843 16.70601312 37.67714861 16.76271412 35.96728516 16.78662109 C34.92255035 16.80268402 33.87781555 16.81874695 32.80142212 16.83529663 C28.03363736 16.87977343 23.26599045 16.92079304 18.49804688 16.94384766 C15.98200239 16.96042624 13.46600536 16.98774082 10.95019531 17.02587891 C7.32331909 17.08057216 3.69754524 17.10250922 0.0703125 17.1171875 C-1.61582657 17.15119156 -1.61582657 17.15119156 -3.33602905 17.18588257 C-11.12480853 17.16476223 -11.12480853 17.16476223 -15.11572266 14.24853516 C-16.90625 11.59375 -16.90625 11.59375 -17.53125 8.59375 C-15.57756079 -0.78395819 -7.83903622 -0.11497667 0 0 Z " fill="#241F20" transform="translate(144.90625,367.40625)"/>
<path d="M0 0 C15.84 0 31.68 0 48 0 C48 5.28 48 10.56 48 16 C32.16 16 16.32 16 0 16 C0 10.72 0 5.44 0 0 Z " fill="#5EAC24" transform="translate(232,176)"/>
<path d="M0 0 C6.6 0 13.2 0 20 0 C20.18488126 4.27281141 20.34356702 8.5315319 20.43945312 12.80517578 C20.47943584 14.25454933 20.53384713 15.70360528 20.60351562 17.15185547 C21.16852951 29.20825475 21.16852951 29.20825475 18.18359375 33.78515625 C16.21852538 35.75022462 14.28938529 37.43072575 12 39 C5.125 37.125 5.125 37.125 4 36 C3.87775856 33.76786369 3.82017921 31.53213947 3.7890625 29.296875 C3.76097855 27.91014476 3.732314 26.52342617 3.703125 25.13671875 C3.66196263 22.94678258 3.62508528 20.75706047 3.59863281 18.56689453 C3.57090914 16.45559364 3.52502335 14.34528845 3.4765625 12.234375 C3.45674316 10.96819336 3.43692383 9.70201172 3.41650391 8.39746094 C3.17525751 4.52458099 3.17525751 4.52458099 0 0 Z " fill="#C2986B" transform="translate(412,288)"/>
<path d="M0 0 C4.64963504 2.29927007 4.64963504 2.29927007 6 5 C6.29123466 8.34919863 6.36462337 10.35756835 4.6875 13.3125 C1.52592843 16.47407157 -2.11841691 16.24837396 -6.375 16.375 C-10.79028114 16.3356218 -12.53327074 16.29941123 -16.3125 13.875 C-18.32483711 10.44657382 -18.81252952 8.9001417 -18 5 C-14.0594899 -1.71346165 -6.95616502 -1.03309382 0 0 Z " fill="#262121" transform="translate(114,416)"/>
<path d="M0 0 C4.64963504 2.29927007 4.64963504 2.29927007 6 5 C6.29123466 8.34919863 6.36462337 10.35756835 4.6875 13.3125 C1.52592843 16.47407157 -2.11841691 16.24837396 -6.375 16.375 C-10.79028114 16.3356218 -12.53327074 16.29941123 -16.3125 13.875 C-18.32483711 10.44657382 -18.81252952 8.9001417 -18 5 C-14.0594899 -1.71346165 -6.95616502 -1.03309382 0 0 Z " fill="#262121" transform="translate(114,392)"/>
<path d="M0 0 C4.64963504 2.29927007 4.64963504 2.29927007 6 5 C6.29123466 8.34919863 6.36462337 10.35756835 4.6875 13.3125 C1.52592843 16.47407157 -2.11841691 16.24837396 -6.375 16.375 C-10.79028114 16.3356218 -12.53327074 16.29941123 -16.3125 13.875 C-18.32483711 10.44657382 -18.81252952 8.9001417 -18 5 C-14.0594899 -1.71346165 -6.95616502 -1.03309382 0 0 Z " fill="#262121" transform="translate(114,368)"/>
</svg>
