<?xml version="1.0" encoding="UTF-8"?>
<svg version="1.1" xmlns="http://www.w3.org/2000/svg" width="512" height="512">
<path d="M0 0 C3.12820638 0.88205164 4.00894145 2.0058873 5.9453125 4.609375 C6.97785156 5.98416016 6.97785156 5.98416016 8.03125 7.38671875 C8.81805441 8.47965299 9.60169942 9.57486599 10.3828125 10.671875 C11.03878418 11.58864014 11.03878418 11.58864014 11.70800781 12.52392578 C14.21701081 16.04090106 16.70335568 19.5732436 19.1796875 23.11328125 C22.3521873 27.64195676 25.5778579 32.13060636 28.8203125 36.609375 C29.35640137 37.35002197 29.89249023 38.09066895 30.44482422 38.85375977 C31.53622815 40.36100654 32.62786336 41.86808588 33.71972656 43.375 C35.41942632 45.72244207 37.11641517 48.07181992 38.8125 50.421875 C39.37501465 51.20095215 39.9375293 51.9800293 40.51708984 52.78271484 C41.62297262 54.31589245 42.72749866 55.85004973 43.83056641 57.38525391 C46.17526357 60.64382626 48.52971304 63.8874966 50.9765625 67.0703125 C51.70875 68.03195313 52.4409375 68.99359375 53.1953125 69.984375 C53.82050781 70.78488281 54.44570313 71.58539063 55.08984375 72.41015625 C56.60558784 75.06156359 56.72966549 76.66409013 56.3828125 79.671875 C55.3828125 80.671875 55.3828125 80.671875 52.51538086 80.78540039 C51.26378174 80.78016357 50.01218262 80.77492676 48.72265625 80.76953125 C47.72595665 80.76740883 47.72595665 80.76740883 46.7091217 80.76524353 C44.57947351 80.75963018 42.44992911 80.74707554 40.3203125 80.734375 C38.87955881 80.72936171 37.43880347 80.72479851 35.99804688 80.72070312 C32.45960148 80.70965645 28.92121711 80.69238292 25.3828125 80.671875 C25.17203433 94.84105213 25.01420311 109.00998421 24.91650295 123.18041039 C24.86960266 129.76096474 24.80602352 136.34046337 24.70385742 142.92041016 C24.60581585 149.27473902 24.55220104 155.62805477 24.52891731 161.98308182 C24.51233243 164.40322437 24.47994452 166.82331362 24.43124199 169.24302292 C23.49737754 184.17047219 23.49737754 184.17047219 29.81274414 196.92431641 C30.61692276 197.56849518 31.42110138 198.21267395 32.24964905 198.87637329 C34.74572001 200.97733732 35.47595579 202.56811261 36.3828125 205.671875 C36.3962075 209.75116736 35.41263028 211.9421557 32.73071289 214.87573242 C31.57653706 216.02239773 30.40892048 217.15564205 29.23046875 218.27734375 C28.61513779 218.8832283 27.99980682 219.48911285 27.36582947 220.11335754 C25.40381327 222.04087251 23.42543346 223.95047968 21.4453125 225.859375 C19.47233683 227.78234715 17.50288981 229.70883429 15.5355072 231.63752747 C14.31194265 232.83473946 13.08450149 234.02800523 11.85279846 235.21684265 C7.10840898 239.55751122 7.10840898 239.55751122 5.0546875 245.41015625 C5.4516115 249.35576984 6.85378582 252.38288289 8.6328125 255.859375 C11.33365533 261.3391001 13.61110034 266.76019843 15.4609375 272.59765625 C16.31209924 275.01115933 16.31209924 275.01115933 19.3828125 276.671875 C21.42557716 276.97082951 21.42557716 276.97082951 23.68310547 276.92724609 C24.5476535 276.93420502 25.41220154 276.94116394 26.302948 276.94833374 C27.23422516 276.94733673 28.16550232 276.94633972 29.125 276.9453125 C31.09766192 276.96560231 33.07031813 276.98645311 35.04296875 277.0078125 C38.15255547 277.03041338 41.26191695 277.04688272 44.37158203 277.05273438 C47.37313548 277.06225858 50.37367399 277.0960367 53.375 277.1328125 C54.3022287 277.12776703 55.2294574 277.12272156 56.18478394 277.11752319 C60.39030588 277.18157408 62.78050788 277.3113257 66.45263672 279.50952148 C69.03963742 282.40770833 69.24437341 284.52142795 69.6328125 288.359375 C69.76945312 289.59300781 69.90609375 290.82664062 70.046875 292.09765625 C70.15773438 293.27714844 70.26859375 294.45664062 70.3828125 295.671875 C70.58910915 297.46377732 70.79706145 299.25549112 71.0078125 301.046875 C71.1315625 302.243125 71.2553125 303.439375 71.3828125 304.671875 C72.589375 304.58808594 73.7959375 304.50429688 75.0390625 304.41796875 C76.65362081 304.31471211 78.26820564 304.21186964 79.8828125 304.109375 C80.67429687 304.05330078 81.46578125 303.99722656 82.28125 303.93945312 C83.06757813 303.89111328 83.85390625 303.84277344 84.6640625 303.79296875 C85.37626953 303.7458374 86.08847656 303.69870605 86.82226562 303.65014648 C90.39215427 303.68044016 93.84221517 304.21210778 97.3828125 304.671875 C97.27570895 288.39112385 97.16297227 272.11042308 97.04347324 255.82975864 C96.98812385 248.27088043 96.9346391 240.7119975 96.88549805 233.15307617 C96.84267716 226.56704874 96.79640457 219.98105631 96.74593395 213.39508289 C96.71931604 209.90576486 96.69446264 206.41645384 96.67373848 202.92709541 C96.65057577 199.03801977 96.61970892 195.1490267 96.58813477 191.26000977 C96.5823793 190.09476273 96.57662384 188.92951569 96.57069397 187.72895813 C96.55601074 186.14924225 96.55601074 186.14924225 96.54103088 184.53761292 C96.53457833 183.61674172 96.52812578 182.69587053 96.5214777 181.74709415 C96.61221032 179.68180946 96.61221032 179.68180946 95.3828125 178.671875 C93.17735224 178.52534785 90.96748116 178.44437988 88.7578125 178.390625 C87.76467041 178.36301086 87.76467041 178.36301086 86.75146484 178.33483887 C84.62867335 178.27592803 82.50580076 178.22317576 80.3828125 178.171875 C77.59096755 178.10441172 74.79939145 178.03074435 72.0078125 177.953125 C70.76257813 177.92283203 69.51734375 177.89253906 68.234375 177.86132812 C65.3828125 177.671875 65.3828125 177.671875 64.3828125 176.671875 C63.95617912 172.56983211 64.69255269 170.65383545 67.20703125 167.44140625 C67.81699951 166.64766602 68.42696777 165.85392578 69.05541992 165.03613281 C69.72033447 164.19405273 70.38524902 163.35197266 71.0703125 162.484375 C72.45719954 160.68472592 73.84258838 158.88392139 75.2265625 157.08203125 C75.92652344 156.17598145 76.62648438 155.26993164 77.34765625 154.33642578 C80.33689957 150.42272597 83.2078763 146.42875909 86.0703125 142.421875 C90.58180527 136.13294048 95.17605679 129.91571601 99.84204102 123.74072266 C104.3883381 117.70667004 108.80510392 111.58191827 113.1953125 105.43359375 C113.97261719 104.34884766 113.97261719 104.34884766 114.765625 103.2421875 C115.45229248 102.27949951 115.45229248 102.27949951 116.15283203 101.29736328 C117.84836649 99.05661925 118.87707395 97.81060189 121.6328125 97.0546875 C126.20986221 98.08192309 127.87236166 101.79499242 130.3828125 105.546875 C131.53862332 107.21124257 132.69488575 108.8752966 133.8515625 110.5390625 C134.43808594 111.39467773 135.02460938 112.25029297 135.62890625 113.13183594 C138.31690984 117.02465183 141.10070776 120.84605843 143.8828125 124.671875 C144.9666815 126.17148798 146.05001316 127.67148948 147.1328125 129.171875 C147.9371875 130.285625 147.9371875 130.285625 148.7578125 131.421875 C150.3828125 133.671875 152.0078125 135.921875 153.6328125 138.171875 C154.16994873 138.9155835 154.70708496 139.65929199 155.26049805 140.42553711 C156.33495099 141.91327849 157.40933345 143.40107078 158.48364258 144.88891602 C161.32724564 148.82691078 164.17236034 152.76380259 167.01953125 156.69921875 C167.61378906 157.52099609 168.20804687 158.34277344 168.8203125 159.18945312 C169.96179041 160.76790305 171.10369732 162.34604285 172.24609375 163.92382812 C173.01566406 164.98827148 173.01566406 164.98827148 173.80078125 166.07421875 C174.25219482 166.69804443 174.7036084 167.32187012 175.16870117 167.96459961 C176.26980804 169.51296887 177.32889911 171.09100491 178.3828125 172.671875 C178.0528125 174.321875 177.7228125 175.971875 177.3828125 177.671875 C162.0378125 178.166875 162.0378125 178.166875 146.3828125 178.671875 C146.21966608 197.25769627 146.11086705 215.84126855 146.10040569 234.42774677 C146.09381977 243.05862653 146.06313147 251.68814076 145.97485352 260.31860352 C145.89793274 267.84480432 145.8670993 275.36957474 145.89062911 282.89615601 C145.90149595 286.8788153 145.88995357 290.8584552 145.82312584 294.84063148 C144.65174828 311.82214511 144.65174828 311.82214511 150.19668579 326.94955444 C153.23575252 329.84681807 156.68529468 331.70013629 160.3828125 333.671875 C180.19693945 351.82553049 190.38098036 378.48503233 191.625 404.9296875 C192.34193827 431.07611463 184.04492036 455.59116226 167.3828125 475.671875 C166.69703125 476.52136719 166.01125 477.37085938 165.3046875 478.24609375 C151.27200611 494.79946051 132.27869369 505.43212231 111.3828125 510.671875 C110.65562012 510.85588867 109.92842773 511.03990234 109.17919922 511.22949219 C83.13247442 517.1900113 54.13640397 512.1932206 31.4453125 498.234375 C13.5882704 486.08727698 1.33682555 471.84868916 -8.50390625 452.8203125 C-8.86548828 452.12719971 -9.22707031 451.43408691 -9.59960938 450.7199707 C-10.6171875 448.671875 -10.6171875 448.671875 -11.38476562 446.77026367 C-14.42946148 439.57228567 -20.23806755 434.57990761 -25.7421875 429.234375 C-26.76779518 428.22027825 -27.79254235 427.20531043 -28.81640625 426.18945312 C-34.13834655 420.24106596 -34.13834655 420.24106596 -41.19140625 417.375 C-45.78647416 417.77320429 -49.29466742 419.46372947 -53.4296875 421.421875 C-55.72070312 422.4765625 -55.72070312 422.4765625 -58.01171875 423.53125 C-58.76275879 423.88380859 -59.51379883 424.23636719 -60.28759766 424.59960938 C-63.45200538 426.05612569 -66.65994485 427.4074225 -69.8737793 428.75097656 C-71.799758 429.55201809 -71.799758 429.55201809 -72.6171875 431.671875 C-72.7194117 433.03404692 -72.76298249 434.40089547 -72.77490234 435.7668457 C-72.78516449 436.61144852 -72.79542664 437.45605133 -72.80599976 438.32624817 C-72.81330109 439.24081284 -72.82060242 440.1553775 -72.828125 441.09765625 C-72.85619683 443.02800322 -72.88486132 444.95834165 -72.9140625 446.88867188 C-72.95530935 449.93676486 -72.9921903 452.98469889 -73.01855469 456.03295898 C-73.04618491 458.97152821 -73.09206085 461.90936836 -73.140625 464.84765625 C-73.14387787 465.75614822 -73.14713074 466.6646402 -73.15048218 467.60066223 C-73.24339568 472.3906782 -73.40091123 475.843088 -76.6171875 479.671875 C-89.64499663 485.33613984 -107.42484888 483.2290204 -121.3046875 481.921875 C-122.45457153 481.82942505 -122.45457153 481.82942505 -123.62768555 481.73510742 C-127.1263017 481.359294 -129.2905943 480.93148803 -132.07421875 478.71875 C-134.31425771 475.74715401 -134.73950465 474.12864201 -134.72729492 470.46923828 C-134.72787399 469.60138702 -134.72845306 468.73353577 -134.72904968 467.83938599 C-134.72693985 466.89981049 -134.72483002 465.96023499 -134.72265625 464.9921875 C-134.73611068 463.01170784 -134.75113354 461.03123833 -134.76757812 459.05078125 C-134.79043559 455.92102964 -134.80466981 452.79242214 -134.79223633 449.66259766 C-134.78343715 446.64662026 -134.81227882 443.63292847 -134.84765625 440.6171875 C-134.82930977 439.21389694 -134.82930977 439.21389694 -134.81059265 437.78225708 C-134.85748357 435.27367265 -134.96217846 433.09421588 -135.6171875 430.671875 C-138.28877634 428.02212867 -138.28877634 428.02212867 -141.6171875 426.671875 C-142.29523438 426.35597412 -142.97328125 426.04007324 -143.671875 425.71459961 C-144.27257812 425.50327393 -144.87328125 425.29194824 -145.4921875 425.07421875 C-146.50539062 424.70780273 -146.50539062 424.70780273 -147.5390625 424.33398438 C-148.56773437 423.97530273 -148.56773437 423.97530273 -149.6171875 423.609375 C-154.46890603 421.89029804 -159.01405952 420.00027938 -163.6171875 417.671875 C-166.53037664 416.83787625 -166.53037664 416.83787625 -169.6171875 417.671875 C-174.65713534 421.24695541 -178.87606471 425.92225444 -183.11328125 430.38671875 C-184.09428961 431.41221598 -185.0754109 432.4376052 -186.05664062 433.46289062 C-187.56700238 435.04126672 -189.06890766 436.6247738 -190.55102539 438.22973633 C-199.92002681 448.34174884 -199.92002681 448.34174884 -205.4140625 448.69140625 C-210.1334421 448.024302 -213.07746958 445.65327443 -216.4296875 442.421875 C-217.02152832 441.88191895 -217.61336914 441.34196289 -218.22314453 440.78564453 C-220.04631016 439.1056824 -221.83408171 437.39420993 -223.6171875 435.671875 C-224.16906738 435.14883789 -224.72094727 434.62580078 -225.28955078 434.08691406 C-244.33272512 415.99503363 -244.33272512 415.99503363 -244.6171875 407.671875 C-242.51550887 402.31010481 -239.29647052 399.03367398 -235.19921875 395.171875 C-233.93254691 393.94311621 -232.66628288 392.71393692 -231.40039062 391.484375 C-229.41093398 389.56953222 -227.41700942 387.65982844 -225.4152832 385.7578125 C-223.47588477 383.90900017 -221.55556116 382.04198006 -219.63671875 380.171875 C-218.73213676 379.32786133 -218.73213676 379.32786133 -217.8092804 378.46679688 C-215.05185137 375.76010323 -213.73345724 374.4383742 -213.14038086 370.52856445 C-213.57847247 367.9038282 -214.10869073 365.86663952 -215.2265625 363.46484375 C-215.56945312 362.71267578 -215.91234375 361.96050781 -216.265625 361.18554688 C-216.62914062 360.41791016 -216.99265625 359.65027344 -217.3671875 358.859375 C-218.0703125 357.33203125 -218.7734375 355.8046875 -219.4765625 354.27734375 C-219.82783203 353.52630371 -220.17910156 352.77526367 -220.54101562 352.00146484 C-222.00737498 348.82723594 -223.40269909 345.62303372 -224.79394531 342.4152832 C-225.490613 340.68595741 -225.490613 340.68595741 -226.6171875 339.671875 C-229.72071808 339.54844455 -232.80538272 339.48566939 -235.91015625 339.4609375 C-237.83920101 339.43285602 -239.76823735 339.40419147 -241.69726562 339.375 C-244.74747367 339.33381079 -247.79752678 339.29693704 -250.84790039 339.27050781 C-253.78565282 339.24282694 -256.7226835 339.19693895 -259.66015625 339.1484375 C-261.01985786 339.1435582 -261.01985786 339.1435582 -262.4070282 339.13858032 C-267.5240906 339.03968798 -271.21677477 338.58160697 -275.6171875 335.671875 C-282.22935042 323.07727897 -280.73174407 296.1440096 -276.6171875 282.671875 C-274.57853747 279.87503446 -272.98078589 277.95850801 -269.49333191 277.22543335 C-266.86515483 277.06302359 -264.27731759 277.05851389 -261.64453125 277.10546875 C-260.20443443 277.09701683 -260.20443443 277.09701683 -258.73524475 277.08839417 C-255.67456019 277.07195484 -252.6153218 277.08748412 -249.5546875 277.109375 C-246.49061956 277.12596352 -243.42750096 277.13507929 -240.36341858 277.11964417 C-238.45914925 277.11035641 -236.55467951 277.11955443 -234.65061951 277.14927673 C-229.53409553 277.17906859 -229.53409553 277.17906859 -225.09985352 274.87036133 C-223.00539682 271.76471625 -221.81119838 268.44213444 -220.6171875 264.921875 C-219.047448 260.48010098 -217.5148214 256.18919352 -215.2421875 252.046875 C-213.4580703 248.34140081 -212.69714593 246.68660184 -213.6171875 242.671875 C-217.24269529 237.65447802 -221.87462971 233.37505537 -226.296875 229.0703125 C-226.79871811 228.58089172 -227.30056122 228.09147095 -227.81761169 227.58721924 C-229.90480881 225.55482497 -231.99280394 223.52380754 -234.09960938 221.51171875 C-235.65613189 220.02187713 -237.19616223 218.51652107 -238.734375 217.0078125 C-239.64815918 216.12657715 -240.56194336 215.2453418 -241.50341797 214.33740234 C-243.911818 211.30033702 -244.49285967 209.51985398 -244.6171875 205.671875 C-241.1422597 198.14564916 -235.29515896 192.58215166 -229.6171875 186.671875 C-229.11558105 186.14303711 -228.61397461 185.61419922 -228.09716797 185.06933594 C-211.97671657 168.12286077 -211.97671657 168.12286077 -203.9921875 167.296875 C-194.37380611 171.21547483 -187.10187855 181.15997718 -180.02978516 188.58154297 C-178.6094509 190.06858196 -177.17360333 191.53908315 -175.734375 193.0078125 C-174.47536377 194.31564697 -174.47536377 194.31564697 -173.19091797 195.64990234 C-170.19468535 198.0038009 -168.40075195 198.5281278 -164.6171875 198.671875 C-162.4053416 198.1682671 -162.4053416 198.1682671 -160.41015625 197.125 C-159.65798828 196.774375 -158.90582031 196.42375 -158.13085938 196.0625 C-157.36322266 195.68609375 -156.59558594 195.3096875 -155.8046875 194.921875 C-154.27936283 194.19367226 -152.75201255 193.46969708 -151.22265625 192.75 C-150.47032715 192.39486328 -149.71799805 192.03972656 -148.94287109 191.67382812 C-145.85371886 190.34295675 -142.69341705 189.38242996 -139.45825195 188.47167969 C-137.25159882 187.71079692 -137.25159882 187.71079692 -135.6171875 184.671875 C-135.31181796 182.67011012 -135.31181796 182.67011012 -135.34594727 180.46337891 C-135.33576065 179.61885162 -135.32557404 178.77432434 -135.31507874 177.90420532 C-135.31293869 176.99480194 -135.31079865 176.08539856 -135.30859375 175.1484375 C-135.28343302 173.22135115 -135.25803501 171.29426789 -135.23242188 169.3671875 C-135.20368192 166.33008629 -135.17966378 163.2930387 -135.16088867 160.25585938 C-135.13921834 157.32393551 -135.09977635 154.39264274 -135.05859375 151.4609375 C-135.05847794 150.55558258 -135.05836212 149.65022766 -135.0582428 148.71743774 C-134.98331692 143.93819073 -134.86194345 140.4643991 -131.6171875 136.671875 C-124.36530392 131.83759471 -112.60629834 133.4890467 -104.3046875 133.484375 C-103.17095703 133.47212891 -102.03722656 133.45988281 -100.86914062 133.44726562 C-80.55468111 133.41254005 -80.55468111 133.41254005 -75.81518555 137.05786133 C-73.7137964 139.8889768 -73.4868483 142.51058309 -73.44360352 145.91210938 C-73.43011368 146.76309204 -73.41662384 147.61407471 -73.40272522 148.49084473 C-73.38706764 149.86436096 -73.38706764 149.86436096 -73.37109375 151.265625 C-73.33816689 153.20182763 -73.30495506 155.13802544 -73.27148438 157.07421875 C-73.22399124 160.12903649 -73.17953424 163.18383305 -73.14038086 166.23876953 C-73.10074082 169.18542486 -73.04918969 172.13168579 -72.99609375 175.078125 C-72.98347252 176.45164124 -72.98347252 176.45164124 -72.97059631 177.85290527 C-72.95395432 178.70388794 -72.93731232 179.55487061 -72.92016602 180.43164062 C-72.90985855 181.17982056 -72.89955109 181.92800049 -72.88893127 182.69885254 C-72.7193242 184.99098852 -72.7193242 184.99098852 -70.6171875 187.671875 C-68.1389254 188.74276512 -65.72590067 189.67352913 -63.1796875 190.546875 C-57.25494067 192.64691141 -51.63012477 194.97022885 -46.046875 197.88671875 C-42.78226223 198.94168204 -40.94338353 198.5280807 -37.6171875 197.671875 C-31.9068073 194.28202055 -26.74762499 189.83947162 -24.9533844 183.22462463 C-23.92042596 176.0988596 -24.24041561 168.9250698 -24.4453125 161.75 C-24.46772652 159.43549013 -24.48479269 157.12092288 -24.49676514 154.80633545 C-24.54233076 148.74840876 -24.65997444 142.69399912 -24.79321289 136.63745117 C-24.91652668 130.44368053 -24.97089355 124.24933491 -25.03125 118.0546875 C-25.15949829 105.9255478 -25.36398474 93.79900515 -25.6171875 81.671875 C-26.51550293 81.65205566 -27.41381836 81.63223633 -28.33935547 81.61181641 C-31.66808828 81.53378239 -34.99636006 81.44709386 -38.32470703 81.35449219 C-39.7660249 81.31617826 -41.20743918 81.28132957 -42.64892578 81.25 C-44.71942636 81.20440054 -46.78926183 81.14640056 -48.859375 81.0859375 C-50.1057373 81.0545166 -51.35209961 81.0230957 -52.63623047 80.99072266 C-55.6171875 80.671875 -55.6171875 80.671875 -57.6171875 78.671875 C-57.29182626 74.95901887 -56.17714788 72.63257576 -53.94921875 69.6953125 C-53.39298828 68.95216797 -52.83675781 68.20902344 -52.26367188 67.44335938 C-51.65845703 66.65251953 -51.05324219 65.86167969 -50.4296875 65.046875 C-49.14430181 63.33610987 -47.85915203 61.62516746 -46.57421875 59.9140625 C-45.91502441 59.04233398 -45.25583008 58.17060547 -44.57666016 57.27246094 C-41.55625238 53.26381607 -38.58797017 49.21734852 -35.6171875 45.171875 C-34.45338609 43.59225552 -33.28932259 42.01282911 -32.125 40.43359375 C-29.1682753 36.42113178 -26.21519946 32.40599924 -23.26342773 28.38989258 C-21.52000824 26.02215829 -19.76989287 23.65947961 -18.01953125 21.296875 C-15.72603457 18.19603076 -13.47396108 15.07016052 -11.24609375 11.921875 C-10.70807129 11.17381592 -10.17004883 10.42575684 -9.61572266 9.6550293 C-8.60095714 8.24397515 -7.5985488 6.82392256 -6.61083984 5.39379883 C-3.31080248 0.84993735 -3.31080248 0.84993735 0 0 Z " fill="#7BA1B0" transform="translate(299.6171875,-0.671875)"/>
<path d="M0 0 C4.57704971 1.02723559 6.23954916 4.74030492 8.75 8.4921875 C9.90581082 10.15655507 11.06207325 11.8206091 12.21875 13.484375 C12.80527344 14.33999023 13.39179688 15.19560547 13.99609375 16.07714844 C16.68409734 19.96996433 19.46789526 23.79137093 22.25 27.6171875 C23.333869 29.11680048 24.41720066 30.61680198 25.5 32.1171875 C26.304375 33.2309375 26.304375 33.2309375 27.125 34.3671875 C28.75 36.6171875 30.375 38.8671875 32 41.1171875 C32.53713623 41.860896 33.07427246 42.60460449 33.62768555 43.37084961 C34.70213849 44.85859099 35.77652095 46.34638328 36.85083008 47.83422852 C39.69443314 51.77222328 42.53954784 55.70911509 45.38671875 59.64453125 C45.98097656 60.46630859 46.57523438 61.28808594 47.1875 62.13476562 C48.32897791 63.71321555 49.47088482 65.29135535 50.61328125 66.86914062 C51.12632812 67.57876953 51.639375 68.28839844 52.16796875 69.01953125 C52.84508911 69.95526978 52.84508911 69.95526978 53.53588867 70.90991211 C54.63699554 72.45828137 55.69608661 74.03631741 56.75 75.6171875 C56.42 77.2671875 56.09 78.9171875 55.75 80.6171875 C40.405 81.1121875 40.405 81.1121875 24.75 81.6171875 C24.58685358 100.20300877 24.47805455 118.78658105 24.46759319 137.37305927 C24.46100727 146.00393903 24.43031897 154.63345326 24.34204102 163.26391602 C24.26512024 170.79011682 24.2342868 178.31488724 24.25781661 185.84146851 C24.26868345 189.8241278 24.25714107 193.8037677 24.19031334 197.78594398 C23.01893578 214.76745761 23.01893578 214.76745761 28.56387329 229.89486694 C31.60294002 232.79213057 35.05248218 234.64544879 38.75 236.6171875 C58.56412695 254.77084299 68.74816786 281.43034483 69.9921875 307.875 C70.70912577 334.02142713 62.41210786 358.53647476 45.75 378.6171875 C45.06421875 379.46667969 44.3784375 380.31617188 43.671875 381.19140625 C29.63919361 397.74477301 10.64588119 408.37743481 -10.25 413.6171875 C-11.34078857 413.89320801 -11.34078857 413.89320801 -12.45361328 414.17480469 C-38.50033808 420.1353238 -67.49640853 415.1385331 -90.1875 401.1796875 C-112.42615271 386.05203686 -129.96299791 365.19405997 -136.25 338.6171875 C-136.69472656 336.85955078 -136.69472656 336.85955078 -137.1484375 335.06640625 C-143.06987496 308.47426279 -138.61322134 281.85719934 -125.33984375 258.21484375 C-123.43030315 255.23094149 -121.41485729 252.4210456 -119.25 249.6171875 C-118.84410645 249.08931641 -118.43821289 248.56144531 -118.02001953 248.01757812 C-101.29267497 226.53707393 -77.21791326 211.98605081 -50.25 207.6171875 C-41.40204863 206.5638158 -33.07184926 206.48541046 -24.25 207.6171875 C-24.35710355 191.33643635 -24.46984023 175.05573558 -24.58933926 158.77507114 C-24.64468865 151.21619293 -24.6981734 143.65731 -24.74731445 136.09838867 C-24.79013534 129.51236124 -24.83640793 122.92636881 -24.88687855 116.34039539 C-24.91349646 112.85107736 -24.93834986 109.36176634 -24.95907402 105.87240791 C-24.98223673 101.98333227 -25.01310358 98.0943392 -25.04467773 94.20532227 C-25.0504332 93.04007523 -25.05618866 91.87482819 -25.06211853 90.67427063 C-25.07190735 89.62112671 -25.08169617 88.56798279 -25.09178162 87.48292542 C-25.09823417 86.56205422 -25.10468672 85.64118303 -25.1113348 84.69240665 C-25.02060218 82.62712196 -25.02060218 82.62712196 -26.25 81.6171875 C-28.45546026 81.47066035 -30.66533134 81.38969238 -32.875 81.3359375 C-33.53709473 81.31752808 -34.19918945 81.29911865 -34.88134766 81.28015137 C-37.00413915 81.22124053 -39.12701174 81.16848826 -41.25 81.1171875 C-44.04184495 81.04972422 -46.83342105 80.97605685 -49.625 80.8984375 C-50.87023437 80.86814453 -52.11546875 80.83785156 -53.3984375 80.80664062 C-56.25 80.6171875 -56.25 80.6171875 -57.25 79.6171875 C-57.67663338 75.51514461 -56.94025981 73.59914795 -54.42578125 70.38671875 C-53.81581299 69.59297852 -53.20584473 68.79923828 -52.57739258 67.98144531 C-51.91247803 67.13936523 -51.24756348 66.29728516 -50.5625 65.4296875 C-49.17561296 63.63003842 -47.79022412 61.82923389 -46.40625 60.02734375 C-45.70628906 59.12129395 -45.00632812 58.21524414 -44.28515625 57.28173828 C-41.29591293 53.36803847 -38.4249362 49.37407159 -35.5625 45.3671875 C-31.05100723 39.07825298 -26.45675571 32.86102851 -21.79077148 26.68603516 C-17.2444744 20.65198254 -12.82770858 14.52723077 -8.4375 8.37890625 C-7.91929687 7.65574219 -7.40109375 6.93257813 -6.8671875 6.1875 C-6.40940918 5.54570801 -5.95163086 4.90391602 -5.47998047 4.24267578 C-3.78444601 2.00193175 -2.75573855 0.75591439 0 0 Z " fill="#D73E25" transform="translate(421.25,96.3828125)"/>
<path d="M0 0 C1.13373047 -0.01224609 2.26746094 -0.02449219 3.43554688 -0.03710938 C23.75000639 -0.07183495 23.75000639 -0.07183495 28.48950195 3.57348633 C30.89573883 6.81531066 30.80569194 9.8492226 30.78515625 13.73046875 C30.78193359 14.80361328 30.77871094 15.87675781 30.77539062 16.98242188 C30.76701172 18.10197266 30.75863281 19.22152344 30.75 20.375 C30.74548828 21.50615234 30.74097656 22.63730469 30.73632812 23.80273438 C30.72453498 26.59770927 30.7080765 29.3925782 30.6875 32.1875 C29.69492188 32.66058594 28.70234375 33.13367188 27.6796875 33.62109375 C14.30614858 40.09077107 1.98396885 47.45161083 -9.3125 57.1875 C-10.74529297 58.41919922 -10.74529297 58.41919922 -12.20703125 59.67578125 C-20.42777123 66.90042964 -28.56307495 74.93845825 -34.22265625 84.37109375 C-36.75321877 87.78144062 -38.87389374 88.7656267 -42.75 90.4375 C-65.40215608 100.88317397 -80.09064355 120.58608136 -89.3125 143.1875 C-89.99892578 144.83492188 -89.99892578 144.83492188 -90.69921875 146.515625 C-96.49780304 163.68757285 -95.70076729 188.32852242 -89.3125 205.1875 C-89.07112305 205.84169922 -88.82974609 206.49589844 -88.58105469 207.16992188 C-80.55266199 228.51837741 -65.71611996 246.90936518 -45.25415039 257.375 C-37.94613215 261.13217606 -33.32833832 264.87119059 -28.52587891 271.53540039 C-13.35295429 292.54729655 7.85607146 305.88556361 30.6875 317.1875 C30.77482726 321.08319135 30.82800185 324.97862982 30.875 328.875 C30.90013672 329.97779297 30.92527344 331.08058594 30.95117188 332.21679688 C30.96567383 333.8168457 30.96567383 333.8168457 30.98046875 335.44921875 C31.00403442 336.91814575 31.00403442 336.91814575 31.02807617 338.41674805 C30.62388178 341.70506504 29.66394546 343.54710828 27.6875 346.1875 C14.65969087 351.85176484 -3.12016138 349.7446454 -17 348.4375 C-18.14988403 348.34505005 -18.14988403 348.34505005 -19.32299805 348.25073242 C-22.8216142 347.874919 -24.9859068 347.44711303 -27.76953125 345.234375 C-30.00957021 342.26277901 -30.43481715 340.64426701 -30.42260742 336.98486328 C-30.42318649 336.11701202 -30.42376556 335.24916077 -30.42436218 334.35501099 C-30.42225235 333.41543549 -30.42014252 332.47585999 -30.41796875 331.5078125 C-30.43142318 329.52733284 -30.44644604 327.54686333 -30.46289062 325.56640625 C-30.48574809 322.43665464 -30.49998231 319.30804714 -30.48754883 316.17822266 C-30.47874965 313.16224526 -30.50759132 310.14855347 -30.54296875 307.1328125 C-30.52462227 305.72952194 -30.52462227 305.72952194 -30.50590515 304.29788208 C-30.55279607 301.78929765 -30.65749096 299.60984088 -31.3125 297.1875 C-33.98408884 294.53775367 -33.98408884 294.53775367 -37.3125 293.1875 C-37.99054688 292.87159912 -38.66859375 292.55569824 -39.3671875 292.23022461 C-39.96789062 292.01889893 -40.56859375 291.80757324 -41.1875 291.58984375 C-42.20070312 291.22342773 -42.20070312 291.22342773 -43.234375 290.84960938 C-44.26304687 290.49092773 -44.26304687 290.49092773 -45.3125 290.125 C-50.16421853 288.40592304 -54.70937202 286.51590438 -59.3125 284.1875 C-62.22568914 283.35350125 -62.22568914 283.35350125 -65.3125 284.1875 C-70.35244784 287.76258041 -74.57137721 292.43787944 -78.80859375 296.90234375 C-79.78960211 297.92784098 -80.7707234 298.9532302 -81.75195312 299.97851562 C-83.26231488 301.55689172 -84.76422016 303.1403988 -86.24633789 304.74536133 C-95.61533931 314.85737384 -95.61533931 314.85737384 -101.109375 315.20703125 C-105.8287546 314.539927 -108.77278208 312.16889943 -112.125 308.9375 C-112.71684082 308.39754395 -113.30868164 307.85758789 -113.91845703 307.30126953 C-115.74162266 305.6213074 -117.52939421 303.90983493 -119.3125 302.1875 C-119.86437988 301.66446289 -120.41625977 301.14142578 -120.98486328 300.60253906 C-140.02803762 282.51065863 -140.02803762 282.51065863 -140.3125 274.1875 C-138.21082137 268.82572981 -134.99178302 265.54929898 -130.89453125 261.6875 C-129.62785941 260.45874121 -128.36159538 259.22956192 -127.09570312 258 C-125.10624648 256.08515722 -123.11232192 254.17545344 -121.1105957 252.2734375 C-119.17119727 250.42462517 -117.25087366 248.55760506 -115.33203125 246.6875 C-114.42744926 245.84348633 -114.42744926 245.84348633 -113.5045929 244.98242188 C-110.74716387 242.27572823 -109.42876974 240.9539992 -108.83569336 237.04418945 C-109.27378497 234.4194532 -109.80400323 232.38226452 -110.921875 229.98046875 C-111.26476562 229.22830078 -111.60765625 228.47613281 -111.9609375 227.70117188 C-112.32445312 226.93353516 -112.68796875 226.16589844 -113.0625 225.375 C-113.765625 223.84765625 -114.46875 222.3203125 -115.171875 220.79296875 C-115.52314453 220.04192871 -115.87441406 219.29088867 -116.23632812 218.51708984 C-117.70268748 215.34286094 -119.09801159 212.13865872 -120.48925781 208.9309082 C-121.1859255 207.20158241 -121.1859255 207.20158241 -122.3125 206.1875 C-125.41603058 206.06406955 -128.50069522 206.00129439 -131.60546875 205.9765625 C-133.53451351 205.94848102 -135.46354985 205.91981647 -137.39257812 205.890625 C-140.44278617 205.84943579 -143.49283928 205.81256204 -146.54321289 205.78613281 C-149.48096532 205.75845194 -152.417996 205.71256395 -155.35546875 205.6640625 C-156.71517036 205.6591832 -156.71517036 205.6591832 -158.1023407 205.65420532 C-163.2194031 205.55531298 -166.91208727 205.09723197 -171.3125 202.1875 C-177.92466292 189.59290397 -176.42705657 162.6596346 -172.3125 149.1875 C-170.27384997 146.39065946 -168.67609839 144.47413301 -165.18864441 143.74105835 C-162.56046733 143.57864859 -159.97263009 143.57413889 -157.33984375 143.62109375 C-155.89974693 143.61264183 -155.89974693 143.61264183 -154.43055725 143.60401917 C-151.36987269 143.58757984 -148.3106343 143.60310912 -145.25 143.625 C-142.18593206 143.64158852 -139.12281346 143.65070429 -136.05873108 143.63526917 C-134.15446175 143.62598141 -132.24999201 143.63517943 -130.34593201 143.66490173 C-125.22940803 143.69469359 -125.22940803 143.69469359 -120.79516602 141.38598633 C-118.70070932 138.28034125 -117.50651088 134.95775944 -116.3125 131.4375 C-114.7427605 126.99572598 -113.2101339 122.70481852 -110.9375 118.5625 C-109.1533828 114.85702581 -108.39245843 113.20222684 -109.3125 109.1875 C-112.93800779 104.17010302 -117.56994221 99.89068037 -121.9921875 95.5859375 C-122.49403061 95.09651672 -122.99587372 94.60709595 -123.51292419 94.10284424 C-125.60012131 92.07044997 -127.68811644 90.03943254 -129.79492188 88.02734375 C-131.35144439 86.53750213 -132.89147473 85.03214607 -134.4296875 83.5234375 C-135.34347168 82.64220215 -136.25725586 81.7609668 -137.19873047 80.85302734 C-139.6071305 77.81596202 -140.18817217 76.03547898 -140.3125 72.1875 C-136.8375722 64.66127416 -130.99047146 59.09777666 -125.3125 53.1875 C-124.81089355 52.65866211 -124.30928711 52.12982422 -123.79248047 51.58496094 C-107.67202907 34.63848577 -107.67202907 34.63848577 -99.6875 33.8125 C-90.06911861 37.73109983 -82.79719105 47.67560218 -75.72509766 55.09716797 C-74.3047634 56.58420696 -72.86891583 58.05470815 -71.4296875 59.5234375 C-70.59034668 60.39532715 -69.75100586 61.2672168 -68.88623047 62.16552734 C-65.88999785 64.5194259 -64.09606445 65.0437528 -60.3125 65.1875 C-58.1006541 64.6838921 -58.1006541 64.6838921 -56.10546875 63.640625 C-55.35330078 63.29 -54.60113281 62.939375 -53.82617188 62.578125 C-53.05853516 62.20171875 -52.29089844 61.8253125 -51.5 61.4375 C-49.97467533 60.70929726 -48.44732505 59.98532208 -46.91796875 59.265625 C-46.16563965 58.91048828 -45.41331055 58.55535156 -44.63818359 58.18945312 C-41.54903136 56.85858175 -38.38872955 55.89805496 -35.15356445 54.98730469 C-32.94691132 54.22642192 -32.94691132 54.22642192 -31.3125 51.1875 C-31.00713046 49.18573512 -31.00713046 49.18573512 -31.04125977 46.97900391 C-31.03107315 46.13447662 -31.02088654 45.28994934 -31.01039124 44.41983032 C-31.00825119 43.51042694 -31.00611115 42.60102356 -31.00390625 41.6640625 C-30.97874552 39.73697615 -30.95334751 37.80989289 -30.92773438 35.8828125 C-30.89899442 32.84571129 -30.87497628 29.8086637 -30.85620117 26.77148438 C-30.83453084 23.83956051 -30.79508885 20.90826774 -30.75390625 17.9765625 C-30.75379044 17.07120758 -30.75367462 16.16585266 -30.7535553 15.23306274 C-30.67862942 10.45381573 -30.55725595 6.9800241 -27.3125 3.1875 C-20.06061642 -1.64678029 -8.30161084 0.0046717 0 0 Z " fill="#678D98" transform="translate(195.3125,132.8125)"/>
<path d="M0 0 C1.60387002 1.20224627 3.18731544 2.43218645 4.75 3.6875 C5.99716797 4.68910156 5.99716797 4.68910156 7.26953125 5.7109375 C21.29235409 17.6443382 32.50899675 35.13572811 34.75 53.6875 C35.05273151 58.08496084 35.15537861 62.4678206 35.1875 66.875 C35.19773193 67.95555664 35.20796387 69.03611328 35.21850586 70.14941406 C34.98674185 91.43280547 25.23659912 110.48068643 10.75 125.6875 C2.46135011 133.16376801 -7.07153315 138.29278204 -17.25 142.6875 C-18.30058594 143.14511719 -19.35117188 143.60273438 -20.43359375 144.07421875 C-39.01178712 150.68443736 -60.94205712 148.03079435 -78.44189453 139.90112305 C-85.33000991 136.56808725 -91.57812639 132.8729173 -97.25 127.6875 C-98.14203125 126.88699219 -99.0340625 126.08648437 -99.953125 125.26171875 C-113.9704656 112.02950242 -123.83399482 93.71688266 -124.62109375 74.24609375 C-124.85169659 60.82988271 -124.73711562 49.07353553 -119.25 36.6875 C-118.81558594 35.64207031 -118.38117188 34.59664063 -117.93359375 33.51953125 C-110.06798467 16.19726396 -96.69221638 3.85920647 -80.25 -5.3125 C-79.14591797 -5.92931641 -79.14591797 -5.92931641 -78.01953125 -6.55859375 C-53.45560258 -18.76928943 -22.40401943 -15.07560186 0 0 Z " fill="#DEF5FC" transform="translate(240.25,240.3125)"/>
<path d="M0 0 C0.79148437 0.63679688 1.58296875 1.27359375 2.3984375 1.9296875 C3.64753906 2.91582031 3.64753906 2.91582031 4.921875 3.921875 C17.91371025 14.83501661 27.68971999 31.00797252 29.23046875 48.1015625 C30.51789647 69.77825243 26.30177965 88.65020381 11.6484375 105.53125 C-1.70471268 119.76533717 -20.21432496 128.5584176 -39.80859375 129.33447266 C-57.89806068 129.60744434 -75.09995066 122.96030661 -88.6015625 110.9296875 C-89.59542969 110.07503906 -89.59542969 110.07503906 -90.609375 109.203125 C-101.15721278 99.48256862 -106.85859246 87.53137328 -110.6015625 73.9296875 C-110.78041992 73.31174316 -110.95927734 72.69379883 -111.14355469 72.05712891 C-115.04754144 53.92315207 -110.66464691 35.61145597 -101.6015625 19.9296875 C-99.47731619 16.709056 -97.17607867 13.80043461 -94.6015625 10.9296875 C-93.92351562 10.17042969 -93.24546875 9.41117187 -92.546875 8.62890625 C-68.81571165 -16.49572398 -28.00543519 -21.11736699 0 0 Z " fill="#FAFBFB" transform="translate(427.6015625,350.0703125)"/>
<path d="M0 0 C4.57704971 1.02723559 6.23954916 4.74030492 8.75 8.4921875 C9.90581082 10.15655507 11.06207325 11.8206091 12.21875 13.484375 C12.80527344 14.33999023 13.39179688 15.19560547 13.99609375 16.07714844 C16.68409734 19.96996433 19.46789526 23.79137093 22.25 27.6171875 C23.333869 29.11680048 24.41720066 30.61680198 25.5 32.1171875 C26.03625 32.8596875 26.5725 33.6021875 27.125 34.3671875 C28.75 36.6171875 30.375 38.8671875 32 41.1171875 C32.53713623 41.860896 33.07427246 42.60460449 33.62768555 43.37084961 C34.70213849 44.85859099 35.77652095 46.34638328 36.85083008 47.83422852 C39.69443314 51.77222328 42.53954784 55.70911509 45.38671875 59.64453125 C45.98097656 60.46630859 46.57523437 61.28808594 47.1875 62.13476562 C48.32897791 63.71321555 49.47088482 65.29135535 50.61328125 66.86914062 C51.38285156 67.93358398 51.38285156 67.93358398 52.16796875 69.01953125 C52.84508911 69.95526978 52.84508911 69.95526978 53.53588867 70.90991211 C54.63699554 72.45828137 55.69608661 74.03631741 56.75 75.6171875 C56.42 77.2671875 56.09 78.9171875 55.75 80.6171875 C40.405 81.1121875 40.405 81.1121875 24.75 81.6171875 C24.75 129.1371875 24.75 176.6571875 24.75 225.6171875 C21.14045201 224.17336831 17.81264253 222.6452665 14.38354492 220.85009766 C3.33390155 215.09896444 -7.77513726 210.83017147 -20.17578125 208.9765625 C-22.25 208.6171875 -22.25 208.6171875 -24.25 207.6171875 C-24.25423194 206.97389276 -24.25846388 206.33059801 -24.26282406 205.66780949 C-24.36599285 190.03685341 -24.47460964 174.40594623 -24.58933926 158.77507114 C-24.64468865 151.21619293 -24.6981734 143.65731 -24.74731445 136.09838867 C-24.79013534 129.51236124 -24.83640793 122.92636881 -24.88687855 116.34039539 C-24.91349646 112.85107736 -24.93834986 109.36176634 -24.95907402 105.87240791 C-24.98223673 101.98333227 -25.01310358 98.0943392 -25.04467773 94.20532227 C-25.05331093 92.45745171 -25.05331093 92.45745171 -25.06211853 90.67427063 C-25.07190735 89.62112671 -25.08169617 88.56798279 -25.09178162 87.48292542 C-25.09823417 86.56205422 -25.10468672 85.64118303 -25.1113348 84.69240665 C-25.02060218 82.62712196 -25.02060218 82.62712196 -26.25 81.6171875 C-28.45546026 81.47066035 -30.66533134 81.38969238 -32.875 81.3359375 C-33.53709473 81.31752808 -34.19918945 81.29911865 -34.88134766 81.28015137 C-37.00413915 81.22124053 -39.12701174 81.16848826 -41.25 81.1171875 C-44.04184495 81.04972422 -46.83342105 80.97605685 -49.625 80.8984375 C-50.87023437 80.86814453 -52.11546875 80.83785156 -53.3984375 80.80664062 C-56.25 80.6171875 -56.25 80.6171875 -57.25 79.6171875 C-57.67663338 75.51514461 -56.94025981 73.59914795 -54.42578125 70.38671875 C-53.81581299 69.59297852 -53.20584473 68.79923828 -52.57739258 67.98144531 C-51.91247803 67.13936523 -51.24756348 66.29728516 -50.5625 65.4296875 C-49.17561296 63.63003842 -47.79022412 61.82923389 -46.40625 60.02734375 C-45.35630859 58.66826904 -45.35630859 58.66826904 -44.28515625 57.28173828 C-41.29591293 53.36803847 -38.4249362 49.37407159 -35.5625 45.3671875 C-31.05100723 39.07825298 -26.45675571 32.86102851 -21.79077148 26.68603516 C-17.2444744 20.65198254 -12.82770858 14.52723077 -8.4375 8.37890625 C-7.91929687 7.65574219 -7.40109375 6.93257813 -6.8671875 6.1875 C-6.18052002 5.22481201 -6.18052002 5.22481201 -5.47998047 4.24267578 C-3.78444601 2.00193175 -2.75573855 0.75591439 0 0 Z " fill="#05E29B" transform="translate(421.25,96.3828125)"/>
<path d="M0 0 C3.12820638 0.88205164 4.00894145 2.0058873 5.9453125 4.609375 C6.63367188 5.52589844 7.32203125 6.44242187 8.03125 7.38671875 C8.81805441 8.47965299 9.60169942 9.57486599 10.3828125 10.671875 C11.03878418 11.58864014 11.03878418 11.58864014 11.70800781 12.52392578 C14.21701081 16.04090106 16.70335568 19.5732436 19.1796875 23.11328125 C22.3521873 27.64195676 25.5778579 32.13060636 28.8203125 36.609375 C29.35640137 37.35002197 29.89249023 38.09066895 30.44482422 38.85375977 C31.53622815 40.36100654 32.62786336 41.86808588 33.71972656 43.375 C35.41942632 45.72244207 37.11641517 48.07181992 38.8125 50.421875 C39.65627197 51.59049072 39.65627197 51.59049072 40.51708984 52.78271484 C41.62297262 54.31589245 42.72749866 55.85004973 43.83056641 57.38525391 C46.17526357 60.64382626 48.52971304 63.8874966 50.9765625 67.0703125 C51.70875 68.03195313 52.4409375 68.99359375 53.1953125 69.984375 C54.13310547 71.18513672 54.13310547 71.18513672 55.08984375 72.41015625 C56.60558784 75.06156359 56.72966549 76.66409013 56.3828125 79.671875 C56.0528125 80.001875 55.7228125 80.331875 55.3828125 80.671875 C45.4828125 80.671875 35.5828125 80.671875 25.3828125 80.671875 C25.0528125 116.641875 24.7228125 152.611875 24.3828125 189.671875 C21.3828125 188.671875 21.3828125 188.671875 19.6953125 186.546875 C16.63920283 182.7473873 13.11442845 179.79034557 9.3828125 176.671875 C8.63257813 176.01058594 7.88234375 175.34929687 7.109375 174.66796875 C3.68959266 171.77924476 1.20961801 169.87495004 -3.1796875 168.796875 C-8.25542902 170.08888193 -10.99660073 173.00478529 -14.6171875 176.671875 C-15.43316406 177.4865625 -16.24914062 178.30125 -17.08984375 179.140625 C-18.68041824 180.73372021 -20.26188743 182.3359835 -21.83203125 183.94921875 C-23.6171875 185.671875 -23.6171875 185.671875 -24.6171875 185.671875 C-24.9471875 151.351875 -25.2771875 117.031875 -25.6171875 81.671875 C-40.4671875 81.176875 -40.4671875 81.176875 -55.6171875 80.671875 C-56.2771875 80.011875 -56.9371875 79.351875 -57.6171875 78.671875 C-57.29182626 74.95901887 -56.17714788 72.63257576 -53.94921875 69.6953125 C-53.39298828 68.95216797 -52.83675781 68.20902344 -52.26367188 67.44335938 C-51.65845703 66.65251953 -51.05324219 65.86167969 -50.4296875 65.046875 C-49.14430181 63.33610987 -47.85915203 61.62516746 -46.57421875 59.9140625 C-45.91502441 59.04233398 -45.25583008 58.17060547 -44.57666016 57.27246094 C-41.55625238 53.26381607 -38.58797017 49.21734852 -35.6171875 45.171875 C-34.45338609 43.59225552 -33.28932259 42.01282911 -32.125 40.43359375 C-29.1682753 36.42113178 -26.21519946 32.40599924 -23.26342773 28.38989258 C-21.52000824 26.02215829 -19.76989287 23.65947961 -18.01953125 21.296875 C-15.72603457 18.19603076 -13.47396108 15.07016052 -11.24609375 11.921875 C-10.70807129 11.17381592 -10.17004883 10.42575684 -9.61572266 9.6550293 C-8.60095714 8.24397515 -7.5985488 6.82392256 -6.61083984 5.39379883 C-3.31080248 0.84993735 -3.31080248 0.84993735 0 0 Z " fill="#05E29C" transform="translate(299.6171875,-0.671875)"/>
<path d="M0 0 C0.87140625 0.33902344 1.7428125 0.67804688 2.640625 1.02734375 C15.89666638 6.88417964 25.1221033 18.20089558 30.37890625 31.484375 C35.16683767 46.4987941 33.57112208 60.27013402 26.6875 74.3125 C19.55233106 88.08680019 8.39496734 95.87389306 -6.02734375 101.125 C-21.31281314 105.62427088 -35.07642365 102.21572637 -48.765625 94.87890625 C-61.3946824 87.54246107 -69.57909824 74.68775659 -73.3125 60.6875 C-76.09973708 45.7061007 -72.95640559 31.84103433 -65 19 C-56.54967094 7.77737 -46.37472337 1.03192633 -33 -3 C-32.38898438 -3.19207031 -31.77796875 -3.38414062 -31.1484375 -3.58203125 C-20.50777922 -5.65212295 -9.94603727 -3.98630859 0 0 Z " fill="#688D98" transform="translate(216,258)"/>
<path d="M0 0 C17.76457128 15.25997329 32.35994104 35.81308951 35.25 59.625 C36.35438888 74.92573097 37.08775289 91.20333236 31.25 105.625 C31.00862305 106.26356934 30.76724609 106.90213867 30.51855469 107.56005859 C21.13873831 132.27204024 3.65935143 150.74226762 -20.08203125 162.08984375 C-43.61923291 171.94087703 -70.44095667 173.18906874 -94.4375 163.9375 C-117.64271337 154.30714028 -136.35086598 136.49093211 -146.75 113.625 C-155.28475255 92.40156624 -158.48268494 64.48975097 -149.67480469 42.74365234 C-144.5044612 30.89881581 -138.63738294 20.09645606 -129.75 10.625 C-129.05519531 9.8515625 -128.36039063 9.078125 -127.64453125 8.28125 C-94.43648157 -27.04388845 -37.53311825 -29.97436527 0 0 Z M-119.5 21.3125 C-127.26576646 30.40831486 -133.48238822 41.09524028 -136.75 52.625 C-137.10578125 53.76453125 -137.4615625 54.9040625 -137.828125 56.078125 C-139.30443232 62.10997576 -139.07882175 68.26461422 -139.0625 74.4375 C-139.07861328 75.64470703 -139.09472656 76.85191406 -139.11132812 78.09570312 C-139.12261117 98.95805442 -129.94287703 116.77899943 -115.75 131.625 C-114.92048828 132.56666016 -114.92048828 132.56666016 -114.07421875 133.52734375 C-102.43214043 146.26718628 -83.32679919 154.3147934 -66.234375 155.09375 C-63.98982062 155.12801046 -61.74477896 155.13786683 -59.5 155.125 C-58.31559326 155.11855469 -57.13118652 155.11210937 -55.91088867 155.10546875 C-46.2754641 154.90521107 -38.5759552 153.52970138 -29.75 149.625 C-29.08468262 149.34092285 -28.41936523 149.0568457 -27.73388672 148.76416016 C-6.42970992 139.54384437 7.72764329 123.95524137 16.25 102.625 C23.45125931 83.95506845 22.42082021 61.31666781 14.7421875 43.03515625 C4.6233951 21.36211485 -11.4111241 7.49719987 -33.29296875 -1.41015625 C-35.4304048 -2.16298771 -37.55937409 -2.79680506 -39.75 -3.375 C-40.44351563 -3.57867187 -41.13703125 -3.78234375 -41.8515625 -3.9921875 C-70.43242565 -11.16195729 -99.68534087 0.67650785 -119.5 21.3125 Z " fill="#8EBAC5" transform="translate(254.75,232.375)"/>
<path d="M0 0 C16.75105644 2.70746379 31.31365672 7.43723074 46 16 C46.83144531 16.48210937 47.66289062 16.96421875 48.51953125 17.4609375 C70.3762211 31.08690991 85.62876433 54.64295826 91.58642578 79.44091797 C97.33144168 106.7503202 93.40439909 134.9668885 79 159 C76.21532987 163.19926278 73.21627874 167.12382958 70 171 C69.31421875 171.84949219 68.6284375 172.69898438 67.921875 173.57421875 C51.17579881 193.3283864 27.46448974 204.76871058 2 208 C2 207.34 2 206.68 2 206 C1.0203125 206.0515625 0.040625 206.103125 -0.96875 206.15625 C-5.44868188 206.14725415 -9.29312827 204.95028292 -13.5 203.5 C-14.67804199 203.09624146 -14.67804199 203.09624146 -15.87988281 202.68432617 C-27.4404018 198.57041623 -47.20070159 190.59859682 -53 179 C-50.34630304 179.81652214 -47.74555449 180.62050605 -45.265625 181.8828125 C-26.17826141 191.5791932 -3.98444025 191.05270705 15.90527344 184.69677734 C37.47047778 177.52345646 53.94117556 163.73648283 64.7421875 143.78125 C75.5499028 121.62812211 76.88808225 97.75548406 69.31640625 74.42578125 C60.97630992 52.72173233 45.25836669 35.69149224 24.02441406 26.10839844 C4.03975287 17.52418804 -17.24736247 16.42520783 -38 23 C-41.07545268 24.25232157 -44.00557569 25.58200518 -46.93359375 27.14453125 C-49 28 -49 28 -52 27 C-36.87263393 13.66322012 -19.74722155 5.19214759 0 1 C0 0.67 0 0.34 0 0 Z " fill="#FC5326" transform="translate(397,304)"/>
<path d="M0 0 C0.495 0.99 0.495 0.99 1 2 C0.030625 2.20753906 -0.93875 2.41507812 -1.9375 2.62890625 C-19.92027053 6.68018146 -37.36417636 14.23956257 -51 27 C-51 27.66 -51 28.32 -51 29 C-52.87109375 30.2265625 -52.87109375 30.2265625 -55.4375 31.625 C-60.26559519 34.39960947 -64.1666934 37.6268112 -68.1875 41.4609375 C-70 43 -70 43 -72 43 C-72.27585937 43.60070312 -72.55171875 44.20140625 -72.8359375 44.8203125 C-74 47 -74 47 -76.625 49.875 C-84.64705189 59.07388102 -89.51988164 70.42658314 -93 82 C-93.36609375 83.18851562 -93.7321875 84.37703125 -94.109375 85.6015625 C-99.36504146 107.33642052 -94.10653638 130.17231461 -83 149 C-75.90474442 160.29826842 -67.11796985 169.12365274 -55.76171875 176.11328125 C-52.79065804 178.14301579 -50.49368042 180.41366263 -48 183 C-34.46954163 195.32501753 -16.25475277 203.9103112 2 206 C2 206.66 2 207.32 2 208 C-31.73910141 208.97663843 -58.41072482 202.80837797 -83.82421875 179.3984375 C-97.39542462 166.25306755 -107.62678651 149.48676611 -112 131 C-112.44472656 129.24236328 -112.44472656 129.24236328 -112.8984375 127.44921875 C-118.81987496 100.85707529 -114.36322134 74.24001184 -101.08984375 50.59765625 C-99.18030315 47.61375399 -97.16485729 44.8038581 -95 42 C-94.59410645 41.47212891 -94.18821289 40.94425781 -93.77001953 40.40039062 C-76.05059547 17.64590252 -51.16780609 3.95273519 -22.81640625 -0.5 C-15.27581702 -1.30112502 -7.49013763 -1.22876723 0 0 Z " fill="#EE4424" transform="translate(397,304)"/>
<path d="M0 0 C0 0.33 0 0.66 0 1 C-1.52367187 0.98646484 -1.52367187 0.98646484 -3.078125 0.97265625 C-13.10688405 1.09989682 -19.76697408 2.88534654 -28 9 C-28.95777344 9.70898438 -29.91554687 10.41796875 -30.90234375 11.1484375 C-47.34443827 24.00439618 -60.86270662 43.72494771 -63.78466797 64.78857422 C-65.24371085 79.77271299 -65.01646983 94.72109406 -60 109 C-59.62617188 110.07121094 -59.25234375 111.14242187 -58.8671875 112.24609375 C-54.89460235 122.57218429 -49.11707413 131.23388615 -41.50390625 139.22265625 C-40 141 -40 141 -40 143 C-39.39929688 143.27585937 -38.79859375 143.55171875 -38.1796875 143.8359375 C-36 145 -36 145 -33.125 147.625 C-27.75878781 152.38972467 -21.26386577 155.57702758 -15 159 C-15 159.33 -15 159.66 -15 160 C-30.38795168 161.23103613 -48.23898678 152.78113809 -59.859375 142.95703125 C-60.91898438 141.98830078 -60.91898438 141.98830078 -62 141 C-62.89203125 140.19949219 -63.7840625 139.39898437 -64.703125 138.57421875 C-78.7204656 125.34200242 -88.58399482 107.02938266 -89.37109375 87.55859375 C-89.60169659 74.14238271 -89.48711562 62.38603553 -84 50 C-83.56558594 48.95457031 -83.13117188 47.90914063 -82.68359375 46.83203125 C-74.81798467 29.50976396 -61.44221638 17.17170647 -45 8 C-43.89591797 7.38318359 -43.89591797 7.38318359 -42.76953125 6.75390625 C-29.28354906 0.05004276 -14.72814758 -0.58201242 0 0 Z " fill="#C7EEFD" transform="translate(205,227)"/>
<path d="M0 0 C1.02963867 -0.01836914 1.02963867 -0.01836914 2.08007812 -0.03710938 C6.81322725 -0.0505431 10.69220432 0.70082051 15.1875 2.1875 C13.12843698 4.43604735 11.34718114 5.72278312 8.5625 6.9375 C-6.10427022 14.06904882 -13.17180985 26.11472714 -18.8515625 40.890625 C-23.43503266 54.51252697 -19.22332441 66.64894033 -13.39453125 79.25390625 C-7.17826753 90.38049594 3.04080132 99.13860044 15.1875 103.1875 C15.1875 103.8475 15.1875 104.5075 15.1875 105.1875 C-0.45308785 109.35832343 -13.4996611 106.61185427 -27.578125 99.06640625 C-40.2071824 91.72996107 -48.39159824 78.87525659 -52.125 64.875 C-54.91223708 49.8936007 -51.76890559 36.02853433 -43.8125 23.1875 C-35.36217094 11.96487 -25.18722337 5.21942633 -11.8125 1.1875 C-11.20921875 0.99285156 -10.6059375 0.79820312 -9.984375 0.59765625 C-6.66942745 -0.02836802 -3.3607962 0.00310323 0 0 Z " fill="#547A84" transform="translate(194.8125,253.8125)"/>
<path d="M0 0 C2.56958008 0.35742188 2.56958008 0.35742188 4.23876953 1.91796875 C4.71531982 2.63017578 5.19187012 3.34238281 5.68286133 4.07617188 C6.2081543 4.84316406 6.73344727 5.61015625 7.2746582 6.40039062 C7.80510742 7.21121094 8.33555664 8.02203125 8.88208008 8.85742188 C9.43186523 9.66824219 9.98165039 10.4790625 10.5480957 11.31445312 C11.90414601 13.31904922 13.24347184 15.3329452 14.56958008 17.35742188 C13.26260992 20.11063573 11.81375141 22.55375462 10.02270508 25.01757812 C9.51489502 25.71874756 9.00708496 26.41991699 8.48388672 27.14233398 C7.93466553 27.89393799 7.38544434 28.64554199 6.81958008 29.41992188 C5.95610962 30.60823608 5.95610962 30.60823608 5.07519531 31.82055664 C-1.38463924 40.69704508 -7.90617704 49.52823842 -14.43041992 58.35742188 C-17.01482231 61.85663403 -19.59788528 65.35683113 -22.18041992 68.85742188 C-22.77717529 69.66493896 -23.37393066 70.47245605 -23.98876953 71.30444336 C-24.54185791 72.05411377 -25.09494629 72.80378418 -25.66479492 73.57617188 C-26.15173828 74.23552734 -26.63868164 74.89488281 -27.14038086 75.57421875 C-28.27464889 77.14210173 -29.35698962 78.74727642 -30.43041992 80.35742188 C-33.02832031 80.71386719 -33.02832031 80.71386719 -36.27807617 80.68554688 C-38.02121094 80.6778125 -38.02121094 80.6778125 -39.79956055 80.66992188 C-41.01836914 80.64929688 -42.23717773 80.62867188 -43.49291992 80.60742188 C-44.7155957 80.60226563 -45.93827148 80.59710938 -47.19799805 80.59179688 C-56.27669968 80.51114211 -56.27669968 80.51114211 -57.43041992 79.35742188 C-57.8570533 75.25537898 -57.12067973 73.33938232 -54.60620117 70.12695312 C-53.99623291 69.33321289 -53.38626465 68.53947266 -52.7578125 67.72167969 C-52.09289795 66.87959961 -51.4279834 66.03751953 -50.74291992 65.16992188 C-49.35603289 63.3702728 -47.97064404 61.56946827 -46.58666992 59.76757812 C-45.53672852 58.40850342 -45.53672852 58.40850342 -44.46557617 57.02197266 C-41.47633285 53.10827284 -38.60535612 49.11430597 -35.74291992 45.10742188 C-31.23142715 38.81848736 -26.63717564 32.60126288 -21.97119141 26.42626953 C-17.42489432 20.39221691 -13.0081285 14.26746514 -8.61791992 8.11914062 C-8.0997168 7.39597656 -7.58151367 6.6728125 -7.04760742 5.92773438 C-6.36093994 4.96504639 -6.36093994 4.96504639 -5.66040039 3.98291016 C-2.9779852 0.4379478 -2.9779852 0.4379478 0 0 Z " fill="#0DD290" transform="translate(421.430419921875,96.642578125)"/>
<path d="M0 0 C3.33617115 0.98789534 4.41702545 2.56376797 6.4765625 5.33984375 C7.49556641 6.71076172 7.49556641 6.71076172 8.53515625 8.109375 C9.46521484 9.39908203 9.46521484 9.39908203 10.4140625 10.71484375 C11.14302734 11.61783203 11.14302734 11.61783203 11.88671875 12.5390625 C13.0390625 14.02734375 13.0390625 14.02734375 14.4140625 16.71484375 C13.15366812 21.79295444 9.5916193 25.62928211 6.4140625 29.65234375 C2.33490571 34.8986565 -1.69345254 40.15846294 -5.5234375 45.58984375 C-9.54581001 51.28117074 -13.64147003 56.91503217 -17.7734375 62.52734375 C-18.34376709 63.30384277 -18.91409668 64.0803418 -19.50170898 64.88037109 C-20.62398305 66.40235699 -21.75840648 67.915462 -22.9050293 69.41918945 C-24.63368161 71.71102053 -24.63368161 71.71102053 -26.13598633 74.26635742 C-28.48279798 77.88948646 -30.0683773 80.30979528 -34.35473633 81.45385742 C-37.58387932 81.67320986 -40.66866916 81.60142582 -43.8984375 81.40234375 C-45.54295898 81.36657227 -45.54295898 81.36657227 -47.22070312 81.33007812 C-55.23266103 81.06812022 -55.23266103 81.06812022 -57.5859375 78.71484375 C-57.26057626 75.00198762 -56.14589788 72.67554451 -53.91796875 69.73828125 C-53.36173828 68.99513672 -52.80550781 68.25199219 -52.23242188 67.48632812 C-51.62720703 66.69548828 -51.02199219 65.90464844 -50.3984375 65.08984375 C-49.11305181 63.37907862 -47.82790203 61.66813621 -46.54296875 59.95703125 C-45.88377441 59.08530273 -45.22458008 58.21357422 -44.54541016 57.31542969 C-41.52500238 53.30678482 -38.55672017 49.26031727 -35.5859375 45.21484375 C-34.42213609 43.63522427 -33.25807259 42.05579786 -32.09375 40.4765625 C-29.1370253 36.46410053 -26.18394946 32.44896799 -23.23217773 28.43286133 C-21.48875824 26.06512704 -19.73864287 23.70244836 -17.98828125 21.33984375 C-15.69478457 18.23899951 -13.44271108 15.11312927 -11.21484375 11.96484375 C-10.67682129 11.21678467 -10.13879883 10.46872559 -9.58447266 9.69799805 C-8.56970714 8.2869439 -7.5672988 6.86689131 -6.57958984 5.43676758 C-3.29198085 0.91001888 -3.29198085 0.91001888 0 0 Z " fill="#0DD290" transform="translate(299.5859375,-0.71484375)"/>
<path d="M0 0 C3.49606491 1.26453412 4.74186535 2.04827171 6.9375 5.0625 C7.55762746 8.32126688 7.54245434 11.54945845 7.546875 14.859375 C7.57167938 16.28253021 7.57167938 16.28253021 7.59698486 17.73443604 C7.64551439 20.76052288 7.66684695 23.78610701 7.6875 26.8125 C7.71565551 28.86591078 7.74558235 30.91929808 7.77734375 32.97265625 C7.85127484 38.00256279 7.90081933 43.03218944 7.9375 48.0625 C8.59758057 47.60810547 9.25766113 47.15371094 9.93774414 46.68554688 C12.94732775 44.62762173 15.97320304 42.59501338 19 40.5625 C20.03833984 39.84707031 21.07667969 39.13164062 22.14648438 38.39453125 C23.16162109 37.71777344 24.17675781 37.04101562 25.22265625 36.34375 C26.14957275 35.71533203 27.07648926 35.08691406 28.03149414 34.43945312 C31.57669815 32.75962866 34.05694838 32.70138473 37.9375 33.0625 C40.375 34.6875 40.375 34.6875 41.9375 37.0625 C42.5 40 42.5 40 41.9375 43.0625 C38.73985821 46.65966817 35.35815652 49.28677635 31.296875 51.83984375 C30.22566406 52.51853516 29.15445313 53.19722656 28.05078125 53.89648438 C26.94089844 54.59064453 25.83101563 55.28480469 24.6875 56 C22.49430365 57.38334116 20.30158707 58.76744331 18.109375 60.15234375 C17.05967529 60.81169922 16.00997559 61.47105469 14.9284668 62.15039062 C11.50224212 64.34075808 8.15308778 66.62853783 4.83032227 68.97241211 C1.72612276 70.76013955 -0.61308403 70.73885607 -4.0625 70.0625 C-6.82199853 67.94031279 -7.93304049 66.75755273 -8.5771637 63.29933167 C-8.58336227 62.23963669 -8.58956085 61.17994171 -8.59594727 60.08813477 C-8.61970177 58.28089684 -8.61970177 58.28089684 -8.64393616 56.43714905 C-8.63897629 55.13917892 -8.63401642 53.8412088 -8.62890625 52.50390625 C-8.63414346 51.15396191 -8.64042031 49.80402123 -8.64768982 48.4540863 C-8.65808962 45.62701175 -8.65354004 42.80044064 -8.63891602 39.97338867 C-8.62173699 36.35705167 -8.64521117 32.74230488 -8.68040562 29.12614536 C-8.70240829 26.33873542 -8.70093138 23.55170425 -8.6926403 20.76423454 C-8.69142537 18.78504666 -8.71133556 16.80588217 -8.73158264 14.82679749 C-8.62798538 4.84179501 -8.62798538 4.84179501 -5.71459961 1.71069336 C-3.0625 0.0625 -3.0625 0.0625 0 0 Z " fill="#557B85" transform="translate(387.0625,344.9375)"/>
<path d="M0 0 C4.95321872 3.29297319 9.83923222 8.47501077 11.109375 14.40234375 C12.11159511 22.15562987 10.4815631 27.93610767 6.109375 34.40234375 C2.17426091 38.9212385 -3.07900879 41.75522234 -8.984375 42.7578125 C-15.44928127 43.17894196 -20.6426404 41.10889994 -25.890625 37.40234375 C-30.97656574 32.20105178 -33.91052103 26.88057209 -34.265625 19.58984375 C-34.09795108 13.3113868 -32.33510561 8.98971675 -28.01953125 4.421875 C-19.65484591 -3.24707092 -10.46782745 -5.21535375 0 0 Z " fill="#FCFDFD" transform="translate(206.890625,287.59765625)"/>
</svg>
