<?xml version="1.0" encoding="UTF-8"?>
<svg version="1.1" xmlns="http://www.w3.org/2000/svg" width="512" height="512">
<path d="M0 0 C2.70922288 1.28935315 5.30525606 2.6928497 7.90869141 4.18383789 C8.78525391 4.65821289 9.66181641 5.13258789 10.56494141 5.62133789 C27.89086542 15.13260182 27.89086542 15.13260182 30.28369141 23.05883789 C30.95277107 26.0638288 30.95277107 26.0638288 32.87158203 27.16210938 C55.23183523 38.16540205 74.42380157 40.75029503 99.28369141 38.29321289 C115.26771269 37.04446123 130.53935544 37.6209932 144.69775391 45.94946289 C147.90202854 47.32410639 149.00661332 47.19171503 152.28369141 46.05883789 C154.82051991 44.83251703 157.29972573 43.57030324 159.78369141 42.24633789 C166.78399652 38.62476711 173.61155439 35.97416688 181.28369141 34.05883789 C182.03263672 33.8693457 182.78158203 33.67985352 183.55322266 33.48461914 C195.07353231 31.688176 206.65033333 32.51278221 217.84619141 35.55883789 C238.3637473 41.06995776 254.95173113 38.02478107 273.26416016 27.66821289 C276.28369141 26.05883789 276.28369141 26.05883789 278.28369141 26.05883789 C278.36619141 25.00696289 278.44869141 23.95508789 278.53369141 22.87133789 C279.37258951 18.60693918 280.34926114 17.18586129 283.28369141 14.05883789 C286.09277344 12.22192383 286.09277344 12.22192383 289.29150391 10.54321289 C291.01820313 9.62668945 291.01820313 9.62668945 292.77978516 8.69165039 C293.98930071 8.06381525 295.19893749 7.43621362 296.40869141 6.80883789 C297.62667938 6.16663194 298.8441332 5.52341184 300.06103516 4.87915039 C313.28677814 -2.09739193 313.28677814 -2.09739193 322.28369141 -0.94116211 C342.67386614 6.59197527 358.36930507 35.09663747 367.11035156 53.44848633 C377.33587832 76.19741102 384.00690014 107.4636146 374.97119141 131.55883789 C370.86940388 137.63556016 364.53990732 140.00742374 358.03369141 142.80883789 C357.13005859 143.22004883 356.22642578 143.63125977 355.29541016 144.05493164 C349.63138472 146.50798438 344.49392963 148.12224616 338.28369141 147.05883789 C337.45869141 146.50196289 336.63369141 145.94508789 335.78369141 145.37133789 C333.45499288 143.8121271 333.45499288 143.8121271 331.36070251 144.4535675 C326.10325016 146.31719223 321.05729899 148.42182858 316.03759766 150.85180664 C315.30041 151.20269852 314.56322235 151.55359039 313.80369568 151.91511536 C311.48214081 153.02060667 309.1638908 154.13278879 306.84619141 155.24633789 C304.50326672 156.37008601 302.15964311 157.49224986 299.81370544 158.60969543 C298.36174429 159.30144151 296.91152892 159.99686648 295.46327209 160.69633484 C290.50853724 163.05883789 290.50853724 163.05883789 288.28369141 163.05883789 C288.25791016 163.61571289 288.23212891 164.17258789 288.20556641 164.74633789 C287.60511075 172.82519578 285.41309003 178.37718601 279.40869141 183.93383789 C274.25504697 188.12355994 269.92615711 189.37514578 263.28369141 189.05883789 C263.48994141 189.88383789 263.69619141 190.70883789 263.90869141 191.55883789 C264.61755311 198.17488045 262.54184763 203.73347806 258.88916016 209.16430664 C254.67636957 214.13560453 249.71353456 217.18747403 243.22119141 217.93383789 C241.92181641 217.97508789 240.62244141 218.01633789 239.28369141 218.05883789 C239.34556641 219.02821289 239.40744141 219.99758789 239.47119141 220.99633789 C239.45947514 226.77245812 237.59559581 231.92091961 234.59619141 236.80883789 C229.88534796 241.39236124 224.61511527 244.8795571 217.92431641 245.15649414 C217.13541016 245.14489258 216.34650391 245.13329102 215.53369141 245.12133789 C214.73447266 245.11231445 213.93525391 245.10329102 213.11181641 245.09399414 C212.20689453 245.0765918 212.20689453 245.0765918 211.28369141 245.05883789 C211.13673828 245.92895508 211.13673828 245.92895508 210.98681641 246.81665039 C209.41515279 255.02723792 206.2360669 260.15127872 199.28369141 265.05883789 C189.6312516 268.81256448 182.4443266 266.94897065 173.28369141 263.05883789 C171.23598934 262.11948896 169.2665225 261.13063848 167.28369141 260.05883789 C167.02201172 260.65438477 166.76033203 261.24993164 166.49072266 261.86352539 C165.21561913 264.18264571 163.98055757 265.48189138 161.97119141 267.18383789 C161.39755859 267.68141602 160.82392578 268.17899414 160.23291016 268.69165039 C153.85242732 273.16693896 146.7812758 272.71413187 139.28369141 272.05883789 C132.02595261 270.30615867 127.79103129 264.66903754 123.28369141 259.05883789 C122.32269531 259.38368164 122.32269531 259.38368164 121.34228516 259.71508789 C112.70619602 262.49511062 106.50894679 262.75115331 97.94775391 259.47290039 C93.16606272 256.93481797 89.69598581 252.88342669 87.28369141 248.05883789 C86.44837891 248.27540039 86.44837891 248.27540039 85.59619141 248.49633789 C76.85455694 250.62268141 69.58914396 251.01737193 61.28369141 247.05883789 C55.13384438 243.17281251 51.75033814 237.97982366 49.68994141 231.06665039 C49.27404464 229.01116062 49.15050745 227.15392992 49.15869141 225.05883789 C49.15482422 224.06883789 49.15482422 224.06883789 49.15087891 223.05883789 C49.29041571 220.95757776 49.71452276 219.08254862 50.28369141 217.05883789 C48.98431641 217.01758789 47.68494141 216.97633789 46.34619141 216.93383789 C40.59500405 216.27267777 36.54939293 213.91119625 32.28369141 210.05883789 C27.78090656 204.37675225 26.13517651 199.57566137 26.09619141 192.30883789 C26.08201172 191.11774414 26.06783203 189.92665039 26.05322266 188.69946289 C26.28369141 185.05883789 26.28369141 185.05883789 27.54150391 181.46118164 C28.65129901 178.05829288 28.65129901 178.05829288 26.88134766 175.17211914 C18.43502286 165.84081733 8.38698458 160.891327 -2.85302734 155.47387695 C-5.55011359 154.14097178 -8.18263852 152.73442676 -10.81005859 151.26977539 C-11.58075684 150.84204834 -12.35145508 150.41432129 -13.14550781 149.97363281 C-14.56885594 149.17808344 -15.98750782 148.37404929 -17.40039062 147.56005859 C-20.30023042 145.96909734 -22.20796328 145.02172728 -25.55224609 145.26586914 C-27.72265949 146.01527235 -27.72265949 146.01527235 -29.71630859 147.05883789 C-37.30266089 147.68042451 -42.53533426 145.97815316 -49.40380859 142.87133789 C-50.76989258 142.29029297 -50.76989258 142.29029297 -52.16357422 141.69750977 C-63.74735713 136.60804814 -63.74735713 136.60804814 -66.92333984 130.88305664 C-67.12314453 130.17793945 -67.32294922 129.47282227 -67.52880859 128.74633789 C-67.74150391 128.04895508 -67.95419922 127.35157227 -68.17333984 126.63305664 C-71.54110309 110.66646688 -70.28581951 93.86054051 -66.71630859 78.05883789 C-66.5606543 77.36757813 -66.405 76.67631836 -66.24462891 75.96411133 C-62.19803695 58.84888509 -54.32322334 42.08260462 -43.71630859 28.05883789 C-43.04341797 27.16551758 -42.37052734 26.27219727 -41.67724609 25.35180664 C-17.07448565 -5.91606527 -17.07448565 -5.91606527 0 0 Z " fill="#051248" transform="translate(101.71630859375,234.941162109375)"/>
<path d="M0 0 C1.31677734 0.63615234 1.31677734 0.63615234 2.66015625 1.28515625 C14.27046123 7.57188247 20.90983528 17.76448883 25.03515625 30.09375 C30.33795751 50.02241707 26.22760327 70.45362194 16.1875 88.1875 C13.0392023 93.23295372 9.35706114 97.93733488 5 102 C4.34 102 3.68 102 3 102 C3 104.97 3 107.94 3 111 C4.00546875 111.08507812 5.0109375 111.17015625 6.046875 111.2578125 C10.35258832 111.87570187 13.56508774 113.64969584 17.25 115.875 C18.16652344 116.40287109 18.16652344 116.40287109 19.1015625 116.94140625 C23.6606715 119.61913621 23.6606715 119.61913621 25.34033203 121.50439453 C27.59707827 123.53805553 29.75793549 124.07860976 32.6640625 124.9375 C33.78683594 125.27523437 34.90960938 125.61296875 36.06640625 125.9609375 C37.82791016 126.47527344 37.82791016 126.47527344 39.625 127 C41.92996055 127.68658399 44.23465334 128.37406762 46.5390625 129.0625 C47.63766602 129.38863281 48.73626953 129.71476563 49.86816406 130.05078125 C53.94205123 131.28552348 57.97129262 132.62560089 62 134 C62.4218457 133.43434326 62.84369141 132.86868652 63.27832031 132.28588867 C74.81354795 116.81819706 90.09497294 104.57426964 109.69873047 101.28125 C132.87887989 98.44828457 153.44735532 102.96543897 171.9375 117.375 C177.36411202 122.03912842 182.76810576 127.53621152 186 134 C187.21300781 133.58492187 188.42601562 133.16984375 189.67578125 132.7421875 C193.5456223 131.44996812 197.43753393 130.27059808 201.35546875 129.1328125 C202.47244141 128.80410156 203.58941406 128.47539062 204.74023438 128.13671875 C207.04711312 127.45968578 209.35707775 126.79308394 211.66992188 126.13671875 C218.00935608 124.24993868 222.21870421 122.54509405 227 118 C229.14950752 116.6659119 231.33824671 115.39285096 233.5625 114.1875 C234.65691406 113.58292969 235.75132812 112.97835937 236.87890625 112.35546875 C239.92680392 111.03178854 241.7338401 110.68980604 245 111 C245 108.03 245 105.06 245 102 C243.68 101.34 242.36 100.68 241 100 C227.31554512 87.25283655 221.40732715 68.52415416 220.66552734 50.27587891 C220.36574368 35.29030754 224.11416232 20.82783194 234.2890625 9.4375 C245.3002807 -1.18919947 258.04436605 -4.41486315 272.93652344 -4.36572266 C284.51595181 -4.14606416 293.78203411 -1.20153586 303 6 C303.83402344 6.61617187 304.66804688 7.23234375 305.52734375 7.8671875 C315.01361258 16.04965635 319.29733729 29.183602 320.74609375 41.23046875 C321.96695153 59.35551116 318.05187674 78.46299903 306.65234375 92.9921875 C303.98350472 95.9864947 301.28995249 98.89104307 298.24609375 101.5078125 C296.59665402 103.48300365 296.68785921 104.65313733 296.8125 107.1875 C296.9053125 109.0746875 296.9053125 109.0746875 297 111 C297.82886719 111.08507812 298.65773438 111.17015625 299.51171875 111.2578125 C303.7414989 112.15776572 307.03913563 113.82081725 310.8125 115.875 C311.8324707 116.40287109 311.8324707 116.40287109 312.87304688 116.94140625 C317.87475971 119.62427914 317.87475971 119.62427914 319 123 C321.31537748 123.72857211 323.50632713 124.26701499 325.875 124.75 C341.35257602 128.29141933 358.46433023 133.04224539 368.75390625 145.984375 C374.74584069 155.67665766 375.15600458 166.26320487 375.16796875 177.296875 C375.17129715 178.36746155 375.17462555 179.4380481 375.17805481 180.54107666 C375.18309876 182.79349337 375.18546392 185.04591749 375.18530273 187.29833984 C375.18750153 190.75240173 375.2057176 194.20615027 375.22460938 197.66015625 C375.22754131 199.85156141 375.22952744 202.04296808 375.23046875 204.234375 C375.23765427 205.26874695 375.24483978 206.3031189 375.25224304 207.36883545 C375.24916641 208.32703186 375.24608978 209.28522827 375.24291992 210.27246094 C375.24434494 211.11516541 375.24576996 211.95786987 375.24723816 212.82611084 C375 215 375 215 373 218 C369.45269801 219.182434 366.27733415 219.11149508 362.58950806 219.07073975 C361.82840929 219.06650537 361.06731053 219.06227099 360.28314817 219.0579083 C358.61233865 219.04803415 356.94154171 219.0358295 355.2707634 219.02162361 C351.59967435 218.99046634 347.92854465 218.97041856 344.25738597 218.94936895 C342.27965909 218.93784542 340.30193573 218.9257044 338.32421613 218.91299295 C331.049587 218.86684964 323.77509681 218.84152248 316.50033569 218.82891846 C315.44454146 218.82708392 314.38874723 218.82524938 313.30095923 218.82335925 C308.94362744 218.8162627 304.58629507 218.80995758 300.22896123 218.80426168 C287.86493117 218.78745748 275.50182553 218.74976764 263.13818359 218.64697266 C253.31832987 218.56545791 243.49952711 218.530112 233.679335 218.54848695 C228.48516138 218.5565033 223.29337538 218.54165254 218.09962845 218.4708786 C213.20493398 218.40473855 208.31392196 218.40029279 203.41899109 218.44149208 C201.63119652 218.44590774 199.84318009 218.42842813 198.05587387 218.38641167 C187.39575281 218.07308347 187.39575281 218.07308347 178.2094841 222.83756256 C175.93202394 225.02297191 173.89615843 227.3326991 171.88872337 229.76524734 C163.69903973 239.60283569 148.38557716 244.99650281 136 247 C115.20118362 248.69839348 95.81574152 245.80040111 79.046875 232.69140625 C76.12780331 230.10007465 73.24593963 227.49555489 70.74325567 224.49147576 C67.98072134 221.34703783 66.56226091 220.11451776 62.33961391 219.25447559 C60.95166868 219.22607939 59.5628114 219.23016452 58.1749115 219.26069641 C57.40560494 219.25360301 56.63629837 219.2465096 55.84367949 219.23920125 C53.2751343 219.22267932 50.70882168 219.24874182 48.14038086 219.2746582 C46.29540879 219.27139823 44.45043979 219.26546086 42.60548401 219.25704956 C38.63730252 219.24465099 34.66975631 219.25107351 30.70161247 219.27211952 C24.42808499 219.3051878 18.15505515 219.29588311 11.88148499 219.2808075 C1.96045647 219.26192957 -7.96031609 219.27095322 -17.88133281 219.29212874 C-35.65268883 219.32982111 -53.42400947 219.33401058 -71.19538397 219.30727643 C-77.43282762 219.29917944 -83.6699623 219.30780174 -89.90736973 219.32983935 C-93.78518224 219.34091541 -97.66292712 219.33994159 -101.5407505 219.3359642 C-103.33989204 219.33675136 -105.13903985 219.34272363 -106.93814468 219.35424232 C-109.39294727 219.36932855 -111.84707387 219.36606946 -114.30189514 219.35835266 C-115.0147365 219.36729296 -115.72757785 219.37623325 -116.46202046 219.38544446 C-120.79355918 219.34773068 -123.5690556 218.6892858 -127 216 C-127.62145996 213.83525085 -127.62145996 213.83525085 -127.61523438 211.29174805 C-127.6291925 209.85831306 -127.6291925 209.85831306 -127.64343262 208.3959198 C-127.62703735 207.36163345 -127.61064209 206.32734711 -127.59375 205.26171875 C-127.59379028 204.18936478 -127.59383057 203.1170108 -127.59387207 202.01216125 C-127.58850333 199.73485481 -127.57086331 197.45754968 -127.54199219 195.18041992 C-127.50061704 191.7388252 -127.50088486 188.29922009 -127.5078125 184.85742188 C-127.41591244 153.14007235 -127.41591244 153.14007235 -117.3203125 142.17578125 C-108.50117874 133.74088361 -96.84917949 129.98744484 -85.375 126.625 C-84.20582031 126.27050781 -83.03664062 125.91601562 -81.83203125 125.55078125 C-73.33270994 123 -73.33270994 123 -71 123 C-70.505 121.515 -70.505 121.515 -70 120 C-68.3894043 118.83325195 -68.3894043 118.83325195 -66.32421875 117.73828125 C-65.57849609 117.34189453 -64.83277344 116.94550781 -64.06445312 116.53710938 C-63.28005859 116.13298828 -62.49566406 115.72886719 -61.6875 115.3125 C-60.52831055 114.68891602 -60.52831055 114.68891602 -59.34570312 114.05273438 C-55.46978999 112.02312896 -53.50432348 111 -49 111 C-48.4051058 107.78757129 -48.1778566 106.10587506 -49 103 C-50.95725193 100.63231359 -50.95725193 100.63231359 -53.5 98.375 C-66.56028566 86.23835547 -72.28916587 68.6897907 -73.02758789 51.17578125 C-73.32859558 34.84942692 -69.06521961 20.28607571 -58 8 C-42.84774522 -5.34191992 -18.27000316 -8.9264399 0 0 Z " fill="#031147" transform="translate(132,9)"/>
<path d="M0 0 C3.46774684 1.44358692 6.77869502 3.1257672 10.08984375 4.890625 C20.24393379 10.14378971 30.94982289 14.28880026 42.53491211 14.12817383 C44.29846291 14.10869438 44.29846291 14.10869438 46.09764099 14.08882141 C47.36221634 14.07111191 48.62679169 14.0534024 49.9296875 14.03515625 C51.9378879 14.0184911 53.94608886 14.00185188 55.95430088 13.98665142 C60.88518724 13.94875292 65.81581471 13.90268312 70.74633789 13.83129883 C74.18861307 13.78213255 77.63057058 13.7535988 81.07315254 13.73755455 C82.99277556 13.72312174 84.91219981 13.68721238 86.83152771 13.65058899 C95.58929295 13.62491499 103.43818316 14.82314202 111.58984375 18.078125 C111.91984375 18.738125 112.24984375 19.398125 112.58984375 20.078125 C112.09919434 20.3683252 111.60854492 20.65852539 111.10302734 20.95751953 C100.96903638 26.96397411 90.90855405 33.07338396 80.96484375 39.390625 C80.07845215 39.95217285 79.19206055 40.5137207 78.27880859 41.09228516 C75.7035246 42.73619651 73.14353668 44.40089073 70.58984375 46.078125 C69.67750977 46.67157715 68.76517578 47.2650293 67.82519531 47.87646484 C66.93541992 48.47281738 66.04564453 49.06916992 65.12890625 49.68359375 C64.3292041 50.2149292 63.52950195 50.74626465 62.70556641 51.29370117 C59.47078577 54.02195084 57.79643603 56.72876101 57.15625 60.91015625 C57.1460009 68.73022239 57.98827167 74.0274157 63.25 79.9453125 C70.03028377 86.43322264 77.69998526 90.33769825 87.15234375 90.515625 C89.30075491 90.4146421 91.44778364 90.27163608 93.58984375 90.078125 C94.83701172 89.96984375 94.83701172 89.96984375 96.109375 89.859375 C103.4484064 88.78833891 109.86757002 85.31666179 116.45703125 82.10302734 C120.30340643 80.25468909 124.19485593 78.50858392 128.08984375 76.765625 C128.83105469 76.42837402 129.57226562 76.09112305 130.3359375 75.74365234 C143.0043068 70.07667611 156.0439768 68.98849414 169.22265625 73.64453125 C181.33075168 78.79960204 192.59849825 85.74821266 203.9152832 92.41577148 C209.60200462 95.76582762 215.3126012 99.06312777 221.0703125 102.2890625 C222.33494182 103.00045899 223.59950918 103.71196563 224.86401367 104.42358398 C226.70355496 105.4585745 228.54443071 106.49051041 230.39151001 107.51199341 C247.5540156 117.00646869 247.5540156 117.00646869 250.58984375 123.078125 C250.93725928 128.37621182 251.12512362 131.83578915 247.58984375 136.078125 C244.50734353 138.67022746 242.46506709 139.9602645 238.45703125 140.5 C233.26119314 139.9331813 229.85095811 137.73239733 225.46484375 135.015625 C219.95375849 131.32296325 219.95375849 131.32296325 213.66015625 130.14453125 C211.42776068 131.00426084 211.42776068 131.00426084 209.58984375 133.078125 C209.50278922 136.0608801 209.50278922 136.0608801 210.58984375 139.078125 C212.90690218 141.09565373 212.90690218 141.09565373 215.83984375 142.578125 C220.51836548 145.35238496 223.76215413 147.39781114 226.58984375 152.078125 C227.33085821 157.26522623 226.48911679 160.72921544 223.58984375 165.078125 C220.51025871 167.73776662 218.5015011 168.95763163 214.45703125 169.4921875 C209.27093468 168.93690847 205.8538635 166.77122169 201.46484375 164.078125 C199.90564828 163.13083054 198.3406853 162.19295032 196.76953125 161.265625 C196.08616699 160.84667969 195.40280273 160.42773438 194.69873047 159.99609375 C192.14142697 158.88293548 190.35206255 158.77228958 187.58984375 159.078125 C185.37011119 160.95486039 185.37011119 160.95486039 184.90234375 163.828125 C185.25228768 167.10434625 185.25228768 167.10434625 187.390625 168.62890625 C188.97247864 169.65777576 190.57397816 170.65691871 192.19140625 171.62890625 C195.77663783 173.79522696 199.6822739 176.26298531 201.58984375 180.078125 C201.94016731 185.42055933 202.04595065 188.72599039 198.58984375 193.078125 C194.9537148 195.50221097 192.90249861 195.71503963 188.61328125 195.68359375 C184.08687967 194.77714382 180.44317104 192.41005078 176.67651367 189.83642578 C173.31538188 187.63963932 171.73969663 187.06843302 167.6640625 187.33203125 C166.14232422 187.70134766 166.14232422 187.70134766 164.58984375 188.078125 C164.17094157 190.86750712 164.17094157 190.86750712 164.58984375 194.078125 C166.83640562 196.69911385 169.19073135 198.76530718 171.90234375 200.890625 C173.98710963 203.59309929 174.15198709 205.73451605 173.98828125 209.109375 C173.36522168 212.18802229 171.8027381 213.93031578 169.58984375 216.078125 C166.0765105 217.83479163 162.42347212 217.63423776 158.58984375 217.078125 C155.38772133 215.69889757 152.49407605 214.00054827 149.58984375 212.078125 C150.86401616 207.872119 152.51132559 204.36775043 154.71484375 200.578125 C158.17432523 193.74416158 158.81220761 187.62369438 157.58984375 180.078125 C155.00670573 173.13526036 149.75489429 168.95131818 143.52734375 165.265625 C138.21557041 163.12649456 132.2005993 163.85031989 126.58984375 164.078125 C126.29851562 163.41425781 126.0071875 162.75039063 125.70703125 162.06640625 C122.25454068 154.62943757 118.77385546 149.76166601 110.8671875 146.5703125 C105.55633719 145.42251295 99.98940071 145.87592245 94.58984375 146.078125 C94.32429687 145.47484375 94.05875 144.8715625 93.78515625 144.25 C93.25535156 143.05117188 93.25535156 143.05117188 92.71484375 141.828125 C92.19277344 140.64476562 92.19277344 140.64476562 91.66015625 139.4375 C89.38476468 134.03676834 89.38476468 134.03676834 84.58984375 131.078125 C83.19765625 130.3046875 83.19765625 130.3046875 81.77734375 129.515625 C78.48739355 128.02475432 75.57468655 128.00992022 71.99316406 128.02270508 C68.72302231 128.01129028 65.78639042 127.79376978 62.58984375 127.078125 C60.46305141 124.68492861 59.62121812 122.59030004 58.546875 119.58984375 C56.67115557 114.66703725 52.87364454 112.80812937 48.40234375 110.265625 C41.36460404 108.07354214 35.07054269 108.0498315 28.27734375 111.078125 C23.32585322 113.8594211 20.53251899 117.30173521 17.58984375 122.078125 C16.86087891 123.21314453 16.86087891 123.21314453 16.1171875 124.37109375 C14.91701504 126.25994455 13.74267417 128.16014165 12.58984375 130.078125 C8.44555722 128.32130789 6.48139261 125.72646847 3.76171875 122.24609375 C-1.93980481 116.55482472 -9.69457447 113.32402519 -16.84765625 109.828125 C-26.46199172 105.07945246 -35.96397939 100.15199984 -45.41015625 95.078125 C-46.58841128 62.26154045 -33.72835484 33.36298485 -11.9296875 9.15234375 C-10.78403992 7.93377387 -9.63190145 6.72126652 -8.47265625 5.515625 C-7.94124023 4.94875977 -7.40982422 4.38189453 -6.86230469 3.79785156 C-3.15254601 0.1021895 -3.15254601 0.1021895 0 0 Z " fill="#F19887" transform="translate(126.41015625,271.921875)"/>
<path d="M0 0 C2.2175883 1.8175989 4.14566128 3.57625783 6.125 5.625 C6.6919458 6.20620605 7.2588916 6.78741211 7.84301758 7.38623047 C27.75321599 28.27315559 42.26895062 56.56809177 42.0390625 85.859375 C42.03624268 86.5488623 42.03342285 87.23834961 42.03051758 87.94873047 C42.02322221 89.6325019 42.0120153 91.31625563 42 93 C36.25608643 95.69524179 30.50822979 98.38193031 24.75756836 101.06274414 C22.80222489 101.97549711 20.84778825 102.89019541 18.89428711 103.80688477 C16.08423931 105.12509941 13.27099153 106.43625576 10.45703125 107.74609375 C9.15050346 108.36175453 9.15050346 108.36175453 7.81758118 108.98985291 C6.997108 109.37017166 6.17663483 109.75049042 5.33129883 110.14233398 C4.61404129 110.47764633 3.89678375 110.81295868 3.15779114 111.15843201 C0.76868375 112.09021649 -1.4581687 112.66058588 -4 113 C-5.5690918 111.83007812 -5.5690918 111.83007812 -7.01171875 110.03125 C-11.77840333 104.84756072 -17.70271514 101.85698149 -23.8125 98.5 C-25.05523922 97.80580225 -26.29725232 97.11030318 -27.53857422 96.41357422 C-29.45310499 95.33944091 -31.36816315 94.26636318 -33.2857666 93.19772339 C-39.77557371 89.58100154 -46.19937588 85.85452799 -52.625 82.125 C-55.78489434 80.30317707 -58.94638089 78.48415043 -62.10839844 76.66601562 C-63.95750342 75.60064139 -65.80470326 74.53194923 -67.64941406 73.45898438 C-85.46413533 63.10500953 -102.85640347 55.78450095 -123.89453125 59.73046875 C-133.49347588 62.51466526 -142.48005679 66.78927991 -151.48876953 71.07739258 C-160.78474989 75.49417781 -169.49163167 79.6201663 -180 78 C-185.42389108 75.95974376 -190.59448508 72.72377876 -194 68 C-195.19743669 63.05059501 -195.19743669 63.05059501 -194 60 C-192.15820312 58.33618164 -192.15820312 58.33618164 -189.71875 56.72265625 C-188.35641235 55.81628418 -188.35641235 55.81628418 -186.96655273 54.89160156 C-181.86662852 51.63967063 -176.73134902 48.45368526 -171.5625 45.3125 C-169.25406905 43.9029009 -166.94720686 42.49074737 -164.640625 41.078125 C-164.07185135 40.73008316 -163.5030777 40.38204132 -162.91706848 40.02345276 C-157.85072746 36.91884181 -152.82672406 33.75033378 -147.8125 30.5625 C-103.5225369 2.51421947 -103.5225369 2.51421947 -80.24560547 7.60205078 C-77.2171965 8.37085884 -74.20137383 9.17608724 -71.1875 10 C-50.55460036 15.61918648 -31.86931588 13.87779558 -12.9765625 3.30859375 C-11.12884538 2.2410789 -9.2924793 1.15346394 -7.47265625 0.0390625 C-4.32776508 -1.28248735 -3.17349191 -1.25587199 0 0 Z " fill="#FDCCBF" transform="translate(389,273)"/>
<path d="M0 0 C11.81364018 8.98828008 21.27060864 23.27485913 23.6953125 38.08203125 C25.51649966 56.71801496 21.71773546 72.91208749 10.35546875 88.1875 C2.99542047 96.90740482 -6.36874068 103.0581254 -17.01953125 107 C-17.85613281 107.31839844 -18.69273437 107.63679688 -19.5546875 107.96484375 C-34.35396986 112.8086511 -50.36462138 110.48592936 -64.14453125 103.8125 C-79.65454348 95.83170187 -90.10953836 83.44781073 -96.01953125 67 C-100.43803064 51.01228963 -98.7987977 35.00074111 -91.26953125 20.3125 C-82.06177772 4.53105178 -68.78646184 -5.87698079 -51.2109375 -11.140625 C-32.93843358 -15.43990964 -15.28853875 -10.12643188 0 0 Z " fill="#A6E104" transform="translate(293.01953125,134)"/>
<path d="M0 0 C1.73583984 2.39257812 1.73583984 2.39257812 3.4609375 5.53125 C4.09773438 6.65144531 4.73453125 7.77164063 5.390625 8.92578125 C6.38707592 10.71280886 7.37672337 12.50315152 8.35839844 14.29833984 C9.31248421 16.03161154 10.29267247 17.75043385 11.2734375 19.46875 C11.84497559 20.50451172 12.41651367 21.54027344 13.00537109 22.60742188 C14.84134716 25.2231345 14.84134716 25.2231345 17.92016602 26.03540039 C21.65359308 25.99248744 23.02594551 25.16944557 26.00390625 22.96484375 C27.36225586 21.99901367 27.36225586 21.99901367 28.74804688 21.01367188 C30.62874483 19.62631453 32.50895112 18.23829043 34.38867188 16.84960938 C35.29294922 16.20701172 36.19722656 15.56441406 37.12890625 14.90234375 C37.94431885 14.29898193 38.75973145 13.69562012 39.59985352 13.07397461 C42 12 42 12 44.54321289 12.64013672 C46.87858924 13.93279758 49.02417109 15.28266858 51.1796875 16.85546875 C51.94410156 17.39494141 52.70851563 17.93441406 53.49609375 18.49023438 C55.08243606 19.62203361 56.66063873 20.76532881 58.23046875 21.91992188 C63.18634341 25.495571 63.18634341 25.495571 69.0703125 25.86328125 C70.03710938 25.57839844 71.00390625 25.29351562 72 25 C72.27473145 24.27458008 72.54946289 23.54916016 72.83251953 22.80175781 C74.74757743 18.20593923 77.34149762 14.02718387 79.875 9.75 C80.40480469 8.82703125 80.93460937 7.9040625 81.48046875 6.953125 C81.99996094 6.0765625 82.51945312 5.2 83.0546875 4.296875 C83.75827393 3.09562988 83.75827393 3.09562988 84.47607422 1.87011719 C86 0 86 0 87.81030273 -0.87451172 C90.83781727 -1.04801406 93.10524403 -0.26170238 95.98046875 0.6953125 C97.7274707 1.27539062 97.7274707 1.27539062 99.50976562 1.8671875 C101.33024414 2.48980469 101.33024414 2.48980469 103.1875 3.125 C104.38181641 3.516875 105.57613281 3.90875 106.80664062 4.3125 C116.70334456 7.64589725 126.06958522 10.94300599 132 20 C138.3758323 34.57333098 135 57.37647158 135 70 C77.91 70 20.82 70 -38 70 C-36.515 64.555 -36.515 64.555 -35 59 C-30.4972748 42.045294 -31.67390787 27.68635534 -36 11 C-29.7101031 5.70728188 -8.05407124 -3.50235934 0 0 Z " fill="#FE8647" transform="translate(360,145)"/>
<path d="M0 0 C2.85963455 2.69391448 4.99861839 5.32846301 7.015625 8.6953125 C7.54414062 9.57574219 8.07265625 10.45617187 8.6171875 11.36328125 C9.15601563 12.27464844 9.69484375 13.18601563 10.25 14.125 C11.08144531 15.50365234 11.08144531 15.50365234 11.9296875 16.91015625 C16 23.73745382 16 23.73745382 16 26 C18.71838148 26.90238283 20.19249543 27.27680491 23 27 C26.82263241 25.04326638 30.18606996 22.49743181 33.625 19.9375 C35.45917172 18.57588224 37.30513225 17.22996084 39.1640625 15.90234375 C39.97311035 15.29898193 40.7821582 14.69562012 41.61572266 14.07397461 C44 13 44 13 46.53881836 13.64013672 C48.8825105 14.93508417 51.04551155 16.28719437 53.21484375 17.85546875 C53.98376953 18.39494141 54.75269531 18.93441406 55.54492188 19.49023438 C57.14293464 20.62384506 58.7341124 21.76715151 60.31835938 22.91992188 C61.47368164 23.72333008 61.47368164 23.72333008 62.65234375 24.54296875 C63.34320068 25.03821045 64.03405762 25.53345215 64.74584961 26.04370117 C67.9715175 27.41215575 69.70013742 27.12272552 73 26 C75.28519103 23.49136618 75.28519103 23.49136618 77.0859375 20.21484375 C77.43258453 19.63916153 77.77923157 19.06347931 78.13638306 18.47035217 C79.23482597 16.63656267 80.30489488 14.7879402 81.375 12.9375 C82.11667401 11.68837334 82.86014504 10.44031179 83.60546875 9.19335938 C85.42462805 6.14097044 87.21870769 3.07467643 89 0 C96.58657842 1.2945019 103.73158002 3.36510915 111 5.875 C112.03511719 6.21402344 113.07023438 6.55304688 114.13671875 6.90234375 C115.12285156 7.24136719 116.10898438 7.58039063 117.125 7.9296875 C118.01445312 8.23116699 118.90390625 8.53264648 119.8203125 8.84326172 C122.44258162 10.23487362 123.11751256 11.19016529 124 14 C123.48688615 16.51248853 122.87982178 18.8132895 122.125 21.25 C117.34296139 38.63453736 121.1850628 54.14771981 126 71 C68.91 71 11.82 71 -47 71 C-47 25.77272727 -47 25.77272727 -41.25 16.625 C-30.71417372 6.24186686 -13.81813079 3.4105048 0 0 Z " fill="#4DB0FB" transform="translate(64,144)"/>
<path d="M0 0 C8.28028354 5.33558238 12.74459829 13.98704332 14.98217773 23.33496094 C18.14658085 40.27922486 13.89621031 57.34505751 4.39453125 71.54296875 C-1.87614717 79.37596637 -9.10059134 85.29215585 -19.20703125 86.9765625 C-28.36344966 87.44430524 -35.56584285 83.24556247 -42.47265625 77.578125 C-53.84849729 66.7231558 -58.41364287 51.65865726 -58.99121094 36.37060547 C-59.23112958 24.13249108 -57.36851855 14.60685943 -49.29296875 4.98046875 C-45.45774421 1.04968214 -41.77259262 -1.61805486 -36.60546875 -3.45703125 C-35.68894531 -3.8128125 -34.77242188 -4.16859375 -33.828125 -4.53515625 C-22.45982486 -7.78717908 -10.2572272 -5.37283329 0 0 Z " fill="#FDCCBF" transform="translate(424.60546875,22.45703125)"/>
<path d="M0 0 C8.53506805 5.91694901 13.44658489 13.69174245 15.75 23.8125 C17.83705663 41.44699837 14.50768968 58.48287792 4.16015625 73.05078125 C-1.34757875 79.93221015 -9.70941645 85.63360799 -18.50390625 87.21875 C-28.10423695 87.60861115 -35.96715289 83.24406341 -43 76.9375 C-54.5925487 64.45970213 -59.03856881 47.74056576 -58.53125 31.125 C-57.96315097 20.2364352 -54.07044705 9.96660875 -45.9375 2.4375 C-32.93615908 -7.76132966 -14.17260404 -8.03657241 0 0 Z " fill="#FDCCBF" transform="translate(130.25,22.1875)"/>
<path d="M0 0 C2.90224378 0.87289759 5.29550609 2.0461145 7.94458008 3.51782227 C9.40927734 4.32509766 9.40927734 4.32509766 10.90356445 5.14868164 C11.9109668 5.71264648 12.91836914 6.27661133 13.95629883 6.85766602 C14.98303711 7.42549805 16.00977539 7.99333008 17.06762695 8.57836914 C19.59640063 9.97801596 22.12156919 11.38377112 24.64379883 12.79516602 C23.87814623 16.40819093 22.98019192 17.70789801 20.08129883 20.04516602 C-11.53857927 46.73144612 -22.76759446 83.94509618 -26.35620117 123.79516602 C-31.61319734 122.10691672 -36.77536331 120.36834973 -41.79370117 118.04516602 C-43.30770508 117.37227539 -43.30770508 117.37227539 -44.85229492 116.68579102 C-47.52132948 114.67048255 -48.37658923 113.34422214 -49.07568359 110.08862305 C-53.13174392 76.92706459 -43.26449548 46.17878437 -23.06323242 19.96313477 C-6.07424271 -0.52805819 -6.07424271 -0.52805819 0 0 Z " fill="#5BACFD" transform="translate(94.356201171875,246.204833984375)"/>
<path d="M0 0 C5.95948937 0.65773628 8.82460722 4.00183102 13 8 C13.87269531 8.80953125 14.74539063 9.6190625 15.64453125 10.453125 C31.15479607 25.2909168 42.54992369 45.22578938 48 66 C48.25749023 66.91628174 48.51498047 67.83256348 48.78027344 68.77661133 C50.87815127 76.84226887 51.46910542 84.59558833 51.39111328 92.89575195 C51.37481888 94.96044994 51.39117213 97.02324612 51.41015625 99.08789062 C51.40817676 100.42187925 51.40433918 101.75586671 51.3984375 103.08984375 C51.39505371 104.27441162 51.39166992 105.45897949 51.38818359 106.67944336 C50.94815766 110.44346392 50.03778367 112.81243266 48 116 C46.03881836 117.41552734 46.03881836 117.41552734 43.83984375 118.3359375 C42.6497168 118.84833984 42.6497168 118.84833984 41.43554688 119.37109375 C40.61119141 119.70238281 39.78683594 120.03367187 38.9375 120.375 C38.10927734 120.72949219 37.28105469 121.08398438 36.42773438 121.44921875 C30.37578427 124 30.37578427 124 28 124 C27.93530518 123.28158936 27.87061035 122.56317871 27.80395508 121.82299805 C23.92010101 80.02072665 10.59785169 46.02152805 -21 17 C-21.66 16.67 -22.32 16.34 -23 16 C-23 15.01 -23 14.02 -23 13 C-22.3387915 12.64172119 -21.67758301 12.28344238 -20.99633789 11.91430664 C-18.01740507 10.2988498 -15.03993691 8.68071216 -12.0625 7.0625 C-11.02158203 6.49853516 -9.98066406 5.93457031 -8.90820312 5.35351562 C-7.91884766 4.81533203 -6.92949219 4.27714844 -5.91015625 3.72265625 C-4.99371338 3.22515869 -4.07727051 2.72766113 -3.13305664 2.21508789 C-1.08450486 1.17264298 -1.08450486 1.17264298 0 0 Z " fill="#FD8547" transform="translate(416,246)"/>
<path d="M0 0 C4.36303576 1.83747922 7.2909596 3.98075443 10 7.875 C11.34670483 12.08345258 12.11472086 15.59343716 10.18247986 19.76493835 C6.47325411 25.83516484 1.78462113 30.6496649 -3.24609375 35.64453125 C-4.57919334 36.98193611 -4.57919334 36.98193611 -5.93922424 38.34635925 C-7.81080887 40.21997679 -9.68508432 42.09030735 -11.56469727 43.95581055 C-13.96326267 46.33723605 -16.3480369 48.73194901 -18.72906399 51.13089466 C-21.01910641 53.4344254 -23.32059312 55.72645214 -25.62109375 58.01953125 C-26.47126572 58.87577591 -27.32143768 59.73202057 -28.19737244 60.61421204 C-38.09118229 70.39169044 -38.09118229 70.39169044 -45.375 70.5 C-50.6129654 70.18809188 -54.041665 68.4109158 -58 65 C-60.57439249 61.67316952 -62.59829271 58.11750874 -64.625 54.4375 C-65.1833252 53.45112549 -65.74165039 52.46475098 -66.31689453 51.44848633 C-67.40914335 49.50690612 -68.49204316 47.56002989 -69.56445312 45.60742188 C-70.74979283 43.45445792 -71.96475823 41.3256999 -73.203125 39.203125 C-76.1060925 33.96693128 -77.91975641 29.91776574 -76.6796875 23.90234375 C-75.27463493 19.96981156 -72.95827879 17.79400242 -69.8125 15.1875 C-64.49075501 12.94054101 -59.8486762 13.3837746 -54.4375 15.1875 C-49.02800959 18.62874859 -46.04701109 25.52329435 -43 31 C-35.72586545 25.02481804 -29.28112431 18.27913118 -22.73828125 11.5234375 C-9.37685664 -2.05007322 -9.37685664 -2.05007322 0 0 Z " fill="#041445" transform="translate(289,148)"/>
<path d="M0 0 C1.64846769 0.44876616 3.29373455 0.90930488 4.9375 1.375 C5.85402344 1.63023437 6.77054688 1.88546875 7.71484375 2.1484375 C10 3 10 3 11 5 C10.26402588 5.43530029 10.26402588 5.43530029 9.51318359 5.87939453 C-0.62080737 11.88584911 -10.6812897 17.99525896 -20.625 24.3125 C-21.5113916 24.87404785 -22.3977832 25.4355957 -23.31103516 26.01416016 C-25.88631915 27.65807151 -28.44630707 29.32276573 -31 31 C-31.91233398 31.59345215 -32.82466797 32.1869043 -33.76464844 32.79833984 C-35.09931152 33.69286865 -35.09931152 33.69286865 -36.4609375 34.60546875 C-37.26063965 35.1368042 -38.0603418 35.66813965 -38.88427734 36.21557617 C-42.11905798 38.94382584 -43.79340772 41.65063601 -44.43359375 45.83203125 C-44.44384285 53.65209739 -43.60157208 58.9492907 -38.33984375 64.8671875 C-31.55955998 71.35509764 -23.88985849 75.25957325 -14.4375 75.4375 C-12.28908884 75.3365171 -10.14206011 75.19351108 -8 75 C-6.75283203 74.89171875 -6.75283203 74.89171875 -5.48046875 74.78125 C1.85856265 73.71021391 8.27772627 70.23853679 14.8671875 67.02490234 C18.71356268 65.17656409 22.60501218 63.43045892 26.5 61.6875 C27.24121094 61.35024902 27.98242188 61.01299805 28.74609375 60.66552734 C41.41446305 54.99855111 54.45413305 53.91036914 67.6328125 58.56640625 C79.74090793 63.72147704 91.0086545 70.67008766 102.32543945 77.33764648 C108.01216087 80.68770262 113.72275745 83.98500277 119.48046875 87.2109375 C120.74509807 87.92233399 122.00966543 88.63384063 123.27416992 89.34545898 C125.11371121 90.3804495 126.95458696 91.41238541 128.80166626 92.43386841 C145.96417185 101.92834369 145.96417185 101.92834369 149 108 C149.13415472 110.6723621 149.04318541 113.32250488 149 116 C148.56171875 115.64808594 148.1234375 115.29617188 147.671875 114.93359375 C141.77675 110.34450254 135.4939809 106.67312312 129 103 C127.26353773 102.00845559 125.52708272 101.01689804 123.79118347 100.02436829 C122.60763252 99.34786851 121.42372161 98.67199811 120.23945618 97.99674988 C114.36355944 94.64492723 108.524879 91.230785 102.6875 87.8125 C99.75475105 86.10152857 96.82113661 84.39205148 93.88720703 82.68310547 C91.94968948 81.55362416 90.01317754 80.42241619 88.07763672 79.28955078 C85.26394749 77.64463208 82.44515042 76.00881035 79.625 74.375 C78.79959717 73.8900708 77.97419434 73.4051416 77.1237793 72.90551758 C68.99047766 68.21638217 61.25050423 64.23265453 51.6875 64.5 C50.95096191 64.51571045 50.21442383 64.5314209 49.45556641 64.54760742 C36.82497676 65.04816825 26.43939605 70.48683128 15.30810547 76.02661133 C2.83882751 82.20580286 -10.36832913 86.73771663 -24.3828125 83.12890625 C-36.24525536 78.85225723 -46.52430998 72.1669715 -52.375 60.75 C-55.40371638 53.29859737 -54.64078462 45.78715179 -52.2421875 38.265625 C-48.17036843 30.83903676 -42.10179615 26.74950641 -35 22.4375 C-33.04799042 21.22425861 -31.09617353 20.01070715 -29.14453125 18.796875 C-28.13986816 18.17748047 -27.13520508 17.55808594 -26.10009766 16.91992188 C-20.93411191 13.72057458 -15.81230675 10.45223869 -10.6875 7.1875 C-9.73294922 6.58284912 -8.77839844 5.97819824 -7.79492188 5.35522461 C-6.91771484 4.79843018 -6.04050781 4.24163574 -5.13671875 3.66796875 C-4.36030029 3.17578857 -3.58388184 2.6836084 -2.78393555 2.17651367 C-1.05507937 1.12207665 -1.05507937 1.12207665 0 0 Z " fill="#E67E6E" transform="translate(228,287)"/>
<path d="M0 0 C4.20475482 1.6997945 6.20472472 3.8425204 8 8 C8.94923124 14.99719027 6.00272184 19.52269868 2.625 25.375 C2.08423828 26.33656006 1.54347656 27.29812012 0.98632812 28.28881836 C-0.65935377 31.20228304 -2.32684995 34.10224013 -4 37 C-4.73524902 38.28656494 -4.73524902 38.28656494 -5.48535156 39.59912109 C-6.81540662 41.92509089 -8.154195 44.24561243 -9.5 46.5625 C-9.89622559 47.24554199 -10.29245117 47.92858398 -10.70068359 48.63232422 C-16.96703679 59.23506878 -16.96703679 59.23506878 -22 61 C-26.52455337 61.69608513 -29.9696387 61.61383227 -33.9375 59.25 C-37.53455063 55.32594477 -38.62617309 51.90336902 -38.49511719 46.64501953 C-37.43830134 40.99928834 -34.09161108 36.27009105 -31.125 31.4375 C-30.43568101 30.28604901 -29.74786466 29.13369717 -29.06152344 27.98046875 C-27.06480282 24.63899989 -25.03293203 21.31956537 -23 18 C-21.96007176 16.27265633 -20.92091082 14.54485028 -19.8828125 12.81640625 C-19.00734302 11.37630428 -18.12992142 9.9373861 -17.25 8.5 C-16.85699707 7.85474365 -16.46399414 7.2094873 -16.05908203 6.54467773 C-11.73002299 -0.35792568 -7.67663276 -0.7860872 0 0 Z " fill="#FCCBBE" transform="translate(202,411)"/>
<path d="M0 0 C5.13762955 1.81328102 7.52915968 4.15335169 10 9 C10.56266373 14.1433236 9.23215563 17.15510186 6.75 21.625 C6.40227539 22.2538208 6.05455078 22.8826416 5.69628906 23.53051758 C4.48403519 25.69894844 3.24566513 27.85059026 2 30 C1.50757813 30.85223145 1.01515625 31.70446289 0.5078125 32.58251953 C-1.06614455 35.29142882 -2.65433502 37.99132575 -4.25 40.6875 C-4.75692383 41.54875488 -5.26384766 42.41000977 -5.78613281 43.29736328 C-11.76408263 53.25469421 -11.76408263 53.25469421 -17 55 C-24.62909799 55.75040308 -24.62909799 55.75040308 -28.375 52.75 C-31.03281392 49.96562352 -32.78850201 47.93592628 -33.21166992 44.0625 C-32.60749479 36.67599997 -29.13176838 31.21361094 -25.3125 25 C-24.69955078 23.97132813 -24.08660156 22.94265625 -23.45507812 21.8828125 C-9.61951838 -1.18134436 -9.61951838 -1.18134436 0 0 Z " fill="#FBCBBE" transform="translate(232,429)"/>
<path d="M0 0 C3.07974073 1.69520817 5.24988244 4.01120867 7.375 6.8125 C9.19138193 13.16983677 8.20976519 17.16993619 5.078125 22.85546875 C3.8198675 24.97679573 2.5432183 27.08730322 1.25 29.1875 C0.61578125 30.25419922 -0.0184375 31.32089844 -0.671875 32.41992188 C-9.09768068 46.45415446 -9.09768068 46.45415446 -15 48 C-18.91919708 48.50032303 -20.66320322 48.17830418 -24.1875 46.3125 C-28.22959149 42.98900255 -29.7401233 40.80057425 -30.4921875 35.58984375 C-30.39453559 29.19582976 -26.50045787 24.09126937 -23.25 18.8125 C-22.29867187 17.21245117 -22.29867187 17.21245117 -21.328125 15.58007812 C-10.74594653 -2.0458629 -10.74594653 -2.0458629 0 0 Z " fill="#FACABD" transform="translate(170,392)"/>
<path d="M0 0 C3.76115969 2.06495042 7.09650288 4.08725592 9 8 C10.18897341 15.54617803 7.64338795 20.68259967 3.875 27.0625 C3.400625 27.90876953 2.92625 28.75503906 2.4375 29.62695312 C-6.62600829 45.5125886 -6.62600829 45.5125886 -13 48 C-17.97922113 48.53348798 -21.06538376 48.16955197 -25 45 C-27.98207022 41.50377975 -28.51964858 38.25752109 -28.45288086 33.70166016 C-27.49696234 27.99912953 -24.2596383 23.17768192 -21.375 18.25 C-20.75753906 17.14011719 -20.14007813 16.03023438 -19.50390625 14.88671875 C-14.88734606 6.81016818 -10.34488966 -0.99470093 0 0 Z " fill="#FBCBBE" transform="translate(264,447)"/>
<path d="M0 0 C28.73022843 7.08179979 28.73022843 7.08179979 37 19 C39.97294482 25.98642032 40.14755895 33.30153004 40.09765625 40.77734375 C40.0962413 41.58869278 40.09482635 42.40004181 40.09336853 43.23597717 C40.08781357 45.80319047 40.07526967 48.37031348 40.0625 50.9375 C40.05747917 52.68814977 40.05291729 54.43880093 40.04882812 56.18945312 C40.03871386 60.45969739 40.01913005 64.72974876 40 69 C34.39 69 28.78 69 23 69 C22.95101563 66.54046875 22.90203125 64.0809375 22.8515625 61.546875 C22.79731486 59.12396964 22.74010169 56.7011508 22.68261719 54.27832031 C22.64469687 52.61432535 22.60978494 50.95025866 22.578125 49.28613281 C22.68658218 29.11579643 22.68658218 29.11579643 15 11 C10.45347382 6.96944472 5.68752369 4.1125088 0 2 C0 1.34 0 0.68 0 0 Z " fill="#ED651F" transform="translate(455,146)"/>
<path d="M0 0 C7.14291182 4.29885335 12.90951215 10.87165933 18.12890625 17.28125 C18.88945312 18.19261719 19.65 19.10398437 20.43359375 20.04296875 C42.10721021 46.94931192 49.28922481 76.45279886 51.12890625 110.28125 C48.15890625 111.27125 48.15890625 111.27125 45.12890625 112.28125 C45.06421143 111.56283936 44.9995166 110.84442871 44.93286133 110.10424805 C41.04900726 68.30197665 27.72675794 34.30277805 -3.87109375 5.28125 C-4.53109375 4.95125 -5.19109375 4.62125 -5.87109375 4.28125 C-5.87109375 3.29125 -5.87109375 2.30125 -5.87109375 1.28125 C-2.42750438 -0.93248602 -2.42750438 -0.93248602 0 0 Z " fill="#EE6620" transform="translate(398.87109375,257.71875)"/>
<path d="M0 0 C1.98 0.99 3.96 1.98 6 3 C5.44175115 6.61682353 4.25399273 7.97916829 1.4375 10.25 C-30.1823781 36.9362801 -41.41139328 74.14993016 -45 114 C-47.31 113.34 -49.62 112.68 -52 112 C-51.01 111.505 -51.01 111.505 -50 111 C-50.03480469 110.14921875 -50.06960937 109.2984375 -50.10546875 108.421875 C-50.87162827 74.12711558 -38.03161764 41.37264903 -15 16 C-11.91682791 12.81673052 -8.78190702 9.68714009 -5.60864258 6.59375 C-4.73502075 5.74103516 -4.73502075 5.74103516 -3.84375 4.87109375 C-3.05774414 4.11203735 -3.05774414 4.11203735 -2.25585938 3.33764648 C-0.88167167 2.00181706 -0.88167167 2.00181706 0 0 Z " fill="#2A90F6" transform="translate(113,256)"/>
<path d="M0 0 C15.42074418 6.69202106 25.6986864 19.09628248 32.0703125 34.41015625 C38.04363189 51.05011741 35.55625851 67.49701042 28.25 83.1875 C22.09429012 94.82516046 12.74847213 105.52521636 0 110 C0 109.34 0 108.68 0 108 C1.5390625 106.51953125 1.5390625 106.51953125 3.625 104.8125 C15.87662458 94.30495555 23.87954446 80.11149861 26 64 C27.3164538 46.0358909 24.13387853 27.80326738 12.2421875 13.5625 C8.96957179 9.85455385 5.67044336 6.22275335 1.66796875 3.29296875 C1.11753906 2.86628906 0.56710937 2.43960938 0 2 C0 1.34 0 0.68 0 0 Z " fill="#95CC01" transform="translate(282,128)"/>
<path d="M0 0 C2.57078058 2.65111748 3.90014645 4.34248978 4.4609375 8.03515625 C3.81401964 13.59974631 1.39756903 17.57119728 -1.375 22.375 C-1.91576172 23.33656006 -2.45652344 24.29812012 -3.01367188 25.28881836 C-4.65935377 28.20228304 -6.32684995 31.10224013 -8 34 C-8.73524902 35.28656494 -8.73524902 35.28656494 -9.48535156 36.59912109 C-10.81540662 38.92509089 -12.154195 41.24561243 -13.5 43.5625 C-13.89622559 44.24554199 -14.29245117 44.92858398 -14.70068359 45.63232422 C-21.00790036 56.30421043 -21.00790036 56.30421043 -26 58 C-28.359375 58.1953125 -28.359375 58.1953125 -30.75 58.125 C-31.54921875 58.10695313 -32.3484375 58.08890625 -33.171875 58.0703125 C-33.77515625 58.04710937 -34.3784375 58.02390625 -35 58 C-33.515 57.505 -33.515 57.505 -32 57 C-30.92961474 54.70851914 -30.92961474 54.70851914 -30 52 C-29.05954766 50.19848416 -28.08837437 48.41280792 -27.09375 46.640625 C-26.51947266 45.61525635 -25.94519531 44.5898877 -25.35351562 43.53344727 C-24.74185547 42.44990967 -24.13019531 41.36637207 -23.5 40.25 C-22.55930664 38.57732056 -22.55930664 38.57732056 -21.59960938 36.87084961 C-16.51053083 27.84735193 -11.31666733 18.89106527 -6 10 C-5.35804688 8.92492187 -4.71609375 7.84984375 -4.0546875 6.7421875 C-2.70724094 4.49226511 -1.35657982 2.24442271 0 0 Z " fill="#F8AD9E" transform="translate(206,414)"/>
<path d="M0 0 C0.74899063 0.22892441 1.49798126 0.45784882 2.26966858 0.69371033 C1.69822924 4.47174371 0.12462578 6.22726481 -2.52818298 8.91148376 C-3.33281982 9.73203247 -4.13745667 10.55258118 -4.96647644 11.397995 C-5.84245483 12.2741748 -6.71843323 13.15035461 -7.62095642 14.05308533 C-8.51772095 14.95746338 -9.41448547 15.86184143 -10.33842468 16.79362488 C-12.23791685 18.7039272 -14.14040059 20.61061779 -16.04820251 22.51255798 C-18.49089526 24.94934977 -20.91483273 27.40390351 -23.33427811 29.86375046 C-25.64756737 32.20911401 -27.97903119 34.53626429 -30.30845642 36.86558533 C-31.61027863 38.19200043 -31.61027863 38.19200043 -32.93840027 39.54521179 C-33.75564575 40.35315186 -34.57289124 41.16109192 -35.41490173 41.99351501 C-36.12914307 42.70981079 -36.8433844 43.42610657 -37.57926941 44.16410828 C-40.20421146 46.03068243 -41.57467958 46.19857857 -44.73033142 45.69371033 C-46.65220642 43.37730408 -46.65220642 43.37730408 -48.48033142 40.13121033 C-49.16073559 38.94337481 -49.84175092 37.7558892 -50.52330017 36.56871033 C-50.87698669 35.93964783 -51.23067322 35.31058533 -51.59507751 34.66246033 C-52.77430582 32.61745021 -54.01598696 30.62410545 -55.28111267 28.63121033 C-55.69973572 27.96420105 -56.11835876 27.29719177 -56.54966736 26.60997009 C-57.36708705 25.30887296 -58.19177548 24.0123092 -59.02427673 22.72080994 C-61.7868622 18.23553611 -61.7868622 18.23553611 -61.47642517 15.26011658 C-61.23021423 14.74320251 -60.9840033 14.22628845 -60.73033142 13.69371033 C-59.41033142 13.69371033 -58.09033142 13.69371033 -56.73033142 13.69371033 C-55.1905365 15.51377869 -55.1905365 15.51377869 -53.74986267 18.03355408 C-53.22585876 18.93138611 -52.70185486 19.82921814 -52.16197205 20.7542572 C-51.62765564 21.70365173 -51.09333923 22.65304626 -50.54283142 23.63121033 C-49.46677527 25.4949345 -48.38999134 27.35823872 -47.31236267 29.22105408 C-46.8403241 30.05370789 -46.36828552 30.88636169 -45.88194275 31.74424744 C-44.87728817 33.62980948 -44.87728817 33.62980948 -43.73033142 34.69371033 C-41.03450338 35.42549459 -41.03450338 35.42549459 -37.73033142 34.69371033 C-34.70388479 32.46156852 -32.2269174 29.74279844 -29.66392517 27.00230408 C-28.52915489 25.83345421 -28.52915489 25.83345421 -27.37145996 24.64099121 C-24.95536523 22.15159129 -22.55956675 19.64400969 -20.16783142 17.13121033 C-17.01696091 13.82120175 -13.84711289 10.53121082 -10.66392517 7.25230408 C-9.94297165 6.48156052 -9.22201813 5.71081696 -8.47921753 4.91671753 C-7.45774376 3.86551476 -7.45774376 3.86551476 -6.41563416 2.79307556 C-5.8230632 2.16908371 -5.23049225 1.54509186 -4.6199646 0.90219116 C-2.73033142 -0.30628967 -2.73033142 -0.30628967 0 0 Z " fill="#009017" transform="translate(285.73033142089844,160.30628967285156)"/>
<path d="M0 0 C2.65563381 2.54017147 3.89712561 3.95007613 4.265625 7.7109375 C3.94057073 11.73587425 2.70931773 14.09663515 0.75 17.625 C0.40227539 18.2538208 0.05455078 18.8826416 -0.30371094 19.53051758 C-1.51596481 21.69894844 -2.75433487 23.85059026 -4 26 C-4.49242187 26.85223145 -4.98484375 27.70446289 -5.4921875 28.58251953 C-7.06614455 31.29142882 -8.65433502 33.99132575 -10.25 36.6875 C-10.75692383 37.54875488 -11.26384766 38.41000977 -11.78613281 39.29736328 C-17.76408263 49.25469421 -17.76408263 49.25469421 -23 51 C-24.39439664 51.06665376 -25.79169875 51.08538199 -27.1875 51.0625 C-28.445625 51.041875 -29.70375 51.02125 -31 51 C-30.41299316 50.29907227 -29.82598633 49.59814453 -29.22119141 48.87597656 C-27.00743761 46.00963014 -25.2388073 43.13709817 -23.4609375 39.984375 C-23.13812302 39.41521866 -22.81530853 38.84606232 -22.48271179 38.25965881 C-21.79642041 37.04873131 -21.11204881 35.83671402 -20.42947388 34.62368774 C-18.65577428 31.47201251 -16.86771055 28.32849147 -15.08203125 25.18359375 C-14.73085739 24.56413376 -14.37968353 23.94467377 -14.01786804 23.30644226 C-11.07411849 18.11724316 -8.08801527 12.95439118 -5.0625 7.8125 C-4.45317627 6.77270996 -4.45317627 6.77270996 -3.83154297 5.71191406 C-1.12709537 1.12709537 -1.12709537 1.12709537 0 0 Z " fill="#F8AD9E" transform="translate(238,433)"/>
<path d="M0 0 C1.11375 0.2475 1.11375 0.2475 2.25 0.5 C10.18826997 1.558436 18.10203417 1.21507167 26 0 C26.99 3.3 27.98 6.6 29 10 C26.76005748 12.01235477 24.50933806 14.00963075 22.25 16 C21.61578125 16.57234375 20.9815625 17.1446875 20.328125 17.734375 C19.709375 18.27578125 19.090625 18.8171875 18.453125 19.375 C17.88754883 19.87773437 17.32197266 20.38046875 16.73925781 20.8984375 C15 22 15 22 11 22 C9.26074219 20.8984375 9.26074219 20.8984375 7.546875 19.375 C6.928125 18.83359375 6.309375 18.2921875 5.671875 17.734375 C5.03765625 17.16203125 4.4034375 16.5896875 3.75 16 C3.1003125 15.42765625 2.450625 14.8553125 1.78125 14.265625 C0.1797242 12.852514 -1.41118366 11.4273858 -3 10 C-2.33758211 6.44920141 -1.42518229 3.32542534 0 0 Z " fill="#F8AC9E" transform="translate(390,119)"/>
<path d="M0 0 C1.11375 0.2475 1.11375 0.2475 2.25 0.5 C10.18826997 1.558436 18.10203417 1.21507167 26 0 C29.08172941 6.40999717 29.08172941 6.40999717 28.73242188 8.93164062 C27.85364532 11.41330562 26.85533154 12.34513062 24.83984375 14.015625 C24.21142578 14.54414063 23.58300781 15.07265625 22.93554688 15.6171875 C22.27619141 16.15601563 21.61683594 16.69484375 20.9375 17.25 C20.27427734 17.80429688 19.61105469 18.35859375 18.92773438 18.9296875 C17.2920292 20.29473642 15.64690049 21.64847909 14 23 C11.27026291 21.72854451 9.04680857 20.36025537 6.765625 18.3984375 C6.19199219 17.90859375 5.61835937 17.41875 5.02734375 16.9140625 C4.44082031 16.40617187 3.85429688 15.89828125 3.25 15.375 C2.64800781 14.859375 2.04601562 14.34375 1.42578125 13.8125 C-0.05260866 12.54530865 -1.52673171 11.27314225 -3 10 C-2.01 6.7 -1.02 3.4 0 0 Z " fill="#F7AC9E" transform="translate(96,119)"/>
<path d="M0 0 C2.92298959 2.79590309 3.89134988 4.24558267 4.484375 8.36328125 C4.39734445 14.78758612 0.5161844 19.88319062 -2.75 25.1875 C-3.38421875 26.25419922 -4.0184375 27.32089844 -4.671875 28.41992188 C-13.09768068 42.45415446 -13.09768068 42.45415446 -19 44 C-20.9998156 44.02715799 -23.00022953 44.03029955 -25 44 C-20.97740664 35.70565057 -16.62188161 27.68756538 -11.9375 19.75 C-11.33873047 18.72648437 -10.73996094 17.70296875 -10.12304688 16.6484375 C-6.83378488 11.0426416 -3.47539699 5.4923098 0 0 Z " fill="#F7AC9E" transform="translate(174,396)"/>
<path d="M0 0 C3.3125 0.9375 3.3125 0.9375 5.3125 2.9375 C5.45945312 4.37609375 5.45945312 4.37609375 5.609375 5.84375 C6.014516 9.09153648 6.014516 9.09153648 8.640625 10.84375 C9.60484375 11.3696875 10.5690625 11.895625 11.5625 12.4375 C16.24102173 15.21175996 19.48481038 17.25718614 22.3125 21.9375 C22.625 25.8125 22.625 25.8125 22.3125 28.9375 C21.6525 29.2675 20.9925 29.5975 20.3125 29.9375 C17.74633789 28.73754883 17.74633789 28.73754883 14.53515625 26.89453125 C13.968004 26.56966232 13.40085175 26.2447934 12.81651306 25.91007996 C11.614708 25.2187056 10.41526543 24.52321097 9.21801758 23.82397461 C7.39244628 22.76016641 5.55744125 21.71430288 3.72070312 20.66992188 C2.55407188 19.99585602 1.38803627 19.32075803 0.22265625 18.64453125 C-0.83816162 18.0306958 -1.89897949 17.41686035 -2.99194336 16.78442383 C-5.59146649 15.00329961 -7.08692045 13.62643329 -8.6875 10.9375 C-9.38233656 6.85533522 -9.02418511 5.41702121 -6.625 2 C-3.6875 -0.0625 -3.6875 -0.0625 0 0 Z " fill="#E87F6F" transform="translate(330.6875,402.0625)"/>
<path d="M0 0 C0.350625 0.86625 0.70125 1.7325 1.0625 2.625 C2.89349411 5.81447361 3.86315573 6.79390422 6.6875 8.875 C8.74054492 10.53222482 9.83094033 11.43609702 10.59375 13.98046875 C10.75903688 17.65121488 10.08917704 19.86028931 8.125 22.9375 C4.69433924 26.26725897 2.15510754 26.38220002 -2.46875 26.3671875 C-6.86989848 25.72874929 -10.34101252 23.42202481 -14 21 C-12.66852647 16.75830575 -11.07857153 12.80568118 -9.125 8.8125 C-8.63257813 7.78769531 -8.14015625 6.76289063 -7.6328125 5.70703125 C-5.72826448 2.54949111 -3.90152881 0 0 0 Z " fill="#ED9686" transform="translate(290,463)"/>
<path d="M0 0 C7.05616014 4.56575068 11.42343516 12.91807682 13.52734375 20.91796875 C16.20507624 38.37855497 13.09297721 55.26970894 3 70 C0.27734375 72.3671875 0.27734375 72.3671875 -2 74 C-1.5875 72.783125 -1.175 71.56625 -0.75 70.3125 C0.57562774 66.32299175 1.86476921 62.32316151 3.125 58.3125 C3.62386719 56.72888672 3.62386719 56.72888672 4.1328125 55.11328125 C9.26866103 36.67512233 5.97382521 17.70620266 0 0 Z " fill="#F5AB9D" transform="translate(426,24)"/>
<path d="M0 0 C7.28726408 5.08413773 10.71268196 12.52882656 13 21 C14.72615085 37.3659723 12.48451541 54.22198273 3 68 C1.417892 69.88365861 -0.1229848 71.39901645 -2 73 C-1.10797533 67.81003829 0.56993865 62.88053286 2.18359375 57.8828125 C4.84595452 49.53339705 5.21368467 42.1667982 5.25 33.4375 C5.270625 32.22513672 5.29125 31.01277344 5.3125 29.76367188 C5.34902136 21.24962951 4.85814682 12.57490795 0.89941406 4.85327148 C0 3 0 3 0 0 Z " fill="#F7AC9E" transform="translate(133,25)"/>
<path d="M0 0 C3 1 3 1 4 3 C5.16008484 10.5589008 2.65136532 15.66909395 -1.125 22.0625 C-1.599375 22.90876953 -2.07375 23.75503906 -2.5625 24.62695312 C-11.62600829 40.5125886 -11.62600829 40.5125886 -18 43 C-21.8125 43.1875 -21.8125 43.1875 -25 43 C-24.01 42.505 -24.01 42.505 -23 42 C-22.30121056 40.34654436 -21.64054163 38.67688063 -21 37 C-20.02457198 35.1397352 -19.01813523 33.29553917 -17.98828125 31.46484375 C-17.39466797 30.40716797 -16.80105469 29.34949219 -16.18945312 28.25976562 C-15.57005859 27.16341797 -14.95066406 26.06707031 -14.3125 24.9375 C-13.71244141 23.86822266 -13.11238281 22.79894531 -12.49414062 21.69726562 C-8.40142153 14.42180902 -4.22644092 7.19847352 0 0 Z " fill="#F8AD9E" transform="translate(269,452)"/>
<path d="M0 0 C0.32871094 1.37478516 0.32871094 1.37478516 0.6640625 2.77734375 C2.28856026 6.69608834 3.71886318 7.52859011 7.375 9.5625 C11.53454474 11.90014172 14.35742208 13.97439065 17 18 C17.6142167 20.88890057 17.29549669 22.99578362 17 26 C16.34 26.66 15.68 27.32 15 28 C14.58556641 27.55325928 14.17113281 27.10651855 13.74414062 26.64624023 C11.94924766 24.95209644 10.2450147 23.85988034 8.09375 22.66015625 C7.34996094 22.23669922 6.60617187 21.81324219 5.83984375 21.37695312 C4.2816131 20.50158649 2.72171514 19.62918113 1.16015625 18.75976562 C-6.03796942 14.64922419 -6.03796942 14.64922419 -8 11 C-8.5625 8.0625 -8.5625 8.0625 -8 5 C-5.84370811 2.47443488 -3.48219264 0 0 0 Z " fill="#E77F6F" transform="translate(311,434)"/>
<path d="M0 0 C3.31750954 1.93196144 6.29071367 4.23979076 9.32519531 6.58349609 C9.97488281 7.06560547 10.62457031 7.54771484 11.29394531 8.04443359 C13.15332031 9.48193359 13.15332031 9.48193359 16.07519531 12.20849609 C16.07519531 13.52849609 16.07519531 14.84849609 16.07519531 16.20849609 C14.17675781 17.91162109 14.17675781 17.91162109 11.70019531 19.45849609 C10.88808594 19.97927734 10.07597656 20.50005859 9.23925781 21.03662109 C7.07519531 22.20849609 7.07519531 22.20849609 5.07519531 22.20849609 C3.83837891 20.60375977 3.83837891 20.60375977 2.47363281 18.37646484 C1.98378906 17.57789063 1.49394531 16.77931641 0.98925781 15.95654297 C0.48136719 15.1115625 -0.02652344 14.26658203 -0.54980469 13.39599609 C-1.06542969 12.56261719 -1.58105469 11.72923828 -2.11230469 10.87060547 C-5.92480469 4.59208364 -5.92480469 4.59208364 -5.92480469 1.20849609 C-2.46692117 -1.01442902 -2.46692117 -1.01442902 0 0 Z " fill="#C8E0F8" transform="translate(374.9248046875,134.79150390625)"/>
<path d="M0 0 C3.3125 0.75 3.3125 0.75 6 2 C5.36816907 5.0835768 4.32811656 7.41377992 2.71484375 10.109375 C2.04291992 11.24052734 2.04291992 11.24052734 1.35742188 12.39453125 C0.88884766 13.17183594 0.42027344 13.94914063 -0.0625 14.75 C-0.53494141 15.54277344 -1.00738281 16.33554688 -1.49414062 17.15234375 C-2.65826573 19.1043111 -3.82699902 21.05335805 -5 23 C-9.66209202 21.27687791 -13.03332953 18.95555839 -17 16 C-15.49972651 12.24512557 -13.36477047 10.43892426 -10.1875 8 C-9.33542969 7.34 -8.48335937 6.68 -7.60546875 6 C-6.74566406 5.34 -5.88585937 4.68 -5 4 C-4.13632813 3.24203125 -3.27265625 2.4840625 -2.3828125 1.703125 C-1.20332031 0.86007813 -1.20332031 0.86007813 0 0 Z " fill="#C8E0F8" transform="translate(137,134)"/>
<path d="M0 0 C0.83015625 0.44601563 1.6603125 0.89203125 2.515625 1.3515625 C0.87857251 5.9424271 -1.47906138 9.94738432 -3.984375 14.1015625 C-4.38785156 14.78605469 -4.79132813 15.47054687 -5.20703125 16.17578125 C-8.23883929 21.22879464 -8.23883929 21.22879464 -10.484375 22.3515625 C-13.784375 20.0415625 -17.084375 17.7315625 -20.484375 15.3515625 C-18.09485384 10.57252019 -15.30347472 8.29588569 -11.234375 4.9765625 C-10.57824219 4.40550781 -9.92210937 3.83445313 -9.24609375 3.24609375 C-4.29513799 -0.7993194 -4.29513799 -0.7993194 0 0 Z " fill="#C8E0F8" transform="translate(434.484375,134.6484375)"/>
<path d="M0 0 C3.87830067 1.98224257 6.8811626 4.68280089 10.125 7.5625 C10.77017578 8.12582031 11.41535156 8.68914062 12.08007812 9.26953125 C13.66276301 10.65291508 15.23835141 12.04441045 16.8125 13.4375 C15.36863418 17.15029784 13.69013608 18.3861443 10.1875 20.1875 C9.37023437 20.61546875 8.55296875 21.0434375 7.7109375 21.484375 C7.08445312 21.79890625 6.45796875 22.1134375 5.8125 22.4375 C-6.1875 4.82047872 -6.1875 4.82047872 -6.1875 1.4375 C-3.85108622 -0.12010919 -2.77413798 -0.71334977 0 0 Z " fill="#C8E0F9" transform="translate(81.1875,134.5625)"/>
<path d="M0 0 C0.350625 0.86625 0.70125 1.7325 1.0625 2.625 C2.89349411 5.81447361 3.86315573 6.79390422 6.6875 8.875 C9.8718969 11.39040596 9.8718969 11.39040596 10.453125 14.15625 C10.4375 16.375 10.4375 16.375 10 20 C3.54801415 18.34564465 -2.29795864 14.70204136 -7 10 C-8 8 -8 8 -7.3125 5.5625 C-5.66312242 2.34228663 -3.8096539 0 0 0 Z " fill="#E47E6F" transform="translate(290,463)"/>
<path d="M0 0 C6.26510479 1.57266916 12.43604166 3.38902476 18.5625 5.4375 C19.73941406 5.82808594 20.91632813 6.21867188 22.12890625 6.62109375 C25 8 25 8 26.51953125 9.64453125 C27.27980982 13.37175059 26.14220558 16.67398534 25.125 20.25 C24.92519531 20.99507812 24.72539062 21.74015625 24.51953125 22.5078125 C24.02571014 24.34200518 23.51452906 26.17150829 23 28 C20.57506202 25.57506202 20.46360408 24.12892924 19.75 20.8125 C18.26942195 15.28019373 16.57613614 11.54452163 12 8 C8.0997172 5.75845816 4.11347284 3.81711664 0 2 C0 1.34 0 0.68 0 0 Z " fill="#298EF4" transform="translate(161,146)"/>
<path d="M0 0 C0.33 0 0.66 0 1 0 C1.19335938 0.78503906 1.38671875 1.57007813 1.5859375 2.37890625 C2.96653221 7.9491275 4.37388447 13.49622437 6 19 C4.02 19 2.04 19 0 19 C0 12.73 0 6.46 0 0 Z " fill="#2789EE" transform="translate(184,196)"/>
<path d="M0 0 C1.32 0 2.64 0 4 0 C4.99 3.3 5.98 6.6 7 10 C5.68 10.99 4.36 11.98 3 13 C2.49858258 11.02119196 1.99890291 9.0419435 1.5 7.0625 C1.2215625 5.96035156 0.943125 4.85820313 0.65625 3.72265625 C0 1 0 1 0 0 Z " fill="#E39184" transform="translate(412,119)"/>
<path d="M0 0 C1.32 0 2.64 0 4 0 C7.07692308 6.4 7.07692308 6.4 6.6875 9.4375 C6.460625 9.953125 6.23375 10.46875 6 11 C5.01 11 4.02 11 3 11 C2.49833923 9.35467212 1.99871553 7.70872301 1.5 6.0625 C1.08234375 4.68771484 1.08234375 4.68771484 0.65625 3.28515625 C0 1 0 1 0 0 Z " fill="#E89385" transform="translate(118,119)"/>
</svg>
