<?xml version="1.0" encoding="UTF-8"?>
<svg version="1.1" xmlns="http://www.w3.org/2000/svg" width="512" height="512">
<path d="M0 0 C1.54335698 -0.00271417 3.08671266 -0.00627749 4.63006592 -0.01062012 C8.79945841 -0.01969572 12.96875133 -0.01621989 17.13814545 -0.00986195 C21.51413733 -0.00477686 25.89012104 -0.00950035 30.26611328 -0.01263428 C37.6129712 -0.01626663 44.95978883 -0.01149403 52.30664062 -0.00195312 C60.78463788 0.00893001 69.26253891 0.00540392 77.74053383 -0.00560594 C85.03676994 -0.01469966 92.33297719 -0.0159539 99.62921715 -0.0107286 C103.97941031 -0.00762036 108.32955833 -0.00716794 112.67974854 -0.01380157 C116.77068812 -0.01960481 120.86150438 -0.01552395 124.95243073 -0.00401306 C126.44833421 -0.00138234 127.94424818 -0.00210422 129.4401474 -0.00653839 C141.10420187 -0.03790943 151.47054711 0.15798546 160.6171875 8.25878906 C165.14440797 13.96093103 166.73925758 18.73341373 166.76435852 26.01957703 C166.76803521 26.71069968 166.7717119 27.40182232 166.7755 28.11388808 C166.7865338 30.4352265 166.79038017 32.75652015 166.79418945 35.07788086 C166.80045439 36.74020022 166.80710121 38.40251817 166.81410217 40.06483459 C166.83514317 45.52921575 166.84550527 50.99359718 166.85546875 56.45800781 C166.85951643 58.33962328 166.86363335 60.22123861 166.86781883 62.10285378 C166.88687136 70.94376915 166.90110171 79.78467618 166.9094308 88.62560815 C166.9192009 98.82749746 166.94551424 109.02916966 166.98593169 119.23098248 C167.01610547 127.11815343 167.03090092 135.00526219 167.03421181 142.89248973 C167.03656106 147.60220362 167.04550505 152.31168559 167.07067299 157.02133751 C167.09398049 161.45452537 167.09817622 165.88732907 167.08791161 170.32056236 C167.08741677 171.94428791 167.09372187 173.56803254 167.10746765 175.19169998 C167.18469894 184.85820122 167.0985329 192.1256116 160.46875 199.71972656 C159.73398437 200.35136719 158.99921875 200.98300781 158.2421875 201.63378906 C157.51257813 202.28089844 156.78296875 202.92800781 156.03125 203.59472656 C151.14197253 206.96500521 146.41424409 207.51020349 140.57829285 207.5262146 C139.89347959 207.53074571 139.20866634 207.53527683 138.50310117 207.53994524 C136.22099191 207.55254987 133.93912252 207.55097146 131.65698242 207.54931641 C130.0155456 207.55530414 128.3741116 207.56211025 126.73268127 207.56967163 C122.28214588 207.58731428 117.83168743 207.59202629 113.38112044 207.5933032 C110.59800339 207.59472638 107.8149058 207.59899916 105.03179359 207.60429764 C95.31504706 207.62279243 85.59835535 207.63096897 75.8815918 207.62939453 C66.8361211 207.6281934 57.79088911 207.64929158 48.74547881 207.68088186 C40.96947397 207.70706732 33.19354698 207.71776087 25.41749841 207.71648371 C20.77767401 207.71597473 16.13806181 207.7216225 11.49828148 207.74283981 C7.13233432 207.76226043 2.76680095 207.76232069 -1.59916115 207.74780655 C-3.19666145 207.74572206 -4.79418791 207.75039786 -6.39164352 207.76252747 C-16.09640865 207.83141268 -24.28154628 207.61238878 -31.94140625 201.07519531 C-32.56144531 200.33140625 -33.18148438 199.58761719 -33.8203125 198.82128906 C-34.45839844 198.08007812 -35.09648437 197.33886719 -35.75390625 196.57519531 C-39.05932861 191.87467863 -39.63481024 187.95893818 -39.65023804 182.25749207 C-39.65476915 181.56466057 -39.65930026 180.87182907 -39.66396868 180.15800267 C-39.67660105 177.84281561 -39.67499309 175.52786414 -39.67333984 173.21264648 C-39.67932586 171.5500305 -39.68613157 169.8874173 -39.69369507 168.22480774 C-39.71135561 163.71229901 -39.71605049 159.19986614 -39.71732664 154.68732619 C-39.71874885 151.86653274 -39.7230198 149.04575853 -39.72832108 146.22496986 C-39.74682206 136.37970379 -39.75499167 126.53449186 -39.75341797 116.68920898 C-39.75221679 107.51934046 -39.77331429 98.34970739 -39.8049053 89.17989844 C-39.83107881 81.3011703 -39.8417848 73.422519 -39.84050715 65.54374772 C-39.8399978 60.8407843 -39.84566594 56.13803012 -39.86686325 51.43511009 C-39.88626358 47.01008512 -39.88635792 42.58546859 -39.87182999 38.160429 C-39.86974296 36.53993379 -39.8744365 34.91941291 -39.8865509 33.29896164 C-39.95574488 23.39914276 -39.72927652 16.29153687 -33.0078125 8.50878906 C-22.87944222 -0.17267118 -12.72096169 -0.03770771 0 0 Z " fill="#D8E4EF" transform="translate(345.3828125,207.7412109375)"/>
<path d="M0 0 C0.67786772 -0.00382555 1.35573545 -0.00765109 2.05414462 -0.01159257 C4.33701646 -0.02195207 6.61963815 -0.01792472 8.90252686 -0.01396179 C10.53526035 -0.0183071 12.16799181 -0.02348964 13.80072021 -0.02944946 C18.2477038 -0.042882 22.69460259 -0.04341257 27.14160252 -0.04088616 C30.85844125 -0.0398176 34.57526276 -0.04469777 38.29209781 -0.04949158 C47.07306115 -0.06060513 55.85398175 -0.06101625 64.63494873 -0.05497742 C73.66997319 -0.04895866 82.7048411 -0.06119079 91.73983884 -0.08254749 C99.50734738 -0.10022791 107.27480642 -0.10615405 115.04233432 -0.10290974 C119.67618731 -0.10110425 124.30992907 -0.10365773 128.94376373 -0.11762428 C133.31372574 -0.1303001 137.68344699 -0.12816739 142.05340576 -0.11521339 C143.6471846 -0.11286771 145.24098087 -0.11550912 146.83473969 -0.12383652 C170.10192528 -0.23651786 189.72846585 6.33349611 206.83905029 22.46772766 C220.69749626 37.14741487 228.11383919 55.48014197 227.91326904 75.57319641 C227.90424561 76.66624084 227.89522217 77.75928528 227.88592529 78.88545227 C227.4426326 99.67249312 219.29877134 116.97243446 204.47576904 131.26069641 C203.75776123 131.99804016 203.03975342 132.73538391 202.29998779 133.49507141 C187.73257677 147.65097365 167.96667023 152.41257297 148.2230835 152.40254211 C147.10992264 152.40601654 145.99676178 152.40949097 144.84986877 152.41307068 C142.43982247 152.42040396 140.02976951 152.42576223 137.61971474 152.42936134 C133.79744184 152.43655598 129.97529515 152.45224536 126.15306091 152.47070312 C115.28774845 152.52302975 104.42250443 152.57155815 93.55706787 152.58662415 C86.90283204 152.59594517 80.24896212 152.62614051 73.5948391 152.66794395 C71.06768407 152.68021059 68.54048375 152.6853832 66.01329994 152.68314552 C62.46699781 152.68077815 58.92160584 152.70306891 55.37542725 152.73066711 C54.3448822 152.7240657 53.31433716 152.71746429 52.25256348 152.71066284 C41.81464211 152.84312771 32.85084716 155.72512794 24.41326904 161.89350891 C22.47576904 163.26069641 22.47576904 163.26069641 20.35076904 164.19038391 C17.95990329 165.55516978 17.55345754 166.75811433 16.47576904 169.26069641 C15.50407639 170.82785531 14.52434423 172.39004708 13.53826904 173.94819641 C6.9436238 185.08976088 5.49219823 196.81352018 8.16717529 209.55366516 C11.88795519 220.59145992 18.98655678 230.05734936 29.21795654 235.79975891 C38.73497502 240.3078203 47.16050049 241.62288627 57.60076904 241.63569641 C58.65908936 241.6601886 59.71740967 241.68468079 60.80780029 241.70991516 C67.11300959 241.7336487 70.60960056 241.31842796 75.47576904 237.26069641 C78.62507798 236.21092677 80.86391361 236.15938046 84.16326904 236.19819641 C85.15713623 236.20721985 86.15100342 236.21624329 87.17498779 236.22554016 C88.31387451 236.2429425 88.31387451 236.2429425 89.47576904 236.26069641 C89.41389404 235.12632141 89.35201904 233.99194641 89.28826904 232.82319641 C89.3489776 225.95098735 90.91146866 220.33541726 95.85076904 215.38569641 C100.27658802 211.81383879 104.89150002 210.92960568 110.42498779 210.06147766 C114.56335157 208.9752234 117.23811572 207.01698542 119.70623779 203.51460266 C120.02205811 202.9564386 120.33787842 202.39827454 120.66326904 201.82319641 C124.00949775 197.10037161 127.9751247 194.94300468 133.47576904 193.26069641 C139.84005054 192.44613892 146.32311411 192.68706105 152.72576904 192.76069641 C156.12749971 192.799497 159.52701382 192.80562927 162.92889404 192.79194641 C164.08219208 192.82137329 164.08219208 192.82137329 165.25878906 192.85139465 C171.03259207 192.82360143 173.3612778 191.27748206 177.47576904 187.26069641 C181.42227271 185.28744458 186.17443618 185.8171974 190.47576904 186.26069641 C194.48056205 188.26309291 197.13447184 190.44068519 199.47576904 194.26069641 C200.57083396 197.54589116 200.57537513 199.99733056 200.53826904 203.44819641 C200.52924561 204.5348761 200.52022217 205.62155579 200.51092529 206.74116516 C200.49352295 207.98833313 200.49352295 207.98833313 200.47576904 209.26069641 C202.44984741 209.23713074 202.44984741 209.23713074 204.46380615 209.21308899 C209.3782939 209.15850911 214.2927552 209.12424465 219.2074585 209.09590149 C221.32859818 209.08087857 223.44970714 209.06045431 225.57073975 209.03437805 C228.63160823 208.99770803 231.69206358 208.98090466 234.75311279 208.96772766 C236.15991554 208.94450188 236.15991554 208.94450188 237.59513855 208.92080688 C244.37759357 208.91909975 251.2039798 209.59940407 256.63201904 214.01460266 C257.07545654 214.6114386 257.51889404 215.20827454 257.97576904 215.82319641 C258.43983154 216.42261047 258.90389404 217.02202454 259.38201904 217.63960266 C262.71612083 222.58121782 261.98005224 228.51046715 261.47576904 234.26069641 C259.34103646 238.76735409 256.55754776 241.43484961 252.47576904 244.26069641 C249.54658612 245.23709072 247.68551166 245.38205822 244.637146 245.3742218 C243.16596062 245.37410851 243.16596062 245.37410851 241.66505432 245.37399292 C240.60872299 245.36883163 239.55239166 245.36367035 238.46405029 245.35835266 C236.83900826 245.35623024 236.83900826 245.35623024 235.18113708 245.35406494 C231.71681979 245.348462 228.25256684 245.33590899 224.78826904 245.32319641 C222.44126477 245.31818179 220.09425948 245.31361882 217.74725342 245.30952454 C211.99004715 245.299342 206.23298023 245.27976704 200.47576904 245.26069641 C200.47576904 252.85069641 200.47576904 260.44069641 200.47576904 268.26069641 C203.70358154 268.22589172 206.93139404 268.19108704 210.25701904 268.15522766 C213.40121579 268.13179656 216.54540261 268.11360019 219.68963623 268.09590149 C221.86611319 268.08086342 224.04256009 268.06042768 226.21893311 268.03437805 C229.35670412 267.99777551 232.49407264 267.98091981 235.63201904 267.96772766 C236.59692261 267.9522438 237.56182617 267.93675995 238.55596924 267.92080688 C245.20925742 267.91916883 251.26126473 268.52196313 256.53436279 273.01460266 C256.98940186 273.6114386 257.44444092 274.20827454 257.91326904 274.82319641 C258.38635498 275.42261047 258.85944092 276.02202454 259.34686279 276.63960266 C262.60936654 281.32451288 261.86549883 286.75395883 261.47576904 292.26069641 C259.74186025 297.55875106 256.86389102 300.06102414 252.47576904 303.26069641 C249.54658612 304.23709072 247.68551166 304.38205822 244.637146 304.3742218 C243.16596062 304.37410851 243.16596062 304.37410851 241.66505432 304.37399292 C240.60872299 304.36883163 239.55239166 304.36367035 238.46405029 304.35835266 C236.83900826 304.35623024 236.83900826 304.35623024 235.18113708 304.35406494 C231.71681979 304.348462 228.25256684 304.33590899 224.78826904 304.32319641 C222.44126477 304.31818179 220.09425948 304.31361882 217.74725342 304.30952454 C211.99006996 304.29849162 206.2329241 304.28175061 200.47576904 304.26069641 C200.50404785 305.59765564 200.50404785 305.59765564 200.53289795 306.96162415 C200.54756104 308.13152893 200.56222412 309.30143372 200.57733154 310.50679016 C200.60561035 312.24593689 200.60561035 312.24593689 200.63446045 314.0202179 C200.34829977 319.86361898 198.14066613 322.67701381 193.91326904 326.69819641 C189.04991381 328.90881243 184.7346004 329.05772583 179.47576904 328.26069641 C176.21138271 326.8773723 173.97568134 324.76060871 171.47576904 322.26069641 C168.77571553 322.05124526 166.17004303 321.95957456 163.46795654 321.95210266 C161.82472416 321.92692105 160.18149508 321.90152337 158.53826904 321.87593079 C155.95136542 321.84731243 153.36451984 321.82329687 150.77752686 321.80439758 C148.27818215 321.78257029 145.77955012 321.74309626 143.28045654 321.70210266 C142.13780838 321.70192894 142.13780838 321.70192894 140.97207642 321.70175171 C134.78131489 321.589204 129.29810666 320.3799081 124.23358154 316.57710266 C123.69475342 315.9983136 123.15592529 315.41952454 122.60076904 314.82319641 C122.04647217 314.24698547 121.49217529 313.67077454 120.92108154 313.07710266 C119.47576904 311.26069641 119.47576904 311.26069641 118.43670654 309.13960266 C116.86110464 306.0588526 114.64263236 305.50482129 111.47576904 304.26069641 C109.81392852 303.92347228 108.14660568 303.61257324 106.47576904 303.32319641 C100.78381249 302.28052569 97.27103993 300.10583593 93.22576904 295.94819641 C89.52593215 290.26630405 89.24570673 284.81747235 89.47576904 278.26069641 C88.64045654 278.31290344 88.64045654 278.31290344 87.78826904 278.36616516 C81.13829153 278.60205963 76.45019881 277.24791129 70.47576904 274.26069641 C68.62015271 274.14209266 66.7606803 274.08160884 64.90155029 274.04975891 C38.96215925 273.45349338 16.08387299 269.83197993 -3.52423096 251.26069641 C-20.26635378 232.56072415 -25.98050327 211.82891532 -24.74298096 187.11714172 C-23.30502894 168.34031293 -12.6793822 151.82284093 0.66326904 139.07319641 C15.66514635 126.38530018 33.31704311 121.10898178 52.71258545 121.11885071 C53.82414001 121.11537628 54.93569458 121.11190186 56.08093262 121.10832214 C58.48770273 121.10098867 60.8944795 121.0956305 63.30125809 121.09203148 C67.11960505 121.08483549 70.93782576 121.06914473 74.75613403 121.0506897 C85.61041956 120.99837223 96.46462313 120.94984452 107.31903076 120.93476868 C113.96676032 120.92544122 120.61420489 120.89522767 127.26182175 120.85344887 C129.78535918 120.84119087 132.30894188 120.83600802 134.83250809 120.8382473 C152.64642041 120.85016373 168.98705518 120.72002151 182.91717529 108.03804016 C193.25206763 97.29451946 195.98816778 86.28778387 195.75311279 71.82319641 C195.27303338 60.18664459 188.8905046 49.82227706 180.59295654 41.89350891 C172.44079241 35.60641554 162.64921497 32.0206243 152.39013672 31.99568176 C151.7124863 31.99130049 151.03483589 31.98691922 150.33665061 31.98240519 C148.08510309 31.97016619 145.8337911 31.97188767 143.58221436 31.97358704 C141.96045082 31.96755792 140.33869042 31.96063243 138.7169342 31.95288086 C135.23462257 31.93803015 131.7523679 31.92925241 128.27002716 31.9251709 C122.76577551 31.91844434 117.2616458 31.89667714 111.75744629 31.87263489 C99.08603517 31.81957071 86.41458658 31.78609919 73.74311066 31.75287628 C62.11662667 31.72220425 50.4901953 31.68741911 38.86377978 31.63656569 C33.38941273 31.61319141 27.91513118 31.59947011 22.44071913 31.59307098 C19.0415365 31.58714524 15.64242362 31.57306102 12.2432766 31.55672646 C10.66423381 31.55083646 9.08517401 31.54838113 7.50612068 31.54956627 C5.35508678 31.55072076 3.20444723 31.53974722 1.0534668 31.52571106 C-0.75389765 31.52131138 -0.75389765 31.52131138 -2.59777451 31.51682281 C-5.52423096 31.26069641 -5.52423096 31.26069641 -8.52423096 29.26069641 C-8.83673096 25.76069641 -8.83673096 25.76069641 -8.52423096 22.26069641 C-7.86423096 21.60069641 -7.20423096 20.94069641 -6.52423096 20.26069641 C-5.53423096 20.26069641 -4.54423096 20.26069641 -3.52423096 20.26069641 C-3.52423096 17.29069641 -3.52423096 14.32069641 -3.52423096 11.26069641 C-5.17423096 10.60069641 -6.82423096 9.94069641 -8.52423096 9.26069641 C-8.64923096 5.88569641 -8.64923096 5.88569641 -8.52423096 2.26069641 C-5.71196903 -0.55156552 -3.94216697 0.0066396 0 0 Z " fill="#020202" transform="translate(24.52423095703125,54.73930358886719)"/>
<path d="M0 0 C15.90690941 12.13238854 25.49335167 27.87523318 28.796875 47.5390625 C31.30522286 68.64140187 26.04658889 87.04389464 12.91015625 103.93359375 C0.08482456 118.78171266 -18.39550995 128.05425582 -38 129.49609375 C-57.74194206 130.36278013 -75.51528483 123.37559109 -90.35546875 110.4453125 C-103.91560737 97.43195366 -112.59656646 78.81969076 -113.07006836 59.95605469 C-113.25475238 38.73335271 -105.35205315 21.26201896 -90.6953125 5.9453125 C-65.72641829 -17.91179422 -27.96432435 -18.91819974 0 0 Z " fill="#C5D4E2" transform="translate(450.77734375,253.87890625)"/>
<path d="M0 0 C1.54335698 -0.00271417 3.08671266 -0.00627749 4.63006592 -0.01062012 C8.79945841 -0.01969572 12.96875133 -0.01621989 17.13814545 -0.00986195 C21.51413733 -0.00477686 25.89012104 -0.00950035 30.26611328 -0.01263428 C37.6129712 -0.01626663 44.95978883 -0.01149403 52.30664062 -0.00195312 C60.78463788 0.00893001 69.26253891 0.00540392 77.74053383 -0.00560594 C85.03676994 -0.01469966 92.33297719 -0.0159539 99.62921715 -0.0107286 C103.97941031 -0.00762036 108.32955833 -0.00716794 112.67974854 -0.01380157 C116.77068812 -0.01960481 120.86150438 -0.01552395 124.95243073 -0.00401306 C126.44833421 -0.00138234 127.94424818 -0.00210422 129.4401474 -0.00653839 C141.10420187 -0.03790943 151.47054711 0.15798546 160.6171875 8.25878906 C165.14440797 13.96093103 166.73925758 18.73341373 166.76435852 26.01957703 C166.76803521 26.71069968 166.7717119 27.40182232 166.7755 28.11388808 C166.7865338 30.4352265 166.79038017 32.75652015 166.79418945 35.07788086 C166.80045439 36.74020022 166.80710121 38.40251817 166.81410217 40.06483459 C166.83514317 45.52921575 166.84550527 50.99359718 166.85546875 56.45800781 C166.85951643 58.33962328 166.86363335 60.22123861 166.86781883 62.10285378 C166.88687136 70.94376915 166.90110171 79.78467618 166.9094308 88.62560815 C166.9192009 98.82749746 166.94551424 109.02916966 166.98593169 119.23098248 C167.01610547 127.11815343 167.03090092 135.00526219 167.03421181 142.89248973 C167.03656106 147.60220362 167.04550505 152.31168559 167.07067299 157.02133751 C167.09398049 161.45452537 167.09817622 165.88732907 167.08791161 170.32056236 C167.08741677 171.94428791 167.09372187 173.56803254 167.10746765 175.19169998 C167.18469894 184.85820122 167.0985329 192.1256116 160.46875 199.71972656 C159.73398437 200.35136719 158.99921875 200.98300781 158.2421875 201.63378906 C157.51257813 202.28089844 156.78296875 202.92800781 156.03125 203.59472656 C151.14197253 206.96500521 146.41424409 207.51020349 140.57829285 207.5262146 C139.89347959 207.53074571 139.20866634 207.53527683 138.50310117 207.53994524 C136.22099191 207.55254987 133.93912252 207.55097146 131.65698242 207.54931641 C130.0155456 207.55530414 128.3741116 207.56211025 126.73268127 207.56967163 C122.28214588 207.58731428 117.83168743 207.59202629 113.38112044 207.5933032 C110.59800339 207.59472638 107.8149058 207.59899916 105.03179359 207.60429764 C95.31504706 207.62279243 85.59835535 207.63096897 75.8815918 207.62939453 C66.8361211 207.6281934 57.79088911 207.64929158 48.74547881 207.68088186 C40.96947397 207.70706732 33.19354698 207.71776087 25.41749841 207.71648371 C20.77767401 207.71597473 16.13806181 207.7216225 11.49828148 207.74283981 C7.13233432 207.76226043 2.76680095 207.76232069 -1.59916115 207.74780655 C-3.19666145 207.74572206 -4.79418791 207.75039786 -6.39164352 207.76252747 C-16.09640865 207.83141268 -24.28154628 207.61238878 -31.94140625 201.07519531 C-32.56144531 200.33140625 -33.18148438 199.58761719 -33.8203125 198.82128906 C-34.45839844 198.08007812 -35.09648437 197.33886719 -35.75390625 196.57519531 C-39.05932861 191.87467863 -39.63481024 187.95893818 -39.65023804 182.25749207 C-39.65476915 181.56466057 -39.65930026 180.87182907 -39.66396868 180.15800267 C-39.67660105 177.84281561 -39.67499309 175.52786414 -39.67333984 173.21264648 C-39.67932586 171.5500305 -39.68613157 169.8874173 -39.69369507 168.22480774 C-39.71135561 163.71229901 -39.71605049 159.19986614 -39.71732664 154.68732619 C-39.71874885 151.86653274 -39.7230198 149.04575853 -39.72832108 146.22496986 C-39.74682206 136.37970379 -39.75499167 126.53449186 -39.75341797 116.68920898 C-39.75221679 107.51934046 -39.77331429 98.34970739 -39.8049053 89.17989844 C-39.83107881 81.3011703 -39.8417848 73.422519 -39.84050715 65.54374772 C-39.8399978 60.8407843 -39.84566594 56.13803012 -39.86686325 51.43511009 C-39.88626358 47.01008512 -39.88635792 42.58546859 -39.87182999 38.160429 C-39.86974296 36.53993379 -39.8744365 34.91941291 -39.8865509 33.29896164 C-39.95574488 23.39914276 -39.72927652 16.29153687 -33.0078125 8.50878906 C-22.87944222 -0.17267118 -12.72096169 -0.03770771 0 0 Z M-26.6953125 17.88378906 C-29.44927626 21.75973805 -29.5130389 23.92788986 -29.52998352 28.68499756 C-29.53366021 29.3521756 -29.5373369 30.01935364 -29.541125 30.7067492 C-29.55217963 32.95294466 -29.55600868 35.19909388 -29.55981445 37.4453125 C-29.56607779 39.0516169 -29.57272448 40.65791984 -29.57972717 42.26422119 C-29.5971496 46.63626197 -29.60769245 51.0082918 -29.6159327 55.3803587 C-29.62108055 58.11116158 -29.6271564 60.84196106 -29.63344383 63.57276154 C-29.65249994 72.11467197 -29.66672982 80.65657374 -29.6750558 89.19850135 C-29.6848288 99.06253097 -29.71114816 108.92633622 -29.75155669 118.79028678 C-29.78170774 126.41159118 -29.79652374 134.03283123 -29.79983681 141.65419412 C-29.80218859 146.20736654 -29.81116533 150.76029939 -29.83629799 155.3134079 C-29.85956591 159.59801985 -29.8638172 163.88223427 -29.85353661 168.16689301 C-29.85304081 169.73824383 -29.85937422 171.30961413 -29.87309265 172.88090515 C-29.89079775 175.02929457 -29.88371406 177.17625521 -29.87055969 179.324646 C-29.87294805 180.52591 -29.8753364 181.727174 -29.87779713 182.96483994 C-29.10393294 188.11463475 -26.5984374 191.18788141 -22.7578125 194.57128906 C-18.88186351 197.32525282 -16.7137117 197.38901546 -11.956604 197.40596008 C-10.95583694 197.41147512 -10.95583694 197.41147512 -9.93485236 197.41710156 C-7.6886569 197.42815619 -5.44250768 197.43198524 -3.19628906 197.43579102 C-1.58998466 197.44205436 0.01631828 197.44870104 1.62261963 197.45570374 C5.9946604 197.47312616 10.36669023 197.48366902 14.73875713 197.49190927 C17.46956002 197.49705711 20.20035949 197.50313296 22.93115997 197.50942039 C31.47307041 197.5284765 40.01497218 197.54270638 48.55689979 197.55103236 C58.42092941 197.56080537 68.28473466 197.58712473 78.14868522 197.62753326 C85.76998961 197.6576843 93.39122967 197.6725003 101.01259255 197.67581338 C105.56576498 197.67816515 110.11869783 197.68714189 114.67180634 197.71227455 C118.95641829 197.73554247 123.24063271 197.73979376 127.52529144 197.72951317 C129.09664227 197.72901737 130.66801257 197.73535078 132.23930359 197.74906921 C134.38769301 197.76677432 136.53465365 197.75969062 138.68304443 197.74653625 C139.88430843 197.74892461 141.08557243 197.75131296 142.32323837 197.75377369 C147.47303319 196.9799095 150.54627985 194.47441396 153.9296875 190.63378906 C156.6823046 186.75973536 156.74740448 184.59390771 156.76435852 179.83930969 C156.76803521 179.17283722 156.7717119 178.50636474 156.7755 177.81969613 C156.78655471 175.57583464 156.79038371 173.33201943 156.79418945 171.08813477 C156.80045285 169.48345288 156.80709954 167.87877246 156.81410217 166.27409363 C156.83152547 161.90611782 156.84206795 157.53815296 156.8503077 153.170151 C156.85545596 150.44135043 156.86153183 147.71255327 156.86781883 144.98375511 C156.88687622 136.44664804 156.90110514 127.90954964 156.9094308 119.37242538 C156.91920063 109.51689569 156.94551115 99.66159075 156.98593169 89.80614024 C157.01609643 82.18991572 157.03090009 74.5737556 157.03421181 66.9574725 C157.03656226 62.40818042 157.04552156 57.85912829 157.07067299 53.30990028 C157.09396448 49.02774753 157.0981827 44.7459925 157.08791161 40.4637928 C157.08741636 38.89447456 157.09373343 37.32513667 157.10746765 35.75587845 C157.5299442 24.68937219 157.5299442 24.68937219 152.6171875 15.25878906 C146.01097731 9.60526112 137.01130415 10.69457325 128.84130859 10.74121094 C127.2439663 10.73578465 125.64662902 10.72865915 124.04930115 10.7199707 C119.72913607 10.7017975 115.40935478 10.7087791 111.08918333 10.72148705 C106.56096105 10.73164242 102.03277075 10.72221466 97.50454712 10.71594238 C89.90368777 10.70867484 82.30298413 10.71823174 74.70214844 10.73730469 C65.92011855 10.75908741 57.13845994 10.75200837 48.35643899 10.72999907 C40.80716954 10.71183826 33.25801173 10.70928959 25.70872748 10.71975374 C21.20375013 10.72598292 16.69894725 10.72683985 12.19398117 10.71360779 C7.9601181 10.7020394 3.72673332 10.71009278 -0.50707817 10.73318481 C-2.05906188 10.73846599 -3.61108596 10.73696821 -5.16305351 10.72813416 C-7.28491191 10.71717109 -9.40524628 10.73094817 -11.52700806 10.75085449 C-12.7131048 10.75236259 -13.89920155 10.7538707 -15.12124062 10.7554245 C-20.24471193 11.54613953 -23.32663699 14.05988713 -26.6953125 17.88378906 Z " fill="#000000" transform="translate(345.3828125,207.7412109375)"/>
<path d="M0 0 C21.04528755 -0.07020316 42.09055568 -0.12304347 63.13593674 -0.15543652 C72.9085355 -0.17087957 82.68106134 -0.19191993 92.45361328 -0.22631836 C100.97526483 -0.25629935 109.49686354 -0.27559361 118.01856637 -0.28226548 C122.52721212 -0.28616305 127.03570676 -0.29526903 131.54430389 -0.31719017 C135.79601587 -0.33769302 140.04751581 -0.34380618 144.29927254 -0.33932304 C145.85197417 -0.34014212 147.40468357 -0.34602507 148.95734215 -0.35761642 C166.26209574 -0.48036693 182.03514043 3.38880277 196 14 C196.67675781 14.51175781 197.35351562 15.02351563 198.05078125 15.55078125 C210.53029543 25.70401706 218.8992881 41.1241281 221 57 C222.65800982 74.36373467 218.93019546 91.72330706 207.93359375 105.609375 C205.70372683 108.16887442 203.39808682 110.59791637 201 113 C200.2884375 113.72316406 199.576875 114.44632812 198.84375 115.19140625 C182.78893621 130.51909985 162.94565696 131.58379058 141.98884392 131.4858551 C138.13998809 131.46841073 134.29187132 131.47619944 130.44300842 131.4901123 C122.27445011 131.51530702 114.10608009 131.51018178 105.9375 131.5 C96.45874056 131.48818879 86.9804069 131.48978285 77.50168037 131.52406311 C73.73169621 131.53110185 69.96230484 131.51455325 66.19236755 131.49694824 C46.93949194 131.50045421 29.33094599 133.66905401 15 148 C3.9239795 161.39734216 -1.28075469 175.40868632 -0.23828125 192.75097656 C1.18667838 206.2004931 7.79225708 218.8126119 17.55859375 228.08203125 C29.7324713 237.64582945 42.15484171 240.89133934 57.4375 241.5625 C58.82098633 241.62727539 58.82098633 241.62727539 60.23242188 241.69335938 C62.48814446 241.79854851 64.74405525 241.89968836 67 242 C67 245.3 67 248.6 67 252 C46.05340558 252.47928648 27.67454559 251.45440071 11.5 236.5 C9.63026098 234.69786737 7.81460006 232.85906193 6 231 C5.39542969 230.41605469 4.79085938 229.83210937 4.16796875 229.23046875 C-6.82267983 217.775835 -11.64675387 200.05441339 -11.40039062 184.61132812 C-10.68830494 166.08127629 -2.79891946 150.11198115 10.625 137.375 C21.67106539 128.21326341 36.41802801 120.90609002 50.96229553 120.86196899 C51.93628296 120.85651566 52.91027039 120.85106232 53.91377258 120.84544373 C54.97098007 120.8444014 56.02818756 120.84335907 57.11743164 120.84228516 C58.8013652 120.83466408 58.8013652 120.83466408 60.51931763 120.82688904 C62.95613388 120.81619519 65.39295989 120.80757115 67.82979012 120.80076981 C71.69390573 120.78895935 75.55791066 120.76949909 79.42198181 120.74765015 C90.40848045 120.68611822 101.39496815 120.63183872 112.3815918 120.59863281 C119.10479731 120.57822412 125.82777465 120.54226011 132.5508709 120.49787521 C135.10593728 120.48376499 137.66103929 120.47500409 140.21614265 120.47182083 C143.80324298 120.46688017 147.38981478 120.44363926 150.97680664 120.41650391 C152.01984451 120.41951004 153.06288239 120.42251617 154.13752747 120.4256134 C169.65110096 120.25243505 183.47135639 115.20798008 194.74609375 104.421875 C206.43486593 91.86201581 210.75392467 78.20044952 210.3125 61.2890625 C209.67190598 49.27258643 203.91502001 35.29798999 195 27 C183.82304408 17.06894062 170.3555673 10.92369401 155.24858093 10.84178162 C154.58277333 10.83684364 153.91696572 10.83190566 153.23098212 10.82681805 C151.00775026 10.81150255 148.78454715 10.80309865 146.5612793 10.79467773 C144.96450042 10.78509453 143.36772405 10.77508419 141.77095032 10.76467896 C137.44082209 10.73767178 133.11068301 10.71663957 128.78051734 10.69667697 C124.25346388 10.67479157 119.7264437 10.64741538 115.19941711 10.62062073 C106.62893777 10.57072838 98.05843991 10.52577672 89.4879244 10.48259836 C79.7298101 10.43319643 69.97172922 10.37828927 60.21364725 10.32291877 C40.14246263 10.20915181 20.07124611 10.10230126 0 10 C0 6.7 0 3.4 0 0 Z " fill="#D3DFE9" transform="translate(21,65)"/>
<path d="M0 0 C0 35.31 0 70.62 0 107 C-35 107 -35 107 -41 102 C-42.3984375 100.12109375 -42.3984375 100.12109375 -43.375 98.4375 C-46.13757938 94.39920722 -49.36558259 92.47571789 -54 91 C-56.31687659 90.68283159 -58.617511 90.50507692 -60.94921875 90.3359375 C-64.11915929 89.81667105 -65.84210886 88.29275934 -68 86 C-69.04556467 82.86330598 -69.14541528 80.61607269 -69.17700195 77.32275391 C-69.18983719 76.15789459 -69.20267242 74.99303528 -69.21589661 73.7928772 C-69.22328354 72.53349335 -69.23067047 71.2741095 -69.23828125 69.9765625 C-69.246353 68.68309906 -69.25442474 67.38963562 -69.26274109 66.05697632 C-69.27775213 63.31825899 -69.28759825 60.57956746 -69.29516602 57.84082031 C-69.30623393 54.33797875 -69.34064435 50.83577184 -69.38033772 47.33315468 C-69.41280992 43.98514943 -69.41728248 40.63721307 -69.42578125 37.2890625 C-69.45204338 35.40605942 -69.45204338 35.40605942 -69.47883606 33.48501587 C-69.47591049 32.31385223 -69.47298492 31.1426886 -69.4699707 29.93603516 C-69.47583694 28.90805817 -69.48170319 27.88008118 -69.48774719 26.82095337 C-68.86587243 23.22425466 -67.55093293 21.56994302 -65 19 C-61.57421875 17.84765625 -61.57421875 17.84765625 -57.6875 17.0625 C-49.68287827 15.22392494 -45.41507424 12.62261135 -40.875 5.8125 C-32.25178111 -7.12232834 -12.79866931 0 0 0 Z " fill="#518FDA" transform="translate(194,258)"/>
<path d="M0 0 C15.90690941 12.13238854 25.49335167 27.87523318 28.796875 47.5390625 C31.30522286 68.64140187 26.04658889 87.04389464 12.91015625 103.93359375 C0.08482456 118.78171266 -18.39550995 128.05425582 -38 129.49609375 C-57.74194206 130.36278013 -75.51528483 123.37559109 -90.35546875 110.4453125 C-103.91560737 97.43195366 -112.59656646 78.81969076 -113.07006836 59.95605469 C-113.25475238 38.73335271 -105.35205315 21.26201896 -90.6953125 5.9453125 C-65.72641829 -17.91179422 -27.96432435 -18.91819974 0 0 Z M-84.30859375 13.56640625 C-88.86208123 18.27840121 -92.37028764 23.54461779 -95.77734375 29.12109375 C-96.21949219 29.84296875 -96.66164063 30.56484375 -97.1171875 31.30859375 C-103.71988538 43.26819745 -105.05843617 58.7403517 -101.67578125 71.890625 C-96.31744845 90.02796943 -85.96164827 102.89583114 -69.7578125 112.52734375 C-65.45827149 114.82644301 -62.70329136 116.12109375 -57.77734375 116.12109375 C-57.76316406 115.09628906 -57.74898438 114.07148438 -57.734375 113.015625 C-57.68745359 111.65490404 -57.63920631 110.29422834 -57.58984375 108.93359375 C-57.58404297 108.26005859 -57.57824219 107.58652344 -57.57226562 106.89257812 C-57.41490372 103.30822352 -56.81845317 101.18405037 -54.8515625 98.171875 C-50.48626523 95.2598279 -46.91429777 95.38442084 -41.77734375 95.49609375 C-40.88789063 95.47675781 -39.9984375 95.45742188 -39.08203125 95.4375 C-34.72869493 95.46998758 -32.38881856 95.71318488 -28.703125 98.171875 C-26.35246297 101.77177324 -26.0008452 104.75342501 -25.96484375 108.93359375 C-25.93970703 109.62646484 -25.91457031 110.31933594 -25.88867188 111.03320312 C-25.83021112 112.72856497 -25.80081328 114.42488662 -25.77734375 116.12109375 C-12.12190399 114.07277779 -1.13477352 105.78741138 7.19921875 95.05859375 C17.74110589 79.75454137 21.86451923 62.84004462 18.56640625 44.46484375 C13.89009717 27.85588393 4.18830109 13.87332354 -10.77734375 5.12109375 C-15.62688486 2.63828347 -20.4325605 0.28948823 -25.77734375 -0.87890625 C-25.803125 0.2296875 -25.82890625 1.33828125 -25.85546875 2.48046875 C-25.91176031 3.94404922 -25.96910742 5.40758937 -26.02734375 6.87109375 C-26.04152344 7.60070312 -26.05570312 8.3303125 -26.0703125 9.08203125 C-26.23218527 12.64323212 -26.47252098 14.73201103 -28.69921875 17.57421875 C-31.69759716 19.80609441 -33.34349818 20.24849059 -37.0234375 20.25390625 C-37.86068359 20.25519531 -38.69792969 20.25648438 -39.56054688 20.2578125 C-40.87442383 20.25201172 -40.87442383 20.25201172 -42.21484375 20.24609375 C-43.08689453 20.24996094 -43.95894531 20.25382812 -44.85742188 20.2578125 C-45.69595703 20.25652344 -46.53449219 20.25523437 -47.3984375 20.25390625 C-48.16599365 20.25277832 -48.9335498 20.25165039 -49.72436523 20.25048828 C-51.77734375 20.12109375 -51.77734375 20.12109375 -54.77734375 19.12109375 C-56.72239591 14.71495518 -57.13209137 10.5205524 -57.40234375 5.74609375 C-57.47710937 4.50085938 -57.551875 3.255625 -57.62890625 1.97265625 C-57.67789063 1.03164062 -57.726875 0.090625 -57.77734375 -0.87890625 C-66.2971319 -0.87890625 -78.23914994 8.2830651 -84.30859375 13.56640625 Z " fill="#050505" transform="translate(450.77734375,253.87890625)"/>
<path d="M0 0 C2.99072544 0.44860882 3.6763874 1.01507585 5.5 3.375 C5.88031673 5.52896786 5.88031673 5.52896786 5.88768005 8.07469177 C5.902537 9.52364838 5.902537 9.52364838 5.91769409 11.00187683 C5.91094162 12.58927422 5.91094162 12.58927422 5.90405273 14.20874023 C5.91091599 15.32441376 5.91777924 16.44008728 5.92485046 17.58956909 C5.94319318 21.28770577 5.93927016 24.98542123 5.93359375 28.68359375 C5.93815198 31.24805338 5.94345647 33.81251178 5.94947815 36.37696838 C5.95842401 41.7563328 5.95620223 47.1355347 5.94604492 52.51489258 C5.93456477 58.73220584 5.94863557 64.9490877 5.9754414 71.16634411 C6.00026581 77.1480757 6.00277718 83.12958521 5.99632454 89.11137581 C5.99617087 91.65633932 6.00225246 94.20131095 6.01461601 96.74624443 C6.02945414 100.30178 6.01890059 103.85636006 6.00170898 107.41186523 C6.01621094 108.99622627 6.01621094 108.99622627 6.03100586 110.6125946 C5.95892872 117.71313384 5.95892872 117.71313384 3.63270569 121.06800842 C1.5 122.375 1.5 122.375 -1.125 122.25 C-3.5 121.375 -3.5 121.375 -5.5 119.375 C-5.75447559 117.32566929 -5.75447559 117.32566929 -5.76069641 114.75086975 C-5.76778122 113.77641403 -5.77486603 112.80195831 -5.78216553 111.79797363 C-5.77968811 110.72519165 -5.77721069 109.65240967 -5.7746582 108.54711914 C-5.77976913 107.42023178 -5.78488007 106.29334442 -5.79014587 105.13230896 C-5.80409413 101.391538 -5.80308116 97.65095019 -5.80078125 93.91015625 C-5.80466529 91.31945222 -5.80899934 88.72874882 -5.81376648 86.13804626 C-5.82123996 80.70146352 -5.82106679 75.26495229 -5.81567383 69.82836914 C-5.80963313 63.54126371 -5.82194532 57.25438203 -5.8432439 50.96731478 C-5.86296803 44.92313889 -5.86603554 38.8790804 -5.86250877 32.83486748 C-5.86302354 30.26116854 -5.86829011 27.68746614 -5.87832069 25.1137867 C-5.89060788 21.51977248 -5.88393952 17.92628077 -5.87231445 14.33227539 C-5.87995819 13.26151764 -5.88760193 12.19075989 -5.89547729 11.08755493 C-5.88846298 10.11027939 -5.88144867 9.13300385 -5.8742218 8.12611389 C-5.87438954 7.27605302 -5.87455729 6.42599215 -5.87473011 5.55017185 C-5.2468348 1.90546821 -3.58771145 0.53815672 0 0 Z " fill="#66A3E2" transform="translate(209.5,250.625)"/>
<path d="M0 0 C4.01563175 2.60220426 6.48229475 6.01823688 8.25 10.4375 C9.36684041 16.05109259 8.29993206 20.75777262 5.52734375 25.7109375 C2.85171781 29.32753281 -0.57694074 31.04648025 -4.75 32.4375 C-10.99822565 33.21436642 -15.87006027 32.78316507 -21.0546875 29.046875 C-25.19047579 25.12073496 -26.9332468 20.57767586 -27.3125 14.9375 C-27.05844574 9.86517521 -25.04462636 6.22975222 -21.75 2.4375 C-14.8206233 -2.96741383 -7.98673014 -3.95833555 0 0 Z " fill="#050505" transform="translate(447.75,296.5625)"/>
<path d="M0 0 C4.01684726 2.93915653 6.95784056 6.06102168 8.5625 10.875 C9.374543 16.56958006 9.03089502 20.87760612 5.9375 25.8125 C3.17985588 29.43390736 1.04971432 31.60503368 -3.4375 32.875 C-8.72321222 33.49127138 -12.96482228 33.58406705 -17.8125 31.25 C-22.05010288 27.41597835 -25.89319641 23.81731318 -26.7109375 17.89453125 C-27.00053912 11.60126536 -25.50349258 7.67829257 -21.4375 2.875 C-15.59861531 -2.82147287 -7.39435044 -2.41996924 0 0 Z " fill="#040505" transform="translate(388.4375,296.125)"/>
<path d="M0 0 C6.45950866 -0.0989613 12.91857494 -0.17151336 19.37866211 -0.21972656 C21.57568042 -0.23982767 23.77264532 -0.26711306 25.96948242 -0.30175781 C29.12952866 -0.35034093 32.28886687 -0.37298405 35.44921875 -0.390625 C36.91979988 -0.42159271 36.91979988 -0.42159271 38.42008972 -0.45318604 C42.77607944 -0.45461563 45.30607495 -0.40937289 49.12036133 1.84082031 C51 4 51 4 51.625 6.9375 C50.76111893 11.17051722 49.45947607 12.40667864 46 15 C42.47600118 15.68732372 39.02791933 15.58248225 35.44921875 15.48828125 C34.43527542 15.48120651 33.42133209 15.47413177 32.37666321 15.46684265 C29.1461837 15.43891012 25.91745339 15.37617162 22.6875 15.3125 C20.4941657 15.28741575 18.30080416 15.26460281 16.10742188 15.24414062 C10.73760986 15.18908675 5.36910124 15.10281998 0 15 C0 10.05 0 5.1 0 0 Z " fill="#F8DA84" transform="translate(225,334)"/>
<path d="M0 0 C6.45950866 -0.0989613 12.91857494 -0.17151336 19.37866211 -0.21972656 C21.57568042 -0.23982767 23.77264532 -0.26711306 25.96948242 -0.30175781 C29.12952866 -0.35034093 32.28886687 -0.37298405 35.44921875 -0.390625 C36.91979988 -0.42159271 36.91979988 -0.42159271 38.42008972 -0.45318604 C42.77607944 -0.45461563 45.30607495 -0.40937289 49.12036133 1.84082031 C51 4 51 4 51.625 6.9375 C50.76111893 11.17051722 49.45947607 12.40667864 46 15 C42.47600118 15.68732372 39.02791933 15.58248225 35.44921875 15.48828125 C34.43527542 15.48120651 33.42133209 15.47413177 32.37666321 15.46684265 C29.1461837 15.43891012 25.91745339 15.37617162 22.6875 15.3125 C20.4941657 15.28741575 18.30080416 15.26460281 16.10742188 15.24414062 C10.73760986 15.18908675 5.36910124 15.10281998 0 15 C0 10.05 0 5.1 0 0 Z " fill="#F9DB84" transform="translate(225,275)"/>
<path d="M0 0 C1.875 1 1.875 1 3 3 C3.53423546 5.68175622 3.77571266 8.26369448 4 11 C5.093125 10.938125 6.18625 10.87625 7.3125 10.8125 C11 11 11 11 12.875 12.25 C14.18626396 14.28974393 14.78582164 15.5726452 15 18 C14.23007287 20.93972178 13.67240377 22.51308692 11.1875 24.3125 C8.68810383 25.09802451 6.60506718 25.14472595 4 25 C3.9071875 26.8871875 3.9071875 26.8871875 3.8125 28.8125 C3.40081145 32.08281467 3.28193759 32.74155721 0.75 35.0625 C-2.42703521 36.14558019 -3.86634259 36.15450536 -7 35 C-8.8125 33.875 -8.8125 33.875 -10 32 C-10.1875 28.3125 -10.1875 28.3125 -10 25 C-10.9075 25.04125 -11.815 25.0825 -12.75 25.125 C-15.89640926 25.00398426 -17.42156198 24.71895868 -20 23 C-21.52491998 19.95016004 -21.23562548 17.3576631 -21 14 C-20 12.0625 -20 12.0625 -18 11 C-15.28117977 10.76404716 -12.74042978 10.86522477 -10 11 C-10.061875 9.741875 -10.12375 8.48375 -10.1875 7.1875 C-10.16934383 4.62294156 -10.1515987 3.28536227 -8.9375 1 C-5.86784865 -0.58433618 -3.38318857 -0.36248449 0 0 Z " fill="#70D6F9" transform="translate(70,376)"/>
<path d="M0 0 C0.99 0 1.98 0 3 0 C3.391875 1.03125 3.78375 2.0625 4.1875 3.125 C7.34794827 10.33431748 11.02724572 13.45465326 18.20703125 16.3359375 C18.79871094 16.55507812 19.39039063 16.77421875 20 17 C20 17.66 20 18.32 20 19 C19.33613281 19.29132813 18.67226563 19.58265625 17.98828125 19.8828125 C9.31086639 23.91115984 5.40367489 28.04296082 2 37 C-0.75070359 35.6246482 -0.97558764 34.0460845 -2.1875 31.25 C-5.19204147 25.04593207 -8.76842854 22.44389363 -14.9375 19.6875 C-15.618125 19.460625 -16.29875 19.23375 -17 19 C-17 18.34 -17 17.68 -17 17 C-16.34773438 16.731875 -15.69546875 16.46375 -15.0234375 16.1875 C-8.61102726 13.31231901 -4.37520071 10.26467144 -1 4 C-0.34033418 1.85010526 -0.34033418 1.85010526 0 0 Z " fill="#F5C84B" transform="translate(349,112)"/>
<path d="M0 0 C1.175625 0.0825 2.35125 0.165 3.5625 0.25 C5.74256504 3.52009755 6.16752667 4.45586078 5.5625 8.25 C3.55078125 10.71484375 3.55078125 10.71484375 0.875 13.1875 C-2.05623377 15.94582392 -4.78359482 18.53769681 -7.125 21.8125 C-9.4375 24.25 -9.4375 24.25 -13.0625 25.3125 C-16.4375 25.25 -16.4375 25.25 -18.375 24.125 C-19.7917172 21.62491082 -19.72913325 20.09811724 -19.4375 17.25 C-18.07641602 15.22949219 -18.07641602 15.22949219 -16.19140625 13.296875 C-15.51916016 12.595625 -14.84691406 11.894375 -14.15429688 11.171875 C-13.44337891 10.45515625 -12.73246094 9.7384375 -12 9 C-10.93942383 7.90171875 -10.93942383 7.90171875 -9.85742188 6.78125 C-3.54542766 0.25784928 -3.54542766 0.25784928 0 0 Z " fill="#000000" transform="translate(221.4375,398.75)"/>
<path d="M0 0 C4.79324044 1.7565291 6.13528623 5.22638097 8.45703125 9.58984375 C8.89853516 10.37939453 9.34003906 11.16894531 9.79492188 11.98242188 C14.69268866 20.78040111 14.69268866 20.78040111 14.14453125 26.15234375 C12.51953125 28.15234375 12.51953125 28.15234375 10.14453125 29.15234375 C6.88106629 28.69455214 4.84090979 28.00543733 2.72119141 25.40869141 C1.29295934 23.14159899 0.01803688 20.83549568 -1.23046875 18.46484375 C-1.68035156 17.67400391 -2.13023437 16.88316406 -2.59375 16.06835938 C-5.16658888 11.333241 -6.72044308 7.67541753 -5.85546875 2.15234375 C-2.85546875 0.15234375 -2.85546875 0.15234375 0 0 Z " fill="#000000" transform="translate(286.85546875,406.84765625)"/>
<path d="M0 0 C2.9375 0.375 2.9375 0.375 4.9375 2.375 C5.77556704 8.22914476 4.84415128 14.40907269 4.1875 20.25 C4.04828125 21.50554687 3.9090625 22.76109375 3.765625 24.0546875 C2.85092008 27.72213649 1.94931866 29.1415165 -1.0625 31.375 C-4.45404295 31.21349795 -5.64546757 30.79203243 -8.0625 28.375 C-8.60149756 20.42478593 -8.69179675 8.9874104 -4.6796875 1.94921875 C-3.0625 0.375 -3.0625 0.375 0 0 Z " fill="#000000" transform="translate(253.0625,409.625)"/>
<path d="M0 0 C0 6.6 0 13.2 0 20 C-10.18215613 20.49070632 -10.18215613 20.49070632 -14.125 18.125 C-17.25949061 14.57257731 -17.42460054 11.88409518 -17.3203125 7.265625 C-17 5 -17 5 -15.25 1.9375 C-10.18761199 -1.08046209 -5.82785598 -0.32021187 0 0 Z " fill="#6AAAEB" transform="translate(115,302)"/>
<path d="M0 0 C0.66 0 1.32 0 2 0 C5 5.75 5 5.75 5 8 C7.93720508 9.52299523 10.9168649 10.80100302 14 12 C14 12.66 14 13.32 14 14 C13.46890625 14.1959375 12.9378125 14.391875 12.390625 14.59375 C7.04092873 16.85858492 4.85858492 19.04092873 2.59375 24.390625 C2.3978125 24.92171875 2.201875 25.4528125 2 26 C1.34 26 0.68 26 0 26 C-1.04296875 24.390625 -1.04296875 24.390625 -2.1875 22.25 C-4.80940074 17.82259874 -7.38987383 16.16947114 -12 14 C-12 13.34 -12 12.68 -12 12 C-10.390625 10.95703125 -10.390625 10.95703125 -8.25 9.8125 C-3.82259874 7.19059926 -2.16947114 4.61012617 0 0 Z " fill="#87D046" transform="translate(368,431)"/>
<path d="M0 0 C2.58094937 2.82291337 3.01389559 4.30522028 2.9375 8.125 C2 11 2 11 0.375 12.9375 C-3.11319754 14.49800943 -5.36432898 13.99154664 -9 13 C-11 11.375 -11 11.375 -12 9 C-11.93439072 5.260271 -11.76345433 2.9396361 -9.375 0 C-5.85025855 -1.48410166 -3.63189024 -1.05654989 0 0 Z " fill="#F5C84B" transform="translate(123,430)"/>
<path d="M0 0 C2.4375 1.625 2.4375 1.625 4 4 C4.60605429 7.63632575 4.47161336 9.28314769 2.4375 12.375 C-0.95870843 14.63913895 -3.00099302 14.64269755 -7 14 C-9.5 11.9375 -9.5 11.9375 -11 9 C-10.9375 5.3125 -10.9375 5.3125 -10 2 C-6.2794164 -0.48038907 -4.40203429 -0.46337203 0 0 Z " fill="#7C7C7D" transform="translate(383,305)"/>
<path d="M0 0 C2.5 1.5625 2.5 1.5625 4 4 C3.93913078 7.46954545 3.6274029 9.91947278 1.875 12.9375 C-1.18452459 14.6712306 -3.56817525 14.42145216 -7 14 C-9.4375 12.375 -9.4375 12.375 -11 10 C-11.60605429 6.36367425 -11.47161336 4.71685231 -9.4375 1.625 C-6.06489221 -0.62340519 -3.97487617 -0.56783945 0 0 Z " fill="#7D7D7E" transform="translate(442,305)"/>
<path d="M0 0 C3.96 0 7.92 0 12 0 C12 4.62 12 9.24 12 14 C8.04 14 4.08 14 0 14 C0 9.38 0 4.76 0 0 Z " fill="#F3D581" transform="translate(403,359)"/>
<path d="M0 0 C3.96 0 7.92 0 12 0 C12 4.62 12 9.24 12 14 C8.04 14 4.08 14 0 14 C0 9.38 0 4.76 0 0 Z " fill="#F7D983" transform="translate(403,251)"/>
<path d="M0 0 C2.375 1 2.375 1 4 3 C4.65964122 6.55761554 4.63041883 9.73916234 3 13 C-0.26083766 14.63041883 -3.44238446 14.65964122 -7 14 C-9.6923481 11.81246717 -9.93936827 10.41576045 -10.4375 7 C-10 4 -10 4 -8.375 1.625 C-5.30522452 -0.4753727 -3.65443439 -0.53293835 0 0 Z " fill="#FC647D" transform="translate(304,79)"/>
</svg>
