<?xml version="1.0" encoding="UTF-8"?>
<svg version="1.1" xmlns="http://www.w3.org/2000/svg" width="512" height="512">
<path d="M0 0 C2.422658 1.89958411 2.95849564 2.86362854 3.875 5.875 C4.032285 9.80712488 3.67078675 11.09355559 1 14 C-2.6875 15.4375 -2.6875 15.4375 -5.08984375 16.140625 C-21.31544284 20.93207708 -34.89202907 27.91286895 -47 40 C-48.04607422 41.02867188 -48.04607422 41.02867188 -49.11328125 42.078125 C-58.47377249 51.89300902 -64.22864374 64.09260627 -68 77 C-68.18256348 77.60626221 -68.36512695 78.21252441 -68.55322266 78.8371582 C-70.60171114 86.58977112 -70.45620598 94.59841137 -70.625 102.5625 C-70.66325846 104.06317176 -70.70231451 105.5638234 -70.7421875 107.06445312 C-70.83732196 110.70944944 -70.92165908 114.35459954 -71 118 C-68.36 117.67 -65.72 117.34 -63 117 C-62.95875 116.278125 -62.9175 115.55625 -62.875 114.8125 C-61.60534887 110.7314785 -59.42277215 109.51468974 -56 107 C-53.18120102 105.59060051 -50.77172181 105.83595517 -47.62109375 105.7890625 C-46.31567627 105.76303955 -45.01025879 105.7370166 -43.6652832 105.71020508 C-42.97471832 105.69696198 -42.28415344 105.68371887 -41.57266235 105.67007446 C-29.51482895 105.4155269 -17.73520866 105.05003395 -6 102 C-5.21657227 101.79745605 -4.43314453 101.59491211 -3.62597656 101.38623047 C13.74570389 96.76610269 29.854545 89.90993758 45.265625 80.63671875 C49.65904071 78.12001802 52.87590576 77.51514263 57.90625 78.40234375 C63.90550759 80.1148184 67.36208064 84.34197892 71.22265625 88.9375 C72.86225015 90.84014962 74.56510087 92.57365927 76.375 94.3125 C89.9324694 107.62346996 89.9324694 107.62346996 90.0625 114.125 C90.041875 115.07375 90.02125 116.0225 90 117 C93.96 117.495 93.96 117.495 98 118 C97.32378884 87.01010197 93.83520986 61.63679484 72 38 C60.36178116 26.953555 46.33136427 20.79030807 31.19140625 16.13671875 C25.17255892 14.25883838 25.17255892 14.25883838 23 11 C22.58532174 7.19878263 22.47422692 4.89152827 24.4375 1.5625 C29.5029081 -1.52616348 34.16674695 -0.44311785 39.65234375 0.8828125 C54.03520622 4.92622303 66.42562776 11.4890256 78 21 C78.86367188 21.69867187 79.72734375 22.39734375 80.6171875 23.1171875 C100.56650917 40.08343303 111.79804453 65.15289386 114 91 C114.1222304 93.95912411 114.13660398 96.91364044 114.140625 99.875 C114.15894155 101.53647217 114.17851078 103.19793092 114.19921875 104.859375 C114.22817649 107.4331784 114.25000115 110.00610102 114.25048828 112.58007812 C114.21209738 126.06890902 114.21209738 126.06890902 120 138 C123.32766455 146.11748473 123.15957554 155.41326892 120.5625 163.75 C116.44741897 173.4856795 109.37764922 179.63515945 99.88671875 183.94921875 C96.16136107 185.30526911 92.95231027 185.84798807 89 186 C88.98582031 186.57105469 88.97164063 187.14210937 88.95703125 187.73046875 C87.90269785 205.65413654 77.46541602 220.81247542 65 233 C64.01 233.66 63.02 234.32 62 235 C61.49039309 237.51385259 61.49039309 237.51385259 61.48828125 240.4453125 C61.45283203 241.52167969 61.41738281 242.59804687 61.38085938 243.70703125 C61.34702148 245.39892578 61.34702148 245.39892578 61.3125 247.125 C61.27833984 248.26066406 61.24417969 249.39632812 61.20898438 250.56640625 C61.12630433 253.37752779 61.0596852 256.18832383 61 259 C61.60291367 259.17147049 62.20582733 259.34294098 62.82701111 259.51960754 C69.10134515 261.34698914 75.17279188 263.50010161 81.25390625 265.88671875 C82.21698196 266.26099503 83.18005768 266.6352713 84.1723175 267.02088928 C87.30396485 268.23906617 90.43336782 269.46287819 93.5625 270.6875 C96.84922559 271.9709404 100.1361885 273.25377175 103.42315674 274.53659058 C105.65477299 275.40773239 107.88617663 276.27941906 110.11737061 277.15164185 C116.42655305 279.61573944 122.74373878 282.05686913 129.07341003 284.46784973 C132.79985421 285.88749164 136.52295882 287.31577204 140.24581909 288.74478149 C141.97692066 289.40663604 143.7095772 290.06444 145.44387817 290.71786499 C166.01129635 298.47299105 184.48474979 309.93997247 194.375 330.5 C198.68455175 340.53970367 201.088185 350.63043607 201.375 361.5625 C201.42398437 362.84253906 201.47296875 364.12257813 201.5234375 365.44140625 C200.86997598 369.88396928 199.494899 371.27889829 196 374 C193 374.625 193 374.625 190 374 C187.30568215 371.97625008 185.34749694 370.3359039 184.47607422 366.98583984 C184.19980556 364.61302771 184.04916354 362.26113516 183.9375 359.875 C182.83902939 345.75543804 177.97923685 331.45349782 167.08447266 321.69580078 C159.47482209 315.50504969 151.0164959 311.42160116 141.9375 307.875 C140.80658936 307.42342529 139.67567871 306.97185059 138.51049805 306.5065918 C123.40403303 300.50934857 108.20129855 294.75165644 93 289 C92.77417236 289.77400146 92.54834473 290.54800293 92.31567383 291.34545898 C90.55225758 296.24369201 88.26510497 300.81485219 85.94921875 305.47265625 C85.45339798 306.47332626 84.95757721 307.47399628 84.44673157 308.50498962 C83.39904107 310.61484344 82.34912147 312.72359164 81.29711914 314.83129883 C79.69376745 318.04991853 78.10549847 321.27569836 76.51757812 324.50195312 C75.49571285 326.55514623 74.47295595 328.60789586 73.44921875 330.66015625 C72.97820236 331.62172134 72.50718597 332.58328644 72.02189636 333.57398987 C69.12561224 339.32775496 66.46752859 343.57272999 61.125 347.3125 C56.11315207 348.93398021 52.17129028 348.30031656 47.5625 346 C46.36746945 345.34692828 45.17710176 344.68485921 44 344 C41.24160799 346.36878862 39.52927385 348.69445122 38 352 C37.91800309 355.13612644 37.91800309 355.13612644 38.53125 358.61328125 C38.67849014 359.62966423 38.67849014 359.62966423 38.82870483 360.6665802 C39.1944698 363.11555215 39.59431437 365.5573237 40 368 C40.16195862 368.98611267 40.32391724 369.97222534 40.49078369 370.98822021 C42.02837137 380.28733626 43.64636888 389.57232381 45.26464844 398.85766602 C45.88036212 402.39801967 46.49113224 405.93920095 47.1015625 409.48046875 C47.2921524 410.56377975 47.48274231 411.64709076 47.67910767 412.76322937 C47.85283905 413.7723085 48.02657043 414.78138763 48.20556641 415.82104492 C48.43634384 417.14431038 48.43634384 417.14431038 48.67178345 418.49430847 C49.00346735 421.02647065 49.05819271 423.44933868 49 426 C50.82724609 426.14695312 50.82724609 426.14695312 52.69140625 426.296875 C54.31518446 426.44705102 55.93887829 426.59814138 57.5625 426.75 C58.36236328 426.811875 59.16222656 426.87375 59.98632812 426.9375 C65.61764597 427.4891393 69.36341837 428.70009055 74 432 C76.48352192 435.42189809 76.94266727 439.22600818 77.25 443.375 C75.15409741 449.45311751 70.47835302 453.52164698 66 458 C76.23 458 86.46 458 97 458 C94.36 455.36 91.72 452.72 89 450 C86.55223537 445.10447074 86.16707453 441.38851783 87 436 C88.66401091 432.63072172 90.90084651 430.52016083 94.33081055 428.89697266 C97.094258 427.9683249 99.62826225 427.503789 102.51953125 427.1484375 C103.54111328 427.01953125 104.56269531 426.890625 105.61523438 426.7578125 C107.19788086 426.56832031 107.19788086 426.56832031 108.8125 426.375 C109.88693359 426.2409375 110.96136719 426.106875 112.06835938 425.96875 C114.71155761 425.63981866 117.35536252 425.31711501 120 425 C119.99000725 424.09584099 119.99000725 424.09584099 119.97981262 423.17341614 C119.91340364 416.89553159 119.86817623 410.61774697 119.83520508 404.33959961 C119.82012572 401.99711046 119.79965922 399.6546495 119.77368164 397.31225586 C119.73726179 393.94377683 119.72026487 390.57567136 119.70703125 387.20703125 C119.69154739 386.16102249 119.67606354 385.11501373 119.66011047 384.03730774 C119.65801087 374.95073964 119.65801087 374.95073964 123 371 C125.58546056 369.03861613 126.78795025 368.98701736 130.0625 369.1875 C133.19297451 370.05337593 134.10910477 370.44354252 136 373 C136.43237305 375.72729492 136.43237305 375.72729492 136.51171875 378.98046875 C136.56489258 380.72553711 136.56489258 380.72553711 136.61914062 382.50585938 C136.64169922 383.72080078 136.66425781 384.93574219 136.6875 386.1875 C136.72166016 387.41404297 136.75582031 388.64058594 136.79101562 389.90429688 C136.8735941 392.93610678 136.94271369 395.96762379 137 399 C137.92232422 397.80503906 137.92232422 397.80503906 138.86328125 396.5859375 C141.2744697 393.66782643 142.33014094 392.81552423 146 392 C152.07625617 391.91145711 155.42791403 392.8350474 160 397 C161.74511719 399.82495117 161.74511719 399.82495117 163.296875 403.04296875 C163.86277344 404.19861328 164.42867188 405.35425781 165.01171875 406.54492188 C165.59160912 407.75889339 166.1710309 408.97308884 166.75 410.1875 C167.90781268 412.57860742 169.07146777 414.96683057 170.234375 417.35546875 C170.74194336 418.41403076 171.24951172 419.47259277 171.77246094 420.56323242 C172.78448519 422.88894492 172.78448519 422.88894492 174 424 C175.84599688 424.39454223 177.70225822 424.74176866 179.5625 425.0625 C180.57441406 425.23910156 181.58632813 425.41570312 182.62890625 425.59765625 C183.41136719 425.73042969 184.19382812 425.86320312 185 426 C184.97381592 425.17798096 184.94763184 424.35596191 184.9206543 423.5090332 C184.8165856 419.77705062 184.75163872 416.0453734 184.6875 412.3125 C184.64560547 411.01892578 184.60371094 409.72535156 184.56054688 408.39257812 C184.54443359 407.14541016 184.52832031 405.89824219 184.51171875 404.61328125 C184.48553467 403.46641846 184.45935059 402.31955566 184.43237305 401.13793945 C185.17240125 397.04693623 186.82081414 395.58008781 190 393 C192.1328125 392.58984375 192.1328125 392.58984375 194.125 392.9375 C194.78757812 393.02902344 195.45015625 393.12054688 196.1328125 393.21484375 C198.76276809 394.32074558 199.55152925 395.54083314 201 398 C201.32128906 401.14453125 201.32128906 401.14453125 201.265625 404.8125 C201.26839546 406.14844034 201.2723374 407.48437867 201.27734375 408.8203125 C201.26898328 410.91436347 201.24986695 413.00689621 201.20947266 415.10058594 C200.65141636 422.93781852 200.65141636 422.93781852 203.53710938 429.71386719 C205.64135884 430.91643991 205.64135884 430.91643991 209 432 C211.62615657 436.26750443 212.68450706 439.97041712 211.73828125 444.98828125 C210.20463973 449.16725152 207.10730369 451.91255129 204 455 C202.82960456 456.20463755 201.66043864 457.41047031 200.4921875 458.6171875 C199.22542055 459.91288951 197.95717706 461.20714951 196.6875 462.5 C196.06464111 463.13631348 195.44178223 463.77262695 194.80004883 464.42822266 C193.91482544 465.31453369 193.91482544 465.31453369 193.01171875 466.21875 C192.48022217 466.75435547 191.94872559 467.28996094 191.40112305 467.84179688 C190 469 190 469 188 469 C188.15670166 469.80630859 188.31340332 470.61261719 188.47485352 471.44335938 C189.05668951 474.46829842 189.62748978 477.49506551 190.19116211 480.5234375 C190.55594847 482.46512743 190.933137 484.40447419 191.31054688 486.34375 C194.0604583 501.21651037 194.0604583 501.21651037 190.87890625 507.05859375 C187.34807539 510.7570605 185.58655965 512.16464785 180.515625 512.36328125 C174.39595475 512.29838899 170.02909001 510.0893851 164.75 507.1875 C163.89148438 506.73568359 163.03296875 506.28386719 162.1484375 505.81835938 C161.31054688 505.37685547 160.47265625 504.93535156 159.609375 504.48046875 C158.40172485 503.84818359 158.40172485 503.84818359 157.16967773 503.203125 C155 502 155 502 152.01953125 499.88671875 C147.71638612 498.62305259 145.48275101 500.12994067 141.60742188 502.14453125 C140.72634766 502.63308594 139.84527344 503.12164062 138.9375 503.625 C138.05255859 504.09035156 137.16761719 504.55570312 136.25585938 505.03515625 C132.8261268 506.85165377 129.475486 508.69146835 126.21875 510.8046875 C122.03373782 513.05928913 117.59999645 512.70146573 113 512 C109.98472069 510.71284519 109.17771691 509.68026697 107 507 C105 499 105 499 109 475 C90.85 475 72.7 475 54 475 C55.98 485.89 55.98 485.89 58 497 C56.85714286 506.14285714 56.85714286 506.14285714 52 511 C48.07666153 512.96166924 44.26026386 512.73182447 40 512 C31.89695593 508.9605735 24.11053096 504.34947244 16.89453125 499.6171875 C13.58550903 498.53919676 10.72118669 500.64033983 7.73583984 502.12915039 C6.98512207 502.53125732 6.2344043 502.93336426 5.4609375 503.34765625 C4.63335937 503.78787109 3.80578125 504.22808594 2.953125 504.68164062 C2.10234375 505.13732422 1.2515625 505.59300781 0.375 506.0625 C-1.32439389 506.97216054 -3.02487014 507.87980273 -4.7265625 508.78515625 C-5.47502441 509.18613525 -6.22348633 509.58711426 -6.99462891 510.00024414 C-11.87944359 512.43551516 -16.6437522 512.741378 -22 512 C-25.3344141 510.36335275 -27.41079778 508.07701574 -29.203125 504.80078125 C-30.23794642 501.16368831 -29.81314319 498.04247 -29.25 494.375 C-29.16234375 493.72660156 -29.0746875 493.07820313 -28.984375 492.41015625 C-28.16783548 486.56963054 -27.0560669 480.80836795 -26 475 C-44.15 475 -62.3 475 -81 475 C-79.68 483.25 -78.36 491.5 -77 500 C-79.41856827 508.46498894 -79.41856827 508.46498894 -83.06030273 511.12109375 C-88.11699876 513.41235941 -93.92285839 512.77290955 -99.00170898 510.88305664 C-102.06889639 509.37631113 -105.03488144 507.76098469 -108 506.0625 C-110.02014964 504.9479786 -112.04095266 503.83464046 -114.0625 502.72265625 C-115.37927734 501.97640991 -115.37927734 501.97640991 -116.72265625 501.21508789 C-119.05687021 499.88794063 -119.05687021 499.88794063 -122 499 C-124.60065008 500.08211646 -124.60065008 500.08211646 -127.41015625 501.74609375 C-128.48330078 502.33583984 -129.55644531 502.92558594 -130.66210938 503.53320312 C-132.90657247 504.79015403 -135.14628894 506.0556233 -137.38085938 507.33007812 C-143.8811678 510.88027636 -149.48739847 513.6091485 -157 512 C-160.38243418 510.27719821 -162.48093871 508.05895447 -164.16796875 504.6171875 C-166.62932405 496.87489618 -163.41213277 487.04883969 -162.0168457 479.19458008 C-161.40681786 475.72144811 -161 472.53849324 -161 469 C-162.3005203 467.43517215 -162.3005203 467.43517215 -164.1875 466.0625 C-168.27693196 462.67788935 -172.09784681 459.09977275 -175.875 455.375 C-176.73194458 454.54947632 -176.73194458 454.54947632 -177.60620117 453.70727539 C-181.27885949 450.06750164 -183.79385545 447.08688248 -184.15234375 441.71875 C-183.74697179 437.53236324 -183.35831127 435.45515216 -180.6875 432.0625 C-178.46168178 430.35431392 -176.50622728 429.19166031 -174 428 C-173.99413376 427.10401093 -173.98826752 426.20802185 -173.98222351 425.28488159 C-173.9239832 416.78314186 -173.85173104 408.28165614 -173.76428509 399.78016472 C-173.71982275 395.41091684 -173.6805157 391.04175705 -173.65356445 386.67236328 C-173.62728778 382.44463922 -173.58671977 378.21725868 -173.53681374 373.98974991 C-173.52030781 372.38811691 -173.50869342 370.78642472 -173.50238609 369.18471909 C-173.39942155 345.41022686 -167.05569169 326.11097757 -150 309 C-137.38300682 297.33601452 -121.26745311 292.21503644 -105.5 286.1875 C-103.34280897 285.35820845 -101.18582947 284.52836648 -99.02905273 283.69799805 C-94.58397246 281.98722235 -90.13776073 280.27943078 -85.69091797 278.57324219 C-79.14269965 276.05820605 -72.60363706 273.51999634 -66.06640625 270.9765625 C-63.03670017 269.79932637 -60.0068895 268.6223598 -56.97705078 267.44546509 C-55.0374062 266.69147253 -53.09811416 265.93657239 -51.15917969 265.18075562 C-48.47321101 264.13429279 -45.78565151 263.09202526 -43.09765625 262.05078125 C-42.30106094 261.73924103 -41.50446564 261.42770081 -40.68373108 261.10671997 C-35.22807949 259 -35.22807949 259 -33 259 C-31.73528929 245.45617704 -31.73528929 245.45617704 -36.4921875 233.44140625 C-38.51565899 231.55383227 -40.69545905 229.91995432 -42.92578125 228.28515625 C-55.73698543 218.7622154 -60.87176123 200.96114195 -64 186 C-64.76183594 185.85304687 -65.52367187 185.70609375 -66.30859375 185.5546875 C-76.72480142 183.2919907 -84.97945926 179.04916642 -91 170 C-96.04413192 160.60692101 -97.63630026 151.1500928 -94.75 140.75 C-93.83801063 137.73030186 -92.87719153 135.83551752 -90.96826172 133.27880859 C-88.71866266 129.53133707 -88.49105012 127.44809122 -88.4609375 123.1171875 C-88.45005096 122.46940842 -88.43916443 121.82162933 -88.427948 121.15422058 C-88.40605276 119.77423327 -88.39238193 118.39409436 -88.38635254 117.01394653 C-88.36717339 113.40037823 -88.27651711 109.78839437 -88.1953125 106.17578125 C-88.18085083 105.46415329 -88.16638916 104.75252533 -88.15148926 104.01933289 C-87.47227382 72.31087811 -78.3103167 46.69954775 -55.50756836 24.01708984 C-42.63947447 11.71445648 -18.50731067 -3.96585229 0 0 Z M53 95 C51.93265625 95.6290625 50.8653125 96.258125 49.765625 96.90625 C23.22129718 112.27449528 -4.80783473 120.45390184 -35.44921875 121.54296875 C-37.26069397 121.60985901 -37.26069397 121.60985901 -39.10876465 121.67810059 C-42.07244661 121.78726959 -45.03618504 121.89451405 -48 122 C-48.09359984 129.54656684 -48.16421317 137.09307187 -48.20724869 144.64009094 C-48.22792701 148.14634019 -48.25587078 151.65218599 -48.30175781 155.15820312 C-48.60096747 178.64800462 -48.34259376 198.77326247 -31.27734375 216.71875 C-30.52582031 217.4715625 -29.77429688 218.224375 -29 219 C-28.36191406 219.6496875 -27.72382813 220.299375 -27.06640625 220.96875 C-15.68294357 231.76055661 0.69178687 236.48295408 16.15234375 236.203125 C32.98377307 235.00252922 48.84558827 227.77815521 60 215 C68.70297041 203.90036543 73.99583305 191.53918118 74.22460938 177.30126953 C74.23599945 176.64854065 74.24738953 175.99581177 74.25912476 175.32330322 C74.36930167 168.53431121 74.41710163 161.74428608 74.45996094 154.95458984 C74.48226286 151.73790349 74.52408295 148.52237252 74.58300781 145.30615234 C74.6542289 141.40988576 74.69080893 137.51470856 74.70307922 133.61782455 C74.71345068 132.13861673 74.73580635 130.65944 74.77067566 129.18060684 C75.16400249 121.03096781 75.16400249 121.03096781 72.46203613 113.57124329 C70.73016724 111.83032677 68.99662764 110.41966583 67 109 C65.28128839 107.05962915 63.62248156 105.08529025 61.96875 103.08984375 C59.1917944 100.14208334 56.10764555 97.59096177 53 95 Z M90 133 C90 144.88 90 156.76 90 169 C96.47303395 167.92116101 98.79662406 166.71287605 103 162 C105.78338858 157.15151666 106.95104856 152.54778324 106 147 C103.86118498 140.68704598 100.62126394 137.13015526 94.875 133.75 C92.87233446 132.81430466 92.87233446 132.81430466 90 133 Z M-75.53125 139.5078125 C-79.07673693 143.93967116 -80.35161715 148.33394086 -80 154 C-78.084797 160.04800947 -75.45150554 164.54910896 -69.9375 167.8125 C-67.06451963 169.18739459 -67.06451963 169.18739459 -64 169 C-64 157.45 -64 145.9 -64 134 C-68.71580149 134 -72.24423022 136.27110425 -75.53125 139.5078125 Z M39.25 246.875 C20.41216064 253.74727775 1.85322687 250.86125805 -17 246 C-18.07421596 253.74737568 -18.45310749 259.98314409 -13.62353516 266.40283203 C-11.66128447 268.75606501 -9.64694871 271.04744698 -7.56542969 273.29589844 C-5.53666345 275.50438071 -3.61834635 277.79559124 -1.69580078 280.09643555 C-0.33910498 281.71819705 1.03186057 283.32681844 2.40625 284.93359375 C6.04120294 289.20547483 9.52916949 293.59433261 13 298 C15.9760924 296.68958049 17.76516034 295.41357564 19.77734375 292.8671875 C20.28483154 292.23321045 20.79231934 291.5992334 21.31518555 290.94604492 C21.85054932 290.2626001 22.38591309 289.57915527 22.9375 288.875 C24.08827798 287.43077943 25.239328 285.9867756 26.390625 284.54296875 C26.98166016 283.79708496 27.57269531 283.05120117 28.18164062 282.28271484 C31.69848629 277.8677703 35.28676574 273.51052722 38.86108398 269.14208984 C39.37485596 268.51125488 39.88862793 267.88041992 40.41796875 267.23046875 C40.86938232 266.67770264 41.3207959 266.12493652 41.78588867 265.55541992 C45.16961895 261.22046203 45.24524002 258.10768547 45.125 252.8125 C45.11597656 252.06291016 45.10695313 251.31332031 45.09765625 250.54101562 C45.07412578 248.69387346 45.03825561 246.84689588 45 245 C43.0299755 245 41.04844931 246.16289724 39.25 246.875 Z M-33.7890625 275.75 C-35.20058594 276.29140625 -35.20058594 276.29140625 -36.640625 276.84375 C-37.62546875 277.2253125 -38.6103125 277.606875 -39.625 278 C-40.61757812 278.3815625 -41.61015625 278.763125 -42.6328125 279.15625 C-45.08969957 280.10120657 -47.54535296 281.04924307 -50 282 C-49.41276687 285.5425814 -48.48181856 288.40462264 -46.86694336 291.60668945 C-46.42656235 292.48722488 -45.98618134 293.36776031 -45.53245544 294.27497864 C-45.05639359 295.2116185 -44.58033173 296.14825836 -44.08984375 297.11328125 C-43.35949669 298.56760811 -43.35949669 298.56760811 -42.61439514 300.05131531 C-41.06104851 303.14124299 -39.49940014 306.22688858 -37.9375 309.3125 C-36.88161118 311.40922819 -35.82626615 313.50623031 -34.77148438 315.60351562 C-32.18728644 320.73887013 -29.59626351 325.87073584 -27 331 C-20.51390347 326.94320892 -14.14419181 322.80943198 -8 318.25 C-7.35933594 317.78207031 -6.71867187 317.31414062 -6.05859375 316.83203125 C-3.16330757 314.69834436 -0.50426431 312.59262799 2 310 C-5.67561659 300.11568558 -13.53919718 290.40170409 -21.54248047 280.78076172 C-22.82368288 279.21541995 -24.05842267 277.61229028 -25.28515625 276.00390625 C-25.85105469 275.34261719 -26.41695312 274.68132812 -27 274 C-29.57945785 274 -31.37907768 274.82084923 -33.7890625 275.75 Z M55 274 C53.10598677 276.00041847 51.3271227 278.01449794 49.5625 280.125 C49.03188965 280.75156494 48.5012793 281.37812988 47.95458984 282.02368164 C43.77118542 286.99698132 39.72570498 292.07326833 35.7512207 297.21459961 C33.35308875 300.31272204 30.88923153 303.29285896 28.25 306.1875 C27.5075 307.115625 26.765 308.04375 26 309 C27.09179754 312.27539262 27.48294326 312.61075567 30.2109375 314.41796875 C30.87416016 314.86422607 31.53738281 315.3104834 32.22070312 315.77026367 C33.28708008 316.47179565 33.28708008 316.47179565 34.375 317.1875 C35.83154966 318.16544573 37.28727453 319.14462098 38.7421875 320.125 C39.46245117 320.60839844 40.18271484 321.09179688 40.92480469 321.58984375 C45.36759885 324.60885306 49.68139631 327.80679515 54 331 C56.07315474 328.35191938 57.76351969 325.73555967 59.28417969 322.73803711 C59.70761658 321.90715073 60.13105347 321.07626434 60.56732178 320.22019958 C61.01432434 319.33155716 61.4613269 318.44291473 61.921875 317.52734375 C62.38611877 316.60788467 62.85036255 315.6884256 63.32867432 314.74110413 C64.30576714 312.80139888 65.28063301 310.86057045 66.25341797 308.91870117 C67.74875968 305.93997073 69.25886312 302.96902752 70.76953125 299.99804688 C71.71706352 298.11244003 72.66370899 296.22638725 73.609375 294.33984375 C74.06447449 293.44917709 74.51957397 292.55851044 74.98846436 291.64085388 C75.3992926 290.81311966 75.81012085 289.98538544 76.23339844 289.13256836 C76.78275055 288.04147011 76.78275055 288.04147011 77.34320068 286.92832947 C78.27729374 284.82319532 78.27729374 284.82319532 77 282 C75.03601492 280.84076045 75.03601492 280.84076045 72.59765625 279.95703125 C71.26250977 279.43012695 71.26250977 279.43012695 69.90039062 278.89257812 C68.96388672 278.53615234 68.02738281 278.17972656 67.0625 277.8125 C66.12986328 277.44447266 65.19722656 277.07644531 64.23632812 276.69726562 C59.74469902 274.7530185 59.74469902 274.7530185 55 274 Z M-72.30932617 290.54125977 C-73.1784111 290.87903946 -74.04749603 291.21681915 -74.94291687 291.56483459 C-75.88343399 291.93660324 -76.82395111 292.30837189 -77.79296875 292.69140625 C-79.26120842 293.26579689 -79.26120842 293.26579689 -80.7591095 293.85179138 C-82.84060516 294.66739806 -84.92112032 295.48551077 -87.00073242 296.3059082 C-90.12765751 297.53890318 -93.25784133 298.76328936 -96.38867188 299.98632812 C-119.78620594 308.2581891 -119.78620594 308.2581891 -140 322 C-140.71671875 322.68835938 -141.4334375 323.37671875 -142.171875 324.0859375 C-155.25884011 337.71409289 -157.48829193 354.48766687 -157.29296875 372.58203125 C-157.28735734 374.13286422 -157.28309457 375.6837026 -157.28010559 377.23454285 C-157.26877815 381.27051075 -157.23941902 385.3061427 -157.20599365 389.34197998 C-157.17502808 393.4785915 -157.1615443 397.61525854 -157.14648438 401.75195312 C-157.11453454 409.83478773 -157.06348949 417.91735181 -157 426 C-155.22553584 425.92411479 -153.45209483 425.8240241 -151.67944336 425.71362305 C-150.69181503 425.66046432 -149.70418671 425.6073056 -148.68663025 425.55253601 C-145.94764862 425.23352124 -145.94764862 425.23352124 -144.27732849 423.38322449 C-142.96285355 421.32159307 -141.97727782 419.24129088 -141 417 C-140.15688858 415.31543357 -139.31176909 413.63187094 -138.46484375 411.94921875 C-137.18448097 409.29944167 -135.91713072 406.64429717 -134.66210938 403.98242188 C-134.03852539 402.69754883 -134.03852539 402.69754883 -133.40234375 401.38671875 C-133.03616943 400.61545654 -132.66999512 399.84419434 -132.29272461 399.04956055 C-130.40162899 396.0513079 -128.25764358 394.3612867 -124.8515625 393.3828125 C-119.67708732 392.78366274 -116.44334127 392.89999446 -112 396 C-110.6384386 397.64368674 -109.30094905 399.30793407 -108 401 C-107.99589111 400.16750732 -107.99178223 399.33501465 -107.98754883 398.47729492 C-107.96056043 395.38485594 -107.91147084 392.29378027 -107.84741211 389.2019043 C-107.81283954 387.20709134 -107.80375406 385.21188986 -107.79492188 383.21679688 C-107.76591797 381.96318359 -107.73691406 380.70957031 -107.70703125 379.41796875 C-107.68346558 377.68196411 -107.68346558 377.68196411 -107.65942383 375.91088867 C-107 373 -107 373 -104.65112305 371.09887695 C-101.22494002 369.6787416 -99.4931261 369.78499962 -96 371 C-91.87301187 375.66388183 -92.52419524 381.32803296 -92.48828125 387.20703125 C-92.47033005 388.28756271 -92.45237885 389.36809418 -92.43388367 390.48136902 C-92.37979737 393.92503992 -92.34588955 397.36857232 -92.3125 400.8125 C-92.27932553 403.15040989 -92.24483576 405.48830151 -92.20898438 407.82617188 C-92.12407181 413.55065706 -92.05571469 419.2751602 -92 425 C-90.8337207 425.20568604 -89.66744141 425.41137207 -88.46582031 425.62329102 C-86.91992137 425.89599322 -85.37402296 426.16869846 -83.828125 426.44140625 C-82.67787842 426.64425232 -82.67787842 426.64425232 -81.50439453 426.85119629 C-80.00693447 427.11538299 -78.50957656 427.38014939 -77.0123291 427.64553833 C-75.36180284 427.93627025 -73.7098903 428.21912169 -72.05761719 428.49975586 C-67.40038975 429.38321003 -64.37376949 430.62623051 -61 434 C-59.14316947 437.71366106 -59.55521469 441.9468156 -60 446 C-62.56812883 451.03748348 -66.26281367 454.63994929 -70 459 C-59.11 459 -48.22 459 -37 459 C-41.0777128 454.21041822 -41.0777128 454.21041822 -45.3125 449.5625 C-47.55731527 446.15370645 -48.18276109 443.01312902 -48 439 C-46.85085312 434.87659059 -46.12935083 432.7099771 -42.46484375 430.40625 C-38.21584025 428.681739 -34.14320416 427.97185515 -29.625 427.3125 C-28.79355469 427.18294922 -27.96210938 427.05339844 -27.10546875 426.91992188 C-25.07168071 426.60433408 -23.03601001 426.30091972 -21 426 C-19.40746348 416.96132891 -17.82470608 407.92101572 -16.25437069 398.87846088 C-15.52487708 394.67959125 -14.79204179 390.48136262 -14.05151367 386.28442383 C-13.33684911 382.23334389 -12.63103609 378.18081206 -11.93130684 374.12712669 C-11.66293899 372.58164804 -11.39139834 371.03671685 -11.11662102 369.49236488 C-10.73198549 367.32741447 -10.3587272 365.16078361 -9.98803711 362.9934082 C-9.66493813 361.14474907 -9.66493813 361.14474907 -9.33531189 359.25874329 C-8.81017571 354.15518429 -9.76460111 350.92021883 -12.5625 346.6875 C-13.01753906 345.99011719 -13.47257813 345.29273438 -13.94140625 344.57421875 C-14.29074219 344.05472656 -14.64007813 343.53523438 -15 343 C-15.56847656 343.28875 -16.13695312 343.5775 -16.72265625 343.875 C-21.64101285 346.23975242 -25.43831907 347.82395273 -31 347 C-38.86645615 343.9752012 -41.09115669 338.11992857 -44.58984375 330.796875 C-45.18342711 329.5910313 -45.77879842 328.38606625 -46.37586975 327.1819458 C-47.93411052 324.02748658 -49.46794407 320.86176333 -50.99682617 317.69299316 C-52.5645655 314.45477529 -54.15533225 311.22791763 -55.74414062 308 C-58.85192911 301.67753591 -61.93404897 295.34287187 -65 289 C-68.01840127 289 -69.54257852 289.45724942 -72.30932617 290.54125977 Z M9.5234375 324.40625 C8.853125 324.90253906 8.1828125 325.39882813 7.4921875 325.91015625 C6.44417969 326.69712891 6.44417969 326.69712891 5.375 327.5 C4.66859375 328.02464844 3.9621875 328.54929687 3.234375 329.08984375 C1.48638413 330.38902616 -0.25819626 331.69254078 -2 333 C-0.61485613 337.04000297 0.79674585 340.12309619 4 343 C7.30151565 343.82039057 10.4861112 343.83450577 13.875 343.8125 C15.20337891 343.87920898 15.20337891 343.87920898 16.55859375 343.94726562 C20.45871934 343.96179664 22.98344258 343.87865618 26.00488281 341.26708984 C27.63361158 339.21447759 28.97162609 337.4119139 30 335 C28.59998582 330.79995746 25.55715855 329.2404045 22.0625 326.8125 C21.41603516 326.34908203 20.76957031 325.88566406 20.10351562 325.40820312 C14.78085883 321.56410371 14.78085883 321.56410371 9.5234375 324.40625 Z M6 359 C4.99649942 364.58559404 3.9997959 370.17234307 3.00927734 375.76025391 C2.67161013 377.65967244 2.33211198 379.55876645 1.99072266 381.45751953 C1.49936954 384.1921933 1.0146872 386.92797968 0.53125 389.6640625 C0.37813354 390.50804596 0.22501709 391.35202942 0.06726074 392.22158813 C-0.6889444 396.54031502 -1.17448129 400.59434735 -1 405 C0.78495987 402.67955217 2.36486051 400.39189916 3.875 397.875 C6.24686186 394.66601043 7.12714421 393.77457116 11 393 C15.79258309 392.86032545 19.00338637 393.24170702 22.875 396.1875 C25.01079133 399.01428264 26.56992865 401.76352273 28 405 C28.33 405 28.66 405 29 405 C28.38055307 395.14739019 26.64777696 385.51918427 24.9375 375.8125 C24.65259094 374.17650257 24.3680827 372.54043529 24.08398438 370.90429688 C23.3946728 366.93522874 22.69717696 362.96772578 22 359 C16.72 359 11.44 359 6 359 Z M-2 405 C-1 407 -1 407 -1 407 Z M29 405 C30 407 30 407 30 407 Z M-122 413 C-122.31751221 413.65073486 -122.63502441 414.30146973 -122.9621582 414.97192383 C-124.4059544 417.92192361 -125.85910368 420.86721894 -127.3125 423.8125 C-127.81201172 424.83666016 -128.31152344 425.86082031 -128.82617188 426.91601562 C-129.31279297 427.89892578 -129.79941406 428.88183594 -130.30078125 429.89453125 C-130.74591064 430.80050049 -131.19104004 431.70646973 -131.6496582 432.63989258 C-133.73670023 436.28759376 -135.0317508 437.72699741 -139.1171875 438.87890625 C-140.35726562 439.10449219 -141.59734375 439.33007812 -142.875 439.5625 C-143.86125366 439.74582886 -143.86125366 439.74582886 -144.86743164 439.93286133 C-151.22199819 441.09398969 -157.60594625 442.08348302 -164 443 C-159.8244608 448.16448269 -155.32802825 452.48428932 -150.26953125 456.7890625 C-147.13541128 459.84226715 -145.22238628 462.3309073 -144.63671875 466.7265625 C-144.74395861 472.84748379 -145.32221325 478.576756 -146.5546875 484.57421875 C-147.07590541 487.41348474 -147.1556703 490.12009945 -147 493 C-143.98576485 491.89225401 -141.17574393 490.59167177 -138.36328125 489.0546875 C-137.70263672 488.70019531 -137.04199219 488.34570312 -136.36132812 487.98046875 C-135.00723057 487.24984986 -133.66058905 486.50522127 -132.32226562 485.74609375 C-126.90179209 482.88659757 -122.08764406 481.9342709 -116 483 C-112.45242524 484.32961644 -109.26316749 486.08657374 -106 488 C-104.3350332 488.9405156 -102.66844597 489.87817026 -101 490.8125 C-99.9171875 491.44091797 -99.9171875 491.44091797 -98.8125 492.08203125 C-97.04124803 493.15060733 -97.04124803 493.15060733 -95 493 C-95.13277344 491.96101563 -95.26554687 490.92203125 -95.40234375 489.8515625 C-95.76960452 486.96851355 -96.12583934 484.08432289 -96.4765625 481.19921875 C-96.77197106 478.77697676 -97.09538485 476.3702983 -97.4609375 473.95703125 C-97.57695312 473.12558594 -97.69296875 472.29414063 -97.8125 471.4375 C-97.97685547 470.38369141 -97.97685547 470.38369141 -98.14453125 469.30859375 C-97.64670395 461.35681173 -92.25539479 456.78743121 -86.8125 451.625 C-85.33797397 450.2024564 -83.86521123 448.77808194 -82.39453125 447.3515625 C-81.41770386 446.42077881 -81.41770386 446.42077881 -80.42114258 445.47119141 C-78.8842055 444.22104338 -78.8842055 444.22104338 -79 443 C-79.70084717 442.89453857 -80.40169434 442.78907715 -81.1237793 442.68041992 C-84.31351007 442.19397608 -87.500406 441.69091806 -90.6875 441.1875 C-92.34168945 440.9390332 -92.34168945 440.9390332 -94.02929688 440.68554688 C-95.09599609 440.51474609 -96.16269531 440.34394531 -97.26171875 440.16796875 C-98.24100342 440.01610107 -99.22028809 439.8642334 -100.22924805 439.70776367 C-104.99692078 438.48990454 -107.46283031 436.75494118 -110.3125 432.75 C-114.09740796 426.29624669 -117.52424822 419.62376517 -121 413 C-121.33 413 -121.66 413 -122 413 Z M13 413 C12.71801758 413.61520508 12.43603516 414.23041016 12.14550781 414.86425781 C10.85609419 417.66379549 9.55321939 420.45686406 8.25 423.25 C7.58484375 424.70212891 7.58484375 424.70212891 6.90625 426.18359375 C6.46796875 427.11816406 6.0296875 428.05273438 5.578125 429.015625 C5.18012695 429.87446289 4.78212891 430.73330078 4.37207031 431.61816406 C2.11925376 435.52892532 0.13109527 437.65641091 -4.21484375 438.9765625 C-5.44332031 439.19054687 -6.67179687 439.40453125 -7.9375 439.625 C-8.59049072 439.74270752 -9.24348145 439.86041504 -9.91625977 439.98168945 C-11.94144081 440.34054204 -13.96927071 440.67412283 -16 441 C-17.27875 441.20753906 -18.5575 441.41507812 -19.875 441.62890625 C-22.91423689 442.10545326 -25.95478974 442.56350274 -29 443 C-26.36896985 445.65530165 -23.7195383 448.27568798 -20.9921875 450.83203125 C-19.95301032 451.82540088 -18.91394897 452.81889169 -17.875 453.8125 C-17.35035156 454.29525391 -16.82570312 454.77800781 -16.28515625 455.27539062 C-12.44072782 458.99815993 -9.92519684 462.65105752 -9 468 C-9.08100598 471.47592474 -9.64926129 474.77982526 -10.3125 478.1875 C-10.62415249 479.93044542 -10.93284199 481.67392377 -11.23828125 483.41796875 C-11.38088379 484.2176709 -11.52348633 485.01737305 -11.67041016 485.84130859 C-12.03829286 488.25080403 -12.13606052 490.56602842 -12 493 C-8.59398911 492.00745081 -5.54366879 490.83002026 -2.484375 489.0546875 C-1.87207031 488.70019531 -1.25976562 488.34570312 -0.62890625 487.98046875 C0.61556953 487.24827198 1.85277644 486.50356633 3.08203125 485.74609375 C8.32360617 482.75872433 13.02570173 481.96212096 19 483 C22.54800895 484.32863061 25.73679734 486.08655312 29 488 C30.6649668 488.9405156 32.33155403 489.87817026 34 490.8125 C35.0828125 491.44091797 35.0828125 491.44091797 36.1875 492.08203125 C37.95875197 493.15060733 37.95875197 493.15060733 40 493 C39.43180395 485.6732615 38.48635293 478.50020335 37.20703125 471.26171875 C36.92589564 466.83250679 37.85950835 463.68912465 40.33984375 460.015625 C44.87741423 455.00099943 49.77144838 450.47200715 54.83984375 446.00390625 C55.55269531 445.34261719 56.26554687 444.68132812 57 444 C57 443.67 57 443.34 57 443 C55.90328979 442.84180786 55.90328979 442.84180786 54.78442383 442.68041992 C51.45867082 442.19415552 48.13568351 441.69101265 44.8125 441.1875 C43.66201172 441.02185547 42.51152344 440.85621094 41.32617188 440.68554688 C40.21435547 440.51474609 39.10253906 440.34394531 37.95703125 440.16796875 C36.93585205 440.01610107 35.91467285 439.8642334 34.86254883 439.70776367 C31.17280794 438.7954772 28.20013538 437.3615571 25.6640625 434.484375 C21.54287855 427.6054063 18.29786205 420.29901457 15 413 C14.34 413 13.68 413 13 413 Z M149 413 C148.72325439 413.54414551 148.44650879 414.08829102 148.16137695 414.64892578 C146.88625113 417.14504098 145.59949458 419.63498496 144.3125 422.125 C143.65991211 423.40890625 143.65991211 423.40890625 142.99414062 424.71875 C136.56417395 437.10238951 136.56417395 437.10238951 130.65234375 439.171875 C129.42644531 439.36265625 128.20054687 439.5534375 126.9375 439.75 C125.96091431 439.91302612 125.96091431 439.91302612 124.96459961 440.0793457 C123.63144518 440.29945345 122.29648567 440.50889982 120.95996094 440.70751953 C117.98577382 441.15135064 115.02588996 441.6771775 112.0625 442.1875 C110.37541414 442.46090127 108.68807902 442.73279941 107 443 C111.5149906 448.49120478 116.43904753 453.3873002 121.609375 458.25390625 C125.20003689 462.37847375 126.09516823 465.28338054 125.79296875 470.734375 C125.60454465 472.07486843 125.40225343 473.41347194 125.1875 474.75 C124.98472023 476.16132118 124.78289703 477.57278014 124.58203125 478.984375 C124.48100098 479.66693359 124.3799707 480.34949219 124.27587891 481.05273438 C123.71383808 485.01984734 123.36440187 489.01075853 123 493 C126.40601089 492.00745081 129.45633121 490.83002026 132.515625 489.0546875 C133.12792969 488.70019531 133.74023438 488.34570312 134.37109375 487.98046875 C135.61556953 487.24827198 136.85277644 486.50356633 138.08203125 485.74609375 C143.32360617 482.75872433 148.02570173 481.96212096 154 483 C157.54800895 484.32863061 160.73679734 486.08655312 164 488 C165.6649668 488.9405156 167.33155403 489.87817026 169 490.8125 C169.721875 491.23144531 170.44375 491.65039062 171.1875 492.08203125 C172.95875197 493.15060733 172.95875197 493.15060733 175 493 C174.85786703 491.10388566 174.71113093 489.20811606 174.5625 487.3125 C174.48128906 486.25675781 174.40007812 485.20101562 174.31640625 484.11328125 C174.06101082 481.08393123 174.06101082 481.08393123 173.484375 478.4765625 C172.92998681 475.64202935 172.7581021 472.94975433 172.6875 470.0625 C172.63142578 468.56396484 172.63142578 468.56396484 172.57421875 467.03515625 C173.59179398 459.78143189 179.58353919 455.33145484 184.75 450.6875 C186.1218667 449.44369109 187.49177748 448.1977202 188.859375 446.94921875 C189.46233398 446.40612061 190.06529297 445.86302246 190.68652344 445.3034668 C191.1199707 444.87332275 191.55341797 444.44317871 192 444 C192 443.67 192 443.34 192 443 C190.90328979 442.84180786 190.90328979 442.84180786 189.78442383 442.68041992 C186.45867082 442.19415552 183.13568351 441.69101265 179.8125 441.1875 C178.66201172 441.02185547 177.51152344 440.85621094 176.32617188 440.68554688 C175.21435547 440.51474609 174.10253906 440.34394531 172.95703125 440.16796875 C171.93585205 440.01610107 170.91467285 439.8642334 169.86254883 439.70776367 C165.84023741 438.71324932 162.99790393 437.40265647 160.56201172 433.97875977 C160.18834473 433.22393311 159.81467773 432.46910645 159.4296875 431.69140625 C159.00816406 430.86189453 158.58664062 430.03238281 158.15234375 429.17773438 C157.52005859 427.88319336 157.52005859 427.88319336 156.875 426.5625 C156.02134509 424.85390841 155.16467163 423.14682093 154.3046875 421.44140625 C153.93327637 420.68545166 153.56186523 419.92949707 153.17919922 419.15063477 C151.96073702 416.92839179 150.56590064 414.98909417 149 413 Z " fill="#FFFAFA" transform="translate(242,0)"/>
</svg>
