<?xml version="1.0" encoding="UTF-8"?>
<svg version="1.1" xmlns="http://www.w3.org/2000/svg" width="512" height="512">
<path d="M0 0 C1.72714829 0.08862765 3.45434274 0.17635989 5.18157959 0.26324463 C8.7928878 0.44749711 12.40362899 0.63997926 16.01416016 0.83886719 C20.60700295 1.09157444 25.20050337 1.32773775 29.7945137 1.55813217 C33.36047623 1.73816272 36.92604939 1.92511862 40.491539 2.11426544 C42.18327074 2.20358086 43.87508836 2.29128675 45.56699371 2.37725067 C75.32267926 3.9072266 75.32267926 3.9072266 84.296875 9.390625 C85.67938379 11.03015597 87.0538672 12.67647521 88.421875 14.328125 C91.08961338 16.89550958 92.96249085 18.32789983 96.72753906 18.50488281 C101.84077953 18.1346199 106.85635859 17.2410244 111.90625 16.3828125 C133.69393745 12.70754239 161.32120068 14.3382451 180.2421875 26.79296875 C185.73811365 31.06641703 189.20392827 35.34719049 190.296875 42.390625 C190.50033489 49.30826131 188.50087604 54.9156469 184.296875 60.390625 C167.15816297 78.13423274 136.95740162 84.85514735 113.15625 85.56640625 C110.19445798 85.57602246 107.25460653 85.53635265 104.296875 85.390625 C104.626875 86.380625 104.956875 87.370625 105.296875 88.390625 C105.83594706 94.7130751 106.06899451 101.05018536 106.296875 107.390625 C106.33232422 108.31552734 106.36777344 109.24042969 106.40429688 110.19335938 C106.4988915 112.9674915 106.55938146 115.74036146 106.609375 118.515625 C106.639104 119.36688965 106.66883301 120.2181543 106.69946289 121.09521484 C106.77882468 129.61783521 103.89509495 136.31143569 97.94888765 142.40732938 C97.11178279 143.22770382 97.11178279 143.22770382 96.25776672 144.06465149 C95.65633337 144.6738848 95.05490001 145.28311811 94.4352414 145.91081303 C92.43505145 147.93080256 90.41764222 149.93261349 88.3996582 151.93481445 C86.95452418 153.38672987 85.51045464 154.83970546 84.06736755 156.2936554 C80.15726801 160.2264921 76.23158604 164.14341643 72.30217767 168.05694985 C68.18558149 172.16085837 64.08123134 176.27698527 59.97489929 180.39115906 C53.0779284 187.2972181 46.17050146 194.19268719 39.25708008 201.08227539 C31.27243207 209.03971406 23.30595599 217.01500488 15.34867984 224.99980766 C8.50761752 231.86358357 1.65682966 238.71753787 -5.20213252 245.56342667 C-9.29489272 249.64840487 -13.38423092 253.73665492 -17.46481895 257.83379555 C-21.30227627 261.68573075 -25.15182547 265.52516308 -29.01091576 269.35542107 C-30.42247162 270.76038405 -31.82982406 272.16958523 -33.23254776 273.58336639 C-35.15336048 275.51791585 -37.08903934 277.43629594 -39.02909851 279.35151672 C-39.57601481 279.90958663 -40.1229311 280.46765653 -40.68642062 281.04263765 C-46.14835207 286.37044983 -52.87406346 289.96401779 -60.640625 289.953125 C-61.55714844 289.97503906 -62.47367187 289.99695313 -63.41796875 290.01953125 C-73.4652311 288.09609577 -80.17085851 281.6433641 -87.13818359 274.58666992 C-88.13704611 273.59295702 -89.13697608 272.60031613 -90.13787842 271.60865784 C-92.83091595 268.93400608 -95.50814593 266.24404868 -98.18210554 263.55034041 C-100.99375375 260.72220469 -103.81809486 257.90679114 -106.64053345 255.08943176 C-111.3748304 250.35964341 -116.09888202 245.61980818 -120.81689453 240.8737793 C-126.26007177 235.3985281 -131.71913376 229.93951883 -137.1869787 224.4889099 C-142.46409255 219.22769426 -147.72979919 213.95520151 -152.99043655 208.67751503 C-155.22191961 206.43918638 -157.45726381 204.20482395 -159.69587326 201.97362328 C-162.3333779 199.34381581 -164.96069609 196.70422546 -167.58068085 194.05696678 C-168.99500132 192.63254886 -170.41907435 191.21783484 -171.84347534 189.80349731 C-178.62684057 182.91850065 -183.26362657 177.09887882 -183.328125 167.015625 C-183.36164063 165.81164062 -183.39515625 164.60765625 -183.4296875 163.3671875 C-182.10952499 151.72867655 -170.70902453 142.84175556 -162.8984375 135.10009766 C-161.48774248 133.6872537 -160.07791455 132.27354353 -158.66888428 130.85903931 C-154.85987417 127.04038137 -151.03855859 123.23426497 -147.21456146 119.43062258 C-143.20691308 115.44060963 -139.20988107 111.4399869 -135.21142578 107.44076538 C-128.49996589 100.73117501 -121.78082615 94.02935527 -115.05664062 87.33251953 C-107.28711068 79.59447499 -99.52811841 71.84599196 -91.77504921 64.09145701 C-83.50923813 55.82429443 -75.23582978 47.56476723 -66.96016693 39.30746794 C-64.57983652 36.93139596 -62.20092675 34.55390952 -59.82232666 32.1761055 C-56.0841887 28.43997874 -52.34098345 24.7090023 -48.59381866 20.98192978 C-47.22071186 19.61465606 -45.84928129 18.24569656 -44.47966766 16.87492371 C-42.60805456 15.0023262 -40.73039301 13.13600823 -38.85107422 11.27114868 C-38.31234743 10.72932469 -37.77362064 10.1875007 -37.2185688 9.6292578 C-25.96129809 -1.48562553 -14.78288447 -0.82872287 0 0 Z M-27.77119446 25.17108154 C-28.36349812 25.7567374 -28.95580179 26.34239325 -29.56605405 26.94579625 C-31.54531163 28.90540172 -33.51739322 30.87206935 -35.48950195 32.83886719 C-36.90856463 34.24703226 -38.32801304 35.65480869 -39.74781799 37.06222534 C-43.59970674 40.88363579 -47.4448598 44.71175199 -51.287884 48.54207516 C-53.68837276 50.93447673 -56.08990381 53.3258274 -58.4917202 55.71689606 C-66.0047918 63.19726435 -73.51345631 70.68201881 -81.01629192 78.17265391 C-89.68048609 86.82257538 -98.35931035 95.45746039 -107.05094558 104.07980609 C-113.76818064 110.745327 -120.47197673 117.424171 -127.16573113 124.113271 C-131.16464124 128.10877804 -135.1691132 132.09831182 -139.18773842 136.0739975 C-142.96483756 139.81143791 -146.72502553 143.56508911 -150.47278404 147.33194351 C-151.8518488 148.71227757 -153.23693444 150.08662596 -154.62835693 151.45450211 C-156.52548214 153.32133711 -158.3998237 155.20843241 -160.26997375 157.10223389 C-161.10530269 157.90902434 -161.10530269 157.90902434 -161.95750695 158.7321136 C-164.62028083 161.47591892 -165.66927935 163.18030438 -166.28219318 166.98901844 C-165.60740019 170.95293901 -164.68623699 172.28460056 -161.8711853 175.10472107 C-161.02161255 175.97258743 -160.17203979 176.8404538 -159.29672241 177.73461914 C-158.34317974 178.67295841 -157.38927974 179.61093467 -156.43505859 180.54858398 C-155.43841572 181.55307874 -154.44327384 182.55906465 -153.44952393 183.56642151 C-150.75045007 186.29310924 -148.0298243 188.99729 -145.30394697 191.69714999 C-142.45320739 194.52642893 -139.61999185 197.37316574 -136.78408813 200.21730042 C-132.01959375 204.98995193 -127.24088579 209.74800663 -122.45361328 214.49780273 C-116.91948841 219.98897937 -111.40899298 225.50303436 -105.91045511 231.02982849 C-100.61904104 236.34727576 -95.31084279 241.64765982 -89.99495316 246.94062996 C-87.73345574 249.19302797 -85.47810346 251.45132633 -83.22748947 253.7145977 C-80.57672126 256.3788056 -77.91161354 259.02778426 -75.23471832 261.66573143 C-74.25481854 262.63610116 -73.27997608 263.61160868 -72.31064987 264.59254074 C-70.98663627 265.93070993 -69.64225621 267.24863634 -68.29696655 268.56541443 C-67.55031424 269.30850577 -66.80366192 270.05159712 -66.03438377 270.81720638 C-62.98322467 272.87650181 -61.31849244 272.95549099 -57.703125 272.390625 C-55.29820013 270.92716106 -55.29820013 270.92716106 -53.17163086 268.7260437 C-52.30609589 267.89772915 -51.44056091 267.0694146 -50.54879761 266.2159996 C-49.59930168 265.27515414 -48.65077958 264.33332511 -47.703125 263.390625 C-46.68698597 262.3972923 -45.67029545 261.4045235 -44.65310669 260.41226578 C-41.14612929 256.97432768 -37.67661608 253.49952711 -34.20703125 250.02392578 C-32.87897491 248.69722724 -31.55070654 247.37074091 -30.22224426 246.04444885 C-26.64404122 242.4707721 -23.06896898 238.8939791 -19.49462128 235.31644678 C-15.74547604 231.56475669 -11.9938768 227.8155218 -8.24267578 224.06588745 C-1.95344269 217.77846829 4.33369059 211.48895522 10.61962891 205.19824219 C17.88877955 197.92363383 25.16154794 190.65265722 32.43617344 183.38352406 C38.69127358 177.13295744 44.94442859 170.88044991 51.19595242 164.62630641 C54.92613967 160.89455983 58.65700017 157.16349307 62.38961792 153.4341774 C65.89180522 149.93487281 69.39154855 146.43314239 72.88939857 142.92950249 C74.17451474 141.6430616 75.46048722 140.3574755 76.74736595 139.07279778 C78.50007391 137.32281212 80.24968887 135.56979206 81.99853516 133.81594849 C82.5111663 133.30554807 83.02379744 132.79514765 83.55196285 132.26928055 C87.56227738 128.23662363 89.53432423 125.86147423 89.52368164 120.0456543 C89.51071045 119.33449463 89.49773926 118.62333496 89.484375 117.890625 C89.47361938 116.78231323 89.47361938 116.78231323 89.46264648 115.65161133 C89.37990601 109.78929523 89.14773024 103.93360585 88.859375 98.078125 C88.82030029 97.27246094 88.78122559 96.46679688 88.7409668 95.63671875 C88.54437123 92.10025403 88.23201321 88.8045688 87.296875 85.390625 C86.72582031 85.28105469 86.15476562 85.17148438 85.56640625 85.05859375 C81.68188644 84.29898177 77.8233987 83.52349773 73.984375 82.5546875 C66.48766288 80.66315597 61.668634 79.933372 54.296875 82.390625 C45.24374477 83.29593802 39.22998676 81.30564559 31.546875 76.765625 C26.16695343 71.08681889 23.96924797 65.19029312 23.671875 57.390625 C23.95057301 50.81621046 25.16001896 45.59999928 29.296875 40.390625 C35.63512848 34.7980484 42.46564085 31.91263721 50.9296875 32.140625 C57.55445198 32.84027009 63.96755467 35.12014807 68.296875 40.390625 C73.72459978 48.92200812 74.47384724 56.48017969 74.296875 66.390625 C78.35536677 67.37450179 82.13218755 67.42986823 86.296875 67.390625 C87.51368229 46.75542054 87.51368229 46.75542054 80.296875 28.390625 C70.16310055 18.99577161 55.59569016 19.91040159 42.5546875 19.21484375 C40.85602034 19.12097724 39.15736121 19.02696526 37.45870972 18.93281555 C33.920646 18.73871408 30.38232027 18.55058939 26.84375 18.3659668 C22.31358488 18.12851619 17.78492838 17.86945779 13.25625801 17.60521221 C9.75838582 17.40460747 6.25984552 17.21867914 2.760952 17.03684425 C1.09013736 16.94762376 -0.5804026 16.85309126 -2.25060654 16.753088 C-4.58045719 16.61512931 -6.91049029 16.49780096 -9.24169922 16.38549805 C-9.92644821 16.34045135 -10.6111972 16.29540466 -11.31669617 16.24899292 C-18.83983888 15.93525934 -22.72714669 20.11732112 -27.77119446 25.17108154 Z M102.296875 34.390625 C101.05488137 38.12067801 101.35648876 41.45349833 101.63671875 45.34375 C101.68252579 46.00397156 101.72833282 46.66419312 101.77552795 47.34442139 C101.92253944 49.44362677 102.07833011 51.54207371 102.234375 53.640625 C102.33586722 55.06766715 102.43678512 56.49475027 102.53710938 57.921875 C102.78371324 61.4119576 103.03819215 64.90141451 103.296875 68.390625 C110.84359161 68.51583006 118.15836873 68.46142644 125.609375 67.203125 C126.4135083 67.0693042 127.2176416 66.9354834 128.04614258 66.79760742 C142.24389736 64.28603062 161.52250775 59.72521989 171.296875 48.390625 C171.956875 47.400625 172.616875 46.410625 173.296875 45.390625 C168.01540265 37.64446556 161.25052587 35.86370403 152.28344727 34.04833984 C135.70447739 31.02608466 118.87254219 31.73091909 102.296875 34.390625 Z " fill="#FFFFFF" transform="translate(190.703125,8.609375)"/>
<path d="M0 0 C1.184729 -0.01253311 2.36945801 -0.02506622 3.59008789 -0.03797913 C5.49649048 -0.01809181 5.49649048 -0.01809181 7.44140625 0.00219727 C8.75423584 -0.00021469 10.06706543 -0.00262665 11.41967773 -0.00511169 C14.19383834 -0.00796479 16.96718938 0.0066812 19.74121094 0.03417969 C23.28900796 0.06826377 26.83535818 0.06224083 30.38322449 0.04351711 C33.77776107 0.03037963 37.17187973 0.04866987 40.56640625 0.06469727 C42.47280884 0.05725746 42.47280884 0.05725746 44.41772461 0.04966736 C45.60245361 0.06550369 46.78718262 0.08134003 48.0078125 0.09765625 C49.04752197 0.10385483 50.08723145 0.11005341 51.15844727 0.11643982 C54.97342202 0.80646172 56.37665414 1.75020746 59.00390625 4.63110352 C59.76262351 7.93656486 59.6738237 11.1973617 59.63209534 14.57617188 C59.63918972 15.5976554 59.64628411 16.61913893 59.65359348 17.6715765 C59.67123934 21.10507927 59.65303424 24.5374599 59.63500977 27.97094727 C59.64014603 30.42807533 59.64742508 32.88519972 59.6566925 35.34231567 C59.67332302 41.32972579 59.66654714 47.31669357 59.64860428 53.30406594 C59.63458576 58.16952077 59.63068385 63.03488702 59.63404655 67.90036011 C59.634524 68.59250357 59.63500144 69.28464702 59.63549335 69.99776453 C59.63651967 71.40378549 59.63757502 72.80980643 59.63865911 74.21582735 C59.64722919 86.65216959 59.63054128 99.08835429 59.60083008 111.5246582 C59.57199187 123.59568907 59.56490868 135.66649296 59.58032227 147.73754883 C59.59707852 160.87813158 59.60112455 174.01860653 59.58361191 187.15919209 C59.58176749 188.56007702 59.57993277 189.96096196 59.57810783 191.36184692 C59.57719574 192.05113169 59.57628365 192.74041646 59.57534393 193.45058864 C59.56973493 198.31089877 59.57304908 203.17115634 59.57965279 208.03146362 C59.58818596 214.57157606 59.57524544 221.11140906 59.54780388 227.65148544 C59.5409009 230.05573426 59.5408424 232.46001361 59.54801941 234.86426163 C59.55666931 238.13855567 59.54083277 241.41182691 59.51856995 244.68603516 C59.52681071 245.64439239 59.53505148 246.60274961 59.54354197 247.59014797 C59.46280552 253.99448227 59.46280552 253.99448227 57.15923977 257.19017029 C53.61525998 259.55947332 50.75799541 259.76307482 46.60205078 259.79223633 C45.49725372 259.80184387 44.39245667 259.81145142 43.25418091 259.8213501 C42.0604184 259.82559998 40.86665588 259.82984985 39.63671875 259.83422852 C37.79640579 259.84277863 37.79640579 259.84277863 35.91891479 259.85150146 C33.32144026 259.86095396 30.72395372 259.86748643 28.12646484 259.87133789 C24.15180576 259.88104757 20.17766278 259.9120713 16.203125 259.94360352 C13.68099266 259.95013313 11.15885661 259.95538376 8.63671875 259.95922852 C7.4470047 259.97157532 6.25729065 259.98392212 5.03152466 259.99664307 C3.36487259 259.99214142 3.36487259 259.99214142 1.66455078 259.98754883 C0.68986847 259.99119446 -0.28481384 259.99484009 -1.28903198 259.99859619 C-5.44682985 259.43416124 -8.07164534 257.55555193 -10.99609375 254.63110352 C-11.25024408 252.79186457 -11.25024408 252.79186457 -11.25615597 250.51024914 C-11.26322156 249.64198504 -11.27028715 248.77372094 -11.27756685 247.8791458 C-11.27515177 246.91953596 -11.27273668 245.95992611 -11.27024841 244.97123718 C-11.27548509 243.95625162 -11.28072177 242.94126607 -11.28611714 241.89552337 C-11.30119693 238.47230197 -11.30182404 235.04922898 -11.30249023 231.62597656 C-11.31010639 229.18062078 -11.31853294 226.7352674 -11.32771301 224.28991699 C-11.34971935 217.63081025 -11.35848658 210.97176372 -11.36353946 204.31262946 C-11.36679361 200.15598878 -11.37331441 195.99935738 -11.38054085 191.84272194 C-11.40011084 180.33821631 -11.41651251 168.83371932 -11.41941738 157.32919598 C-11.41960495 156.59258883 -11.41979252 155.85598168 -11.41998577 155.0970531 C-11.42035203 153.60370942 -11.42071573 152.11036574 -11.42107689 150.61702206 C-11.4212597 149.87570458 -11.42144251 149.13438711 -11.42163086 148.37060547 C-11.42181141 147.62838495 -11.42199196 146.88616442 -11.42217798 146.12145237 C-11.42571986 134.0939045 -11.45274121 122.06653566 -11.49012875 110.03904989 C-11.52819121 97.69582736 -11.54757471 85.35269369 -11.54787689 73.00941116 C-11.54846196 66.07698734 -11.5569852 59.14477701 -11.58587456 52.21240807 C-11.6129182 45.69284718 -11.61431082 39.17363597 -11.59821892 32.65401459 C-11.59639717 30.25823102 -11.60316002 27.86242361 -11.61903763 25.46669197 C-11.63936313 22.20126099 -11.62902483 18.93733091 -11.61082458 15.67192078 C-11.62402455 14.7190031 -11.63722452 13.76608542 -11.65082449 12.78429145 C-11.59268419 8.23181872 -11.47681837 6.26002395 -8.63551426 2.54281425 C-5.48687867 0.26228319 -3.85917447 0.00356985 0 0 Z M6.00390625 17.63110352 C6.00390625 91.88110352 6.00390625 166.13110352 6.00390625 242.63110352 C18.21390625 242.63110352 30.42390625 242.63110352 43.00390625 242.63110352 C43.00390625 168.38110352 43.00390625 94.13110352 43.00390625 17.63110352 C30.79390625 17.63110352 18.58390625 17.63110352 6.00390625 17.63110352 Z " fill="#FFFFFF" transform="translate(444.99609375,244.368896484375)"/>
<path d="M0 0 C1.71725784 -0.01441132 1.71725784 -0.01441132 3.46920776 -0.02911377 C4.70671783 -0.03336365 5.94422791 -0.03761353 7.21923828 -0.04199219 C8.49050568 -0.04769226 9.76177307 -0.05339233 11.07156372 -0.05926514 C13.76324036 -0.06871852 16.45480541 -0.07561375 19.14648438 -0.07910156 C22.58867877 -0.08458438 26.03047723 -0.10861218 29.47254753 -0.13707352 C32.76308101 -0.16022182 36.05363477 -0.16215088 39.34423828 -0.16699219 C41.19443069 -0.18551239 41.19443069 -0.18551239 43.08200073 -0.20440674 C44.23314362 -0.20140564 45.3842865 -0.19840454 46.5703125 -0.1953125 C48.08563065 -0.20078094 48.08563065 -0.20078094 49.63156128 -0.20635986 C52.89093296 0.22403889 54.77299327 1.23430998 57.41455078 3.16113281 C58.90512372 6.1422787 58.55089282 8.84320032 58.5617218 12.17025757 C58.56539849 12.90010003 58.56907518 13.62994249 58.57286328 14.38190138 C58.58392163 16.84005716 58.58774756 19.2981707 58.59155273 21.75634766 C58.59781567 23.51367834 58.60446232 25.27100769 58.61146545 27.02833557 C58.62888884 31.81138641 58.63943046 36.59442724 58.64767098 41.37750196 C58.65281739 44.3635739 58.65889322 47.3496427 58.66518211 50.33571243 C58.68423633 59.67211571 58.69846802 69.00851106 58.70679408 78.34493005 C58.716574 89.1343592 58.74291221 99.9235836 58.78329498 110.71294057 C58.81341432 119.0450357 58.8282589 127.377072 58.8315751 135.70922053 C58.83393001 140.68933029 58.84294779 145.66922138 58.86803627 150.64927292 C58.89124953 155.33276583 58.89557756 160.01589503 58.88527489 164.69943047 C58.8847778 166.41997548 58.89114903 168.14053799 58.90483093 169.86102867 C58.92244666 172.20713957 58.91549597 174.55193045 58.90229797 176.89804077 C58.90468633 178.21176352 58.90707468 179.52548626 58.90953541 180.87901878 C58.33096417 184.71537387 57.48620301 185.87050197 54.41455078 188.16113281 C51.35343897 189.18150341 49.23502632 189.29969651 46.02856445 189.32226562 C44.92699509 189.33187317 43.82542572 189.34148071 42.69047546 189.35137939 C40.90453728 189.35775421 40.90453728 189.35775421 39.08251953 189.36425781 C37.8580159 189.36995789 36.63351227 189.37565796 35.37190247 189.38153076 C32.77862412 189.39098394 30.18533374 189.397516 27.59204102 189.40136719 C23.62836698 189.4110684 19.66521236 189.44208803 15.70166016 189.47363281 C13.18278303 189.48016331 10.66390219 189.48541359 8.14501953 189.48925781 C6.96046677 189.50160461 5.775914 189.51395142 4.5554657 189.52667236 C-5.87036269 189.49851016 -5.87036269 189.49851016 -10.58544922 186.16113281 C-12.07633985 183.17935155 -11.71835189 180.4796993 -11.72589111 177.15200806 C-11.72886224 176.4221656 -11.73183336 175.69232314 -11.73489451 174.94036424 C-11.74360175 172.48220403 -11.74509146 170.0240924 -11.74658203 167.56591797 C-11.75120875 165.8085876 -11.75623321 164.05125824 -11.7616272 162.29393005 C-11.77476671 157.51087499 -11.78119909 152.72783396 -11.78563786 147.94476366 C-11.78856589 144.95869157 -11.79267016 141.97262334 -11.79714203 138.98655319 C-11.81082061 129.65014749 -11.82048568 120.3137506 -11.82434392 110.97733557 C-11.82882669 100.18794371 -11.84638323 89.39867842 -11.87534451 78.60932505 C-11.89693613 70.27722907 -11.90704684 61.94516877 -11.90838504 53.6130451 C-11.90943481 48.63297821 -11.91537924 43.65303022 -11.93320465 38.67299271 C-11.94964199 33.98954341 -11.95186203 29.30630296 -11.94306564 24.62283516 C-11.94229295 22.90229675 -11.94666839 21.18174731 -11.9565239 19.46123695 C-11.96917556 17.1153152 -11.96340413 14.77014075 -11.95294189 12.42422485 C-11.95514174 10.45364074 -11.95514174 10.45364074 -11.95738602 8.44324684 C-11.5633349 4.96598756 -11.07765797 3.56953344 -8.58544922 1.16113281 C-5.46916303 0.12237075 -3.26955845 0.02213374 0 0 Z M5.41455078 17.16113281 C5.41455078 68.31113281 5.41455078 119.46113281 5.41455078 172.16113281 C17.29455078 172.16113281 29.17455078 172.16113281 41.41455078 172.16113281 C41.41455078 121.01113281 41.41455078 69.86113281 41.41455078 17.16113281 C29.53455078 17.16113281 17.65455078 17.16113281 5.41455078 17.16113281 Z " fill="#FFFFFF" transform="translate(246.58544921875,314.8388671875)"/>
<path d="M0 0 C7.16568016 -0.27414871 7.16568016 -0.27414871 10.5859375 1.76171875 C13.59318849 7.0927546 13.03645863 13.03188471 12.359375 18.92578125 C12.24186386 19.99184097 12.24186386 19.99184097 12.12197876 21.07943726 C11.95354341 22.57076932 11.78016448 24.06155067 11.60205078 25.55175781 C11.3360801 27.82300106 11.10319853 30.09617248 10.87109375 32.37109375 C10.7025396 33.82705804 10.53203283 35.28279789 10.359375 36.73828125 C10.29454926 37.41235016 10.22972351 38.08641907 10.16293335 38.78091431 C9.51760993 43.74312621 7.85994221 46.12791146 3.9609375 49.19921875 C-0.34659113 49.96842029 -2.2495248 49.68638031 -5.9765625 47.38671875 C-8.27396438 43.83618858 -8.26773996 42.60271309 -8.16796875 38.5 C-8.14935791 37.50782471 -8.13074707 36.51564941 -8.11157227 35.4934082 C-8.07567993 34.35778442 -8.07567993 34.35778442 -8.0390625 33.19921875 C-13.65806464 38.79492832 -19.27426934 44.39342501 -24.88704014 49.99538422 C-27.49407539 52.59722735 -30.10202124 55.19814319 -32.7121582 57.796875 C-35.23665143 60.31040768 -37.75860861 62.82646047 -40.2789135 65.3441925 C-41.69672929 66.75929388 -43.11707999 68.17185403 -44.53749084 69.58435059 C-48.98896375 74.03544158 -53.28451199 78.54094333 -57.38471985 83.31680298 C-60.26156695 86.59026168 -63.34822474 89.65101834 -66.43359375 92.7265625 C-67.10702316 93.40094864 -67.78045258 94.07533478 -68.47428894 94.77015686 C-69.8822669 96.17880943 -71.29148474 97.58622374 -72.7019043 98.99243164 C-74.86689854 101.15201648 -77.02643506 103.31695757 -79.18554688 105.48242188 C-80.55957487 106.85578995 -81.93391256 108.22884826 -83.30859375 109.6015625 C-83.95439896 110.24939194 -84.60020416 110.89722137 -85.26557922 111.56468201 C-85.86347763 112.15942825 -86.46137604 112.7541745 -87.07739258 113.36694336 C-87.60254959 113.89130478 -88.1277066 114.4156662 -88.66877747 114.95591736 C-91.39384781 117.42845677 -93.92063275 117.53454594 -97.52511597 117.48065186 C-102.90496656 116.87838445 -107.97156214 114.9088953 -113.07421875 113.17578125 C-114.34706035 112.75292731 -115.62026236 112.33115693 -116.89379883 111.91040039 C-119.58124673 111.02017278 -122.26615319 110.12280133 -124.94924927 109.21954346 C-129.10880602 107.81962831 -133.27438918 106.43832106 -137.44116211 105.06005859 C-148.11544201 101.52580329 -158.77984166 97.96233404 -169.43629456 94.37466431 C-172.35411129 93.39499322 -175.27518242 92.4253823 -178.19747925 91.45916748 C-180.05562539 90.83953726 -181.90792147 90.20245034 -183.76000977 89.56494141 C-184.83307373 89.20964355 -185.9061377 88.8543457 -187.01171875 88.48828125 C-187.90125244 88.18615723 -188.79078613 87.8840332 -189.70727539 87.57275391 C-192.57365596 87.11358081 -193.63615063 87.64086486 -196.0390625 89.19921875 C-197.94009786 90.58075196 -199.8113955 92.00346828 -201.6640625 93.44921875 C-202.22327393 93.88395508 -202.78248535 94.31869141 -203.35864258 94.76660156 C-204.59164661 95.72573466 -205.8234422 96.68642273 -207.05419922 97.6484375 C-209.12049607 99.26284311 -211.19064487 100.87219679 -213.26171875 102.48046875 C-217.0794726 105.44579648 -220.89436605 108.41477887 -224.70849609 111.38476562 C-228.48423516 114.32435213 -232.26171785 117.2616959 -236.0390625 120.19921875 C-237.53907127 121.36587414 -239.03907126 122.53254082 -240.5390625 123.69921875 C-246.16516113 128.07507324 -246.16516113 128.07507324 -251.79125977 132.45092773 C-252.53303467 133.02786377 -253.27480957 133.6047998 -254.0390625 134.19921875 C-257.0390625 136.53255208 -260.0390625 138.86588542 -263.0390625 141.19921875 C-263.82941895 141.81394043 -264.61977539 142.42866211 -265.43408203 143.06201172 C-267.04394531 144.3141276 -268.65380859 145.56624349 -270.26367188 146.81835938 C-271.03517578 147.41841797 -271.80667969 148.01847656 -272.6015625 148.63671875 C-273.31505859 149.19166016 -274.02855469 149.74660156 -274.76367188 150.31835938 C-275.79911133 151.12370117 -275.79911133 151.12370117 -276.85546875 151.9453125 C-277.87423096 152.73421875 -277.87423096 152.73421875 -278.91357422 153.5390625 C-280.42936338 154.72300073 -281.93517356 155.91976147 -283.43408203 157.125 C-284.22540527 157.75664062 -285.01672852 158.38828125 -285.83203125 159.0390625 C-286.90553833 159.90519165 -286.90553833 159.90519165 -288.00073242 160.78881836 C-291.02239483 162.87962489 -293.39763831 163.33927353 -297.0390625 163.19921875 C-299.98661982 161.85359476 -301.58183522 161.11367331 -303.0390625 158.19921875 C-303.67458501 154.90605667 -303.92364949 153.34140198 -303.0390625 150.19921875 C-300.20759988 146.62507742 -296.65206563 143.94139008 -293.0390625 141.19921875 C-292.14695068 140.51835205 -292.14695068 140.51835205 -291.23681641 139.82373047 C-287.90783299 137.29507408 -284.55659183 134.79800007 -281.1953125 132.3125 C-277.17302941 129.32299062 -273.25137997 126.22111119 -269.3515625 123.07421875 C-264.33360803 119.02825727 -259.2802759 115.04381819 -254.16113281 111.1262207 C-249.45783273 107.52619019 -244.77661028 103.89835707 -240.1015625 100.26171875 C-239.33038086 99.66190186 -238.55919922 99.06208496 -237.76464844 98.4440918 C-233.15664048 94.85667876 -228.56225763 91.25258104 -223.9765625 87.63671875 C-218.61053439 83.41030789 -213.2088277 79.23148004 -207.7890625 75.07421875 C-207.04906006 74.50501709 -206.30905762 73.93581543 -205.54663086 73.34936523 C-204.51421265 72.55961304 -204.51421265 72.55961304 -203.4609375 71.75390625 C-202.84831055 71.28452637 -202.23568359 70.81514648 -201.60449219 70.33154297 C-198.22811975 67.88930726 -195.83013395 68.18652987 -191.74200439 68.70193481 C-186.53173383 69.660514 -181.57401787 71.41275148 -176.5625 73.1015625 C-175.37017761 73.49548187 -174.17785522 73.88940125 -172.94940186 74.29525757 C-170.41023008 75.13527579 -167.87232012 75.97830556 -165.33599854 76.82681274 C-161.39918472 78.1434183 -157.45760925 79.44532715 -153.51513672 80.74487305 C-143.27610476 84.12274713 -133.04342447 87.51936933 -122.82516479 90.9596405 C-119.9138917 91.93768712 -116.99936172 92.90569939 -114.08380127 93.87088013 C-112.20874877 94.49680178 -110.33938463 95.13968291 -108.47021484 95.78295898 C-107.3817627 96.14333252 -106.29331055 96.50370605 -105.171875 96.875 C-103.80893311 97.33773315 -103.80893311 97.33773315 -102.41845703 97.80981445 C-99.46271885 98.29354136 -98.58250974 97.7039322 -96.0390625 96.19921875 C-94.31668806 94.76820654 -94.31668806 94.76820654 -92.67279053 93.07345581 C-92.02781616 92.43123077 -91.3828418 91.78900574 -90.71832275 91.12731934 C-90.02204773 90.42385376 -89.32577271 89.72038818 -88.60839844 88.99560547 C-87.86654297 88.25404205 -87.1246875 87.51247864 -86.36035156 86.7484436 C-83.90994311 84.29664204 -81.4666945 81.8378327 -79.0234375 79.37890625 C-77.32565193 77.6773905 -75.62742421 75.97631583 -73.92877197 74.27566528 C-69.45931334 69.79857069 -64.99589336 65.31550237 -60.53369141 60.83117676 C-55.97920782 56.25623406 -51.41905683 51.68694827 -46.859375 47.1171875 C-37.91370558 38.1500688 -28.9742096 29.17682167 -20.0390625 20.19921875 C-20.72613281 20.2144458 -21.41320312 20.22967285 -22.12109375 20.24536133 C-23.02214844 20.25720459 -23.92320312 20.26904785 -24.8515625 20.28125 C-26.19154297 20.30409058 -26.19154297 20.30409058 -27.55859375 20.32739258 C-30.77912604 20.16097728 -32.58639849 19.26865401 -35.0390625 17.19921875 C-37.0390625 14.19921875 -37.0390625 14.19921875 -36.9140625 10.76171875 C-35.92490472 6.73443352 -35.29906519 5.66765529 -32.0390625 3.19921875 C-29.27936894 2.6057677 -26.82618581 2.23245055 -24.0390625 2.01171875 C-23.28157715 1.93840332 -22.5240918 1.86508789 -21.74365234 1.78955078 C-19.50988207 1.57719362 -17.27493732 1.38785463 -15.0390625 1.19921875 C-13.91757812 1.08707031 -12.79609375 0.97492188 -11.640625 0.859375 C-7.76432094 0.48802304 -3.88522679 0.2546871 0 0 Z " fill="#FFFFFF" transform="translate(465.0390625,161.80078125)"/>
<path d="M0 0 C12.92036936 11.99748584 21.77376905 29.29209852 22.6953125 46.94921875 C23.2985562 67.5393935 19.11564208 86.15775963 4.9375 101.6875 C-9.06244927 116.28467171 -25.51894859 125.04184788 -45.96557617 125.65014648 C-65.4719751 125.8902687 -81.59244591 120.9402758 -96.6875 108.25 C-97.49574219 107.63898438 -98.30398437 107.02796875 -99.13671875 106.3984375 C-113.97730073 93.89871302 -120.16914748 75.05369735 -121.96484375 56.36328125 C-122.68313418 37.14182935 -115.17701992 18.24148883 -102.4375 4.0625 C-74.87704529 -25.50116558 -30.18643318 -25.27596888 0 0 Z M-93.6875 20.25 C-102.27377212 31.71026341 -106.19209095 46.19332702 -104.26171875 60.37890625 C-101.3439665 76.39969312 -93.86960858 89.45812037 -80.6875 99.125 C-67.6130989 107.72657967 -52.9944069 110.46730879 -37.56005859 107.89550781 C-22.11201531 104.39339424 -10.01126496 94.62434226 -1.5 81.5625 C6.13440492 68.05390149 7.903424 52.28999868 3.75 37.3125 C-1.34831285 23.28322654 -10.25998763 11.22664423 -23.6875 4.25 C-50.00116219 -6.68439341 -74.95388263 -1.67167219 -93.6875 20.25 Z " fill="#FFFFFF" transform="translate(201.6875,99.75)"/>
<path d="M0 0 C1.81230606 -0.01441132 1.81230606 -0.01441132 3.66122437 -0.02911377 C4.97265411 -0.03336365 6.28408386 -0.03761353 7.63525391 -0.04199219 C8.99044802 -0.04774403 10.34564211 -0.05350176 11.70083618 -0.05926514 C14.54388814 -0.06977451 17.38691182 -0.07561752 20.22998047 -0.07910156 C23.8707102 -0.08458505 27.51106569 -0.1086097 31.15167809 -0.13707352 C33.9518238 -0.15570997 36.75187957 -0.16090602 39.55208206 -0.16243744 C41.54627051 -0.16693249 43.54041079 -0.18557458 45.53451538 -0.20440674 C46.74902374 -0.20140564 47.9635321 -0.19840454 49.21484375 -0.1953125 C50.81795914 -0.20078094 50.81795914 -0.20078094 52.45346069 -0.20635986 C55.62629653 0.21255674 56.97514332 0.92749987 59.23681641 3.16113281 C60.33199503 6.44666867 60.37086073 8.87479568 60.38398743 12.33468628 C60.39114273 13.6273642 60.39829803 14.92004211 60.40567017 16.25189209 C60.40851038 17.68762183 60.41122212 19.12335183 60.41381836 20.55908203 C60.42008366 22.06863562 60.42673053 23.57818767 60.43373108 25.08773804 C60.45476164 30.04708789 60.46513084 35.00643802 60.47509766 39.96582031 C60.47914524 41.67291403 60.48326217 43.38000759 60.48744774 45.08710098 C60.50649527 53.10521455 60.5207286 61.12331892 60.52905971 69.14145076 C60.53883831 78.3998814 60.56517579 87.65807336 60.6055606 96.91641986 C60.63570132 104.07149074 60.65052654 111.22649311 60.65384072 118.38162625 C60.65619309 122.65586062 60.66517789 126.92983986 60.6903019 131.2040062 C60.71355277 135.22434618 60.7178281 139.2442625 60.70754051 143.26465225 C60.70704435 144.73967141 60.71338864 146.21471121 60.72709656 147.68966675 C60.7447713 149.70423783 60.73533843 151.71899226 60.7245636 153.73361206 C60.72695195 154.8607556 60.72934031 155.98789913 60.73180103 157.14919853 C60.12546221 160.83871248 58.8177341 162.50665449 56.23681641 165.16113281 C53.19208436 166.44117909 50.09051899 166.29328949 46.81323242 166.30639648 C45.72853165 166.31277634 44.64383087 166.31915619 43.52626038 166.32572937 C42.35953293 166.32684219 41.19280548 166.32795502 39.99072266 166.32910156 C38.78745834 166.33242996 37.58419403 166.33575836 36.34446716 166.33918762 C33.80004254 166.34424969 31.25561129 166.34659617 28.71118164 166.34643555 C24.81792275 166.34862236 20.92494705 166.36678695 17.03173828 166.38574219 C14.55973404 166.38867617 12.08772846 166.39066093 9.61572266 166.39160156 C8.45101944 166.39878708 7.28631622 166.4059726 6.08631897 166.41337585 C4.99846603 166.41029922 3.9106131 166.4072226 2.78979492 166.40405273 C1.83589371 166.40547775 0.88199249 166.40690277 -0.10081482 166.40837097 C-3.10553016 166.12934115 -5.11836347 165.62717045 -7.76318359 164.16113281 C-10.62460487 160.31189206 -11.13932733 157.53312893 -11.14413452 152.78503418 C-11.15259399 151.49802109 -11.16105347 150.211008 -11.16976929 148.88499451 C-11.16393686 147.46597163 -11.15779239 146.04695001 -11.15136719 144.62792969 C-11.15543395 143.12793089 -11.16077641 141.62793508 -11.16729736 140.12794495 C-11.18096445 136.0597784 -11.17567488 131.99184031 -11.16616011 127.92366982 C-11.15856035 123.66456109 -11.16561 119.40547181 -11.1703186 115.1463623 C-11.17577524 107.99418631 -11.16858698 100.84210328 -11.15429688 93.68994141 C-11.13797051 85.42321494 -11.14325909 77.15671046 -11.15977609 68.88998938 C-11.1733936 61.79006218 -11.17530933 54.69020178 -11.16746008 47.59026575 C-11.16278502 43.35078449 -11.16215413 39.11140753 -11.17206955 34.87193298 C-11.18074081 30.8860581 -11.17471455 26.90046918 -11.15738678 22.91462517 C-11.15342277 21.45252393 -11.15455455 19.99039859 -11.16117477 18.52830696 C-11.16938285 16.53129058 -11.15726064 14.53422156 -11.14413452 12.53723145 C-11.14300344 11.42005989 -11.14187237 10.30288834 -11.14070702 9.1518631 C-10.71410212 5.77231068 -9.77789466 3.88399568 -7.76318359 1.16113281 C-5.08253489 -0.17919154 -3.00165586 0.01920561 0 0 Z M6.23681641 17.16113281 C6.23681641 60.72113281 6.23681641 104.28113281 6.23681641 149.16113281 C18.44681641 149.16113281 30.65681641 149.16113281 43.23681641 149.16113281 C43.23681641 105.60113281 43.23681641 62.04113281 43.23681641 17.16113281 C31.02681641 17.16113281 18.81681641 17.16113281 6.23681641 17.16113281 Z " fill="#FFFFFF" transform="translate(344.76318359375,337.8388671875)"/>
<path d="M0 0 C1.81196617 -0.01879967 1.81196617 -0.01879967 3.66053772 -0.03797913 C5.60445656 -0.01809181 5.60445656 -0.01809181 7.58764648 0.00219727 C8.9385548 0.001368 10.28946301 -0.00109356 11.6403656 -0.00511169 C14.46579511 -0.00796469 17.29042967 0.00668239 20.11572266 0.03417969 C23.73311104 0.06829639 27.34908174 0.06222982 30.96653843 0.04351711 C33.75391921 0.03293847 36.54097123 0.04189182 39.32832146 0.05690193 C41.30916396 0.06458677 43.29004633 0.05723666 45.27088928 0.04966736 C47.07812721 0.07342186 47.07812721 0.07342186 48.921875 0.09765625 C50.51141747 0.10695412 50.51141747 0.10695412 52.1330719 0.11643982 C55.58905472 0.76014613 56.75175456 1.89618057 58.89624023 4.63110352 C59.82823943 7.42710109 60.02563904 9.12354881 60.03668213 12.0136261 C60.04239227 12.90939362 60.04810242 13.80516113 60.0539856 14.72807312 C60.05566238 16.19854851 60.05566238 16.19854851 60.05737305 17.69873047 C60.0648204 19.25037903 60.0648204 19.25037903 60.07241821 20.83337402 C60.0870462 24.26205099 60.09384295 27.69068169 60.09936523 31.11938477 C60.10511619 33.49968975 60.11087393 35.87999473 60.11663818 38.26029968 C60.12715 43.25459001 60.13299148 48.24886423 60.13647461 53.24316406 C60.14195948 59.6423855 60.16598682 66.04139419 60.19444656 72.4405489 C60.21307119 77.35876589 60.21827846 82.27693161 60.21981049 87.19518089 C60.22283796 89.55428417 60.23086964 91.91338652 60.24399567 94.27245522 C60.26105195 97.57356573 60.25917667 100.87415625 60.25268555 104.17529297 C60.26190033 105.1495372 60.27111511 106.12378143 60.28060913 107.12754822 C60.24868358 112.31109092 60.04792031 116.28001528 56.89624023 120.63110352 C53.41048494 122.65402646 50.33983734 122.88323137 46.35913086 122.88989258 C45.27450562 122.8961969 44.18988037 122.90250122 43.0723877 122.90899658 C41.91082153 122.90494812 40.74925537 122.90089966 39.55249023 122.89672852 C38.35064087 122.89864197 37.1487915 122.90055542 35.91052246 122.90252686 C33.37206818 122.90388652 30.8336069 122.90020536 28.29516602 122.8918457 C24.41072972 122.88114344 20.52675591 122.89174875 16.64233398 122.90454102 C14.17488505 122.90321938 11.7074364 122.90065691 9.23999023 122.89672852 C7.49764099 122.90280121 7.49764099 122.90280121 5.72009277 122.90899658 C4.63546753 122.90269226 3.55084229 122.89638794 2.43334961 122.88989258 C1.00702209 122.8875058 1.00702209 122.8875058 -0.44812012 122.8850708 C-4.31984183 122.51480571 -7.06629341 121.77354563 -9.72544861 118.84532452 C-11.30964634 116.30035209 -11.48446123 114.94152131 -11.49816895 111.96974182 C-11.50951874 111.03749786 -11.52086853 110.10525391 -11.53256226 109.14476013 C-11.52963165 108.12906448 -11.52670105 107.11336884 -11.52368164 106.06689453 C-11.53215118 104.99169556 -11.54062073 103.91649658 -11.54934692 102.80871582 C-11.57276674 99.25069384 -11.57373788 95.69310303 -11.57250977 92.13500977 C-11.57960817 89.66405564 -11.5873067 87.19310318 -11.59558105 84.72215271 C-11.60903726 79.54128437 -11.61058938 74.36056844 -11.60473633 69.1796875 C-11.59883853 62.53694118 -11.62943097 55.89492528 -11.66985321 49.25232029 C-11.69568816 44.1488195 -11.69861141 39.04549557 -11.69496155 33.9419384 C-11.69665664 31.49268698 -11.70633637 29.04342773 -11.72410583 26.59424019 C-11.74621178 23.17056347 -11.73663467 19.74837815 -11.71899414 16.32470703 C-11.73225739 15.31103561 -11.74552063 14.2973642 -11.75918579 13.25297546 C-11.70449535 8.6905743 -11.58747404 6.33278161 -8.9467926 2.50219727 C-5.64862245 0.33156262 -3.92185676 0.00355674 0 0 Z M5.89624023 17.63110352 C5.89624023 46.67110352 5.89624023 75.71110352 5.89624023 105.63110352 C18.10624023 105.63110352 30.31624023 105.63110352 42.89624023 105.63110352 C42.89624023 76.59110352 42.89624023 47.55110352 42.89624023 17.63110352 C30.68624023 17.63110352 18.47624023 17.63110352 5.89624023 17.63110352 Z " fill="#FFFFFF" transform="translate(146.103759765625,381.368896484375)"/>
<path d="M0 0 C3.49670198 1.11596872 4.89444308 1.87291462 6.9375 4.9375 C7.53485918 8.573924 7.55222835 11.77634645 5.8125 15.0625 C4.62403212 17.04431169 4.62403212 17.04431169 5.86328125 19.65234375 C7.93935463 26.00135362 8.1327997 33.84230179 5.625 40.125 C3.9375 42.9375 3.9375 42.9375 0.9375 44.9375 C-6.09473106 45.60723629 -6.09473106 45.60723629 -9.3203125 43.375 C-11.75604045 39.96716538 -11.2925434 37.69107017 -11 33.5625 C-10.64228919 27.38490792 -10.64228919 27.38490792 -13.4375 22.0625 C-17.22640271 18.99529304 -19.20078066 18.63364254 -24.0625 18.9375 C-24.7225 19.5975 -25.3825 20.2575 -26.0625 20.9375 C-25.81845333 25.96199019 -23.9533913 29.0741232 -21.1875 33.1875 C-16.41010145 40.58442071 -13.06409774 47.95187962 -14.0625 56.9375 C-15.5273483 63.44353795 -18.89973914 68.7143035 -24.0625 72.9375 C-31.26149795 76.60244441 -38.04115526 76.39950739 -45.625 74.19140625 C-47.79042496 73.48425966 -49.93042757 72.7389173 -52.0625 71.9375 C-53.0525 72.9275 -53.0525 72.9275 -54.0625 73.9375 C-61.08136792 74.61674528 -61.08136792 74.61674528 -64.5 72.25 C-66.26204487 69.64217359 -66.90920385 68.08007113 -67.0625 64.9375 C-66.25267067 62.45016705 -65.22911112 60.27072224 -64.0625 57.9375 C-64.536875 56.82375 -65.01125 55.71 -65.5 54.5625 C-68.28780004 47.45102861 -68.19777862 39.85315585 -65.25 32.8125 C-63.75523325 29.68551669 -63.08223941 28.9506596 -60.0625 26.9375 C-53.15839041 26.27996575 -53.15839041 26.27996575 -49.5625 28.4375 C-47.35072028 32.12379954 -47.71828725 34.66926192 -48.0625 38.9375 C-48.3925 39.5975 -48.7225 40.2575 -49.0625 40.9375 C-49.49787562 44.76880541 -49.22634521 46.63408294 -47.375 50.0625 C-44.43415806 53.71868188 -41.90000436 56.28124844 -37.4375 57.875 C-35.04794107 58.14216737 -35.04794107 58.14216737 -33.1875 56.875 C-31.4890912 53.94996263 -32.25914759 52.17408326 -33.0625 48.9375 C-34.78780413 45.75973115 -34.78780413 45.75973115 -36.9375 42.625 C-41.93393463 34.83357402 -45.49834595 27.38471369 -44.0625 17.9375 C-42.21426411 11.30365331 -38.89361775 6.63498631 -33.0625 2.9375 C-29.01037961 0.9114398 -25.63180601 0.66792647 -21.125 0.6875 C-19.94035156 0.68234375 -18.75570312 0.6771875 -17.53515625 0.671875 C-14.0625 0.9375 -14.0625 0.9375 -10.77734375 2.04296875 C-9.88144531 2.33816406 -8.98554688 2.63335937 -8.0625 2.9375 C-2.85255998 -0.05821551 -2.85255998 -0.05821551 0 0 Z " fill="#FFFFFF" transform="translate(182.0625,116.0625)"/>
</svg>
