<?xml version="1.0" encoding="UTF-8"?>
<svg version="1.1" xmlns="http://www.w3.org/2000/svg" width="512" height="512">
<path d="M0 0 C0.9114392 -0.00384115 1.8228784 -0.00768229 2.76193696 -0.01163983 C4.26599636 -0.01034011 4.26599636 -0.01034011 5.80044079 -0.00901413 C7.39664636 -0.01347081 7.39664636 -0.01347081 9.0250985 -0.01801753 C12.60868298 -0.02672378 16.19223413 -0.0282144 19.77582836 -0.02970505 C22.33793236 -0.03433183 24.90003567 -0.0393563 27.46213818 -0.04475021 C34.43528176 -0.05788909 41.40841433 -0.06435853 48.38156819 -0.06876087 C52.73504238 -0.07152291 57.08851435 -0.07576019 61.44198704 -0.08026505 C73.49383212 -0.09245787 85.54567543 -0.10275722 97.59752655 -0.10614014 C98.75467425 -0.10646949 98.75467425 -0.10646949 99.93519868 -0.10680549 C101.09512523 -0.10713291 101.09512523 -0.10713291 102.27848464 -0.10746694 C103.84547031 -0.1079104 105.41245598 -0.10835697 106.97944164 -0.10880661 C108.14536178 -0.10913875 108.14536178 -0.10913875 109.33483585 -0.10947761 C121.93064526 -0.11342595 134.52639683 -0.13088099 147.1221839 -0.15416613 C160.05191204 -0.17787582 172.98161116 -0.19034181 185.9113614 -0.19150805 C193.17182705 -0.19242502 200.43221734 -0.19818275 207.69266224 -0.21632767 C214.52079828 -0.23333196 221.34878897 -0.23498413 228.17693996 -0.22618866 C230.68517788 -0.22541606 233.19342337 -0.22979015 235.70164204 -0.23964691 C239.12179135 -0.25230072 242.54142827 -0.24652499 245.9615736 -0.23606491 C247.45559475 -0.24814952 247.45559475 -0.24814952 248.97979814 -0.26047826 C255.30829499 -0.21511166 259.73984897 0.59700754 264.61835766 4.96345901 C265.18038891 5.6170137 265.74242016 6.27056839 266.32148266 6.94392776 C266.89382641 7.58974808 267.46617016 8.23556839 268.05585766 8.90095901 C271.37464731 13.7850541 271.78908216 18.28588776 271.44599438 24.06941605 C271.37493949 25.45472574 271.30493582 26.84008965 271.23583508 28.2254982 C271.1963695 28.9536706 271.15690392 29.68184299 271.11624241 30.43208122 C267.30241746 68.80096334 267.30241746 68.80096334 280.47455883 102.81062698 C285.06323491 107.36185177 290.29788836 111.08876145 295.72342968 114.5755806 C301.72098558 118.53732085 304.55278412 123.32269432 306.57148266 130.13142776 C307.1173968 133.29372419 307.17250997 136.18806759 306.94648266 139.38142776 C306.91941235 140.13810745 306.89234203 140.89478714 306.86445141 141.67439651 C306.79532541 143.49471441 306.68779462 145.3135149 306.57148266 147.13142776 C307.15413891 147.08502151 307.73679516 147.03861526 308.33710766 146.99080276 C319.16950711 146.51390468 328.19509582 149.75281353 336.38007641 156.87361526 C345.08188341 165.83911339 347.83258629 177.03443577 347.73163891 189.27595901 C347.72800838 189.98165024 347.72437786 190.68734146 347.72063732 191.41441727 C347.69592663 194.33233931 347.65889298 197.24712845 347.55463696 200.16341019 C347.01017283 208.97763589 347.01017283 208.97763589 350.72382641 216.55427933 C353.32061104 218.41853757 353.32061104 218.41853757 356.03852367 219.76643753 C362.15517782 223.06265086 365.50801165 229.14719681 367.73643017 235.5389595 C370.60233518 245.34574576 370.11387732 255.35270646 370.0573225 265.48591995 C370.05947157 267.72936601 370.063354 269.97281097 370.06882763 272.21625137 C370.07847385 278.27592098 370.06327813 284.33529334 370.04292154 290.39492702 C370.02528159 296.75014438 370.02887693 303.10535351 370.02964306 309.46059036 C370.02777363 320.12615373 370.01056469 330.79159204 369.98310375 341.45711136 C369.95490797 352.41383813 369.94076361 363.370465 369.94208813 374.32722855 C369.94216804 375.0027465 369.94224795 375.67826445 369.94233029 376.37425265 C369.94241099 377.04864521 369.9424917 377.72303777 369.94257486 378.41786647 C369.94402658 391.55643412 369.93004221 404.69496106 369.91168165 417.83351612 C369.90742505 421.61145905 369.90600014 425.38939422 369.90520382 429.16733932 C369.90319109 435.10671982 369.89094995 441.045996 369.87087154 446.98534203 C369.86504342 449.16174366 369.86256637 451.3381573 369.86372662 453.51456642 C369.86471264 456.49078425 369.85335192 459.46671278 369.8389082 462.44289017 C369.8420054 463.2988342 369.8451026 464.15477823 369.84829366 465.03665996 C369.75374143 476.87751106 366.40851536 486.1304004 358.32148266 494.94392776 C351.85938368 501.04541855 343.82727372 504.25252081 335.04579353 504.26564884 C334.04220121 504.26917719 334.04220121 504.26917719 333.0183343 504.27277681 C330.76031306 504.27947172 328.5023493 504.27900844 326.24431896 504.27859879 C324.61543488 504.28189712 322.98655163 504.28562262 321.35766941 504.28974026 C316.86872914 504.29977209 312.37980223 504.30347896 307.89085233 504.30612957 C303.05426201 504.31002918 298.2176823 504.31960781 293.38109875 504.32834244 C281.69365785 504.34811757 270.00621608 504.35817482 258.31876263 504.36707023 C252.81656166 504.37145179 247.31436165 504.37681898 241.81216145 504.3820591 C223.52385788 504.39907314 205.23555491 504.41356732 186.94724464 504.42080784 C182.19983895 504.42271778 177.45243326 504.4246381 172.70502758 504.42659378 C170.93508182 504.42731939 170.93508182 504.42731939 169.12937958 504.42805966 C150.01477726 504.43635992 130.90023752 504.461696 111.78566252 504.49417446 C92.1662427 504.5272392 72.54685468 504.54525611 52.92740685 504.54845208 C41.9097894 504.55061782 30.8922632 504.55937575 19.87467289 504.58491325 C10.49132472 504.60661231 1.10808993 504.61467459 -8.27528048 504.60494647 C-13.06233373 504.60039936 -17.84915299 504.60231192 -22.6361742 504.62170792 C-27.02159686 504.6393231 -31.40661455 504.63835522 -35.79204141 504.62281062 C-37.37556959 504.62043204 -38.9591257 504.62477112 -40.54261119 504.63663927 C-53.58490924 504.72830806 -62.56449317 502.81844148 -72.16289234 493.62752151 C-79.78733525 485.22748872 -82.7494527 476.30279249 -82.68921375 465.06151199 C-82.6930393 464.28994086 -82.69686485 463.51836972 -82.70080632 462.72341764 C-82.71105595 460.15964299 -82.70715959 457.59609566 -82.70317554 455.03230667 C-82.70752648 453.18530446 -82.7127109 451.33830405 -82.71866322 449.4913063 C-82.73202356 444.48918158 -82.73263517 439.48713254 -82.73009992 434.48499346 C-82.72902817 430.30272103 -82.7339188 426.1204638 -82.73870534 421.93819463 C-82.74979032 412.06802375 -82.75024363 402.19789092 -82.74419117 392.32771683 C-82.73815183 382.15982843 -82.75046374 371.99207842 -82.77176124 361.82421362 C-82.7893987 353.08085966 -82.7953752 344.33754965 -82.7921235 335.59417856 C-82.79031388 330.37815929 -82.79291466 325.16223875 -82.80683804 319.94623566 C-82.81944662 315.03942778 -82.81744362 310.13283506 -82.80442715 305.22603035 C-82.8020684 303.43060927 -82.80477077 301.6351729 -82.81305027 299.83976936 C-82.87491793 285.37495346 -81.70974981 273.61394019 -71.17851734 262.82674026 C-65.00901401 257.12400857 -65.00901401 257.12400857 -60.42851734 256.13142776 C-60.43517918 255.21846939 -60.44184101 254.30551102 -60.44870472 253.36488724 C-60.5090859 244.71556083 -60.55462812 236.06630632 -60.58395386 227.41681671 C-60.59953788 222.97117161 -60.62064158 218.52570224 -60.6548357 214.08015823 C-60.68769063 209.78128992 -60.70542481 205.48258948 -60.71314907 201.18360519 C-60.71864609 199.55233751 -60.7293789 197.92107788 -60.74570751 196.28988266 C-60.88295925 181.99618831 -59.91024984 168.36974673 -49.76445484 157.31892776 C-42.68349398 150.85229685 -33.82142285 146.9900899 -24.20195484 147.08455276 C-23.3065398 147.09132034 -22.41112476 147.09808792 -21.48857594 147.10506058 C-20.46884693 147.11811234 -20.46884693 147.11811234 -19.42851734 147.13142776 C-19.43220451 146.45850945 -19.43589169 145.78559113 -19.43969059 145.09228134 C-19.52812547 128.69953553 -19.59426761 112.30686552 -19.63576603 95.91393661 C-19.65636909 87.98634638 -19.68444629 80.05891562 -19.73027515 72.13142776 C-19.77021231 65.21977933 -19.79596656 58.30824643 -19.80487132 51.39648581 C-19.81007451 47.73855501 -19.82225613 44.08095466 -19.85143757 40.42313004 C-19.88379194 36.33421197 -19.88447236 32.24586413 -19.8826189 28.15681839 C-19.89700001 26.95128311 -19.91138111 25.74574783 -19.92619801 24.50368118 C-19.88804107 16.7200862 -19.09778879 10.8429557 -13.39336109 5.07283401 C-12.38982594 4.39027542 -12.38982594 4.39027542 -11.36601734 3.69392776 C-10.358615 2.98429886 -10.358615 2.98429886 -9.33086109 2.26033401 C-6.17616086 0.38824291 -3.58654694 0.00567004 0 0 Z M-4.42851734 18.13142776 C-4.52653054 21.15282839 -4.55842895 24.15138203 -4.54877186 27.17319107 C-4.54962628 28.1336803 -4.55048071 29.09416953 -4.55136102 30.08376449 C-4.55301875 33.32826775 -4.54748969 36.57272022 -4.54204273 39.81721878 C-4.5417609 42.13260777 -4.54191852 44.44799684 -4.54248524 46.76338577 C-4.54277336 53.0709844 -4.53687431 59.37856419 -4.52991128 65.68615842 C-4.52368013 72.26987822 -4.52307413 78.85359841 -4.52188587 85.43732071 C-4.51929276 96.49478356 -4.51287056 107.55223978 -4.50395679 118.60969925 C-4.49478346 130.00097494 -4.48770224 141.39224874 -4.48344898 152.78352737 C-4.48318626 153.48520861 -4.48292354 154.18688985 -4.48265285 154.90983415 C-4.48134785 158.42982025 -4.48008413 161.94980636 -4.47884095 165.46979249 C-4.46846739 194.69034222 -4.45057383 223.91088458 -4.42851734 253.13142776 C2.17148266 253.13142776 8.77148266 253.13142776 15.57148266 253.13142776 C15.57512829 250.63326996 15.57877392 248.13511215 15.58253002 245.56125259 C15.61875836 222.03285852 15.67695528 198.50459205 15.7553854 174.97630024 C15.7951801 162.87981382 15.82757046 150.78339249 15.84247875 138.68684769 C15.85549297 128.14243991 15.88245193 117.59817533 15.92609572 107.05384821 C15.9487155 101.47164947 15.96439301 95.8896274 15.96336651 90.30737877 C15.96262022 85.05011762 15.98055904 79.79324711 16.01265049 74.53608704 C16.02114913 72.60965443 16.02289967 70.68317802 16.01728535 68.75673485 C15.96539443 48.21002697 15.96539443 48.21002697 21.9831686 41.57492542 C27.2301067 36.82597899 31.9950134 35.88177443 38.90099621 35.86400223 C39.62916855 35.85947111 40.35734089 35.85494 41.10757905 35.85027158 C43.54247054 35.8376327 45.97713821 35.83924762 48.41205883 35.84090042 C50.16009845 35.83491472 51.90813543 35.82810907 53.65616894 35.8205452 C58.40227484 35.80287903 63.14830862 35.79818946 67.89444423 35.79691362 C70.86199139 35.79549144 73.82952026 35.7912205 76.79706287 35.78591919 C87.15685851 35.76741458 97.51660269 35.75924883 107.8764143 35.7608223 C117.52111742 35.76202276 127.16559641 35.74094015 136.81024283 35.70933497 C145.09918936 35.68314402 153.38806284 35.67245623 161.67705041 35.67373312 C166.62375981 35.67424206 171.57027016 35.66859666 176.51693821 35.64737701 C181.17342155 35.62794796 185.82951698 35.62790199 190.48601437 35.64241028 C192.18952218 35.64449392 193.89305456 35.6398241 195.59652042 35.62768936 C206.71284492 35.55366819 216.92013179 35.88782774 225.38007641 44.06502151 C226.20362621 44.85118851 227.02717602 45.6373555 227.87568188 46.44734573 C228.76529613 47.3330928 229.65491039 48.21883987 230.57148266 49.13142776 C231.07286755 49.62588394 231.57425243 50.12034012 232.0908308 50.62977982 C235.96901025 54.45451423 239.80588725 58.31915505 243.63398266 62.19392776 C245.87201989 64.45849175 248.11333149 66.71974216 250.35663891 68.97908401 C251.12210789 69.7570005 251.12210789 69.7570005 251.90304089 70.55063248 C253.10708025 71.76316714 254.3366857 72.95023024 255.57148266 74.13142776 C255.90148266 74.13142776 256.23148266 74.13142776 256.57148266 74.13142776 C256.67281627 66.37193822 256.74292049 58.612619 256.79120922 50.85261917 C256.81133741 48.21225483 256.83864253 45.57193512 256.87324047 42.93172073 C256.92170316 39.13880275 256.94443985 35.3464736 256.96210766 31.55330276 C256.9827528 30.37089005 257.00339794 29.18847733 257.02466869 27.97023392 C257.02512188 26.31897507 257.02512188 26.31897507 257.02558422 24.63435745 C257.03446667 23.66617081 257.04334911 22.69798416 257.05250072 21.70045853 C256.42901899 18.37055502 255.18948808 17.21524907 252.57148266 15.13142776 C249.81225065 14.21168376 248.18618774 14.00472809 245.34319782 14 C244.47642607 13.99615885 243.60965431 13.99231771 242.71661675 13.98836017 C241.7638107 13.98922665 240.81100464 13.99009313 239.82932568 13.99098587 C238.81756925 13.98801475 237.80581281 13.98504363 236.7633971 13.98198247 C233.35713219 13.97327806 229.95090235 13.97178576 226.54462719 13.97029495 C224.10897782 13.96566806 221.67332918 13.96064358 219.23768139 13.95524979 C212.60963635 13.94211255 205.98159863 13.93564188 199.35354376 13.93123913 C195.21582981 13.92847703 191.07811821 13.92423976 186.94040585 13.91973495 C175.48647044 13.90754284 164.03253691 13.89724304 152.57859516 13.89385986 C151.84549074 13.8936403 151.11238633 13.89342073 150.35706662 13.89319451 C149.62220112 13.89297623 148.88733562 13.89275796 148.13020146 13.89253306 C146.64106472 13.8920896 145.15192799 13.89164303 143.66279125 13.89119339 C142.55479464 13.89086125 142.55479464 13.89086125 141.42441426 13.89052239 C129.45194771 13.88657328 117.47954198 13.86911557 105.50709893 13.84583387 C93.21809252 13.82212923 80.92911665 13.80965844 68.64008701 13.80849195 C61.73903298 13.80757474 54.83805823 13.80181104 47.93702602 13.78367233 C41.44788596 13.76667641 34.95885632 13.76501207 28.46969891 13.77381134 C26.08520766 13.77458434 23.70070847 13.77020465 21.31623745 13.76035309 C18.06651241 13.7477118 14.81732762 13.75346798 11.56760693 13.76393509 C10.14509001 13.75185048 10.14509001 13.75185048 8.69383538 13.73952174 C3.34910939 13.77991329 -0.4532462 14.15615662 -4.42851734 18.13142776 Z M32.15946674 52.16204548 C30.15096028 55.91776544 30.02643393 59.09577013 30.09046459 63.24954605 C30.08704689 64.06236154 30.08362919 64.87517703 30.08010793 65.7126233 C30.0735241 68.43372068 30.095513 71.15382961 30.1173811 73.87483597 C30.11850947 75.82628735 30.11787592 77.77774043 30.11561108 79.72919083 C30.1144626 85.02639507 30.13799376 90.32323762 30.16590691 95.62035775 C30.19089815 101.15635235 30.19326077 106.69235507 30.19800854 112.22839737 C30.21044499 122.71143722 30.24327575 133.19431037 30.2834065 143.67727679 C30.3281033 155.6118459 30.350106 167.54642294 30.37018824 179.4810549 C30.41200771 204.03127164 30.48237288 228.58134036 30.57148266 253.13142776 C51.06827293 253.34168099 71.56488538 253.50038234 92.06253529 253.59773731 C101.58004461 253.64414298 111.09688389 253.70740695 120.61396313 253.81038284 C128.9092282 253.90009577 137.20400806 253.95815316 145.49974477 253.97822422 C149.89248972 253.98995719 154.28384659 254.01752031 158.67614651 254.08299828 C162.81174999 254.14414933 166.94539585 254.16292184 171.0814085 254.1493969 C172.59802555 254.15187044 174.11470886 254.16974362 175.63093472 254.20427704 C183.76079495 254.62945894 183.76079495 254.62945894 190.75913143 251.20070076 C192.3288765 248.89532407 193.47445642 246.69033 194.57148266 244.13142776 C195.30683415 242.78306562 196.05111282 241.43947565 196.80976391 240.10408401 C197.14991528 239.46188919 197.49006664 238.81969437 197.84052563 238.15803909 C204.04411531 226.48094995 210.49854632 217.39003581 223.57148266 213.13142776 C227.39687957 212.21967126 230.99378554 211.9812151 234.92231274 211.9261055 C236.18324245 211.90616028 237.44417217 211.88621506 238.74331188 211.86566544 C240.10921133 211.84868509 241.47511204 211.83180614 242.84101391 211.81502151 C244.24634925 211.79443302 245.65167866 211.77343607 247.05700207 211.75204849 C250.74435639 211.69702342 254.43176478 211.64752843 258.11921215 211.5992012 C261.88655402 211.54884273 265.653818 211.49323177 269.42109203 211.43806839 C276.80448949 211.33072636 284.187952 211.22922888 291.57148266 211.13142776 C291.66424737 201.06519454 291.73528052 190.99906335 291.77873135 180.9324894 C291.79958782 176.25792571 291.8278699 171.58365492 291.87324047 166.9092598 C291.91676762 162.39643991 291.94063436 157.88390139 291.95099163 153.37088776 C291.95837069 151.65091016 291.97278044 149.9309476 291.99440289 148.21109009 C292.02352895 145.79796956 292.02743494 143.38600497 292.02558422 140.97273636 C292.04715588 139.91105743 292.04715588 139.91105743 292.06916332 138.82793045 C292.02759494 133.80409401 290.69397549 131.01239071 287.57148266 127.13142776 C283.34888222 123.41151786 281.04713107 122.01228391 275.46674633 121.97371292 C273.8694997 121.9583197 273.8694997 121.9583197 272.23998547 121.94261551 C271.08480923 121.93531418 269.92963299 121.92801285 268.73945141 121.92049026 C266.30780406 121.89242106 263.87616352 121.86375659 261.44452953 121.83455276 C257.59972356 121.79327681 253.75504467 121.75640079 249.91010571 121.73006058 C246.20711823 121.70247426 242.50471456 121.656599 238.80195141 121.60799026 C237.65284786 121.6047374 236.50374432 121.60148453 235.31981945 121.59813309 C233.7083881 121.57328339 233.7083881 121.57328339 232.06440258 121.54793167 C231.12223385 121.53984482 230.18006512 121.53175797 229.20934582 121.52342606 C225.96823807 121.04178291 224.11490623 120.19945018 221.57148266 118.13142776 C220.95243359 115.85710526 220.95243359 115.85710526 220.95966625 113.16023636 C220.94970623 112.14843307 220.93974621 111.13662979 220.92948437 110.0941658 C220.94282818 109.00044662 220.95617199 107.90672745 220.96992016 106.77986526 C220.96191387 105.65126083 220.95390759 104.5226564 220.94565868 103.35985184 C220.92252632 99.74168206 220.9320656 96.12462849 220.94648266 92.50642776 C220.95033802 88.9098576 220.94679344 85.31378838 220.92588329 81.71727371 C220.91386101 79.47900207 220.91635198 77.2405902 220.93558788 75.00236893 C220.91027021 67.86410966 220.48653392 60.7151879 215.81757641 54.97517776 C215.22074047 54.53174026 214.62390453 54.08830276 214.00898266 53.63142776 C213.4095686 53.16736526 212.81015453 52.70330276 212.19257641 52.22517776 C208.63465071 49.82464958 206.03664815 49.99623651 201.75217724 49.97752762 C201.04275254 49.97314536 200.33332784 49.96876311 199.60240543 49.96424806 C197.21335172 49.95084008 194.82433491 49.94467679 192.43525219 49.93855667 C190.72718164 49.9306574 189.01911276 49.92238856 187.31104565 49.9137764 C181.69214507 49.88754034 176.07323697 49.87224916 170.45429516 49.85799026 C168.52213441 49.85263161 166.58997372 49.84725411 164.65781307 49.84185791 C156.62325531 49.82022863 148.58869958 49.80149013 140.55412006 49.79023552 C129.0272186 49.77398423 117.50065358 49.74077846 105.97387898 49.68383467 C97.87532926 49.64518584 89.77686972 49.62560895 81.67823017 49.62031496 C76.83778834 49.6166551 71.99770522 49.60456659 67.15736294 49.57221222 C62.60513462 49.54221967 58.05348372 49.53578801 53.50117779 49.54759598 C51.82899992 49.54781744 50.15679594 49.53945236 48.48470974 49.52194214 C46.20402364 49.49935555 43.92545016 49.50749359 41.64475536 49.52342606 C39.72947883 49.51846084 39.72947883 49.51846084 37.77550983 49.51339531 C34.47154165 49.88070084 34.47154165 49.88070084 32.15946674 52.16204548 Z M235.57148266 76.13142776 C235.57148266 86.36142776 235.57148266 96.59142776 235.57148266 107.13142776 C245.80148266 107.13142776 256.03148266 107.13142776 266.57148266 107.13142776 C262.72615742 102.64521498 258.93872834 98.34867286 254.77070141 94.19783401 C254.24885769 93.67503357 253.72701397 93.15223312 253.1893568 92.61359024 C252.10075488 91.52431475 251.01091713 90.43627297 249.91987133 89.34944534 C248.24200582 87.67700583 246.5696344 85.99920232 244.89765453 84.32088089 C243.83482456 83.25871057 242.77168504 82.19684987 241.70820141 81.13533401 C241.20721432 80.63232269 240.70622723 80.12931137 240.19005871 79.61105728 C238.22000009 77.19067228 238.22000009 77.19067228 235.57148266 76.13142776 Z M-38.22539234 167.63924026 C-46.44873493 176.39180787 -45.83997674 187.24270434 -45.72148609 198.54158401 C-45.71588124 200.12055429 -45.71161535 201.69952984 -45.70862293 203.27850723 C-45.69724406 207.40659209 -45.66783811 211.53435334 -45.63451099 215.66231155 C-45.60365884 219.8856964 -45.59008544 224.10913425 -45.57500172 228.33259964 C-45.54296057 236.59903973 -45.49025083 244.86515604 -45.42851734 253.13142776 C-36.84851734 253.13142776 -28.26851734 253.13142776 -19.42851734 253.13142776 C-19.42851734 223.10142776 -19.42851734 193.07142776 -19.42851734 162.13142776 C-27.34582493 162.13142776 -32.17846148 162.56507654 -38.22539234 167.63924026 Z M306.57148266 162.13142776 C306.57148266 178.30142776 306.57148266 194.47142776 306.57148266 211.13142776 C315.15148266 211.13142776 323.73148266 211.13142776 332.57148266 211.13142776 C332.64087563 207.16574792 332.70044485 203.20164213 332.73627758 199.23567581 C332.75853724 197.23398201 332.79668412 195.23248502 332.83515453 193.23103714 C332.90920639 183.43150823 332.32614567 175.04480672 325.36835766 167.63924026 C319.32142679 162.56507654 314.48879025 162.13142776 306.57148266 162.13142776 Z M217.57148266 234.13142776 C212.25616343 241.61858722 207.75725358 249.58531434 203.25117016 257.57478714 C202.70460766 258.52031448 202.15804516 259.46584183 201.59492016 260.44002151 C201.10942699 261.29394485 200.62393383 262.14786819 200.12372875 263.027668 C198.37554564 265.39698128 197.26807135 266.03390108 194.57148266 267.13142776 C192.50423348 267.38278478 192.50423348 267.38278478 190.25417805 267.38476086 C189.39299873 267.39037625 188.53181942 267.39599165 187.64454377 267.40177721 C186.70311457 267.39779611 185.76168537 267.39381502 184.79172802 267.38971329 C183.28612074 267.39522684 183.28612074 267.39522684 181.75009716 267.40085179 C178.37686841 267.41085528 175.00380374 267.40667628 171.63056469 267.402668 C169.2160935 267.40705369 166.80162382 267.41235526 164.38715649 267.41850662 C159.18268439 267.43001986 153.97824024 267.43565959 148.77375698 267.43638802 C141.24240209 267.43771363 133.71112152 267.45282516 126.17979287 267.47188319 C113.95212964 267.50272805 101.72446454 267.52689182 89.49677563 267.54475784 C88.76492026 267.54583052 88.0330649 267.5469032 87.2790321 267.54800839 C79.1148799 267.55982713 70.95072695 267.57003261 62.78657055 267.57844925 C59.82669097 267.58152313 56.86681141 267.58461193 53.90693188 267.58772659 C53.17657428 267.58849193 52.44621668 267.58925727 51.69372703 267.5900458 C39.51426658 267.60312877 27.33485989 267.62777033 15.15543926 267.66147 C7.64362671 267.68175726 0.13192918 267.69204977 -7.37991096 267.68948079 C-13.13608898 267.6883231 -18.89214939 267.70247504 -24.64828968 267.72229004 C-27.00977521 267.72789806 -29.37127929 267.72836699 -31.73276615 267.72335243 C-34.9536489 267.7172294 -38.17396227 267.72941016 -41.39479542 267.7461586 C-42.33176317 267.73994678 -43.26873092 267.73373497 -44.23409164 267.72733492 C-51.72073118 267.79839226 -56.91628325 269.90931125 -62.42851734 275.13142776 C-66.19881363 280.54648418 -67.5549654 285.10807273 -67.54877186 291.6236763 C-67.55014652 292.73984329 -67.55152119 293.85601028 -67.55293751 295.00600052 C-67.54934223 296.2259169 -67.54574696 297.44583328 -67.54204273 298.70271683 C-67.54218876 299.99077225 -67.54233479 301.27882767 -67.54248524 302.60591507 C-67.54277211 306.13450525 -67.53689317 309.66306143 -67.52991128 313.19164371 C-67.52365941 316.88053401 -67.52307249 320.56942508 -67.52188587 324.25831985 C-67.51877797 331.24222291 -67.51057186 338.22611031 -67.50053638 345.21000648 C-67.48935847 353.16157819 -67.48386056 361.11315065 -67.47884095 369.06472826 C-67.4683888 385.42030393 -67.45079982 401.77586385 -67.42851734 418.13142776 C-66.30679882 417.17021464 -65.18511704 416.20895863 -64.06345081 415.24768448 C-63.43881034 414.71238963 -62.81416986 414.17709478 -62.17060089 413.62557888 C-56.18507056 408.49190615 -50.34697846 403.23515636 -44.61601734 397.81892776 C-43.21513106 396.50756384 -41.81408879 395.19636652 -40.41289234 393.88533401 C-37.98154357 391.60493244 -35.57401812 389.30526473 -33.19414234 386.97127151 C-31.79422047 385.62742386 -31.79422047 385.62742386 -30.36601734 384.25642776 C-29.57066578 383.47525589 -28.77531422 382.69408401 -27.95586109 381.88924026 C-24.70184253 379.62601252 -22.37345193 379.19411685 -18.42851734 379.13142776 C-15.09164134 381.09296576 -13.70441663 383.0315971 -12.20195484 386.55183792 C-11.81475269 387.44351669 -11.42755054 388.33519547 -11.028615 389.25389481 C-10.62433277 390.21637131 -10.22005054 391.17884781 -9.80351734 392.17049026 C-9.37474293 393.16591843 -8.94596851 394.16134659 -8.50420094 395.18693924 C-7.13491372 398.37229533 -5.78146655 401.56410274 -4.42851734 404.75642776 C-3.51811494 406.88318217 -2.60666795 409.00948975 -1.69414234 411.13533401 C-0.00787431 415.06567521 1.67135327 418.99888667 3.34492016 422.93465042 C5.37186638 427.68889521 7.4558242 432.41605791 9.57148266 437.13142776 C11.59868537 434.0906237 12.44376478 431.70802867 13.50068188 428.22883987 C13.87713345 426.99828369 14.25358501 425.76772751 14.64144421 424.49988174 C15.05311589 423.13620742 15.46468795 421.77250302 15.87617016 420.40877151 C16.31185851 418.97784123 16.74798021 417.54704283 17.18450451 416.11636734 C18.36527857 412.2419436 19.53987347 408.36567136 20.71330166 404.48901749 C21.93758861 400.44788132 23.16733439 396.40840694 24.39643383 392.36873245 C26.69292095 384.81768634 28.98415276 377.26505649 31.27330017 369.71178246 C33.2739108 363.11117315 35.27807661 356.51164912 37.2834959 349.91249943 C39.5987781 342.29368692 41.912352 334.67435693 44.22453594 327.05460358 C44.66493669 325.6032835 45.10538179 324.15197689 45.54587078 322.70068359 C46.79835 318.5738625 48.04979363 314.44673028 49.29955769 310.31908607 C49.85600053 308.48199612 50.4133661 306.64518574 50.97075939 304.80838394 C51.30088528 303.71712708 51.63101116 302.62587021 51.97114086 301.50154495 C52.2578616 300.55511124 52.54458233 299.60867752 52.83999157 298.633564 C53.47091792 296.47541921 54.04617553 294.31730503 54.57148266 292.13142776 C61.95398081 290.77796977 61.95398081 290.77796977 64.60918713 292.2978096 C67.11103345 294.63559756 67.42140808 296.20508372 68.10883617 299.54353714 C68.35512264 300.70034988 68.60140911 301.85716263 68.85515881 303.0490303 C69.11637053 304.35768594 69.37726747 305.66640444 69.63788891 306.97517776 C69.92933711 308.37694257 70.22215812 309.77842251 70.51620007 311.17964554 C71.36294847 315.23849358 72.18760558 319.30160547 73.00975323 323.36549759 C73.81205963 327.31601781 74.62699418 331.26390541 75.44131565 335.21196365 C78.24948714 348.8278396 81.02156313 362.45095902 83.78693676 376.0755806 C85.00570375 382.0776217 86.2272009 388.07910716 87.44843578 394.08064651 C89.82538518 405.76371257 92.19941875 417.44736888 94.57148266 429.13142776 C96.84073466 426.86217576 97.17280528 425.61329353 98.02021313 422.56160355 C98.28744183 421.61366928 98.55467052 420.66573502 98.82999706 419.68907547 C99.25504025 418.14846954 99.25504025 418.14846954 99.68867016 416.57674026 C100.30158735 414.41387665 100.91488034 412.2511195 101.52851391 410.08845901 C102.49019014 406.67074917 103.44771544 403.25199065 104.39814281 399.8311348 C105.31682256 396.53463974 106.25168731 393.24307199 107.18867016 389.95174026 C107.60764065 388.41720703 107.60764065 388.41720703 108.03507519 386.85167313 C108.30860821 385.89743454 108.58214123 384.94319595 108.86396313 383.96004105 C109.21465359 382.70334106 109.21465359 382.70334106 109.5724287 381.4212532 C110.782163 378.64854975 112.27966282 377.08315881 114.57148266 375.13142776 C121.22847343 374.08101502 129.21348862 377.12492916 135.68159008 378.75838089 C139.1210013 379.61852908 142.00032688 380.13142776 145.57148266 380.13142776 C147.91301762 371.25450684 149.8167311 362.31150129 151.60548115 353.3109951 C152.08635267 350.89269739 152.57119802 348.47522529 153.0570631 346.05792618 C154.43580092 339.19493858 155.80772771 332.33059653 157.17670727 325.46565628 C158.01906156 321.24296572 158.86604585 317.02122479 159.71581364 312.80002022 C160.03697416 311.19964574 160.35631831 309.59890561 160.67377949 307.9977932 C161.11655889 305.76483579 161.5651846 303.53312543 162.01508617 301.30159378 C162.26806973 300.03428925 162.52105328 298.76698471 162.781703 297.46127701 C164.60448959 289.77608981 164.60448959 289.77608981 168.57148266 287.13142776 C171.94648266 286.88142776 171.94648266 286.88142776 175.57148266 288.13142776 C176.73359203 289.78401566 176.73359203 289.78401566 177.79023266 292.04158401 C178.4271101 293.39679153 178.4271101 293.39679153 179.07685375 294.77937698 C182.34159079 302.10130439 185.53567374 309.45159107 188.69648266 316.81892776 C189.41887389 318.49677627 190.14152828 320.17451149 190.86445141 321.85213089 C193.77455842 328.60856934 196.67435067 335.36941733 199.57148266 342.13142776 C204.23981773 338.22849609 208.67192158 334.17632485 212.96576977 329.86653519 C213.85975475 328.97517868 213.85975475 328.97517868 214.77180004 328.06581497 C216.71664405 326.12532868 218.65785934 324.18126011 220.59882641 322.23689651 C221.95631079 320.88008638 223.31394354 319.52342467 224.67171764 318.16690445 C227.50329579 315.33679456 230.33307201 312.50489861 233.16157055 309.67171097 C236.79557006 306.03198186 240.43408461 302.39680442 244.07393074 298.76292324 C246.87142718 295.96902813 249.66655268 293.17277088 252.4609499 290.37577629 C253.80271504 289.03334238 255.14522806 287.69165554 256.4884882 286.35071754 C258.35573377 284.48599498 260.21977209 282.61812608 262.08295727 280.74934769 C262.642355 280.19197418 263.20175274 279.63460068 263.77810192 279.06033707 C266.38980527 276.9488556 266.38980527 276.9488556 267.57148266 274.13142776 C266.94499828 274.03345901 266.31851391 273.93549026 265.67304516 273.83455276 C264.85577953 273.68502151 264.03851391 273.53549026 263.19648266 273.38142776 C262.38437328 273.24220901 261.57226391 273.10299026 260.73554516 272.95955276 C258.57148266 272.13142776 258.57148266 272.13142776 257.27070141 270.24861526 C256.27326431 267.2284426 256.71575881 265.15937368 257.57148266 262.13142776 C262.21480648 259.03587855 267.41432473 258.71162003 272.85834789 257.78938675 C274.86866418 257.44654023 276.87516579 257.08566743 278.88202953 256.72322464 C280.79532055 256.39354691 280.79532055 256.39354691 282.74726391 256.05720901 C283.91169018 255.85522903 285.07611645 255.65324905 286.27582836 255.44514847 C289.655423 255.1234373 292.28635309 255.30011433 295.57148266 256.13142776 C297.57148266 258.13142776 297.57148266 258.13142776 297.83051586 260.09895706 C297.77257799 266.85314925 296.94755439 273.30089233 295.75898266 279.94392776 C295.59333813 280.95390823 295.4276936 281.9638887 295.25702953 283.00447464 C293.56783284 292.66158027 293.56783284 292.66158027 290.57148266 296.13142776 C287.14146784 296.62142988 284.80048477 296.78689556 281.69648266 295.13142776 C279.89904732 291.93598717 279.86945552 288.7666967 279.57148266 285.13142776 C274.60654203 289.29256509 269.94306691 293.62456607 265.38276196 298.22249222 C264.70220242 298.90451202 264.02164288 299.58653183 263.32046032 300.2892189 C261.85544763 301.75801352 260.39159046 303.22796142 258.92878819 304.69895744 C256.6155284 307.0250494 254.29909876 309.34794271 251.98183727 311.67004776 C247.07140068 316.59186906 242.16491957 321.51762184 237.25898266 326.44392776 C231.55559609 332.17090211 225.85060683 337.89626058 220.14140797 343.61744118 C217.85593755 345.90940825 215.57349045 348.20435764 213.29113293 350.49942398 C211.89864589 351.89554131 210.50601952 353.29151969 209.11323071 354.68733597 C208.47686687 355.32886612 207.84050304 355.97039627 207.18485546 356.63136673 C201.78907314 362.02780304 201.78907314 362.02780304 197.63398266 362.38142776 C194.57148266 362.13142776 194.57148266 362.13142776 193.06733227 361.00862503 C191.04481455 358.47049239 189.89074118 355.81312865 188.57538891 352.84627151 C188.16316334 351.92268593 188.16316334 351.92268593 187.74260998 350.98044205 C187.16208282 349.67648699 186.58484799 348.37106186 186.01069164 347.06428909 C185.14643463 345.09726805 184.27306614 343.13452174 183.39765453 341.17244339 C180.30590397 334.21757647 177.3224694 327.22936968 174.57148266 320.13142776 C173.58148266 320.62642776 173.58148266 320.62642776 172.57148266 321.13142776 C171.73562906 323.97698578 171.73562906 323.97698578 171.09101391 327.49959183 C170.95738445 328.16470276 170.823755 328.82981369 170.68607616 329.5150795 C170.24413837 331.72424415 169.81425753 333.93558971 169.38398266 336.14705276 C169.07863752 337.68081961 168.77239178 339.21440742 168.46528149 340.74782181 C167.65653372 344.79527317 166.85731663 348.84454185 166.06086254 352.89442825 C164.78794877 359.36330049 163.50455467 365.83006579 162.2139082 372.2954216 C161.76526988 374.5529162 161.32300846 376.81159493 160.88129711 379.07045364 C160.60508211 380.46224399 160.32864518 381.85399033 160.05195141 383.24568558 C159.81371655 384.4573439 159.57548168 385.66900223 159.33002758 386.91737747 C158.64025347 389.84003717 157.87942139 392.43042141 156.57148266 395.13142776 C149.85573602 398.48930108 140.86200176 394.61034708 134.13398266 392.82088089 C133.23421703 392.5920723 132.33445141 392.3632637 131.40742016 392.12752151 C130.59837231 391.91281204 129.78932446 391.69810257 128.95576 391.47688675 C126.2412982 391.08358719 124.2308847 391.54141037 121.57148266 392.13142776 C121.31283428 393.02678741 121.05418591 393.92214706 120.7876997 394.84463882 C118.35087013 403.27763501 115.90858271 411.70903356 113.46092701 420.13889408 C112.20270563 424.47293461 110.94642156 428.80751726 109.69452953 433.14339066 C108.4865768 437.32681664 107.27358169 441.50874987 106.05705929 445.68969154 C105.5935576 447.28597327 105.13188294 448.88278666 104.67205715 450.48013115 C104.02827276 452.71534313 103.37804967 454.94858572 102.72626781 457.18147659 C102.53709286 457.84394394 102.3479179 458.50641129 102.15301037 459.1889534 C101.25193576 462.25172714 100.36347509 464.44343911 98.57148266 467.13142776 C92.57261459 468.68668986 92.57261459 468.68668986 89.43304062 466.94537449 C87.15419662 464.72481424 86.78536443 463.33413922 86.16155529 460.23328018 C85.95003826 459.22286163 85.73852123 458.21244308 85.5205946 457.17140579 C85.30592037 456.06339615 85.09124615 454.95538651 84.87006664 453.81380081 C84.63046215 452.64591522 84.39085766 451.47802963 84.14399242 450.27475357 C83.48972882 447.06969825 82.84999069 443.86214663 82.21647429 440.6529386 C81.54765403 437.28317979 80.86023468 433.91722027 80.1747694 430.55081558 C78.87635836 424.15987194 77.59442138 417.76574071 76.3184672 411.37028009 C74.73513341 403.43822641 73.13093819 395.51041852 71.52656078 387.58259964 C69.88542949 379.47003314 68.2464985 371.35705727 66.62041759 363.24145889 C63.20546498 346.16365225 63.20546498 346.16365225 59.57148266 329.13142776 C57.28791467 332.55677974 56.24875931 335.97207843 55.07221508 339.86775589 C54.82945843 340.65743759 54.58670177 341.44711929 54.33658886 342.26073074 C53.52863859 344.89328759 52.72778186 347.52794711 51.92695141 350.16267776 C51.35601584 352.02848507 50.78466279 353.89416467 50.21291637 355.75972366 C48.69610574 360.71329802 47.1853532 365.66870084 45.67573071 370.62446976 C44.48503039 374.52999849 43.2903262 378.4342955 42.09520817 382.33847427 C40.91637267 386.18997399 39.73921175 390.04198491 38.56196499 393.89397049 C37.67634056 396.78967504 36.78882766 399.68479665 35.90128613 402.57991409 C33.16640313 411.51665399 30.46155306 420.45966963 27.85764503 429.43557358 C26.69226471 433.45058524 25.51416438 437.46182117 24.33575916 441.47302628 C23.78101399 443.37653843 23.2331174 445.28206114 22.69241428 447.18960953 C21.94648834 449.82056448 21.17811167 452.44398131 20.40473461 455.06697464 C20.19125944 455.84432465 19.97778427 456.62167465 19.75784016 457.42258072 C18.71968858 460.86798608 17.92357246 462.84707211 15.0900526 465.1354866 C11.74427122 466.45853955 9.95943338 466.31147458 6.57148266 465.13142776 C4.9323225 463.0108223 4.9323225 463.0108223 3.65742016 460.13924026 C3.16209789 459.04901566 2.66677563 457.95879105 2.1564436 456.83552933 C1.62667278 455.60145048 1.09841492 454.3667213 0.57148266 453.13142776 C-0.01059924 451.80517465 -0.59363728 450.47934084 -1.17754078 449.1538887 C-2.75634463 445.54371684 -4.30181797 441.92018347 -5.83693409 438.29124832 C-7.47314922 434.42354426 -9.12131681 430.56093595 -10.76836109 426.69783401 C-11.08734867 425.94884338 -11.40633625 425.19985275 -11.73499012 424.42816544 C-15.20612438 416.28749354 -18.78578207 408.19665314 -22.42851734 400.13142776 C-26.00383596 400.13142776 -26.32120401 400.63250221 -28.79961109 403.02595901 C-29.45018482 403.64623978 -30.10075855 404.26652054 -30.77104664 404.90559769 C-31.46238697 405.57824661 -32.1537273 406.25089554 -32.86601734 406.94392776 C-34.31861749 408.33249786 -35.77174642 409.72051499 -37.22539234 411.10799026 C-37.94146656 411.79538284 -38.65754078 412.48277542 -39.39531422 413.19099808 C-42.10099788 415.77322355 -44.85219566 418.2989727 -47.61601734 420.81892776 C-48.55445484 421.67615433 -49.49289234 422.53338089 -50.45976734 423.41658401 C-51.17132984 424.06651321 -51.17132984 424.06651321 -51.89726734 424.7295723 C-54.81098968 427.39707766 -57.71332736 430.07692966 -60.61601734 432.75642776 C-61.46426075 433.53892899 -61.46426075 433.53892899 -62.32964039 434.33723831 C-66.33502566 437.53271211 -66.33502566 437.53271211 -67.58965015 442.05550003 C-67.62699277 445.51685624 -67.65967922 448.97775265 -67.66875172 452.43928909 C-67.67837312 454.66062965 -67.70934009 456.88101113 -67.74101734 459.10213089 C-67.80824397 468.02078013 -67.3737382 474.75567106 -62.24101734 482.38142776 C-55.47895667 488.99322042 -48.06720573 490.25434887 -38.81200409 490.26006222 C-38.16957214 490.26181525 -37.52714019 490.26356829 -36.8652406 490.26537445 C-34.7158755 490.27002063 -32.56657846 490.26757253 -30.41721058 490.26514053 C-28.85927138 490.2670092 -27.30133266 490.26931013 -25.74339467 490.27200586 C-21.46452603 490.27812335 -17.18567693 490.27799032 -12.90680492 490.27681148 C-8.29115013 490.27660746 -3.67550161 490.28212634 0.94015026 490.28686905 C9.98219179 490.29517585 19.0242268 490.2979239 28.06627182 490.29848143 C35.41588149 490.29895657 42.76548901 490.30101121 50.115098 490.30418205 C70.95164497 490.31298865 91.78818679 490.31760141 112.62473563 490.31685158 C113.74806303 490.31681162 114.87139043 490.31677167 116.02875805 490.3167305 C117.15345663 490.31668962 118.27815521 490.31664874 119.43693557 490.31660662 C137.66608751 490.31620013 155.8952188 490.32577038 174.12436477 490.33986887 C192.84099504 490.35423018 211.55761524 490.36113919 230.27425116 490.36027509 C240.78259127 490.35994304 251.29090973 490.36269368 261.79924488 490.37345314 C270.74591638 490.3825549 279.69255641 490.38473604 288.63923053 490.37794372 C293.20333478 490.37467691 297.76737864 490.37462767 302.33147717 490.38329697 C306.51185107 490.39115569 310.69211663 490.38973693 314.87248787 490.38101283 C316.38255335 490.37947647 317.8926269 490.38129916 319.40268288 490.38687291 C334.61481197 490.55664638 334.61481197 490.55664638 347.84492016 483.84627151 C353.37604098 478.35269224 354.67645509 472.31469536 354.71921235 464.74659956 C354.71902799 463.8857178 354.71884363 463.02483605 354.71865368 462.13786697 C354.72416871 460.75899966 354.72416871 460.75899966 354.72979516 459.35227644 C354.74082871 456.26481995 354.7446753 453.17739712 354.74848461 450.08992386 C354.75474953 447.87898527 354.76139636 445.66804774 354.76839733 443.45711136 C354.78943747 436.18970345 354.79979996 428.92229534 354.80976391 421.65486526 C354.81381154 419.15263355 354.81792846 416.65040195 354.82211399 414.14817047 C354.83898281 403.7390507 354.85361722 393.32993249 354.86086273 382.92080116 C354.86277251 380.22099048 354.86469286 377.52117982 354.86664867 374.82136917 C354.86713241 374.15037534 354.86761615 373.47938152 354.86811455 372.78805454 C354.87641021 361.92478072 354.90174011 351.06161718 354.93422935 340.19839148 C354.96734025 329.03595844 354.98498267 317.87356523 354.98850697 306.71107924 C354.99085681 300.44756114 354.99980896 294.18421738 355.02496815 287.92074585 C355.04826448 282.02576472 355.05247561 276.13107253 355.04220676 270.23605728 C355.04171167 268.07619261 355.04802418 265.91631365 355.06176281 263.75649261 C355.0795143 260.79961471 355.07235922 257.84377007 355.05922985 254.88689041 C355.0701991 254.03939299 355.08116834 253.19189557 355.09246999 252.31871641 C355.01584482 245.13303177 353.15365197 238.39311531 348.64179516 232.69392776 C347.67886547 231.92049026 347.67886547 231.92049026 346.69648266 231.13142776 C346.05968578 230.59517776 345.42288891 230.05892776 344.76679516 229.50642776 C338.85242315 225.80205241 333.03530989 225.83930021 326.28681469 225.85676956 C325.26491039 225.85165863 324.2430061 225.8465477 323.190135 225.84128189 C319.81979509 225.82740828 316.44966019 225.82834109 313.07929516 225.83064651 C310.73048864 225.82675823 308.38168283 225.82242329 306.03287792 225.81766129 C301.11196646 225.81020376 296.19112675 225.8104869 291.27021313 225.81575394 C284.97326512 225.82154643 278.67661146 225.80462034 272.3797121 225.78140926 C267.52917808 225.76665616 262.67871468 225.76580242 257.82816219 225.76891899 C255.50700199 225.76840653 253.18583776 225.76318289 250.86469936 225.75310707 C247.61458662 225.7407304 244.36504375 225.74754228 241.11493969 225.75911331 C239.68545498 225.74764771 239.68545498 225.74764771 238.22709179 225.73595047 C229.79158401 225.80211858 223.1769798 227.34582596 217.57148266 234.13142776 Z " fill="#FFFFFF" transform="translate(112.42851734161377,3.868572235107422)"/>
<path d="M0 0 C0.72129593 -0.00525696 1.44259186 -0.01051392 2.18574524 -0.01593018 C4.54918643 -0.02903918 6.91194364 -0.02042498 9.27539062 -0.01025391 C10.93013639 -0.01227727 12.58488129 -0.01519089 14.23962402 -0.01895142 C17.69938691 -0.02336243 21.15891666 -0.0169833 24.61865234 -0.00292969 C29.04030671 0.01416158 33.46141467 0.00431382 37.88304901 -0.01364708 C41.29754713 -0.02451809 44.71191696 -0.02102341 48.12641907 -0.0132637 C49.75621099 -0.01127085 51.38601479 -0.01368863 53.01579285 -0.02070236 C55.2986002 -0.02837185 57.58053819 -0.01663712 59.86328125 0 C61.15899048 0.00238678 62.45469971 0.00477356 63.78967285 0.00723267 C69.08094321 0.56070114 73.0112767 1.93044167 76.80664062 5.82568359 C79.72028448 10.42027582 79.60329913 14.82404038 79.63476562 20.15380859 C79.6404657 20.90603699 79.64616577 21.65826538 79.65203857 22.43328857 C79.66146787 24.02354536 79.66801432 25.61382151 79.671875 27.20410156 C79.68155193 29.61607732 79.71258193 32.02718987 79.74414062 34.43896484 C79.75067451 35.98974108 79.75592347 37.54052336 79.75976562 39.09130859 C79.77211243 39.80305237 79.78445923 40.51479614 79.79718018 41.24810791 C79.77554421 46.20245475 79.23045122 51.18323545 76.43164062 55.38818359 C71.90952692 59.18958946 68.22808643 59.96714141 62.48608398 59.88989258 C61.32638847 59.89799706 61.32638847 59.89799706 60.14326477 59.90626526 C57.60227503 59.91871445 55.06242673 59.90228932 52.52148438 59.88427734 C50.74841757 59.88443241 48.97535042 59.88592257 47.20228577 59.88868713 C43.49269564 59.89006936 39.78349298 59.87754149 36.07397461 59.85473633 C31.32363107 59.82633139 26.57393002 59.82909697 21.82353878 59.84182644 C18.16462229 59.84878684 14.50585384 59.84099056 10.84695625 59.82856941 C9.095501 59.82405989 7.34402983 59.82371375 5.59257317 59.82763481 C3.14398573 59.83055114 0.69627878 59.81402137 -1.75219727 59.79223633 C-2.83318192 59.7989888 -2.83318192 59.7989888 -3.93600464 59.80587769 C-9.27637774 59.72708773 -12.32914846 58.30750723 -16.31835938 54.88818359 C-18.50847878 52.26004031 -18.69949283 49.65754 -18.74536133 46.37915039 C-18.75819656 45.5778923 -18.7710318 44.77663422 -18.78425598 43.95109558 C-18.79164291 43.08857681 -18.79902985 42.22605804 -18.80664062 41.33740234 C-18.81471237 40.44583939 -18.82278412 39.55427643 -18.83110046 38.63569641 C-18.84492844 36.74860573 -18.85565635 34.86149017 -18.86352539 32.97436523 C-18.88073283 30.0968456 -18.92462925 27.22047679 -18.96875 24.34326172 C-18.97887792 22.50798369 -18.98739372 20.67269592 -18.99414062 18.83740234 C-19.01164871 17.98095627 -19.0291568 17.12451019 -19.04719543 16.24211121 C-19.02771738 10.84447671 -18.39385198 7.50886864 -14.56835938 3.38818359 C-9.50757491 0.77940729 -5.77303734 0.01063431 0 0 Z M-3.56835938 15.38818359 C-3.56835938 24.95818359 -3.56835938 34.52818359 -3.56835938 44.38818359 C18.87164062 44.38818359 41.31164062 44.38818359 64.43164062 44.38818359 C64.43164062 34.81818359 64.43164062 25.24818359 64.43164062 15.38818359 C41.99164063 15.38818359 19.55164063 15.38818359 -3.56835938 15.38818359 Z " fill="#FFFFFF" transform="translate(364.568359375,410.61181640625)"/>
<path d="M0 0 C0.76421973 -0.00694553 1.52843946 -0.01389106 2.31581736 -0.02104706 C4.87860639 -0.03935506 7.44047368 -0.02904264 10.0032959 -0.01878357 C11.839744 -0.0258401 13.67618628 -0.03458399 15.51261902 -0.04489136 C20.50225604 -0.06742378 25.49157646 -0.06443681 30.48124504 -0.05556989 C34.64401553 -0.05046609 38.8067262 -0.05774752 42.96949053 -0.06504196 C52.78761538 -0.08205287 62.60558485 -0.0784627 72.42370605 -0.06175232 C82.55992543 -0.0448239 92.69571439 -0.0606728 102.83188677 -0.0929752 C111.52923032 -0.11964442 120.22643967 -0.12695449 128.92382002 -0.11846012 C134.12076335 -0.11352382 139.31744756 -0.11578464 144.51435852 -0.13624763 C149.39989989 -0.15456323 154.28482042 -0.14869669 159.17032814 -0.12404823 C160.96503703 -0.11902748 162.75979289 -0.12256278 164.55446434 -0.13519669 C167.00146615 -0.15106235 169.44640715 -0.13624043 171.89331055 -0.11352539 C172.60653803 -0.12536112 173.31976552 -0.13719685 174.05460596 -0.14939123 C177.72522326 -0.07997873 179.19943691 0.28338445 181.91873932 2.82736301 C183.44665527 5.5146637 183.44665527 5.5146637 183.44665527 9.1396637 C182.31257671 12.96717886 181.86553791 13.64727086 178.44665527 15.5146637 C175.87467343 15.80514199 173.54632588 15.92426312 170.97596741 15.90234375 C170.22062035 15.90772929 169.46527329 15.91311483 168.68703693 15.91866356 C166.15435172 15.93297852 163.62218657 15.92583086 161.08947754 15.91871643 C159.27435892 15.92441816 157.45924388 15.93138165 155.64413452 15.93951416 C150.71232322 15.95748258 145.78068948 15.95627026 140.84885526 15.95057178 C136.73340917 15.94748521 132.61799746 15.95356644 128.50255626 15.95961052 C118.79468464 15.97366627 109.08690099 15.97208576 99.37902832 15.96070862 C89.35990268 15.94922626 79.34104468 15.96330269 69.32195431 15.99010509 C60.72312138 16.01224788 52.12437254 16.01890268 43.52551311 16.01302868 C38.38837365 16.00965451 33.25140576 16.01210471 28.11429024 16.02927971 C23.28381826 16.0447241 18.45374335 16.04082119 13.6232872 16.02197456 C11.8499592 16.01828172 10.07660195 16.02141736 8.30330086 16.03186035 C5.88318265 16.04502486 3.46438774 16.03356428 1.04432678 16.01586914 C0.34179403 16.02547415 -0.36073871 16.03507915 -1.08456033 16.04497522 C-4.56704662 15.99254807 -6.50321508 15.54557291 -9.49304295 13.70208836 C-11.55334473 11.5146637 -11.55334473 11.5146637 -12.11584473 8.0146637 C-10.94968084 0.75853283 -6.61702725 -0.0764544 0 0 Z " fill="#FFFFFF" transform="translate(188.5533447265625,166.48533630371094)"/>
<path d="M0 0 C1.55690552 -0.00810448 1.55690552 -0.00810448 3.14526367 -0.01637268 C6.57296338 -0.0288707 9.99982502 -0.01236216 13.42749023 0.00561523 C15.80972844 0.00546028 18.19196689 0.00397197 20.57420349 0.00120544 C25.56504469 -0.000179 30.55559867 0.01238846 35.54638672 0.03515625 C41.94804377 0.06355603 48.34922407 0.0607998 54.75091648 0.04806614 C59.66908348 0.04111643 64.58714 0.04888996 69.50529289 0.06132317 C71.86603306 0.06584344 74.22678507 0.06616946 76.58752632 0.06225777 C79.88411978 0.05935217 83.18005247 0.07582156 86.4765625 0.09765625 C87.45485519 0.0931546 88.43314789 0.08865295 89.44108582 0.08401489 C90.78896683 0.09887184 90.78896683 0.09887184 92.16407776 0.11402893 C93.33238805 0.11767377 93.33238805 0.11767377 94.52430058 0.12139225 C97.2847409 0.60985349 98.64714229 1.58638512 100.67358398 3.50170898 C101.73608398 6.87670898 101.73608398 6.87670898 101.67358398 10.50170898 C99.66549329 13.41409623 98.05199154 15.21114745 94.49864006 15.96017647 C91.7393186 16.14753979 89.02095954 16.16562011 86.25537109 16.1328125 C85.20768051 16.1399678 84.15998993 16.14712311 83.08055115 16.15449524 C79.62023209 16.17139306 76.16120643 16.15197328 72.70092773 16.13061523 C70.29626864 16.13144376 67.89160961 16.13390253 65.48695374 16.13792419 C60.448974 16.14078288 55.41143868 16.12607216 50.37353516 16.09863281 C43.91123917 16.06453233 37.44973702 16.07057407 30.98740292 16.08929539 C26.02288682 16.09985566 21.05855595 16.09093657 16.09405708 16.07591057 C13.7109895 16.07072243 11.32790263 16.07121818 8.94483757 16.07745552 C5.61693478 16.08289646 2.29017496 16.06256767 -1.03759766 16.03515625 C-2.02524109 16.04168213 -3.01288452 16.04820801 -4.03045654 16.05493164 C-10.66510553 15.96185318 -10.66510553 15.96185318 -13.93431091 13.68711853 C-16.01067238 10.42752256 -15.93288083 8.27526785 -15.32641602 4.50170898 C-10.96370482 -0.54813266 -6.19478493 -0.06134684 0 0 Z " fill="#FFFFFF" transform="translate(192.326416015625,204.498291015625)"/>
<path d="M0 0 C1.32057655 -0.00856522 1.32057655 -0.00856522 2.66783142 -0.01730347 C3.63101791 -0.01842133 4.59420441 -0.01953918 5.58657837 -0.02069092 C6.60310989 -0.02565582 7.61964142 -0.03062073 8.66697693 -0.03573608 C12.0355293 -0.05036176 15.4040346 -0.05716008 18.77261353 -0.06268311 C21.11047365 -0.06843381 23.44833376 -0.07419155 25.78619385 -0.07995605 C30.69052348 -0.09046691 35.59483671 -0.09630917 40.49917603 -0.09979248 C46.78639727 -0.10528022 53.07340227 -0.12931405 59.36055565 -0.15776443 C64.19037512 -0.17637783 69.02014235 -0.18159571 73.84999466 -0.18312836 C76.16805835 -0.18615787 78.48612107 -0.19419638 80.80414963 -0.20731354 C84.04559597 -0.22434807 87.28651181 -0.22250003 90.52798462 -0.21600342 C91.96669167 -0.22982559 91.96669167 -0.22982559 93.4344635 -0.243927 C101.87632874 -0.19086519 101.87632874 -0.19086519 105.68667603 3.14044189 C106.92542346 7.07528669 107.20594898 9.11000011 105.33255005 12.82756042 C101.28482209 16.36586758 97.50249123 15.83257622 92.29019165 15.77154541 C91.23289352 15.77870071 90.1755954 15.78585602 89.08625793 15.79322815 C85.58804238 15.81014986 82.09110202 15.79069089 78.59292603 15.76934814 C76.16441746 15.77017651 73.73590894 15.77263469 71.30740356 15.7766571 C66.216371 15.77951751 61.12577779 15.76478944 56.03482056 15.73736572 C49.50411714 15.70328329 42.97419958 15.70929928 36.44345856 15.7280283 C31.42832879 15.73858922 26.41338236 15.72966858 21.39826965 15.71464348 C18.99008224 15.70945458 16.58187573 15.709952 14.1736908 15.71618843 C10.80976083 15.72162941 7.4469616 15.70129966 4.0831604 15.67388916 C2.58531258 15.68367798 2.58531258 15.68367798 1.0572052 15.69366455 C-5.64683658 15.60062394 -5.64683658 15.60062394 -8.9357605 13.32975769 C-10.94615998 10.1346967 -10.7828935 7.82991674 -10.31332397 4.14044189 C-7.70075999 0.40820763 -4.32135629 0.01680235 0 0 Z " fill="#FFFFFF" transform="translate(187.31332397460938,89.85955810546875)"/>
<path d="M0 0 C0.80321717 -0.00280692 1.60643435 -0.00561384 2.43399143 -0.00850582 C3.35789173 -0.02123028 4.28179203 -0.03395473 5.23368931 -0.04706478 C6.24520054 -0.0405389 7.25671177 -0.03401302 8.29887486 -0.02728939 C9.36578053 -0.03590496 10.4326862 -0.04452053 11.53192234 -0.05339718 C15.06784745 -0.07614818 18.60298584 -0.06930094 22.13896275 -0.06024837 C24.59132213 -0.06548009 27.0436795 -0.07175489 29.49603367 -0.07903194 C34.64004568 -0.08945323 39.78378136 -0.08484994 44.92778111 -0.07025814 C51.52696771 -0.05307302 58.12528347 -0.0765544 64.72437286 -0.11174774 C69.79010914 -0.1336861 74.85563593 -0.13228872 79.92140484 -0.12398243 C82.35472728 -0.12316087 84.7880648 -0.13006313 87.22134304 -0.14475346 C90.6214326 -0.16213148 94.01994322 -0.14771084 97.41996861 -0.12494564 C98.4294556 -0.13663784 99.4389426 -0.14833004 100.47902012 -0.16037655 C107.27293657 -0.06760857 107.27293657 -0.06760857 110.58453465 2.85028934 C112.30808388 6.26740911 112.0999367 7.90031692 110.924119 11.50615788 C109.00680379 14.03352792 108.00906491 14.47784257 104.924119 15.50615788 C103.5013631 15.6006265 102.07463663 15.6410017 100.64875889 15.64659977 C99.77678867 15.65230991 98.90481846 15.65802006 98.0064249 15.66390324 C97.05258915 15.6650211 96.0987534 15.66613895 95.11601353 15.66729069 C94.10923557 15.67225559 93.10245762 15.6772205 92.06517124 15.68233585 C88.72908442 15.696961 85.39304513 15.70375976 82.0569315 15.70928288 C79.74149162 15.71503363 77.42605176 15.72079137 75.11061192 15.72655582 C70.25336071 15.73706653 65.39612607 15.74290888 60.53886509 15.74639225 C54.31217708 15.75187993 48.08570742 15.7759137 41.85908794 15.8043642 C37.07559155 15.82297816 32.29214791 15.82819551 27.50861835 15.82972813 C25.21288324 15.83275751 22.91714911 15.84079562 20.62144947 15.85391331 C17.41113454 15.870949 14.2013552 15.86909952 10.99101353 15.86260319 C10.04122623 15.87181797 9.09143894 15.88103275 8.11287022 15.89052677 C2.74154167 15.8564413 -1.08010824 15.50193064 -5.075881 11.50615788 C-5.54156062 5.33590292 -5.54156062 5.33590292 -3.84212303 2.30785561 C-2.075881 0.50615788 -2.075881 0.50615788 0 0 Z " fill="#FFFFFF" transform="translate(182.0758810043335,128.49384212493896)"/>
</svg>
