<?xml version="1.0" encoding="UTF-8"?>
<svg version="1.1" xmlns="http://www.w3.org/2000/svg" width="512" height="512">
<path d="M0 0 C1.02864125 -0.00507454 2.0572825 -0.01014909 3.1170947 -0.0153774 C4.81754609 -0.01612404 4.81754609 -0.01612404 6.55235004 -0.01688576 C7.75391674 -0.02126801 8.95548343 -0.02565027 10.19346124 -0.03016531 C13.53471429 -0.04123539 16.8759205 -0.04777944 20.21718514 -0.05234647 C23.81855569 -0.05830223 27.41990898 -0.06991212 31.02126789 -0.08063698 C39.72164397 -0.1051613 48.42202576 -0.11978803 57.12242576 -0.13269705 C59.57964512 -0.13640891 62.0368639 -0.14038214 64.49408269 -0.14444971 C79.75193167 -0.16968578 95.00978154 -0.19173965 110.26764679 -0.20417786 C113.80194508 -0.20710757 117.33624335 -0.21006923 120.87054157 -0.21308327 C121.74897794 -0.21382932 122.62741431 -0.21457537 123.53246997 -0.21534403 C137.76299382 -0.22799798 151.99339275 -0.2612216 166.2238582 -0.3028851 C180.83279296 -0.34530619 195.44166376 -0.36887307 210.05065995 -0.37409842 C218.25357085 -0.37751231 226.45628649 -0.38926476 234.65913677 -0.42220116 C241.64505091 -0.45020525 248.63072976 -0.46119949 255.61669566 -0.4500057 C259.18033958 -0.4448199 262.7434908 -0.4476997 266.3070631 -0.47247124 C270.17320497 -0.49912139 274.03867581 -0.48690045 277.90488911 -0.47098732 C279.58861009 -0.49181045 279.58861009 -0.49181045 281.30634564 -0.51305425 C291.4409211 -0.41019912 296.71119035 3.43977866 303.77190876 10.45879173 C304.28519733 10.96521706 304.79848591 11.47164238 305.32732868 11.99341393 C306.99775017 13.64574619 308.65707138 15.30869874 310.31560993 16.97295189 C311.48489997 18.1376732 312.65455877 19.30202439 313.82456684 20.4660244 C316.26437288 22.89693571 318.69847582 25.33338579 321.12884235 27.77373314 C324.23497664 30.89138219 327.35673275 33.99284415 330.4831562 37.09012985 C332.89835857 39.4869446 335.30413825 41.89304701 337.70730877 44.30191994 C338.85442718 45.44919108 340.0046291 46.59338814 341.1580267 47.73434639 C342.77090389 49.33225832 344.37039261 50.94251888 345.96722126 52.55644798 C346.87796909 53.46736198 347.78871693 54.37827599 348.72706318 55.31679344 C354.98995768 62.93327821 354.46296571 70.19180137 354.38665485 79.70122337 C354.38580779 81.18006943 354.38628528 82.65891675 354.38798237 84.13776207 C354.38884064 88.13733154 354.37124232 92.13662931 354.3502605 96.13613582 C354.33146553 100.32147822 354.32974104 104.50682733 354.32618427 108.69220543 C354.31687207 116.61104245 354.29226951 124.52975475 354.2621358 132.44853693 C354.22856606 141.46664791 354.21209932 150.48476495 354.1970495 159.50292289 C354.16571919 178.04769069 354.11297479 196.5923425 354.04607868 215.13701439 C354.66845417 215.43792992 355.29082966 215.73884544 355.93206501 216.04887962 C359.82784192 218.0541317 362.84666708 221.18152955 366.04607868 224.13701439 C366.77310993 224.79830345 367.50014118 225.45959251 368.24920368 226.14092064 C386.15799149 243.14174543 397.42274255 268.31733765 398.38201618 293.01201439 C398.66111485 311.95698635 397.01754725 332.44900194 386.29998493 348.80107689 C384.84463297 350.97930481 384.84463297 350.97930481 385.26482868 353.03984642 C386.83883988 357.26508274 390.39013151 360.20646743 393.48357868 363.38701439 C394.1584029 364.13209251 394.83322712 364.87717064 395.52850056 365.64482689 C399.46009542 369.7332766 399.46009542 369.7332766 404.6693697 371.58647728 C407.29449498 371.60347833 407.29449498 371.60347833 409.76287556 371.31792259 C413.6878063 371.00693311 416.73381956 372.08224699 420.04607868 374.13701439 C422.36124687 376.1826921 424.48348271 378.31912183 426.57732868 380.59013939 C428.50595827 382.57980156 430.41173893 384.33354265 432.51482868 386.12138939 C439.2993048 391.98588296 445.47421766 398.51088029 451.77361774 404.88506126 C457.52587403 410.69945107 463.2406985 416.4605827 469.47234821 421.76787376 C471.47345595 423.50883129 473.25063639 425.38087884 474.98357868 427.38701439 C475.54947712 428.03154564 476.11537556 428.67607689 476.69842243 429.34013939 C479.20744505 432.68550288 479.26179157 435.89973802 479.35857868 439.94951439 C479.39596149 440.9665847 479.43334431 441.98365501 479.47185993 443.03154564 C478.63795542 449.1136932 474.18026069 453.25764119 469.98357868 457.46513939 C469.51041218 457.94021935 469.03724567 458.4152993 468.54974079 458.90477562 C467.55715912 459.89870791 466.56208898 460.8901609 465.56463337 461.87920189 C464.04303767 463.39003389 462.53247772 464.91131575 461.02264118 466.43388939 C460.05192802 467.40328169 459.08059503 468.37205381 458.10857868 469.34013939 C457.23330524 470.21315697 456.35803181 471.08617455 455.45623493 471.9856472 C451.61007617 475.418827 448.86315974 476.4394602 443.73357868 476.51201439 C442.82994587 476.54037376 441.92631306 476.56873314 440.99529743 476.59795189 C432.12590333 475.21174195 426.549766 467.95994095 420.60857868 461.82451439 C413.62655911 454.58672539 413.62655911 454.58672539 406.22185993 447.79326439 C400.68657354 443.0602544 395.59039549 437.8673501 390.4440279 432.72026634 C388.6592127 430.93766311 386.86650753 429.16324744 385.07342243 427.38896751 C383.93100734 426.24948261 382.78906297 425.10952554 381.64764118 423.96904564 C381.11434193 423.4429319 380.58104267 422.91681816 380.03158283 422.37476158 C377.49903493 419.82645907 375.25925656 417.5622122 374.04607868 414.13701439 C374.17784942 412.2193296 374.32555771 410.30271474 374.48357868 408.38701439 C374.17881595 401.85319885 371.58024284 398.99689684 366.94866657 394.5090847 C361.54380368 388.61989869 361.54380368 388.61989869 355.04607868 385.13701439 C355.04243305 386.09643944 355.03878742 387.05586449 355.03503132 388.04436302 C354.99801321 397.10721647 354.94016633 406.16973228 354.86217594 415.23232841 C354.82274727 419.89100063 354.79053625 424.54948513 354.77508259 429.20830345 C354.75988553 433.70838447 354.72538623 438.20794928 354.67776966 442.70779991 C354.66298721 444.42045149 354.65503947 446.13317679 354.65419483 447.84589195 C354.63654031 465.70188109 354.63654031 465.70188109 350.04607868 471.13701439 C343.55060075 477.15124898 336.36054789 476.84081665 327.95095539 476.75847435 C326.5170134 476.76280716 325.08307665 476.76932661 323.64915335 476.77783442 C319.72224121 476.79478973 315.79596887 476.78067049 311.86909056 476.76131964 C307.62910664 476.74587071 303.3892 476.75930007 299.14921284 476.76906395 C290.8489839 476.78358125 282.54899979 476.77136633 274.24879406 476.74995071 C264.5830512 476.72592788 254.91736428 476.72765582 245.25159819 476.73025662 C228.00693409 476.73394579 210.76238529 476.7131288 193.51775837 476.67900658 C176.78302821 476.64590558 160.04841904 476.63175014 143.31365681 476.63799095 C125.08897929 476.64475396 106.86435244 476.64229805 88.63968241 476.62263155 C87.67614165 476.62159206 86.7126009 476.62055258 85.71986193 476.61948159 C83.78463997 476.6173907 81.84941804 476.61527973 79.91419613 476.61314842 C73.1757672 476.6062517 66.43735388 476.60558368 59.69892216 476.60703087 C51.4892589 476.60847009 43.27969433 476.59878829 35.07006381 476.57508451 C30.88097318 476.56321963 26.69202013 476.55610265 22.50291348 476.56192207 C18.66872895 476.56709112 14.83483519 476.55841569 11.00070043 476.53864747 C9.61323224 476.53390506 8.22573576 476.53421111 6.83827178 476.54005784 C4.95259873 476.54723661 3.06688115 476.53417132 1.18124676 476.52012444 C0.13375802 476.51855323 -0.91373071 476.51698203 -1.99296153 476.51536322 C-6.14821796 475.98440822 -9.52528386 474.47063558 -12.59845257 471.60185814 C-16.40201064 466.62797451 -17.10076613 463.95561505 -17.0881424 457.81739235 C-17.09167074 456.66684471 -17.09167074 456.66684471 -17.09527037 455.49305367 C-17.10198298 452.89578332 -17.10150146 450.29856273 -17.10109234 447.70128441 C-17.10438956 445.83117431 -17.10811482 443.96106492 -17.11223382 442.09095645 C-17.12227808 436.93074325 -17.1259745 431.77054168 -17.12862313 426.61032009 C-17.13251899 421.05326465 -17.14209779 415.49621847 -17.15083599 409.93916893 C-17.17062044 396.50863883 -17.18066898 383.07810795 -17.18956378 369.64756691 C-17.19394332 363.32846408 -17.19931098 357.0093621 -17.20455265 350.69025993 C-17.22156668 329.69380056 -17.23608694 308.69734135 -17.24330139 287.70087624 C-17.24377615 286.34257735 -17.24425204 284.98427847 -17.24472905 283.62597959 C-17.24508362 282.61557134 -17.24508362 282.61557134 -17.24544534 281.58475081 C-17.24664656 278.17183346 -17.24786201 274.75891611 -17.24908733 271.34599876 C-17.24932748 270.66869051 -17.24956763 269.99138225 -17.24981506 269.2935495 C-17.25770962 247.32900695 -17.2811441 225.36451837 -17.31364328 203.39999938 C-17.34792705 180.18705471 -17.36765003 156.97414032 -17.37094563 133.76116633 C-17.37311397 121.10381433 -17.38190982 108.44654164 -17.40740681 95.78921318 C-17.4290657 85.01208604 -17.43718798 74.23505748 -17.42744002 63.45791104 C-17.42288139 57.95645287 -17.42487213 52.4551983 -17.44420147 46.95376778 C-17.46173447 41.92026654 -17.46091604 36.8871189 -17.44530418 31.85361442 C-17.44291304 30.0298875 -17.44732899 28.20613672 -17.45913283 26.38244644 C-17.4741611 23.90786465 -17.46464304 21.43455055 -17.44890594 18.96000099 C-17.45912815 18.24796194 -17.46935036 17.53592288 -17.47988233 16.80230689 C-17.41022994 11.80184456 -16.05562318 9.00550323 -12.95392132 5.13701439 C-8.68855006 1.28777691 -5.69525353 0.01490304 0 0 Z M-0.95392132 18.13701439 C-1.05355338 20.47728319 -1.08755804 22.78807412 -1.07976246 25.12891197 C-1.0812159 25.87265064 -1.08266934 26.61638931 -1.08416682 27.38266551 C-1.08785324 29.90667736 -1.08432827 32.43062981 -1.08090496 34.95464134 C-1.08205574 36.76970418 -1.08364297 38.58476679 -1.08563221 40.39982891 C-1.08983149 45.41233768 -1.08773215 50.42482758 -1.08464599 55.43733644 C-1.08239453 60.83343609 -1.08587022 66.22953235 -1.08862591 71.62563133 C-1.09308534 82.20640528 -1.09210637 92.78717216 -1.08921327 103.36794639 C-1.08695991 111.96297689 -1.08664642 120.5580054 -1.08773708 129.15303612 C-1.08789032 130.37377085 -1.08804355 131.59450558 -1.08820143 132.85223228 C-1.08852113 135.33170501 -1.08884535 137.81117775 -1.08917402 140.29065049 C-1.09202932 163.57069561 -1.08874101 186.85073681 -1.08337365 210.13078129 C-1.07890557 230.12993191 -1.07968149 250.12907471 -1.08429241 270.12822533 C-1.0896373 293.32184984 -1.09175462 316.51547091 -1.08868015 339.70909595 C-1.08836158 342.17972819 -1.08804721 344.65036042 -1.08773708 347.12099266 C-1.08758281 348.33676548 -1.08742853 349.5525383 -1.08726958 350.80515271 C-1.08640417 359.39531716 -1.08786782 367.98547943 -1.09021664 376.57564354 C-1.09301389 387.03634327 -1.09227797 397.49703549 -1.08693589 407.95773435 C-1.08429786 413.3005224 -1.08329553 418.64329791 -1.08658504 423.98608589 C-1.08954592 428.86875635 -1.08795871 433.75140253 -1.08260749 438.63407075 C-1.08148241 440.40860926 -1.08207648 442.18314979 -1.08448328 443.95768702 C-1.08748565 446.35352689 -1.08444449 448.74928153 -1.07976246 451.14511681 C-1.08210362 451.84811594 -1.08444479 452.55111507 -1.0868569 453.27541721 C-1.34431919 456.48463443 -1.34431919 456.48463443 0.04607868 459.13701439 C1.83926761 459.23447884 3.63634484 459.26072858 5.4321804 459.26006222 C6.60807576 459.26205327 7.78397112 459.26404431 8.99549967 459.2660957 C10.3038364 459.26318286 11.61217314 459.26027002 12.96015644 459.25726891 C14.35107742 459.25770449 15.74199832 459.25857915 17.13291878 459.25985807 C20.97300018 459.26210564 24.81305396 459.25807819 28.65313184 459.25308001 C32.78744056 459.24877943 36.9217476 459.25022165 41.05605793 459.25098228 C48.22498732 459.25150777 55.39390763 459.24835841 62.56283474 459.24274445 C72.92802255 459.23463276 83.29320595 459.23201457 93.65839659 459.23075645 C110.47341746 459.22856541 127.28843349 459.22190391 144.10345173 459.21245384 C160.44199315 459.20328107 176.78053326 459.19619958 193.11907673 459.19194603 C194.12543152 459.19168331 195.1317863 459.19142058 196.16863669 459.1911499 C201.21699806 459.1898449 206.26535944 459.18858118 211.31372082 459.18733799 C253.22451107 459.17696375 295.13529238 459.15852458 337.04607868 459.13701439 C337.04607868 438.01701439 337.04607868 416.89701439 337.04607868 395.13701439 C333.74607868 396.12701439 330.44607868 397.11701439 327.04607868 398.13701439 C303.22540546 404.62339489 275.94381741 406.58588376 253.04607868 395.13701439 C251.24101881 395.04021086 249.43235956 395.00797495 247.62470722 395.00571251 C246.47355427 395.00170433 245.32240131 394.99769615 244.13636494 394.99356651 C242.86721745 394.99409523 241.59806995 394.99462395 240.29046345 394.99516869 C238.9452983 394.99213782 237.60013419 394.98861657 236.2549715 394.98464012 C233.35480414 394.97674582 230.45464912 394.97160424 227.55447292 394.96834946 C222.97057663 394.96244645 218.38675826 394.94591347 213.80289936 394.92700768 C212.23462872 394.9206702 210.66635804 394.91434458 209.09808731 394.90803051 C208.31266772 394.9048647 207.52724813 394.90169889 206.71802795 394.89843714 C196.04378194 394.85632816 185.36957216 394.82337392 174.6952486 394.81108665 C167.49824214 394.80271694 160.3014284 394.78026767 153.10451835 394.74173099 C149.29426096 394.72193446 145.48429189 394.70957754 141.67397976 394.71456528 C138.09103827 394.71919828 134.50864386 394.70548147 130.92581272 394.67755318 C128.98100656 394.66730669 127.03612775 394.67691598 125.09132099 394.68704796 C123.93734821 394.67458031 122.78337543 394.66211266 121.59443378 394.6492672 C120.08705064 394.64568467 120.08705064 394.64568467 118.54921532 394.64202976 C116.04607868 394.13701439 116.04607868 394.13701439 114.22274399 392.29249859 C112.62340915 389.36274366 112.63452442 387.42944849 113.04607868 384.13701439 C114.82592273 381.00109869 115.56916075 380.29598703 119.04607868 379.13701439 C120.50525587 379.03707434 121.96846668 378.99091177 123.43101215 378.97879601 C124.32703648 378.96900719 125.2230608 378.95921837 126.14623737 378.94913292 C127.12662983 378.94337746 128.10702229 378.93762199 129.1171236 378.93169212 C130.15144016 378.92179253 131.18575672 378.91189293 132.25141621 378.90169334 C135.67643652 378.87005977 139.10147071 378.84531348 142.52654743 378.82060814 C144.89880964 378.80004022 147.27106817 378.7790438 149.64332294 378.75763512 C155.89206688 378.7023977 162.14084398 378.65299574 168.38964558 378.60478783 C174.76408565 378.55458502 181.13847747 378.49889258 187.51287556 378.44365501 C200.02390178 378.336053 212.53496918 378.23442618 225.04607868 378.13701439 C224.26901569 377.36462425 223.49195271 376.59223412 222.69134235 375.79643822 C217.08883358 370.16393909 211.41232893 364.28587968 208.00747395 357.04161644 C204.45033564 349.39160927 204.45033564 349.39160927 198.10052967 344.24127769 C192.48953226 342.86717976 186.77808422 343.25345087 181.05389118 343.49638939 C179.21694241 343.51398012 177.3799055 343.52388248 175.54287434 343.52647972 C170.7312238 343.5511108 165.92644293 343.66775717 161.1169405 343.80797386 C153.4021302 344.01497022 145.68429812 344.07129911 137.967309 344.14568901 C135.27619275 344.18340169 132.58765374 344.25455403 129.89742756 344.33226585 C128.25183586 344.36490164 126.60623679 344.39716863 124.96062946 344.42900658 C124.21460972 344.45917366 123.46858997 344.48934074 122.69996357 344.52042198 C119.26134843 344.56635725 117.39603213 344.39265239 114.58266926 342.33751488 C112.33760968 339.1224394 112.49959028 336.96243318 113.04607868 333.13701439 C114.60717487 330.95238304 114.60717487 330.95238304 117.04607868 329.13701439 C119.69008755 328.73393044 121.9251709 328.57227153 124.56853962 328.59111595 C125.32014866 328.58077827 126.0717577 328.5704406 126.84614277 328.55978966 C129.32446476 328.53034885 131.80197053 328.52886228 134.28045368 328.52763939 C136.00111163 328.51265853 137.72175519 328.49593158 139.44237995 328.47752953 C143.96659726 328.43383289 148.49062059 328.41385188 153.01501179 328.39879417 C157.63355713 328.37923137 162.25189272 328.33726045 166.87029743 328.29717064 C175.92882652 328.22184356 184.98730873 328.17156726 194.04607868 328.13701439 C193.57163113 325.4902535 193.0917654 322.84468075 192.60857868 320.19951439 C192.47387165 319.4447683 192.33916462 318.6900222 192.20037556 317.91240501 C191.80335834 314.21748265 191.80335834 314.21748265 190.04607868 311.13701439 C187.86421059 311.02876107 185.67884302 310.99070619 183.49432087 310.97929955 C182.8097028 310.97421883 182.12508472 310.96913811 181.41972065 310.96390343 C179.92791506 310.95317731 178.43609315 310.94456598 176.94426441 310.93778419 C174.58197776 310.92602224 172.21987619 310.90657504 169.85766315 310.88466454 C163.13944393 310.8229689 156.42124099 310.76904972 149.70281696 310.7356472 C145.59718659 310.71468236 141.49188894 310.67935945 137.38644886 310.6348896 C135.82203055 310.62073762 134.25755332 310.61200896 132.69307423 310.60883522 C130.5001682 310.60391747 128.30814149 310.58073721 126.11541462 310.5535183 C124.86822651 310.54543144 123.6210384 310.53734459 122.33605671 310.52901268 C118.7841249 310.1058028 116.88346271 309.27638316 114.04607868 307.13701439 C112.64150131 304.32785965 112.79712711 302.24890905 113.04607868 299.13701439 C114.11585712 296.97582054 114.11585712 296.97582054 116.04607868 295.13701439 C119.2161684 294.61803246 119.2161684 294.61803246 123.1796236 294.59111595 C123.9018259 294.58077827 124.62402821 294.5704406 125.36811543 294.55978966 C127.75448533 294.53029918 130.14000942 294.52886125 132.52654743 294.52763939 C134.18137454 294.51266185 135.83618667 294.4959356 137.49097919 294.47752953 C141.84588007 294.43379542 146.20057931 294.41384366 150.5556612 294.39879417 C154.99985426 294.37924479 159.44382884 294.33727243 163.88787556 294.29717064 C172.60721953 294.22180296 181.32647786 294.17155143 190.04607868 294.13701439 C190.23726276 292.92392601 190.42844685 291.71083763 190.62542439 290.460989 C190.88648526 288.84123824 191.14781125 287.2215302 191.40935993 285.60185814 C191.53411701 284.80566063 191.65887409 284.00946312 191.78741169 283.18913841 C192.77575572 277.11788221 194.28957757 271.46787719 196.27654743 265.64092064 C197.19296442 263.09565812 197.19296442 263.09565812 197.04607868 260.13701439 C196.05271503 260.13336876 195.05935139 260.12972313 194.03588581 260.12596703 C184.67746804 260.08903668 175.31937993 260.03128569 165.96121311 259.95311165 C161.14996946 259.91359083 156.33891009 259.88142502 151.52752399 259.8660183 C146.88482149 259.85088193 142.24262547 259.8164905 137.6001482 259.76870537 C135.82836781 259.7538603 134.05651512 259.74597159 132.28467274 259.74513054 C129.80387499 259.74276845 127.32448564 259.71575208 124.84393024 259.68291283 C123.74341328 259.69045837 123.74341328 259.69045837 122.62066364 259.69815636 C119.23017463 259.62864695 117.34299807 259.35496187 114.57824421 257.32555199 C112.38930991 254.19888915 112.70714507 251.86528415 113.04607868 248.13701439 C113.37607868 247.14701439 113.70607868 246.15701439 114.04607868 245.13701439 C118.05543871 243.63789354 122.32447959 244.04586952 126.54314899 244.10625267 C128.31660339 244.12235345 130.09006148 244.13805117 131.86352253 244.15340233 C133.27100128 244.16770979 133.27100128 244.16770979 134.70691395 244.18230629 C140.72864727 244.23395264 146.75066463 244.22808193 152.77258396 244.23366547 C158.06148363 244.2418839 163.34891201 244.26969976 168.63738728 244.33916283 C173.75846487 244.40530179 178.87719618 244.41763243 183.99861622 244.39390755 C185.94587012 244.39451685 187.89322173 244.41454421 189.84006214 244.45467567 C200.5432234 245.02694656 200.5432234 245.02694656 209.89068317 240.81468773 C211.93376527 238.01113629 213.4497121 235.21022208 215.04607868 232.13701439 C216.63430249 230.05446836 218.31924162 228.10967845 220.04607868 226.13701439 C218.1426067 226.12155319 218.1426067 226.12155319 216.20068073 226.10577965 C204.25236816 226.00810067 192.3041083 225.90537174 180.35588169 225.79767513 C174.21291876 225.74246783 168.06995105 225.68905123 161.92693806 225.63969994 C156.0006337 225.59202418 150.07438742 225.53968004 144.14815235 225.48407364 C141.88511059 225.46366468 139.62205291 225.44494918 137.35898304 225.42794037 C134.19375058 225.40386423 131.02862779 225.3738138 127.86346149 225.34233665 C126.92406727 225.33658119 125.98467304 225.33082573 125.01681232 225.32489586 C124.15306995 225.31510704 123.28932758 225.30531822 122.3994112 225.29523277 C121.6509153 225.28878022 120.9024194 225.28232767 120.1312418 225.27567959 C117.93788429 225.12981937 116.10682517 224.91693629 114.04607868 224.13701439 C112.84853051 220.54436987 112.7151291 217.90983965 113.04607868 214.13701439 C115.04087934 211.55790813 116.23847371 210.30063978 119.46974564 209.64596558 C120.83263891 209.65212419 120.83263891 209.65212419 122.22306538 209.65840721 C123.26996037 209.65316536 124.31685535 209.64792351 125.39547443 209.64252281 C127.11055698 209.66420776 127.11055698 209.66420776 128.86028767 209.6863308 C130.06893986 209.68563087 131.27759205 209.68493095 132.52287006 209.68420982 C135.15112473 209.68492789 137.77826037 209.69277763 140.40633678 209.71228981 C144.5731505 209.74224064 148.73955496 209.739591 152.9064455 209.73158836 C163.26362007 209.71650067 173.62068139 209.7380479 183.97778034 209.77940941 C192.01447985 209.81146412 200.05070047 209.83048302 208.08745724 209.80789697 C212.21728962 209.79771728 216.34578581 209.81472117 220.47543895 209.85303712 C223.67277167 209.87492705 226.86995617 209.8574665 230.06731892 209.84648705 C231.75507435 209.87424469 231.75507435 209.87424469 233.47692585 209.9025631 C242.17975396 209.81424623 248.38674809 207.0710287 256.04607868 203.13701439 C279.44184135 193.77775149 306.88247822 193.66288979 330.35076618 202.76982689 C333.85832636 204.31051011 333.85832636 204.31051011 337.04607868 204.13701439 C337.04607868 161.23701439 337.04607868 118.33701439 337.04607868 74.13701439 C321.20607868 73.80701439 305.36607868 73.47701439 289.04607868 73.13701439 C282.96379944 69.48764684 282.96379944 69.48764684 281.04607868 66.13701439 C280.64735126 63.79576683 280.64735126 63.79576683 280.61370564 61.18486595 C280.59391148 60.20415123 280.57411732 59.22343651 280.55372334 58.21300316 C280.54413845 56.63624809 280.54413845 56.63624809 280.53435993 55.02763939 C280.50743313 53.40471977 280.50743313 53.40471977 280.47996235 51.7490139 C280.42580232 48.29505365 280.39194465 44.84123204 280.35857868 41.38701439 C280.32541072 39.04454716 280.29092155 36.70209823 280.25506306 34.35967064 C280.17007257 28.61890955 280.1017467 22.87813064 280.04607868 17.13701439 C244.39275674 17.1141492 208.73943609 17.09651677 173.08610833 17.08594906 C168.88144023 17.08469828 164.67677215 17.08340397 160.47210407 17.08208275 C159.63499425 17.08182044 158.79788442 17.08155813 157.93540763 17.08128787 C144.36284193 17.07693093 130.79028044 17.06904325 117.21771724 17.05986159 C103.30160996 17.05052571 89.3855049 17.04495892 75.46939462 17.04292589 C66.87534846 17.04155053 58.28131421 17.03719921 49.68727171 17.02909792 C43.80219264 17.02383127 37.91711977 17.02220991 32.03203852 17.02351301 C28.631484 17.02415652 25.23095036 17.02313745 21.83039951 17.01780891 C18.1523213 17.01287924 14.47429527 17.01401341 10.79621601 17.01675987 C9.70966333 17.01384703 8.62311065 17.01093419 7.50363213 17.00793308 C6.52629032 17.00992413 5.54894851 17.01191518 4.54199028 17.01396656 C3.69179646 17.01358684 2.84160264 17.01320712 1.96564537 17.01281589 C0.03756436 16.92553669 0.03756436 16.92553669 -0.95392132 18.13701439 Z M297.04607868 30.13701439 C297.04607868 39.04701439 297.04607868 47.95701439 297.04607868 57.13701439 C305.95607868 57.13701439 314.86607868 57.13701439 324.04607868 57.13701439 C320.44053755 52.93054973 317.00317865 48.96677566 313.12029743 45.07842064 C312.24180134 44.19863548 311.36330524 43.31885033 310.45818806 42.41240501 C309.55906696 41.51715111 308.65994587 40.6218972 307.73357868 39.69951439 C306.81512165 38.77719017 305.89666462 37.85486595 304.95037556 36.90459251 C304.07832478 36.0338308 303.20627399 35.16306908 302.30779743 34.26592064 C301.5133321 33.47258324 300.71886677 32.67924583 299.90032673 31.8618679 C298.34612335 30.02349807 298.34612335 30.02349807 297.04607868 30.13701439 Z M231.42889118 238.69560814 C213.75284652 257.20441478 206.53015802 279.68474946 206.83123493 304.79326439 C207.49329832 328.15053168 219.22990469 349.0911202 235.72185993 365.05107689 C252.72537353 380.31137312 274.57140507 387.56946317 297.20232868 387.35185814 C321.10433525 386.015872 342.44307345 375.61868344 359.04217243 358.44951439 C376.20711502 338.64123757 382.41336679 314.93416353 381.04607868 289.13701439 C378.72578385 266.46352931 365.87375834 246.28130655 349.06170368 231.48857689 C313.09713563 203.4436676 263.69672324 207.15019023 231.42889118 238.69560814 Z M372.04607868 368.13701439 C370.56107868 370.61201439 370.56107868 370.61201439 369.04607868 373.13701439 C374.32607868 378.41701439 379.60607868 383.69701439 385.04607868 389.13701439 C386.69607868 387.48701439 388.34607868 385.83701439 390.04607868 384.13701439 C385.26431055 378.22272223 380.01577107 372.87196824 374.04607868 368.13701439 C373.38607868 368.13701439 372.72607868 368.13701439 372.04607868 368.13701439 Z M407.16668415 390.78935814 C406.42305622 391.5434597 405.67942829 392.29756126 404.91326618 393.07451439 C404.10760212 393.88662376 403.30193806 394.69873314 402.47185993 395.53545189 C401.63010212 396.39396751 400.78834431 397.25248314 399.92107868 398.13701439 C399.07158649 398.99553001 398.22209431 399.85404564 397.34685993 400.73857689 C395.24207917 402.86700687 393.14209035 404.99995398 391.04607868 407.13701439 C392.75249717 410.77957999 394.78926067 413.11676758 397.67107868 415.94951439 C398.48834431 416.7603347 399.30560993 417.57115501 400.14764118 418.40654564 C402.25307175 420.38996338 404.36623022 422.27001784 406.56560993 424.14092064 C410.2991318 427.38288853 413.79199149 430.82087754 417.26873493 434.33232689 C417.8224477 434.89153328 418.37616047 435.45073967 418.94665241 436.02689171 C421.25142341 438.35935614 423.55256893 440.69531964 425.8490572 443.03594017 C427.54694065 444.76424992 429.25118076 446.48609496 430.95623493 448.20732689 C431.46372776 448.72827934 431.97122059 449.2492318 432.49409199 449.78597069 C436.07097688 453.38731061 439.85251827 456.27435227 444.04607868 459.13701439 C446.6793009 456.56195032 449.30114827 453.97559521 451.92107868 451.38701439 C452.66744587 450.65740501 453.41381306 449.92779564 454.18279743 449.17607689 C454.89822712 448.46709251 455.61365681 447.75810814 456.35076618 447.02763939 C457.01060505 446.37827415 457.67044392 445.72890892 458.3502779 445.05986595 C460.0186858 443.16807491 461.03901115 441.43760423 462.04607868 439.13701439 C458.49308496 435.55906987 454.93664217 431.98460053 451.37713337 428.41313744 C450.16982803 427.20084191 448.96342634 425.98764569 447.75799274 424.773489 C441.9542153 418.92880599 436.18884018 413.12492406 429.91033649 407.78520775 C425.32428106 403.73066869 421.14015222 399.22384255 416.87420368 394.83818626 C415.78752399 393.73507103 415.78752399 393.73507103 414.67889118 392.60967064 C414.02807575 391.94201683 413.37726032 391.27436302 412.70672321 390.58647728 C410.27064028 388.46018731 409.57260922 388.67409432 407.16668415 390.78935814 Z " fill="#FFFFFF" transform="translate(24.9539213180542,17.862985610961914)"/>
<path d="M0 0 C18.20926603 15.09015932 29.95667964 36.69457542 32.34912109 60.2824707 C34.3317252 84.05054666 28.75874612 107.18348745 14.06396484 126.2746582 C12.69315422 127.87970443 11.29593308 129.46247862 9.87646484 131.0246582 C9.06564453 131.92829102 8.25482422 132.83192383 7.41943359 133.76293945 C-8.11309609 150.20513412 -30.34663 161.08750468 -53.12353516 162.0246582 C-54.01943359 162.06461914 -54.91533203 162.10458008 -55.83837891 162.14575195 C-80.71964003 162.70157513 -103.88634786 153.94150615 -122.12353516 137.0246582 C-139.28428153 120.27310995 -149.95960359 97.58834915 -150.36499023 73.46655273 C-150.46246214 46.32480551 -140.98957383 23.52595588 -122.18603516 3.7746582 C-88.63369847 -28.53013563 -35.49601775 -28.44446667 0 0 Z M-105.12353516 12.0246582 C-105.79126953 12.51836914 -106.45900391 13.01208008 -107.14697266 13.52075195 C-121.7310149 25.1681884 -130.77620596 43.70111908 -133.12353516 62.0246582 C-134.36058056 83.69674214 -129.05140799 102.88899841 -114.81689453 119.55444336 C-101.91191921 133.96625877 -83.62288888 143.8059486 -64.12353516 145.0246582 C-63.33978516 145.07750977 -62.55603516 145.13036133 -61.74853516 145.18481445 C-41.97418985 145.86161496 -24.0056008 138.78708931 -9.12353516 126.0246582 C-8.39779297 125.41106445 -7.67205078 124.7974707 -6.92431641 124.1652832 C6.78186277 111.5631381 14.92688277 92.45059114 15.87646484 74.0246582 C16.01776399 53.67758075 9.54698416 35.23242468 -4.12353516 20.0246582 C-4.64173828 19.41364258 -5.15994141 18.80262695 -5.69384766 18.1730957 C-18.26095722 4.34296006 -37.49507128 -2.80826217 -55.69775391 -4.26049805 C-73.99857767 -4.73185185 -90.53703083 1.20310706 -105.12353516 12.0246582 Z " fill="#FFFFFF" transform="translate(252.12353515625,58.975341796875)"/>
<path d="M0 0 C0.76957031 0.67675781 1.53914062 1.35351562 2.33203125 2.05078125 C15.88982493 14.68470483 24.33546609 33.433975 25.3203125 51.89453125 C26.01588901 73.65441591 20.89012825 92.59378596 6 109 C5.24976563 109.84304688 4.49953125 110.68609375 3.7265625 111.5546875 C-10.20969085 126.39296372 -28.57281187 133.68798169 -48.5703125 135.28515625 C-68.63502458 135.81076944 -86.46437998 129.62106484 -102 117 C-102.83273437 116.36707031 -103.66546875 115.73414063 -104.5234375 115.08203125 C-118.88204521 103.01083581 -127.59276441 83.99640811 -129.22070312 65.49121094 C-130.23532882 43.48759089 -125.13170217 22.65786097 -110 6 C-109.35804688 5.26652344 -108.71609375 4.53304688 -108.0546875 3.77734375 C-96.72026253 -8.41448237 -81.4102494 -16.31636899 -65 -19 C-64.35546875 -19.12246094 -63.7109375 -19.24492187 -63.046875 -19.37109375 C-40.35862626 -22.8782467 -16.85394955 -15.25153669 0 0 Z M-98 18 C-109.12375027 31.79743703 -113.55909915 47.16393906 -112.23925781 64.78271484 C-110.48312702 81.05738818 -101.6055738 94.66833614 -89.4375 105.22265625 C-77.07313706 114.83738615 -61.60461415 119.44521045 -46 118 C-28.71550559 115.08138467 -12.97244072 107.34006789 -2.61328125 92.7890625 C6.93017782 77.93584154 9.87712169 62.95115015 7.5390625 45.57421875 C3.92767576 29.53541295 -5.43573458 16.45622313 -18.76171875 7.0078125 C-44.64184415 -9.03848962 -77.70706484 -5.15517166 -98 18 Z " fill="#FFFFFF" transform="translate(371,260)"/>
<path d="M0 0 C3.71468292 2.75442475 6.24436889 5.84248168 7.72265625 10.27734375 C7.81249348 11.67366787 7.84755411 13.07393368 7.84667969 14.47314453 C7.84742493 15.32246552 7.84817017 16.1717865 7.84893799 17.04684448 C7.84335876 17.97111237 7.83777954 18.89538025 7.83203125 19.84765625 C7.82854675 20.81824982 7.82506226 21.78884338 7.82147217 22.78884888 C7.75622379 33.48437519 7.47777427 44.17161871 7.08789062 54.85986328 C7.01019978 57.07964888 6.94071496 59.29973494 6.87890625 61.52001953 C6.78748775 64.7915638 6.67185151 68.06146595 6.55078125 71.33203125 C6.52767883 72.31541473 6.50457642 73.29879822 6.48077393 74.3119812 C6.15621954 81.90265512 4.37834663 87.78207936 -1.02734375 93.27734375 C-2.14109375 94.26734375 -2.14109375 94.26734375 -3.27734375 95.27734375 C-2.20484375 95.93734375 -1.13234375 96.59734375 -0.02734375 97.27734375 C4.12178479 100.29871727 6.33408846 103.31933993 7.72265625 108.27734375 C8.71953787 115.26491966 8.41435088 120.89002775 4.140625 126.66015625 C0.18837242 131.16768399 -3.34808851 133.20813379 -9.27734375 134.27734375 C-15.66102231 134.36853916 -20.31231928 133.5495741 -25.27734375 129.27734375 C-29.90446046 124.43990355 -31.97364787 120.5572593 -32.58984375 113.90234375 C-31.96273931 106.6279322 -30.10597142 102.69502361 -24.58984375 97.77734375 C-23.16480256 96.59549141 -21.73129867 95.42343819 -20.27734375 94.27734375 C-20.75945312 93.90222656 -21.2415625 93.52710938 -21.73828125 93.140625 C-22.36992187 92.62886719 -23.0015625 92.11710937 -23.65234375 91.58984375 C-24.27882812 91.09097656 -24.9053125 90.59210938 -25.55078125 90.078125 C-28.92450148 86.5593806 -29.54325346 82.48148297 -29.8671875 77.75390625 C-29.94050293 76.69719727 -30.01381836 75.64048828 -30.08935547 74.55175781 C-30.68750994 64.13299443 -31.0291706 53.70999839 -31.27734375 43.27734375 C-31.30405151 42.17981781 -31.30405151 42.17981781 -31.33129883 41.06011963 C-31.43941343 36.44908144 -31.51776905 31.83870891 -31.56344604 27.22662354 C-31.58090887 25.73039281 -31.60515469 24.23422439 -31.63650513 22.73822021 C-31.93053428 8.00370254 -31.93053428 8.00370254 -27.27734375 2.27734375 C-19.43917077 -3.92787652 -8.82652755 -5.09292452 0 0 Z M-14.27734375 14.27734375 C-14.38504102 28.70546401 -14.34716277 43.10677654 -13.83984375 57.52734375 C-13.80060791 58.68524414 -13.76137207 59.84314453 -13.72094727 61.03613281 C-13.49852986 66.84033048 -13.11165732 72.52829225 -12.27734375 78.27734375 C-11.94734375 78.27734375 -11.61734375 78.27734375 -11.27734375 78.27734375 C-10.987228 72.05605835 -10.70267358 65.83454988 -10.42285156 59.61279297 C-10.32730395 57.50465348 -10.23034385 55.39657745 -10.13183594 53.28857422 C-9.52479572 40.27437533 -9.12907825 27.30617445 -9.27734375 14.27734375 C-10.92734375 14.27734375 -12.57734375 14.27734375 -14.27734375 14.27734375 Z M-14.27734375 111.27734375 C-14.60734375 112.26734375 -14.93734375 113.25734375 -15.27734375 114.27734375 C-14.28734375 115.26734375 -13.29734375 116.25734375 -12.27734375 117.27734375 C-11.28734375 116.61734375 -10.29734375 115.95734375 -9.27734375 115.27734375 C-9.60734375 113.95734375 -9.93734375 112.63734375 -10.27734375 111.27734375 C-11.59734375 111.27734375 -12.91734375 111.27734375 -14.27734375 111.27734375 Z " fill="#FFFFFF" transform="translate(205.27734375,63.72265625)"/>
<path d="M0 0 C0.75690705 -0.00709439 1.5138141 -0.01418877 2.29365772 -0.02149814 C4.82592441 -0.03907838 7.35665617 -0.02097462 9.88890076 -0.00291443 C11.70579222 -0.00805322 13.52267871 -0.0153342 15.33955383 -0.02459717 C20.27137473 -0.04312318 25.20265554 -0.03016553 30.13445401 -0.01050687 C35.29357113 0.0058685 40.45265374 -0.0029316 45.61178589 -0.00802612 C54.27472064 -0.01254791 62.93743952 0.00332911 71.60032654 0.03126526 C81.6200805 0.06332761 91.63944533 0.06329777 101.65922695 0.04605049 C111.29414797 0.03019572 120.92892612 0.03691155 130.56384087 0.0539875 C134.66626214 0.06086543 138.76856915 0.05981797 142.87098885 0.05244255 C147.69986494 0.04479038 152.52829726 0.05687084 157.35709763 0.08429146 C159.13083389 0.09118723 160.90461151 0.09126053 162.67834663 0.08407593 C165.09660913 0.07540816 167.51349357 0.09129017 169.93164062 0.11352539 C170.6364041 0.10528462 171.34116757 0.09704386 172.0672875 0.08855337 C175.45136357 0.14613185 177.13858773 0.42169661 179.83824062 2.53535557 C182.00638438 5.43644828 181.91300293 7.22480784 181.73045349 10.72584534 C181.2734488 13.37538443 180.36550976 14.81042865 178.40232849 16.62818909 C174.91256231 17.79144448 171.78850852 17.76996945 168.15905762 17.76190186 C167.41611008 17.76416741 166.67316254 17.76643297 165.90770143 17.76876718 C163.41118449 17.77511159 160.91472176 17.77427753 158.41819763 17.77345276 C156.63116383 17.77644395 154.84413068 17.77984639 153.05709839 17.78363037 C148.19765486 17.79247809 143.33822893 17.79480879 138.47877812 17.79544616 C134.42543235 17.79639466 130.3720907 17.80007224 126.31874651 17.80361825 C116.75814477 17.81176557 107.19755244 17.81420222 97.63694763 17.81349182 C87.76615884 17.81289078 77.89542465 17.82344719 68.02464968 17.83923548 C59.5566536 17.85229867 51.08867539 17.85767624 42.62066931 17.85703641 C37.56016366 17.85678109 32.49970653 17.85965133 27.43921089 17.87021446 C22.68109058 17.87987504 17.92306539 17.87998869 13.16494179 17.87269783 C11.41699332 17.87164948 9.669039 17.87402967 7.92110062 17.88005829 C5.53814856 17.88774583 3.15552765 17.88315506 0.77258301 17.87542725 C0.07812814 17.88057081 -0.61632672 17.88571437 -1.33182567 17.8910138 C-4.90727672 17.86532567 -7.62975458 17.71820679 -10.59767151 15.62818909 C-13.09798805 11.87771427 -13.13370705 10.06962643 -12.59767151 5.62818909 C-8.90132009 0.78859856 -5.84678259 -0.09850207 0 0 Z " fill="#FFFFFF" transform="translate(149.59767150878906,430.37181091308594)"/>
<path d="M0 0 C0.92453476 -0.00960754 1.84906952 -0.01921509 2.80162048 -0.02911377 C3.7933577 -0.03336365 4.78509491 -0.03761353 5.80688477 -0.04199219 C6.83258072 -0.04769226 7.85827667 -0.05339233 8.91505432 -0.05926514 C11.08284476 -0.06870362 13.25064948 -0.07524454 15.41845703 -0.07910156 C18.7324317 -0.08882068 22.0457896 -0.11986082 25.35961914 -0.15136719 C27.46703734 -0.15789626 29.57445996 -0.16314711 31.68188477 -0.16699219 C33.16645424 -0.18551239 33.16645424 -0.18551239 34.68101501 -0.20440674 C41.04903704 -0.18380597 44.68020743 0.53054923 49.31079102 5.16113281 C49.57821655 7.3868103 49.57821655 7.3868103 49.60131836 10.18994141 C49.61407806 11.23797943 49.62683777 12.28601746 49.63998413 13.36581421 C49.64220978 14.50225372 49.64443542 15.63869324 49.64672852 16.80957031 C49.65338531 17.9736441 49.66004211 19.1377179 49.66690063 20.33706665 C49.67704144 22.80347103 49.68171722 25.26990292 49.68139648 27.73632812 C49.68576519 31.51380609 49.72205963 35.2901121 49.76000977 39.06738281 C49.76587841 41.46060797 49.76984748 43.8538387 49.77172852 46.24707031 C49.78609955 47.37946136 49.80047058 48.51185242 49.8152771 49.67855835 C49.80912384 50.7329007 49.80297058 51.78724304 49.79663086 52.87353516 C49.7994809 53.80015961 49.80233093 54.72678406 49.80526733 55.68148804 C49.15111921 58.9618372 47.92078682 60.12450141 45.31079102 62.16113281 C42.45473201 63.23931868 39.74874424 63.29181014 36.71337891 63.30639648 C35.8088649 63.31277634 34.90435089 63.31915619 33.97242737 63.32572937 C33.00256393 63.32684219 32.0327005 63.32795502 31.03344727 63.32910156 C30.02994736 63.33242996 29.02644745 63.33575836 27.99253845 63.33918762 C25.87182066 63.34424649 23.75109492 63.34659627 21.63037109 63.34643555 C18.38894529 63.34862225 15.14785976 63.36678971 11.90649414 63.38574219 C9.84464634 63.38867628 7.78279693 63.39066097 5.72094727 63.39160156 C4.75310806 63.39878708 3.78526886 63.4059726 2.7881012 63.41337585 C-6.02566124 63.38350068 -6.02566124 63.38350068 -9.68920898 61.16113281 C-12.44115943 58.13580112 -13.06839866 56.16367203 -13.09326172 52.10473633 C-13.10594589 51.10011856 -13.11863007 50.09550079 -13.13169861 49.06044006 C-13.12876297 47.98120773 -13.12582733 46.9019754 -13.12280273 45.79003906 C-13.12804459 44.67555893 -13.13328644 43.5610788 -13.13868713 42.41282654 C-13.14510845 40.05672031 -13.14376896 37.70058202 -13.13525391 35.34448242 C-13.12674871 31.74046688 -13.15549838 28.13803845 -13.18725586 24.53417969 C-13.18886807 22.24446662 -13.18828996 19.95475075 -13.18530273 17.66503906 C-13.19653671 16.58783096 -13.20777069 15.51062286 -13.21934509 14.40077209 C-13.17741168 9.89598043 -13.15015989 6.97808061 -10.90820312 3.00463867 C-7.48584836 0.1613995 -4.34936163 0.03661893 0 0 Z M4.31079102 17.16113281 C4.31079102 26.73113281 4.31079102 36.30113281 4.31079102 46.16113281 C13.55079102 46.16113281 22.79079102 46.16113281 32.31079102 46.16113281 C32.31079102 36.59113281 32.31079102 27.02113281 32.31079102 17.16113281 C23.07079102 17.16113281 13.83079102 17.16113281 4.31079102 17.16113281 Z " fill="#FFFFFF" transform="translate(67.689208984375,220.8388671875)"/>
<path d="M0 0 C1.50692665 -0.02398109 1.50692665 -0.02398109 3.04429626 -0.04844666 C4.12352859 -0.05380936 5.20276093 -0.05917206 6.31469727 -0.06469727 C7.98641747 -0.07823997 7.98641747 -0.07823997 9.69190979 -0.09205627 C12.04799716 -0.10655822 14.4041248 -0.11544537 16.76025391 -0.11914062 C20.36437694 -0.13104825 23.96679432 -0.18024692 27.57055664 -0.23071289 C29.86026183 -0.24017585 32.14997753 -0.24741149 34.43969727 -0.25219727 C36.05550941 -0.28149574 36.05550941 -0.28149574 37.70396423 -0.31138611 C42.22792482 -0.2841027 45.1431969 -0.14814099 49.12109375 2.11083984 C51.89819606 6.9801623 51.6586136 11.47716033 51.60766602 16.99389648 C51.61244965 18.12915771 51.61723328 19.26441895 51.62216187 20.43408203 C51.62556024 22.83131294 51.61636242 25.22859024 51.59545898 27.62573242 C51.5686956 31.29377643 51.5952122 34.95876009 51.62719727 38.62670898 C51.62389316 40.9574449 51.61748692 43.28817892 51.60766602 45.61889648 C51.61778717 46.71484131 51.62790833 47.81078613 51.63833618 48.93994141 C51.56824247 53.49652565 51.40439012 56.4929144 49.13476562 60.49975586 C44.25252119 63.26378377 39.74029895 62.98247996 34.22094727 62.90014648 C33.08331436 62.90018677 31.94568146 62.90022705 30.77357483 62.90026855 C28.37210557 62.89491386 25.97063673 62.87733357 23.56933594 62.84838867 C19.89081381 62.80650704 16.2141209 62.80732322 12.53540039 62.81420898 C10.20140328 62.80371744 7.86741561 62.79077954 5.53344727 62.77514648 C3.8817881 62.77484436 3.8817881 62.77484436 2.19676208 62.77453613 C1.17212357 62.75862427 0.14748505 62.7427124 -0.90820312 62.72631836 C-1.80801407 62.71789917 -2.70782501 62.70947998 -3.63490295 62.70080566 C-6.55763408 62.22475567 -7.92604435 61.3394756 -10.05639648 59.30639648 C-11.03107929 56.38234806 -11.18830975 54.48484442 -11.20166016 51.43945312 C-11.20804001 50.45155289 -11.21441986 49.46365265 -11.22099304 48.44581604 C-11.22210587 47.38015915 -11.22321869 46.31450226 -11.22436523 45.21655273 C-11.22769363 44.12048203 -11.23102203 43.02441132 -11.23445129 41.89512634 C-11.2395163 39.57592183 -11.24185975 37.25671003 -11.24169922 34.9375 C-11.24388564 31.38651549 -11.2620459 27.83584163 -11.28100586 24.28491211 C-11.28393985 22.03296005 -11.28592461 19.78100651 -11.28686523 17.52905273 C-11.29405075 16.46542007 -11.30123627 15.40178741 -11.30863953 14.30592346 C-11.3055629 13.31487106 -11.30248627 12.32381866 -11.29931641 11.30273438 C-11.30074142 10.43242081 -11.30216644 9.56210724 -11.30363464 8.66542053 C-11.02764513 6.03206532 -10.54679599 4.49432321 -9.05639648 2.30639648 C-6.07134899 0.27533142 -3.55988992 0.04294166 0 0 Z M5.94360352 17.30639648 C5.94360352 26.54639648 5.94360352 35.78639648 5.94360352 45.30639648 C15.18360352 45.30639648 24.42360352 45.30639648 33.94360352 45.30639648 C33.94360352 36.06639648 33.94360352 26.82639648 33.94360352 17.30639648 C24.70360352 17.30639648 15.46360352 17.30639648 5.94360352 17.30639648 Z " fill="#FFFFFF" transform="translate(66.056396484375,390.693603515625)"/>
<path d="M0 0 C1.47712212 -0.01441132 1.47712212 -0.01441132 2.98408508 -0.02911377 C4.0517662 -0.03336365 5.11944733 -0.03761353 6.21948242 -0.04199219 C7.31459641 -0.04769226 8.40971039 -0.05339233 9.53800964 -0.05926514 C11.85898876 -0.06872432 14.17998136 -0.07525275 16.50097656 -0.07910156 C20.04996238 -0.08879891 23.5983672 -0.1198109 27.1472168 -0.15136719 C29.40046856 -0.15789792 31.65372447 -0.16314811 33.90698242 -0.16699219 C35.49939507 -0.18551239 35.49939507 -0.18551239 37.12397766 -0.20440674 C46.40846614 -0.17638065 46.40846614 -0.17638065 50.26245117 3.16113281 C51.51235983 5.66095014 51.40968254 7.39248112 51.43945312 10.18994141 C51.45870598 11.76199844 51.45870598 11.76199844 51.47834778 13.36581421 C51.48573471 14.50225372 51.49312164 15.63869324 51.50073242 16.80957031 C51.50880417 17.9736441 51.51687592 19.1377179 51.52519226 20.33706665 C51.53904035 22.80347195 51.54975925 25.26989647 51.55761719 27.73632812 C51.5748489 31.51371378 51.61873229 35.29022875 51.6628418 39.06738281 C51.6729667 41.46060553 51.68148343 43.8538357 51.68823242 46.24707031 C51.70574051 47.37946136 51.7232486 48.51185242 51.74128723 49.67855835 C51.73836166 50.7329007 51.7354361 51.78724304 51.73242188 52.87353516 C51.73828812 53.80015961 51.74415436 54.72678406 51.75019836 55.68148804 C51.09696088 59.00246444 49.9620148 60.16081012 47.26245117 62.16113281 C44.80299377 62.67579651 44.80299377 62.67579651 42.02246094 62.69458008 C40.97780167 62.71041641 39.9331424 62.72625275 38.85682678 62.74256897 C37.73384689 62.7376091 36.610867 62.73264923 35.45385742 62.72753906 C34.2949852 62.73373764 33.13611298 62.73993622 31.94212341 62.74632263 C29.49186036 62.75342514 27.04154908 62.75023938 24.59130859 62.73754883 C20.84211339 62.72369622 17.09541941 62.75773646 13.34643555 62.79589844 C10.96557556 62.79684974 8.58471245 62.79499024 6.20385742 62.79003906 C5.08290176 62.80329727 3.96194611 62.81655548 2.80702209 62.83021545 C-1.8186033 62.77488729 -4.88003491 62.64844565 -8.94458008 60.33862305 C-11.65995319 55.52645242 -11.43359201 51.13126461 -11.36645508 45.69238281 C-11.36886703 44.57931763 -11.37127899 43.46625244 -11.37376404 42.31945801 C-11.37278579 39.96928337 -11.35939784 37.61908563 -11.33447266 35.26904297 C-11.30016856 31.67368211 -11.31381588 28.08077965 -11.33325195 24.48535156 C-11.32635336 22.20018486 -11.31668086 19.91502449 -11.30395508 17.62988281 C-11.30891495 16.55581177 -11.31387482 15.48174072 -11.31898499 14.37512207 C-11.20157194 6.92728983 -11.20157194 6.92728983 -8.82714844 3.00683594 C-5.73565214 0.27617674 -4.0363029 0.03172462 0 0 Z M6.26245117 17.16113281 C6.26245117 26.40113281 6.26245117 35.64113281 6.26245117 45.16113281 C15.50245117 45.16113281 24.74245117 45.16113281 34.26245117 45.16113281 C34.26245117 35.92113281 34.26245117 26.68113281 34.26245117 17.16113281 C25.02245117 17.16113281 15.78245117 17.16113281 6.26245117 17.16113281 Z " fill="#FFFFFF" transform="translate(65.737548828125,305.8388671875)"/>
</svg>
