<svg xmlns="http://www.w3.org/2000/svg" width="52" height="42" viewBox="0 0 52 42" fill="none"><g clip-path="url(#clip0_6627_2848)"><path opacity="0.9763" d="M1.02465 40.3689C0.53475 40.3689 0.1311 40.0377 0 39.5892V38.9889C0.1311 38.5404 0.53475 38.2092 1.02465 38.2092C1.6146 38.2092 2.09415 38.6922 2.09415 39.289C2.09415 39.8859 1.6146 40.3689 1.02465 40.3689Z" fill="url(#paint0_linear_6627_2848)"></path><path opacity="0.6082" d="M8.3664 38.3755C8.86665 38.3755 9.2772 38.7861 9.2772 39.2932C9.2772 39.8004 8.86665 40.2109 8.3664 40.2109C7.8627 40.2109 7.45215 39.8004 7.45215 39.2932C7.4556 38.7861 7.8627 38.3755 8.3664 38.3755Z" fill="url(#paint1_linear_6627_2848)"></path><path opacity="0.9401" d="M15.7114 38.425C16.1875 38.425 16.5739 38.8149 16.5739 39.2944C16.5739 39.774 16.1875 40.1638 15.7114 40.1638C15.2318 40.1638 14.8489 39.774 14.8489 39.2944C14.8454 38.8149 15.2318 38.425 15.7114 38.425Z" fill="url(#paint2_linear_6627_2848)"></path><path opacity="0.8395" d="M23.0528 38.5457C23.4634 38.5457 23.798 38.8803 23.798 39.2943C23.798 39.7083 23.4634 40.043 23.0528 40.043C22.6423 40.043 22.3111 39.7083 22.3111 39.2943C22.3076 38.8803 22.6423 38.5457 23.0528 38.5457Z" fill="url(#paint3_linear_6627_2848)"></path><path opacity="0.8756" d="M30.3945 38.4979C30.8327 38.4979 31.1846 38.8567 31.1846 39.2948C31.1846 39.733 30.8292 40.0918 30.3945 40.0918C29.9564 40.0918 29.6045 39.733 29.6045 39.2948C29.6045 38.8567 29.9598 38.4979 30.3945 38.4979Z" fill="url(#paint4_linear_6627_2848)"></path><path opacity="0.6592" d="M37.7361 38.3078C38.2778 38.3078 38.7159 38.7494 38.7159 39.2945C38.7159 39.8396 38.2778 40.2812 37.7361 40.2812C37.1945 40.2812 36.7563 39.8396 36.7563 39.2945C36.7563 38.7494 37.1979 38.3078 37.7361 38.3078Z" fill="url(#paint5_linear_6627_2848)"></path><path opacity="0.999" d="M45.0812 38.1388C45.716 38.1388 46.23 38.6563 46.23 39.2911C46.23 39.9259 45.716 40.4434 45.0812 40.4434C44.4464 40.4434 43.9358 39.9259 43.9358 39.2911C43.9358 38.6563 44.4464 38.1388 45.0812 38.1388Z" fill="url(#paint6_linear_6627_2848)"></path><path opacity="0.5378" d="M52.4228 38.4531C52.8851 38.4531 53.2611 38.8292 53.2611 39.2949C53.2611 39.7607 52.8851 40.1367 52.4228 40.1367C51.9605 40.1367 51.5879 39.7607 51.5879 39.2949C51.5879 38.8292 51.9605 38.4531 52.4228 38.4531Z" fill="url(#paint7_linear_6627_2848)"></path><path opacity="0.9737" d="M1.02465 33.1389C0.5934 33.1389 0.2208 32.9181 0 32.58V31.2276C0.21735 30.893 0.5934 30.6687 1.02465 30.6687C1.70085 30.6687 2.2494 31.2207 2.2494 31.9004C2.2494 32.5835 1.70085 33.1389 1.02465 33.1389Z" fill="url(#paint8_linear_6627_2848)"></path><path opacity="0.6215" d="M8.36637 30.7749C8.98392 30.7749 9.48762 31.2786 9.48762 31.9031C9.48762 32.5275 8.98392 33.0312 8.36637 33.0312C7.74537 33.0312 7.24512 32.5241 7.24512 31.9031C7.24512 31.2821 7.74882 30.7749 8.36637 30.7749Z" fill="url(#paint9_linear_6627_2848)"></path><path opacity="0.7575" d="M15.7114 30.8003C16.3186 30.8003 16.8085 31.2971 16.8085 31.9043C16.8085 32.5149 16.3151 33.0117 15.7114 33.0117C15.1042 33.0117 14.6108 32.5149 14.6108 31.9043C14.6108 31.2936 15.1007 30.8003 15.7114 30.8003Z" fill="url(#paint10_linear_6627_2848)"></path><path opacity="0.5265" d="M23.0528 30.711C23.7083 30.711 24.243 31.2457 24.243 31.9047C24.243 32.5636 23.7117 33.1018 23.0528 33.1018C22.3973 33.1018 21.866 32.5671 21.866 31.9047C21.8625 31.2423 22.3973 30.711 23.0528 30.711Z" fill="url(#paint11_linear_6627_2848)"></path><path opacity="0.8859" d="M30.3943 30.76C31.0222 30.76 31.5328 31.2706 31.5328 31.9054C31.5328 32.5367 31.0257 33.0508 30.3943 33.0508C29.7664 33.0508 29.2593 32.5367 29.2593 31.9054C29.2593 31.274 29.7664 30.76 30.3943 30.76Z" fill="url(#paint12_linear_6627_2848)"></path><path opacity="0.6317" d="M37.7363 30.4838C38.5194 30.4838 39.1508 31.1221 39.1508 31.9052C39.1508 32.6918 38.516 33.3301 37.7363 33.3301C36.9566 33.3301 36.3218 32.6918 36.3218 31.9052C36.3252 31.1186 36.9566 30.4838 37.7363 30.4838Z" fill="url(#paint13_linear_6627_2848)"></path><path opacity="0.9979" d="M45.0812 31.0145C45.5711 31.0145 45.9679 31.4147 45.9679 31.9046C45.9679 32.3979 45.5711 32.7947 45.0812 32.7947C44.5913 32.7947 44.198 32.3945 44.198 31.9046C44.1946 31.4147 44.5913 31.0145 45.0812 31.0145Z" fill="url(#paint14_linear_6627_2848)"></path><path opacity="0.7712" d="M52.4227 31.0012C52.9195 31.0012 53.3231 31.4083 53.3231 31.9051C53.3231 32.4054 52.9195 32.8125 52.4227 32.8125C51.9259 32.8125 51.5222 32.4054 51.5222 31.9051C51.5257 31.4049 51.9259 31.0012 52.4227 31.0012Z" fill="url(#paint15_linear_6627_2848)"></path><path opacity="0.9816" d="M1.02465 25.7402C0.5934 25.7402 0.21735 25.5125 0 25.1744V23.8634C0.2139 23.5219 0.5934 23.2942 1.02465 23.2942C1.69395 23.2942 2.23905 23.8427 2.23905 24.5155C2.23905 25.1951 1.69395 25.7402 1.02465 25.7402Z" fill="url(#paint16_linear_6627_2848)"></path><path opacity="0.8568" d="M8.3662 22.7176C9.3529 22.7176 10.1533 23.5215 10.1533 24.5151C10.1533 25.5087 9.3529 26.3125 8.3662 26.3125C7.3795 26.3125 6.5791 25.5087 6.5791 24.5151C6.5791 23.5249 7.3795 22.7176 8.3662 22.7176Z" fill="url(#paint17_linear_6627_2848)"></path><path opacity="0.7086" d="M15.7114 22.9649C16.5601 22.9649 17.2501 23.6583 17.2501 24.5139C17.2501 25.373 16.5601 26.0664 15.7079 26.0664C14.8558 26.0664 14.1658 25.373 14.1658 24.5139C14.1658 23.6583 14.8592 22.9649 15.7114 22.9649Z" fill="url(#paint18_linear_6627_2848)"></path><path opacity="0.8365" d="M23.0528 23.1873C23.7807 23.1873 24.3741 23.7807 24.3741 24.5155C24.3741 25.2504 23.7842 25.8438 23.0528 25.8438C22.3248 25.8438 21.7349 25.2504 21.7349 24.5155C21.7314 23.7807 22.3248 23.1873 23.0528 23.1873Z" fill="url(#paint19_linear_6627_2848)"></path><path opacity="0.8687" d="M30.3945 23.2524C31.0879 23.2524 31.6503 23.8182 31.6503 24.5151C31.6503 25.2154 31.0879 25.7812 30.3945 25.7812C29.701 25.7812 29.1387 25.2154 29.1387 24.5151C29.1387 23.8182 29.701 23.2524 30.3945 23.2524Z" fill="url(#paint20_linear_6627_2848)"></path><path opacity="0.5265" d="M37.7361 23.4529C38.3192 23.4529 38.7918 23.929 38.7918 24.5155C38.7918 25.102 38.3192 25.5781 37.7361 25.5781C37.1531 25.5781 36.6804 25.102 36.6804 24.5155C36.6804 23.929 37.1531 23.4529 37.7361 23.4529Z" fill="url(#paint21_linear_6627_2848)"></path><path opacity="0.868" d="M45.0811 23.0793C45.8712 23.0793 46.5094 23.721 46.5094 24.5145C46.5094 25.308 45.8712 25.9531 45.0811 25.9531C44.2911 25.9531 43.6528 25.308 43.6528 24.5145C43.6528 23.721 44.2911 23.0793 45.0811 23.0793Z" fill="url(#paint22_linear_6627_2848)"></path><path opacity="0.9246" d="M52.4228 23.2549C53.1162 23.2549 53.6751 23.8207 53.6751 24.5142C53.6751 25.2111 53.1128 25.7734 52.4228 25.7734C51.7328 25.7734 51.1704 25.2111 51.1704 24.5142C51.1704 23.8207 51.7328 23.2549 52.4228 23.2549Z" fill="url(#paint23_linear_6627_2848)"></path><path opacity="0.9554" d="M1.02465 18.7463C0.63135 18.7463 0.27945 18.6014 0 18.3668V15.8897C0.27945 15.6551 0.63135 15.5102 1.02465 15.5102C1.9113 15.5102 2.63235 16.2347 2.63235 17.1283C2.63235 18.0218 1.9113 18.7463 1.02465 18.7463Z" fill="url(#paint24_linear_6627_2848)"></path><path opacity="0.7803" d="M8.36616 15.7827C9.10101 15.7827 9.69786 16.383 9.69786 17.1247C9.69786 17.8665 9.10101 18.4668 8.36616 18.4668C7.62786 18.4668 7.03101 17.8665 7.03101 17.1247C7.03446 16.3864 7.62786 15.7827 8.36616 15.7827Z" fill="url(#paint25_linear_6627_2848)"></path><path opacity="0.8025" d="M15.7112 15.2722C16.729 15.2722 17.5535 16.1036 17.5535 17.1283C17.5535 18.1529 16.729 18.9844 15.7112 18.9844C14.6935 18.9844 13.8655 18.1529 13.8655 17.1283C13.8655 16.1036 14.69 15.2722 15.7112 15.2722Z" fill="url(#paint26_linear_6627_2848)"></path><path opacity="0.9235" d="M23.0529 15.5777C23.905 15.5777 24.5916 16.2711 24.5916 17.1267C24.5916 17.9823 23.905 18.6758 23.0529 18.6758C22.2007 18.6758 21.5142 17.9823 21.5142 17.1267C21.5107 16.2746 22.2007 15.5777 23.0529 15.5777Z" fill="url(#paint27_linear_6627_2848)"></path><path opacity="0.8636" d="M30.3946 16.0124C31.0087 16.0124 31.5055 16.5127 31.5055 17.1302C31.5055 17.7478 31.0087 18.248 30.3946 18.248C29.7805 18.248 29.2837 17.7478 29.2837 17.1302C29.2837 16.5127 29.7805 16.0124 30.3946 16.0124Z" fill="url(#paint28_linear_6627_2848)"></path><path opacity="0.8175" d="M37.7361 16.3528C38.1605 16.3528 38.5055 16.7013 38.5055 17.1256C38.5055 17.5534 38.1605 17.8984 37.7361 17.8984C37.3118 17.8984 36.9702 17.55 36.9702 17.1256C36.9702 16.7013 37.3118 16.3528 37.7361 16.3528Z" fill="url(#paint29_linear_6627_2848)"></path><path opacity="0.5106" d="M45.0812 15.7817C45.8195 15.7817 46.4164 16.3854 46.4164 17.1272C46.4164 17.8689 45.8195 18.4727 45.0812 18.4727C44.3464 18.4727 43.7461 17.8689 43.7461 17.1272C43.7461 16.3854 44.3429 15.7817 45.0812 15.7817Z" fill="url(#paint30_linear_6627_2848)"></path><path opacity="0.7539" d="M52.4226 15.5627C53.2817 15.5627 53.9786 16.2631 53.9786 17.129C53.9786 17.995 53.2817 18.6953 52.4226 18.6953C51.5636 18.6953 50.8667 17.995 50.8667 17.129C50.8667 16.2631 51.5636 15.5627 52.4226 15.5627Z" fill="url(#paint31_linear_6627_2848)"></path><path opacity="0.6957" d="M1.02465 10.8594C0.5658 10.8594 0.1725 10.5799 0 10.1832V9.29308C0.1725 8.89288 0.5658 8.61343 1.02465 8.61343C1.63875 8.61343 2.139 9.11713 2.139 9.73813C2.139 10.3591 1.63875 10.8594 1.02465 10.8594Z" fill="url(#paint32_linear_6627_2848)"></path><path opacity="0.5065" d="M8.36624 8.54424C9.02174 8.54424 9.55304 9.07899 9.55304 9.73794C9.55304 10.3969 9.02174 10.9316 8.36624 10.9316C7.71074 10.9316 7.17944 10.3969 7.17944 9.73794C7.17944 9.07899 7.71074 8.54424 8.36624 8.54424Z" fill="url(#paint33_linear_6627_2848)"></path><path opacity="0.8703" d="M15.7114 8.66187C16.3013 8.66187 16.7809 9.14486 16.7809 9.74171C16.7809 10.3351 16.3013 10.8181 15.7114 10.8181C15.118 10.8181 14.6419 10.3351 14.6419 9.74171C14.6384 9.14486 15.118 8.66187 15.7114 8.66187Z" fill="url(#paint34_linear_6627_2848)"></path><path opacity="0.5432" d="M23.0527 8.57405C23.6944 8.57405 24.2119 9.095 24.2119 9.74015C24.2119 10.3819 23.6944 10.9062 23.0527 10.9062C22.411 10.9062 21.897 10.3853 21.897 9.74015C21.8935 9.095 22.411 8.57405 23.0527 8.57405Z" fill="url(#paint35_linear_6627_2848)"></path><path opacity="0.9866" d="M30.3944 8.16414C31.2569 8.16414 31.9572 8.8714 31.9572 9.73735C31.9572 10.6033 31.2569 11.3105 30.3944 11.3105C29.5319 11.3105 28.8315 10.6067 28.8315 9.73735C28.8315 8.8714 29.5319 8.16414 30.3944 8.16414Z" fill="url(#paint36_linear_6627_2848)"></path><path opacity="0.8231" d="M37.736 7.9482C38.7193 7.9482 39.5162 8.7486 39.5162 9.73875C39.5162 10.7289 38.7193 11.5293 37.736 11.5293C36.7528 11.5293 35.9558 10.7289 35.9558 9.73875C35.9558 8.7486 36.7562 7.9482 37.736 7.9482Z" fill="url(#paint37_linear_6627_2848)"></path><path opacity="0.8501" d="M45.0811 8.23171C45.9091 8.23171 46.5818 8.90791 46.5818 9.74281C46.5818 10.5777 45.9091 11.2539 45.0811 11.2539C44.2531 11.2539 43.5803 10.5777 43.5803 9.74281C43.5803 8.90446 44.2531 8.23171 45.0811 8.23171Z" fill="url(#paint38_linear_6627_2848)"></path><path opacity="0.8749" d="M52.4228 8.31216C53.206 8.31216 53.8373 8.95041 53.8373 9.73701C53.8373 10.5236 53.2025 11.1619 52.4228 11.1619C51.6431 11.1619 51.0083 10.5236 51.0083 9.73701C51.0083 8.95041 51.6431 8.31216 52.4228 8.31216Z" fill="url(#paint39_linear_6627_2848)"></path><path opacity="0.51" d="M1.02465 3.57422C0.5934 3.57422 0.21735 3.34652 0 3.00497V1.69397C0.2139 1.35242 0.5934 1.12472 1.02465 1.12472C1.69395 1.12472 2.23905 1.67327 2.23905 2.34947C2.23905 3.02567 1.69395 3.57422 1.02465 3.57422Z" fill="url(#paint40_linear_6627_2848)"></path><path opacity="0.5233" d="M8.36623 1.26204C8.96308 1.26204 9.44608 1.7485 9.44608 2.3488C9.44608 2.9491 8.96308 3.43555 8.36623 3.43555C7.76938 3.43555 7.28638 2.9491 7.28638 2.3488C7.28638 1.7485 7.76938 1.26204 8.36623 1.26204Z" fill="url(#paint41_linear_6627_2848)"></path><path opacity="0.5397" d="M15.7112 0.655977C16.6427 0.655977 17.3948 1.41498 17.3948 2.35338C17.3948 3.28833 16.6393 4.05078 15.7112 4.05078C14.7797 4.05078 14.0242 3.29178 14.0242 2.35338C14.0242 1.41153 14.7797 0.655977 15.7112 0.655977Z" fill="url(#paint42_linear_6627_2848)"></path><path opacity="0.8954" d="M23.0528 1.22971C23.6669 1.22971 24.1637 1.7334 24.1637 2.35095C24.1637 2.9685 23.6669 3.46875 23.0528 3.46875C22.4387 3.46875 21.9419 2.96505 21.9419 2.35095C21.9419 1.72995 22.4387 1.22971 23.0528 1.22971Z" fill="url(#paint43_linear_6627_2848)"></path><path opacity="0.7819" d="M30.3945 1.31926C30.9603 1.31926 31.4191 1.78156 31.4191 2.35081C31.4191 2.92006 30.9603 3.37891 30.3945 3.37891C29.8287 3.37891 29.3733 2.91661 29.3733 2.35081C29.3733 1.77811 29.8287 1.31926 30.3945 1.31926Z" fill="url(#paint44_linear_6627_2848)"></path><path opacity="0.8916" d="M37.7362 1.27726C38.3227 1.27726 38.7988 1.75681 38.7988 2.34676C38.7988 2.93671 38.3227 3.41626 37.7362 3.41626C37.1497 3.41626 36.6736 2.93671 36.6736 2.34676C36.677 1.75681 37.1531 1.27726 37.7362 1.27726Z" fill="url(#paint45_linear_6627_2848)"></path><path opacity="0.8189" d="M45.0811 0.937419C45.8574 0.937419 46.4853 1.56877 46.4853 2.34847C46.4853 3.12817 45.8574 3.75952 45.0811 3.75952C44.3049 3.75952 43.6804 3.12472 43.6804 2.34847C43.6804 1.56877 44.3049 0.937419 45.0811 0.937419Z" fill="url(#paint46_linear_6627_2848)"></path><path opacity="0.9115" d="M52.4227 0.964478C53.1851 0.964478 53.7992 1.58548 53.7992 2.35138C53.7992 3.11728 53.1817 3.73828 52.4227 3.73828C51.6637 3.73828 51.0461 3.11728 51.0461 2.35138C51.0461 1.58203 51.6637 0.964478 52.4227 0.964478Z" fill="url(#paint47_linear_6627_2848)"></path><path d="M37.7361 38.3078C38.2778 38.3078 38.7159 38.7494 38.7159 39.2945C38.7159 39.8396 38.2778 40.2812 37.7361 40.2812C37.1945 40.2812 36.7563 39.8396 36.7563 39.2945C36.7563 38.7494 37.1979 38.3078 37.7361 38.3078Z" fill="#E4E4E7" fill-opacity="0.2"></path><path d="M1.02465 33.1389C0.5934 33.1389 0.2208 32.9181 0 32.58V31.2276C0.21735 30.893 0.5934 30.6687 1.02465 30.6687C1.70085 30.6687 2.2494 31.2207 2.2494 31.9004C2.2494 32.5835 1.70085 33.1389 1.02465 33.1389Z" fill="#E4E4E7" fill-opacity="0.2"></path><path d="M15.7114 30.8003C16.3186 30.8003 16.8085 31.2971 16.8085 31.9043C16.8085 32.5149 16.3151 33.0117 15.7114 33.0117C15.1042 33.0117 14.6108 32.5149 14.6108 31.9043C14.6108 31.2936 15.1007 30.8003 15.7114 30.8003Z" fill="#E4E4E7" fill-opacity="0.2"></path><path d="M15.7114 22.9649C16.5601 22.9649 17.2501 23.6583 17.2501 24.5139C17.2501 25.373 16.5601 26.0664 15.7079 26.0664C14.8558 26.0664 14.1658 25.373 14.1658 24.5139C14.1658 23.6583 14.8592 22.9649 15.7114 22.9649Z" fill="#E4E4E7" fill-opacity="0.2"></path><path d="M52.4226 15.5627C53.2817 15.5627 53.9786 16.2631 53.9786 17.129C53.9786 17.995 53.2817 18.6953 52.4226 18.6953C51.5636 18.6953 50.8667 17.995 50.8667 17.129C50.8667 16.2631 51.5636 15.5627 52.4226 15.5627Z" fill="#E4E4E7" fill-opacity="0.2"></path><path d="M8.36624 8.54424C9.02174 8.54424 9.55304 9.07899 9.55304 9.73794C9.55304 10.3969 9.02174 10.9316 8.36624 10.9316C7.71074 10.9316 7.17944 10.3969 7.17944 9.73794C7.17944 9.07899 7.71074 8.54424 8.36624 8.54424Z" fill="#E4E4E7" fill-opacity="0.2"></path><path d="M15.7114 8.66187C16.3013 8.66187 16.7809 9.14486 16.7809 9.74171C16.7809 10.3351 16.3013 10.8181 15.7114 10.8181C15.118 10.8181 14.6419 10.3351 14.6419 9.74171C14.6384 9.14486 15.118 8.66187 15.7114 8.66187Z" fill="#E4E4E7" fill-opacity="0.2"></path><path d="M52.4228 8.31216C53.206 8.31216 53.8373 8.95041 53.8373 9.73701C53.8373 10.5236 53.2025 11.1619 52.4228 11.1619C51.6431 11.1619 51.0083 10.5236 51.0083 9.73701C51.0083 8.95041 51.6431 8.31216 52.4228 8.31216Z" fill="#E4E4E7" fill-opacity="0.2"></path><path d="M15.7112 0.655977C16.6427 0.655977 17.3948 1.41498 17.3948 2.35338C17.3948 3.28833 16.6393 4.05078 15.7112 4.05078C14.7797 4.05078 14.0242 3.29178 14.0242 2.35338C14.0242 1.41153 14.7797 0.655977 15.7112 0.655977Z" fill="#E4E4E7" fill-opacity="0.2"></path><path d="M52.4227 0.964478C53.1851 0.964478 53.7992 1.58548 53.7992 2.35138C53.7992 3.11728 53.1817 3.73828 52.4227 3.73828C51.6637 3.73828 51.0461 3.11728 51.0461 2.35138C51.0461 1.58203 51.6637 0.964478 52.4227 0.964478Z" fill="#E4E4E7" fill-opacity="0.2"></path></g><defs><linearGradient id="paint0_linear_6627_2848" x1="1.04708" y1="40.3689" x2="1.04708" y2="38.2092" gradientUnits="userSpaceOnUse"><stop stop-color="#01CC6A"></stop><stop offset="1" stop-color="#01CC6A" stop-opacity="0"></stop></linearGradient><linearGradient id="paint1_linear_6627_2848" x1="8.36467" y1="40.2109" x2="8.36467" y2="38.3755" gradientUnits="userSpaceOnUse"><stop stop-color="#01CC6A"></stop><stop offset="1" stop-color="#01CC6A" stop-opacity="0"></stop></linearGradient><linearGradient id="paint2_linear_6627_2848" x1="15.7114" y1="40.1638" x2="15.7114" y2="38.425" gradientUnits="userSpaceOnUse"><stop stop-color="#01CC6A"></stop><stop offset="1" stop-color="#01CC6A" stop-opacity="0"></stop></linearGradient><linearGradient id="paint3_linear_6627_2848" x1="23.0545" y1="40.043" x2="23.0545" y2="38.5457" gradientUnits="userSpaceOnUse"><stop stop-color="#01CC6A"></stop><stop offset="1" stop-color="#01CC6A" stop-opacity="0"></stop></linearGradient><linearGradient id="paint4_linear_6627_2848" x1="30.3945" y1="40.0918" x2="30.3945" y2="38.4979" gradientUnits="userSpaceOnUse"><stop stop-color="#01CC6A"></stop><stop offset="1" stop-color="#01CC6A" stop-opacity="0"></stop></linearGradient><linearGradient id="paint5_linear_6627_2848" x1="37.7361" y1="40.2812" x2="37.7361" y2="38.3078" gradientUnits="userSpaceOnUse"><stop stop-color="#01CC6A"></stop><stop offset="1" stop-color="#01CC6A" stop-opacity="0"></stop></linearGradient><linearGradient id="paint6_linear_6627_2848" x1="45.0829" y1="40.4434" x2="45.0829" y2="38.1388" gradientUnits="userSpaceOnUse"><stop stop-color="#01CC6A"></stop><stop offset="1" stop-color="#01CC6A" stop-opacity="0"></stop></linearGradient><linearGradient id="paint7_linear_6627_2848" x1="52.4245" y1="40.1367" x2="52.4245" y2="38.4531" gradientUnits="userSpaceOnUse"><stop stop-color="#01CC6A"></stop><stop offset="1" stop-color="#01CC6A" stop-opacity="0"></stop></linearGradient><linearGradient id="paint8_linear_6627_2848" x1="1.1247" y1="33.1389" x2="1.1247" y2="30.6687" gradientUnits="userSpaceOnUse"><stop stop-color="#01CC6A"></stop><stop offset="1" stop-color="#01CC6A" stop-opacity="0"></stop></linearGradient><linearGradient id="paint9_linear_6627_2848" x1="8.36637" y1="33.0312" x2="8.36637" y2="30.7749" gradientUnits="userSpaceOnUse"><stop stop-color="#01CC6A"></stop><stop offset="1" stop-color="#01CC6A" stop-opacity="0"></stop></linearGradient><linearGradient id="paint10_linear_6627_2848" x1="15.7097" y1="33.0117" x2="15.7097" y2="30.8003" gradientUnits="userSpaceOnUse"><stop stop-color="#01CC6A"></stop><stop offset="1" stop-color="#01CC6A" stop-opacity="0"></stop></linearGradient><linearGradient id="paint11_linear_6627_2848" x1="23.0545" y1="33.1018" x2="23.0545" y2="30.711" gradientUnits="userSpaceOnUse"><stop stop-color="#01CC6A"></stop><stop offset="1" stop-color="#01CC6A" stop-opacity="0"></stop></linearGradient><linearGradient id="paint12_linear_6627_2848" x1="30.3961" y1="33.0508" x2="30.3961" y2="30.76" gradientUnits="userSpaceOnUse"><stop stop-color="#01CC6A"></stop><stop offset="1" stop-color="#01CC6A" stop-opacity="0"></stop></linearGradient><linearGradient id="paint13_linear_6627_2848" x1="37.7363" y1="33.3301" x2="37.7363" y2="30.4838" gradientUnits="userSpaceOnUse"><stop stop-color="#01CC6A"></stop><stop offset="1" stop-color="#01CC6A" stop-opacity="0"></stop></linearGradient><linearGradient id="paint14_linear_6627_2848" x1="45.0829" y1="32.7947" x2="45.0829" y2="31.0145" gradientUnits="userSpaceOnUse"><stop stop-color="#01CC6A"></stop><stop offset="1" stop-color="#01CC6A" stop-opacity="0"></stop></linearGradient><linearGradient id="paint15_linear_6627_2848" x1="52.4227" y1="32.8125" x2="52.4227" y2="31.0012" gradientUnits="userSpaceOnUse"><stop stop-color="#01CC6A"></stop><stop offset="1" stop-color="#01CC6A" stop-opacity="0"></stop></linearGradient><linearGradient id="paint16_linear_6627_2848" x1="1.11952" y1="25.7402" x2="1.11952" y2="23.2942" gradientUnits="userSpaceOnUse"><stop stop-color="#01CC6A"></stop><stop offset="1" stop-color="#01CC6A" stop-opacity="0"></stop></linearGradient><linearGradient id="paint17_linear_6627_2848" x1="8.3662" y1="26.3125" x2="8.3662" y2="22.7176" gradientUnits="userSpaceOnUse"><stop stop-color="#01CC6A"></stop><stop offset="1" stop-color="#01CC6A" stop-opacity="0"></stop></linearGradient><linearGradient id="paint18_linear_6627_2848" x1="15.7079" y1="26.0664" x2="15.7079" y2="22.9649" gradientUnits="userSpaceOnUse"><stop stop-color="#01CC6A"></stop><stop offset="1" stop-color="#01CC6A" stop-opacity="0"></stop></linearGradient><linearGradient id="paint19_linear_6627_2848" x1="23.0545" y1="25.8438" x2="23.0545" y2="23.1873" gradientUnits="userSpaceOnUse"><stop stop-color="#01CC6A"></stop><stop offset="1" stop-color="#01CC6A" stop-opacity="0"></stop></linearGradient><linearGradient id="paint20_linear_6627_2848" x1="30.3945" y1="25.7812" x2="30.3945" y2="23.2524" gradientUnits="userSpaceOnUse"><stop stop-color="#01CC6A"></stop><stop offset="1" stop-color="#01CC6A" stop-opacity="0"></stop></linearGradient><linearGradient id="paint21_linear_6627_2848" x1="37.7361" y1="25.5781" x2="37.7361" y2="23.4529" gradientUnits="userSpaceOnUse"><stop stop-color="#01CC6A"></stop><stop offset="1" stop-color="#01CC6A" stop-opacity="0"></stop></linearGradient><linearGradient id="paint22_linear_6627_2848" x1="45.0811" y1="25.9531" x2="45.0811" y2="23.0793" gradientUnits="userSpaceOnUse"><stop stop-color="#01CC6A"></stop><stop offset="1" stop-color="#01CC6A" stop-opacity="0"></stop></linearGradient><linearGradient id="paint23_linear_6627_2848" x1="52.4228" y1="25.7734" x2="52.4228" y2="23.2549" gradientUnits="userSpaceOnUse"><stop stop-color="#01CC6A"></stop><stop offset="1" stop-color="#01CC6A" stop-opacity="0"></stop></linearGradient><linearGradient id="paint24_linear_6627_2848" x1="1.31617" y1="18.7463" x2="1.31617" y2="15.5102" gradientUnits="userSpaceOnUse"><stop stop-color="#01CC6A"></stop><stop offset="1" stop-color="#01CC6A" stop-opacity="0"></stop></linearGradient><linearGradient id="paint25_linear_6627_2848" x1="8.36443" y1="18.4668" x2="8.36443" y2="15.7827" gradientUnits="userSpaceOnUse"><stop stop-color="#01CC6A"></stop><stop offset="1" stop-color="#01CC6A" stop-opacity="0"></stop></linearGradient><linearGradient id="paint26_linear_6627_2848" x1="15.7095" y1="18.9844" x2="15.7095" y2="15.2722" gradientUnits="userSpaceOnUse"><stop stop-color="#01CC6A"></stop><stop offset="1" stop-color="#01CC6A" stop-opacity="0"></stop></linearGradient><linearGradient id="paint27_linear_6627_2848" x1="23.0529" y1="18.6758" x2="23.0529" y2="15.5777" gradientUnits="userSpaceOnUse"><stop stop-color="#01CC6A"></stop><stop offset="1" stop-color="#01CC6A" stop-opacity="0"></stop></linearGradient><linearGradient id="paint28_linear_6627_2848" x1="30.3946" y1="18.248" x2="30.3946" y2="16.0124" gradientUnits="userSpaceOnUse"><stop stop-color="#01CC6A"></stop><stop offset="1" stop-color="#01CC6A" stop-opacity="0"></stop></linearGradient><linearGradient id="paint29_linear_6627_2848" x1="37.7378" y1="17.8984" x2="37.7378" y2="16.3528" gradientUnits="userSpaceOnUse"><stop stop-color="#01CC6A"></stop><stop offset="1" stop-color="#01CC6A" stop-opacity="0"></stop></linearGradient><linearGradient id="paint30_linear_6627_2848" x1="45.0812" y1="18.4727" x2="45.0812" y2="15.7817" gradientUnits="userSpaceOnUse"><stop stop-color="#01CC6A"></stop><stop offset="1" stop-color="#01CC6A" stop-opacity="0"></stop></linearGradient><linearGradient id="paint31_linear_6627_2848" x1="52.4226" y1="18.6953" x2="52.4226" y2="15.5627" gradientUnits="userSpaceOnUse"><stop stop-color="#01CC6A"></stop><stop offset="1" stop-color="#01CC6A" stop-opacity="0"></stop></linearGradient><linearGradient id="paint32_linear_6627_2848" x1="1.0695" y1="10.8594" x2="1.0695" y2="8.61343" gradientUnits="userSpaceOnUse"><stop stop-color="#01CC6A"></stop><stop offset="1" stop-color="#01CC6A" stop-opacity="0"></stop></linearGradient><linearGradient id="paint33_linear_6627_2848" x1="8.36624" y1="10.9316" x2="8.36624" y2="8.54424" gradientUnits="userSpaceOnUse"><stop stop-color="#01CC6A"></stop><stop offset="1" stop-color="#01CC6A" stop-opacity="0"></stop></linearGradient><linearGradient id="paint34_linear_6627_2848" x1="15.7114" y1="10.8181" x2="15.7114" y2="8.66187" gradientUnits="userSpaceOnUse"><stop stop-color="#01CC6A"></stop><stop offset="1" stop-color="#01CC6A" stop-opacity="0"></stop></linearGradient><linearGradient id="paint35_linear_6627_2848" x1="23.0545" y1="10.9062" x2="23.0545" y2="8.57405" gradientUnits="userSpaceOnUse"><stop stop-color="#01CC6A"></stop><stop offset="1" stop-color="#01CC6A" stop-opacity="0"></stop></linearGradient><linearGradient id="paint36_linear_6627_2848" x1="30.3944" y1="11.3105" x2="30.3944" y2="8.16414" gradientUnits="userSpaceOnUse"><stop stop-color="#01CC6A"></stop><stop offset="1" stop-color="#01CC6A" stop-opacity="0"></stop></linearGradient><linearGradient id="paint37_linear_6627_2848" x1="37.736" y1="11.5293" x2="37.736" y2="7.9482" gradientUnits="userSpaceOnUse"><stop stop-color="#01CC6A"></stop><stop offset="1" stop-color="#01CC6A" stop-opacity="0"></stop></linearGradient><linearGradient id="paint38_linear_6627_2848" x1="45.0811" y1="11.2539" x2="45.0811" y2="8.23171" gradientUnits="userSpaceOnUse"><stop stop-color="#01CC6A"></stop><stop offset="1" stop-color="#01CC6A" stop-opacity="0"></stop></linearGradient><linearGradient id="paint39_linear_6627_2848" x1="52.4228" y1="11.1619" x2="52.4228" y2="8.31216" gradientUnits="userSpaceOnUse"><stop stop-color="#01CC6A"></stop><stop offset="1" stop-color="#01CC6A" stop-opacity="0"></stop></linearGradient><linearGradient id="paint40_linear_6627_2848" x1="1.11952" y1="3.57422" x2="1.11952" y2="1.12472" gradientUnits="userSpaceOnUse"><stop stop-color="#01CC6A"></stop><stop offset="1" stop-color="#01CC6A" stop-opacity="0"></stop></linearGradient><linearGradient id="paint41_linear_6627_2848" x1="8.36623" y1="3.43555" x2="8.36623" y2="1.26204" gradientUnits="userSpaceOnUse"><stop stop-color="#01CC6A"></stop><stop offset="1" stop-color="#01CC6A" stop-opacity="0"></stop></linearGradient><linearGradient id="paint42_linear_6627_2848" x1="15.7095" y1="4.05078" x2="15.7095" y2="0.655977" gradientUnits="userSpaceOnUse"><stop stop-color="#01CC6A"></stop><stop offset="1" stop-color="#01CC6A" stop-opacity="0"></stop></linearGradient><linearGradient id="paint43_linear_6627_2848" x1="23.0528" y1="3.46875" x2="23.0528" y2="1.22971" gradientUnits="userSpaceOnUse"><stop stop-color="#01CC6A"></stop><stop offset="1" stop-color="#01CC6A" stop-opacity="0"></stop></linearGradient><linearGradient id="paint44_linear_6627_2848" x1="30.3962" y1="3.37891" x2="30.3962" y2="1.31926" gradientUnits="userSpaceOnUse"><stop stop-color="#01CC6A"></stop><stop offset="1" stop-color="#01CC6A" stop-opacity="0"></stop></linearGradient><linearGradient id="paint45_linear_6627_2848" x1="37.7362" y1="3.41626" x2="37.7362" y2="1.27726" gradientUnits="userSpaceOnUse"><stop stop-color="#01CC6A"></stop><stop offset="1" stop-color="#01CC6A" stop-opacity="0"></stop></linearGradient><linearGradient id="paint46_linear_6627_2848" x1="45.0828" y1="3.75952" x2="45.0828" y2="0.937419" gradientUnits="userSpaceOnUse"><stop stop-color="#01CC6A"></stop><stop offset="1" stop-color="#01CC6A" stop-opacity="0"></stop></linearGradient><linearGradient id="paint47_linear_6627_2848" x1="52.4227" y1="3.73828" x2="52.4227" y2="0.964478" gradientUnits="userSpaceOnUse"><stop stop-color="#01CC6A"></stop><stop offset="1" stop-color="#01CC6A" stop-opacity="0"></stop></linearGradient><clipPath id="clip0_6627_2848"><rect width="96" height="86" fill="white" transform="matrix(1 0 0 -1 0 86)"></rect></clipPath></defs></svg>