<?xml version="1.0" encoding="UTF-8"?>
<svg version="1.1" xmlns="http://www.w3.org/2000/svg" width="512" height="512">
<path d="M0 0 C2.11659296 1.63219855 4.14802003 3.31717231 6.16796875 5.06640625 C7.35326172 5.95199219 7.35326172 5.95199219 8.5625 6.85546875 C11.70729202 9.52406288 14.13672003 12.45112428 16.66796875 15.69140625 C17.12816406 16.25730469 17.58835938 16.82320312 18.0625 17.40625 C22.05437062 22.47761239 24.14404793 27.0185646 27.16796875 33.06640625 C39.04796875 33.06640625 50.92796875 33.06640625 63.16796875 33.06640625 C65.47796875 28.77640625 67.78796875 24.48640625 70.16796875 20.06640625 C83.40969158 2.15113419 102.0842343 -10.11418877 124.16796875 -13.93359375 C149.003979 -15.55197479 170.95941632 -11.5678041 190.16796875 5.06640625 C190.95816406 5.65679687 191.74835938 6.2471875 192.5625 6.85546875 C195.70729202 9.52406288 198.13672003 12.45112428 200.66796875 15.69140625 C201.35826172 16.54025391 201.35826172 16.54025391 202.0625 17.40625 C205.88235625 22.25908146 208.56070004 27.48283568 211.16796875 33.06640625 C212.49973145 33.0804248 212.49973145 33.0804248 213.85839844 33.09472656 C217.16142794 33.13881306 220.46316882 33.20045371 223.765625 33.27392578 C225.19323812 33.30210236 226.62100628 33.32333352 228.04882812 33.33740234 C230.10497207 33.35888017 232.15925877 33.40554599 234.21484375 33.45703125 C235.45073242 33.47797852 236.68662109 33.49892578 237.95996094 33.52050781 C241.84469438 34.18156291 242.7993191 34.96627443 245.16796875 38.06640625 C245.66016006 41.18231583 245.66016006 41.18231583 245.64898682 44.925354 C245.65240452 45.6148085 245.65582222 46.304263 245.65934348 47.01461005 C245.66593093 49.32429096 245.64393382 51.63280904 245.62207031 53.94238281 C245.62094201 55.59812391 245.62157535 57.253867 245.62384033 58.90960693 C245.6249891 63.40526948 245.60145359 67.90050607 245.5735445 72.39606953 C245.5485579 77.09391947 245.54619101 81.79177892 245.54144287 86.48968506 C245.52900503 95.38613712 245.49617248 104.28239283 245.45604491 113.17875838 C245.41135236 123.30680484 245.38934649 133.43486063 245.36926317 143.56298113 C245.32744056 164.39756581 245.25707278 185.23197367 245.16796875 206.06640625 C240.16796875 205.06640625 240.16796875 205.06640625 229.16796875 201.06640625 C229.16796875 151.23640625 229.16796875 101.40640625 229.16796875 50.06640625 C224.87796875 50.06640625 220.58796875 50.06640625 216.16796875 50.06640625 C216.49796875 51.05640625 216.82796875 52.04640625 217.16796875 53.06640625 C217.4310066 57.20765828 217.39954034 61.35521007 217.41796875 65.50390625 C217.44890625 67.19290039 217.44890625 67.19290039 217.48046875 68.91601562 C217.485625 70.03685547 217.49078125 71.15769531 217.49609375 72.3125 C217.50543945 73.31982178 217.51478516 74.32714355 217.52441406 75.36499023 C217.2157905 78.56981339 216.61186888 80.92563966 215.67944336 83.96606445 C213.02250807 94.19324746 213.68454715 104.93532943 213.65625 115.42578125 C213.63938341 117.78518598 213.62123054 120.14458184 213.60185242 122.50396729 C213.55456151 128.67860133 213.52461714 134.85319937 213.49841309 141.0279541 C213.46850166 147.34292712 213.42200788 153.65777633 213.37695312 159.97265625 C213.29115806 172.33717454 213.22370735 184.70171847 213.16796875 197.06640625 C207.88796875 196.40640625 202.60796875 195.74640625 197.16796875 195.06640625 C196.67296875 158.43640625 196.67296875 158.43640625 196.16796875 121.06640625 C193.19796875 124.03640625 190.22796875 127.00640625 187.16796875 130.06640625 C179.27601469 135.93166915 169.28024822 142.02460757 159.39453125 143.47265625 C153.38637061 144.36785497 150.44011669 146.39146626 146.7878418 151.07641602 C144.71482926 153.9227032 142.71879345 156.81433575 140.75341797 159.73583984 C138.58645715 162.92121219 136.31313847 166.02407397 134.04052734 169.13452148 C130.12558384 174.49417103 126.27717821 179.89899244 122.47387695 185.33837891 C121.85221146 186.22723785 121.23054596 187.1160968 120.59004211 188.03189087 C120.1207579 188.70328094 119.65147369 189.37467102 119.16796875 190.06640625 C119.83560242 190.0575238 120.50323608 190.04864136 121.19110107 190.03948975 C128.13382413 189.95106152 135.07638746 189.89069049 142.01953125 189.84667969 C144.61139421 189.8265525 147.20321171 189.79924809 149.79492188 189.76464844 C153.51834324 189.71618124 157.24116474 189.69344809 160.96484375 189.67578125 C162.70565216 189.64481354 162.70565216 189.64481354 164.48162842 189.61322021 C165.5624469 189.61291809 166.64326538 189.61261597 167.75683594 189.61230469 C168.70725769 189.60342224 169.65767944 189.59453979 170.63690186 189.58538818 C173.88050353 190.20182033 175.07691707 191.5855144 177.16796875 194.06640625 C174.417879 195.56276154 172.00970825 196.42610419 168.9296875 196.9609375 C168.11612793 197.10942139 167.30256836 197.25790527 166.46435547 197.41088867 C165.60342285 197.56533447 164.74249023 197.71978027 163.85546875 197.87890625 C154.45252614 199.65170452 144.78760136 201.75658995 136.16796875 206.06640625 C133.91676133 206.15214019 131.66297572 206.17352813 129.41015625 206.1640625 C128.41557907 206.16194008 128.41557907 206.16194008 127.40090942 206.15977478 C125.28155012 206.15417379 123.16229616 206.14162125 121.04296875 206.12890625 C119.60677236 206.12389137 118.17057431 206.11932844 116.734375 206.11523438 C113.2122053 206.10420407 109.6900973 206.08693884 106.16796875 206.06640625 C105.86310547 206.68749268 105.55824219 207.3085791 105.24414062 207.94848633 C104.18881886 210.02537297 103.01734008 211.8573813 101.66796875 213.75390625 C101.24515625 214.35589844 100.82234375 214.95789063 100.38671875 215.578125 C99.16796875 217.06640625 99.16796875 217.06640625 97.16796875 218.06640625 C90.11583605 218.63512663 90.11583605 218.63512663 86.66796875 216.56640625 C85.16796875 214.06640625 85.16796875 214.06640625 85.16796875 206.06640625 C74.60796875 206.06640625 64.04796875 206.06640625 53.16796875 206.06640625 C53.16796875 211.34640625 53.16796875 216.62640625 53.16796875 222.06640625 C70.98796875 222.06640625 88.80796875 222.06640625 107.16796875 222.06640625 C105.51796875 223.71640625 103.86796875 225.36640625 102.16796875 227.06640625 C100.92586136 228.47636289 100.92586136 228.47636289 99.65866089 229.9148035 C93.60546108 236.30648403 88.99427545 239.23082355 80.00032902 239.47554028 C77.66125501 239.47959928 75.32675005 239.42978044 72.98828125 239.37866211 C71.28857362 239.38211457 69.58887009 239.39036299 67.88920593 239.40299988 C63.30804394 239.42310902 58.72992953 239.37527612 54.14923477 239.31346583 C49.34524904 239.25928166 44.54129934 239.26485244 39.73706055 239.26283264 C31.68046655 239.25085308 23.62502438 239.19745354 15.56884766 239.1159668 C6.25496754 239.02197691 -3.05795431 238.97999406 -12.37228012 238.96863645 C-22.30215452 238.95649443 -32.23169629 238.91378588 -42.1614151 238.85816884 C-45.01994089 238.84374793 -47.87845118 238.83425804 -50.73699951 238.82554436 C-55.22220001 238.80986359 -59.70676263 238.77316169 -64.19167137 238.72006416 C-65.83798037 238.70357633 -67.48437254 238.69382917 -69.1307621 238.69126892 C-71.37582883 238.68651844 -73.61925782 238.65722137 -75.86401367 238.6214447 C-77.12050217 238.61084487 -78.37699066 238.60024504 -79.67155457 238.589324 C-83.38640932 237.97468144 -84.57438497 237.02041587 -86.83203125 234.06640625 C-87.33996582 232.09375 -87.33996582 232.09375 -87.34960938 230.00390625 C-87.36221802 229.21628906 -87.37482666 228.42867187 -87.38781738 227.6171875 C-87.37972046 226.77542969 -87.37162354 225.93367187 -87.36328125 225.06640625 C-87.36710815 224.19371094 -87.37093506 223.32101562 -87.37487793 222.421875 C-87.37759615 220.57941533 -87.37024119 218.73691701 -87.35351562 216.89453125 C-87.33210373 214.07594691 -87.35331926 211.2599114 -87.37890625 208.44140625 C-87.37626296 206.64973396 -87.37113794 204.85806326 -87.36328125 203.06640625 C-87.37137817 202.22464844 -87.3794751 201.38289062 -87.38781738 200.515625 C-87.37520874 199.72800781 -87.3626001 198.94039062 -87.34960938 198.12890625 C-87.346427 197.43925781 -87.34324463 196.74960938 -87.33996582 196.0390625 C-86.58276484 193.09833483 -85.21369766 191.89922839 -82.83203125 190.06640625 C-80.30096436 189.58538818 -80.30096436 189.58538818 -77.42089844 189.61230469 C-76.34007996 189.61260681 -75.25926147 189.61290894 -74.14569092 189.61322021 C-72.98515198 189.63386536 -71.82461304 189.6545105 -70.62890625 189.67578125 C-69.43597961 189.68144104 -68.24305298 189.68710083 -67.01397705 189.69293213 C-63.20292069 189.71532699 -59.39280358 189.76553196 -55.58203125 189.81640625 C-52.99871149 189.8364671 -50.415377 189.85471859 -47.83203125 189.87109375 C-41.49837731 189.91520214 -35.16527138 189.98214647 -28.83203125 190.06640625 C-37.89569079 177.31814092 -37.89569079 177.31814092 -47.07519531 164.65356445 C-49.5289234 161.30799237 -51.92672776 157.98864533 -54.0625 154.4296875 C-59.36583032 146.09002105 -64.27003914 144.43294693 -73.4140625 142.24609375 C-86.13612268 139.10793003 -95.81062794 131.2001758 -104.83203125 122.06640625 C-105.16203125 121.73640625 -105.49203125 121.40640625 -105.83203125 121.06640625 C-106.16203125 163.63640625 -106.49203125 206.20640625 -106.83203125 250.06640625 C-45.45203125 250.06640625 15.92796875 250.06640625 79.16796875 250.06640625 C78.50796875 251.71640625 77.84796875 253.36640625 77.16796875 255.06640625 C76.80796878 256.00637734 76.44796881 256.94634844 76.07705975 257.9148035 C74.43295878 261.28966495 72.95654574 263.53027402 70.16796875 266.06640625 C64.1628629 267.72426492 58.27656008 267.50085975 52.0871582 267.37866211 C50.23055595 267.38210967 48.37395735 267.39034553 46.51739502 267.40299988 C41.48565368 267.42321775 36.45665833 267.37506468 31.42533898 267.31346583 C26.1595321 267.25950987 20.89376715 267.26485598 15.62773132 267.26283264 C6.78804885 267.2508266 -2.05058891 267.1972885 -10.88989258 267.1159668 C-21.11308064 267.0221318 -31.33539739 266.98001067 -41.55899018 266.96863645 C-52.4423506 266.95649334 -63.32540748 266.91376274 -74.20862603 266.85816884 C-77.34609469 266.84373922 -80.48354918 266.83425374 -83.62103844 266.82554436 C-88.54690168 266.80986492 -93.47218383 266.77316505 -98.39778137 266.72006416 C-100.20695927 266.70356961 -102.01621297 266.69382811 -103.82546425 266.69126892 C-106.29188412 266.68652188 -108.75680965 266.65723572 -111.22294617 266.6214447 C-111.94190919 266.62559275 -112.66087222 266.6297408 -113.401622 266.63401455 C-116.603681 266.5626808 -118.5781174 266.23301657 -121.27642441 264.46247196 C-123.37831576 261.22497669 -123.33147501 259.02624664 -123.33082581 255.17431641 C-123.33621036 254.48107804 -123.34159491 253.78783968 -123.34714264 253.07359409 C-123.36041726 250.75052598 -123.34526601 248.42851392 -123.33032227 246.10546875 C-123.33414543 244.43963638 -123.33976445 242.7738073 -123.3470459 241.10798645 C-123.35900632 237.51915066 -123.3584992 233.93060739 -123.34845161 230.34176636 C-123.33288962 224.65880824 -123.34657215 218.97615026 -123.36448669 213.29321289 C-123.39533053 202.24348863 -123.39680842 191.19385573 -123.39483643 180.14409637 C-123.39344469 166.10849725 -123.40391711 152.07296945 -123.44341415 138.03742218 C-123.45829111 132.39739157 -123.45811888 126.75762721 -123.44593632 121.11759281 C-123.44119829 117.59341364 -123.4487876 114.06933458 -123.45948029 110.54517174 C-123.46187028 108.92152518 -123.45920879 107.29786131 -123.45087242 105.67423439 C-123.41046906 97.29783104 -123.75742919 89.56931049 -126.15394115 81.45535374 C-127.0284364 78.37446047 -127.18978628 75.50615783 -127.16015625 72.3125 C-127.155 71.19166016 -127.14984375 70.07082031 -127.14453125 68.91601562 C-127.12390625 67.79001953 -127.10328125 66.66402344 -127.08203125 65.50390625 C-127.076875 64.34310547 -127.07171875 63.18230469 -127.06640625 61.98632812 C-126.98782361 53.53378334 -126.98782361 53.53378334 -125.83203125 50.06640625 C-130.12203125 50.06640625 -134.41203125 50.06640625 -138.83203125 50.06640625 C-138.83203125 131.90640625 -138.83203125 213.74640625 -138.83203125 298.06640625 C-74.15203125 298.06640625 -9.47203125 298.06640625 57.16796875 298.06640625 C56.17796875 305.98640625 56.17796875 305.98640625 55.16796875 314.06640625 C46.25796875 314.39640625 37.34796875 314.72640625 28.16796875 315.06640625 C25.52796875 325.29640625 22.88796875 335.52640625 20.16796875 346.06640625 C31.71796875 346.06640625 43.26796875 346.06640625 55.16796875 346.06640625 C55.82796875 351.34640625 56.48796875 356.62640625 57.16796875 362.06640625 C55.13423096 362.08622559 53.10049316 362.10604492 51.00512695 362.12646484 C44.27955152 362.19342408 37.55412975 362.27106283 30.82873249 362.35393333 C26.75182296 362.40384194 22.67493865 362.45017236 18.59790039 362.48828125 C14.66204501 362.52520287 10.7264035 362.5715813 6.79073143 362.62446976 C5.29050645 362.64297722 3.79023568 362.65809862 2.28994179 362.66975021 C0.18566698 362.68667548 -1.91812192 362.71572455 -4.0222168 362.74755859 C-5.21912643 362.76088226 -6.41603607 362.77420593 -7.6492157 362.78793335 C-10.88117275 363.07070577 -13.03453046 363.42232455 -15.83203125 365.06640625 C-16.49203125 366.71640625 -17.15203125 368.36640625 -17.83203125 370.06640625 C7.90796875 370.06640625 33.64796875 370.06640625 60.16796875 370.06640625 C65.16796875 383.06640625 65.16796875 383.06640625 65.16796875 386.06640625 C52.72027008 386.15902212 40.27265317 386.23012866 27.82468033 386.27365494 C22.04478041 386.29454373 16.26511595 386.32288537 10.48535156 386.36816406 C4.90919424 386.41157511 -0.66673638 386.43553362 -6.24304962 386.44591522 C-8.37217021 386.45331507 -10.50127816 386.467765 -12.63030243 386.48932648 C-15.6089525 386.51829703 -18.58666176 386.52236486 -21.56542969 386.52050781 C-22.89036438 386.54207947 -22.89036438 386.54207947 -24.24206543 386.56408691 C-30.21987325 386.52366931 -30.21987325 386.52366931 -33.37686157 384.16549683 C-35.85462766 380.59130509 -35.51309063 377.17204828 -35.45703125 372.94140625 C-35.44792725 372.08844971 -35.43882324 371.23549316 -35.42944336 370.35668945 C-35.17449907 363.37733997 -33.86610873 358.17196151 -28.83203125 353.06640625 C-24.00402296 349.15224208 -19.53412236 346.0278913 -13.26171875 345.75 C-12.45460449 345.71189209 -11.64749023 345.67378418 -10.81591797 345.63452148 C-9.78998535 345.59141846 -8.76405273 345.54831543 -7.70703125 345.50390625 C-4.44828125 345.35953125 -1.18953125 345.21515625 2.16796875 345.06640625 C4.80796875 334.83640625 7.44796875 324.60640625 10.16796875 314.06640625 C2.8836377 314.09782715 2.8836377 314.09782715 -4.54785156 314.12988281 C-20.56525318 314.19606376 -36.58266006 314.24050961 -52.60016251 314.27365494 C-62.31472994 314.29429125 -72.02916796 314.32243224 -81.74365234 314.36816406 C-90.20955959 314.40799914 -98.67537313 314.43383129 -107.14137149 314.44276023 C-111.62522145 314.44798064 -116.10880331 314.46027255 -120.59256744 314.48932648 C-124.8114677 314.51644308 -129.029989 314.52485892 -133.24896812 314.51883698 C-134.79858903 314.5199389 -136.34822239 314.52791535 -137.89776802 314.54322815 C-140.01192312 314.56309856 -142.12464303 314.55835788 -144.23883057 314.54742432 C-145.42241276 314.55111149 -146.60599495 314.55479866 -147.82544327 314.55859756 C-150.83203125 314.06640625 -150.83203125 314.06640625 -153.21236038 312.71010971 C-155.82344167 308.44817924 -155.38185987 304.18764418 -155.33996582 299.28613281 C-155.34620578 298.17481113 -155.35244575 297.06348946 -155.3588748 295.91849136 C-155.37487573 292.18112448 -155.36217219 288.44440339 -155.34960938 284.70703125 C-155.35502734 282.03314296 -155.36200297 279.35929971 -155.37084961 276.6854248 C-155.38865162 270.16871947 -155.38478745 263.65219825 -155.37319905 257.13548565 C-155.36417157 251.84002354 -155.36293774 246.5446131 -155.36729431 241.24914551 C-155.36790724 240.4959441 -155.36852018 239.7427427 -155.36915168 238.966717 C-155.37043056 237.43668205 -155.37172741 235.90664711 -155.37304205 234.37661219 C-155.38445277 220.02386184 -155.37132646 205.67121362 -155.34984058 191.31848001 C-155.33196913 178.99872719 -155.3350731 166.67912511 -155.35351562 154.359375 C-155.37491369 140.0585723 -155.38335408 125.75785916 -155.37106657 111.45704269 C-155.36979235 109.93258414 -155.36853487 108.40812557 -155.36729431 106.88366699 C-155.36667721 106.1335718 -155.36606011 105.38347661 -155.36542431 104.61065125 C-155.3619682 99.32053115 -155.36780533 94.03046777 -155.37721252 88.74035645 C-155.3884221 82.29489046 -155.3854146 75.84961937 -155.36408955 69.40417576 C-155.3535648 66.11449137 -155.35162817 62.82519993 -155.36268616 59.5355072 C-155.37356219 55.97223689 -155.3599729 52.40989058 -155.33996582 48.84667969 C-155.34888871 47.8027216 -155.35781159 46.7587635 -155.36700487 45.68317032 C-155.29088194 38.72853693 -155.29088194 38.72853693 -152.99384308 35.41386414 C-149.91822282 33.49682921 -147.72131682 33.72752196 -144.125 33.9140625 C-142.81595703 33.94048828 -141.50691406 33.96691406 -140.15820312 33.99414062 C-138.08796125 34.05177679 -136.02503194 34.1285708 -133.95776367 34.25463867 C-129.33522692 34.51387217 -125.2523504 34.50853782 -120.83203125 33.06640625 C-118.21635224 30.00368588 -116.76849473 27.15224284 -115.24438477 23.43432617 C-109.16767332 8.94370658 -93.68696249 -1.52106795 -79.83203125 -7.93359375 C-53.21412144 -18.73234178 -23.80760422 -16.25484702 0 0 Z M-89.83203125 19.06640625 C-102.11465022 30.95097738 -109.7304656 45.29193491 -110.17553711 62.51635742 C-110.39460024 82.4273281 -105.01637419 97.02063016 -91.21484375 111.78125 C-87.40900679 115.43111004 -83.33247371 118.3352485 -78.83203125 121.06640625 C-78.09855469 121.51628906 -77.36507812 121.96617187 -76.609375 122.4296875 C-72.65765666 124.61906147 -68.7820218 126.13152639 -64.41015625 127.23828125 C-63.61673828 127.4398584 -62.82332031 127.64143555 -62.00585938 127.84912109 C-60.42735618 128.23484317 -58.84255593 128.59590266 -57.25195312 128.92822266 C-51.12129664 130.39164391 -48.42652977 132.99995809 -44.83203125 138.06640625 C-44.34154297 138.72012207 -43.85105469 139.37383789 -43.34570312 140.04736328 C-41.77194124 142.16002245 -40.23639964 144.29642227 -38.70703125 146.44140625 C-37.87703613 147.59648682 -37.87703613 147.59648682 -37.03027344 148.77490234 C-34.11512701 152.84006825 -31.22587458 156.92266453 -28.35546875 161.01953125 C-27.8052002 161.80408691 -27.25493164 162.58864258 -26.68798828 163.39697266 C-25.63086558 164.90728569 -24.57706072 166.41992732 -23.52685547 167.93505859 C-22.3196234 169.66279865 -21.07939403 171.36741212 -19.83203125 173.06640625 C-19.50203125 173.06640625 -19.17203125 173.06640625 -18.83203125 173.06640625 C-19.48379077 163.24723394 -21.28721759 153.74014351 -23.19140625 144.09765625 C-25.43899642 132.16217739 -25.43899642 132.16217739 -23.83203125 127.06640625 C-22.15234375 125.3515625 -22.15234375 125.3515625 -19.95703125 124.12890625 C-19.14492187 123.64035156 -18.3328125 123.15179688 -17.49609375 122.6484375 C-16.61695313 122.12636719 -15.7378125 121.60429687 -14.83203125 121.06640625 C0.54914828 110.90777621 11.61363212 97.68120676 15.75634766 79.46044922 C17.9094761 66.93756811 17.24251087 53.76280989 12.16796875 42.06640625 C11.62462891 40.75349609 11.62462891 40.75349609 11.0703125 39.4140625 C4.03482283 23.93598522 -9.31361358 12.22791851 -24.89453125 5.81640625 C-47.88778146 -1.90206138 -71.79670655 3.02636891 -89.83203125 19.06640625 Z M94.16796875 19.06640625 C81.88534978 30.95097738 74.2695344 45.29193491 73.82446289 62.51635742 C73.60694278 82.28708027 78.91141513 96.93134506 92.5703125 111.64453125 C98.2053967 116.89829396 104.75073755 121.19954841 111.5 124.88671875 C114.16796875 127.06640625 114.16796875 127.06640625 114.91064453 130.22192383 C115.18133734 134.26613605 114.75825434 137.82150903 113.953125 141.7578125 C113.81853378 142.46614731 113.68394257 143.17448212 113.54527283 143.90428162 C113.11754345 146.1480098 112.67507884 148.38846747 112.23046875 150.62890625 C111.79145254 152.87322275 111.35578862 155.11806815 110.92637634 157.36424255 C110.65976384 158.75560146 110.38744033 160.1458827 110.1084137 161.5348053 C109.35385792 165.43528913 109.03566794 169.09623143 109.16796875 173.06640625 C115.79720954 164.8176934 122.23981244 156.45214081 128.35546875 147.81640625 C140.63600873 130.49671716 140.63600873 130.49671716 150.60546875 128.31640625 C168.35668075 124.1118557 182.32930367 113.73449289 192.35546875 98.50390625 C200.39948727 84.11282655 202.93049923 67.32590724 199.43359375 51.125 C198.52901618 47.98492951 197.46777229 45.06234688 196.16796875 42.06640625 C195.62462891 40.75349609 195.62462891 40.75349609 195.0703125 39.4140625 C188.03482283 23.93598522 174.68638642 12.22791851 159.10546875 5.81640625 C136.11221854 -1.90206138 112.20329345 3.02636891 94.16796875 19.06640625 Z M32.16796875 50.06640625 C32.49796875 55.34640625 32.82796875 60.62640625 33.16796875 66.06640625 C41.08796875 66.06640625 49.00796875 66.06640625 57.16796875 66.06640625 C57.49796875 60.78640625 57.82796875 55.50640625 58.16796875 50.06640625 C49.58796875 50.06640625 41.00796875 50.06640625 32.16796875 50.06640625 Z M32.16796875 82.06640625 C31.34296875 84.58265625 30.51796875 87.09890625 29.66796875 89.69140625 C25.65749921 101.31481852 20.32110511 111.50973597 11.63671875 120.39453125 C9.94797057 121.94593018 9.94797057 121.94593018 10.16796875 124.06640625 C9.61109375 124.31519531 9.05421875 124.56398437 8.48046875 124.8203125 C5.76612125 126.28294232 3.55325488 128.05131684 1.16796875 130.00390625 C-1.79298625 132.41870949 -4.76836466 134.78363459 -7.83203125 137.06640625 C-6.57172685 144.13280345 -5.30795397 151.19857392 -4.04174805 158.26391602 C-3.61125752 160.66839478 -3.18156628 163.07301678 -2.75268555 165.4777832 C-2.13669698 168.93087982 -1.51785195 172.38345399 -0.8984375 175.8359375 C-0.70673477 176.91414261 -0.51503204 177.99234772 -0.31752014 179.10322571 C-0.13740891 180.10403671 0.04270233 181.10484772 0.22827148 182.13598633 C0.46476662 183.45836052 0.46476662 183.45836052 0.70603943 184.80744934 C1.1520371 187.21820358 1.1520371 187.21820358 2.16796875 190.06640625 C30.54796875 190.06640625 58.92796875 190.06640625 88.16796875 190.06640625 C92.29124527 169.56812599 92.29124527 169.56812599 95.98046875 149.00390625 C96.19638672 147.73353516 96.41230469 146.46316406 96.63476562 145.15429688 C97.14908397 142.12553328 97.66021498 139.09627588 98.16796875 136.06640625 C97.41451172 135.59082275 96.66105469 135.11523926 95.88476562 134.62524414 C94.89541016 133.9986792 93.90605469 133.37211426 92.88671875 132.7265625 C91.4162207 131.79662476 91.4162207 131.79662476 89.91601562 130.84790039 C72.23396973 119.38504601 64.59472222 101.34666665 58.16796875 82.06640625 C49.58796875 82.06640625 41.00796875 82.06640625 32.16796875 82.06640625 Z M-70.83203125 206.06640625 C-70.83203125 211.34640625 -70.83203125 216.62640625 -70.83203125 222.06640625 C-35.19203125 222.06640625 0.44796875 222.06640625 37.16796875 222.06640625 C37.16796875 216.78640625 37.16796875 211.50640625 37.16796875 206.06640625 C26.60796875 206.06640625 16.04796875 206.06640625 5.16796875 206.06640625 C4.50796875 209.36640625 3.84796875 212.66640625 3.16796875 216.06640625 C-0.05660144 217.67869135 -3.34495438 217.65766399 -6.83203125 217.06640625 C-10.03000562 214.59524424 -11.58699828 212.63092924 -13.19628906 208.92333984 C-16.28344104 205.57711416 -16.96517655 205.61113711 -21.33496094 205.38525391 C-23.64149422 205.38620344 -25.94816343 205.42008072 -28.25390625 205.48046875 C-29.46902893 205.48895844 -30.68415161 205.49744812 -31.93609619 205.50619507 C-35.81897458 205.53979456 -39.69978004 205.61509546 -43.58203125 205.69140625 C-46.21351169 205.72149695 -48.84502466 205.7488743 -51.4765625 205.7734375 C-57.9291847 205.83960893 -64.38025649 205.9431843 -70.83203125 206.06640625 Z " fill="#000000" transform="translate(178.83203125,37.93359375)"/>
<path d="M0 0 C3.26701612 2.66358727 6.39330111 5.45632415 9.50390625 8.30078125 C10.70273437 9.37585938 10.70273437 9.37585938 11.92578125 10.47265625 C23.25289034 21.15709249 31.22417267 34.17323423 37.50390625 48.30078125 C38.22707031 49.89986328 38.22707031 49.89986328 38.96484375 51.53125 C50.78051581 79.78144774 49.75735979 113.27799334 38.81640625 141.55078125 C32.90163585 155.93577959 24.97055595 167.85479591 14.50390625 179.30078125 C13.7871875 180.1 13.07046875 180.89921875 12.33203125 181.72265625 C1.64253838 193.05512614 -11.36968274 201.0066886 -25.49609375 207.30078125 C-26.55054688 207.78289062 -27.605 208.265 -28.69140625 208.76171875 C-56.86326923 220.65010083 -90.59211526 219.58413017 -118.80859375 208.61328125 C-133.15670956 202.68516729 -145.07138452 194.74797525 -156.49609375 184.30078125 C-157.2953125 183.5840625 -158.09453125 182.86734375 -158.91796875 182.12890625 C-170.24507784 171.44447001 -178.21636017 158.42832827 -184.49609375 144.30078125 C-184.97820312 143.23472656 -185.4603125 142.16867187 -185.95703125 141.0703125 C-197.77270331 112.82011476 -196.74954729 79.32356916 -185.80859375 51.05078125 C-179.89382335 36.66578291 -171.96274345 24.74676659 -161.49609375 13.30078125 C-160.779375 12.5015625 -160.06265625 11.70234375 -159.32421875 10.87890625 C-148.63472588 -0.45356364 -135.62250476 -8.4051261 -121.49609375 -14.69921875 C-120.44164062 -15.18132812 -119.3871875 -15.6634375 -118.30078125 -16.16015625 C-80.31158865 -32.19140121 -32.31783025 -25.47213687 0 0 Z M-141.49609375 18.30078125 C-142.14835937 18.79578125 -142.800625 19.29078125 -143.47265625 19.80078125 C-161.94154866 34.39348636 -173.22943554 59.47366086 -176.49609375 82.30078125 C-177.40660663 97.63884168 -177.33632065 112.63727419 -172.49609375 127.30078125 C-171.95275391 128.99460937 -171.95275391 128.99460937 -171.3984375 130.72265625 C-166.958868 143.30394473 -160.13354963 154.1993498 -151.49609375 164.30078125 C-151.05265625 164.88859375 -150.60921875 165.47640625 -150.15234375 166.08203125 C-134.89067879 185.81052498 -107.92994102 196.59431141 -83.95703125 199.76953125 C-57.7034249 202.24310444 -30.90293365 194.66329503 -10.18359375 178.23828125 C-8.61840519 176.92898859 -7.05562531 175.61680701 -5.49609375 174.30078125 C-4.61050781 173.63369141 -4.61050781 173.63369141 -3.70703125 172.953125 C11.41350676 161.23649957 20.81488813 142.11068389 26.50390625 124.30078125 C26.84550781 123.264375 27.18710937 122.22796875 27.5390625 121.16015625 C32.30725292 103.50676287 31.21063424 82.58936047 25.50390625 65.30078125 C25.14167969 64.1715625 24.77945313 63.04234375 24.40625 61.87890625 C19.9666805 49.29761777 13.14136213 38.4022127 4.50390625 28.30078125 C4.06046875 27.71296875 3.61703125 27.12515625 3.16015625 26.51953125 C-12.10150871 6.79103752 -39.06224648 -3.99274891 -63.03515625 -7.16796875 C-91.89890954 -9.88746585 -119.49024642 -0.32532844 -141.49609375 18.30078125 Z " fill="#000000" transform="translate(441.49609375,271.69921875)"/>
<path d="M0 0 C10.75329433 8.1427679 18.0971246 19.465563 20.4296875 32.83984375 C22.11323584 50.34948323 19.10370789 64.95128857 7.80859375 78.83203125 C3.17755274 83.82955752 -2.55201885 87.68694787 -8.5703125 90.83984375 C-9.5603125 90.83984375 -10.5503125 90.83984375 -11.5703125 90.83984375 C-11.46589844 92.74056641 -11.46589844 92.74056641 -11.359375 94.6796875 C-10.71407816 111.31382265 -10.71407816 111.31382265 -15.82421875 117.23828125 C-21.99713614 122.90024127 -26.75943918 123.60940793 -35.1171875 123.3515625 C-40.29789681 122.58383295 -43.99520067 120.66177293 -47.5703125 116.83984375 C-51.44325228 111.20006847 -52.18631538 107.05322879 -52.171875 100.28515625 C-52.18044525 99.38417206 -52.1890155 98.48318787 -52.19784546 97.55490112 C-52.20928197 95.65724025 -52.21036953 93.75949175 -52.20166016 91.86181641 C-52.19534407 88.97925128 -52.24228548 86.10080767 -52.29296875 83.21875 C-52.40710938 66.57889011 -52.40710938 66.57889011 -47.17211914 60.30395508 C-41.8847634 55.47111369 -37.10476416 54.47975939 -30.1015625 53.40234375 C-26.79324894 52.66716296 -24.87306489 51.29611297 -22.5703125 48.83984375 C-20.96944623 45.63811121 -21.07114161 42.31407316 -21.5703125 38.83984375 C-23.36395161 36.02980915 -24.58912185 34.33043907 -27.5703125 32.83984375 C-33.28366116 32.34981663 -33.28366116 32.34981663 -38.4453125 34.46484375 C-41.36190398 37.72456364 -42.1902843 40.71478812 -42.953125 44.98046875 C-44.31270845 52.24806031 -46.80340521 56.54389941 -52.5078125 61.27734375 C-58.08797822 64.07353183 -64.54788708 63.73230725 -70.5703125 62.83984375 C-76.32404298 60.53997691 -79.82068077 57.2623079 -82.78076172 51.7824707 C-84.12056825 48.48598319 -84.16308728 45.21136863 -84.0703125 41.71484375 C-84.05750244 40.97347168 -84.04469238 40.23209961 -84.03149414 39.46826172 C-83.55071408 26.20900378 -78.31676406 14.79824472 -69.3203125 5.08984375 C-50.15721259 -12.66796216 -21.51643645 -14.7496731 0 0 Z M-59.5703125 20.83984375 C-65.46767916 28.44979464 -66.90802233 35.34644527 -66.5703125 44.83984375 C-64.9203125 45.16984375 -63.2703125 45.49984375 -61.5703125 45.83984375 C-59.48190867 42.707238 -59.25462458 41.34445185 -58.8203125 37.71484375 C-57.6019637 30.67446176 -54.87430511 25.51799475 -49.28125 20.984375 C-41.16667048 15.4204695 -33.19400324 14.75410626 -23.5703125 15.83984375 C-16.71274039 17.78791837 -11.31428624 21.75151262 -7.5703125 27.83984375 C-3.48289983 35.96565934 -2.92176468 45.11755109 -5.44921875 53.890625 C-8.64266027 60.83609683 -13.20106191 65.0598623 -19.8828125 68.58984375 C-23.72555128 69.89246706 -27.42761153 70.62590915 -31.43359375 71.21484375 C-33.94125368 71.69982272 -33.94125368 71.69982272 -35.5703125 74.83984375 C-35.87989898 77.79650438 -35.87989898 77.79650438 -35.8359375 81.15234375 C-35.83851563 82.39242187 -35.84109375 83.6325 -35.84375 84.91015625 C-35.83601563 86.20695312 -35.82828125 87.50375 -35.8203125 88.83984375 C-35.82804687 90.13664062 -35.83578125 91.4334375 -35.84375 92.76953125 C-35.83988281 94.62964844 -35.83988281 94.62964844 -35.8359375 96.52734375 C-35.83368164 97.66558594 -35.83142578 98.80382812 -35.82910156 99.9765625 C-35.78200961 103.03964528 -35.78200961 103.03964528 -33.5703125 105.83984375 C-31.09764485 105.49539494 -31.09764485 105.49539494 -28.5703125 104.83984375 C-27.34252462 102.384268 -27.41339549 100.68139393 -27.359375 97.9375 C-27.31683594 96.47860352 -27.31683594 96.47860352 -27.2734375 94.99023438 C-27.22145757 92.93572745 -27.17715548 90.88101157 -27.140625 88.82617188 C-27.09421875 87.3653418 -27.09421875 87.3653418 -27.046875 85.875 C-27.02705566 84.98176025 -27.00723633 84.08852051 -26.98681641 83.16821289 C-26.49283877 80.40674472 -25.76310548 79.53377382 -23.5703125 77.83984375 C-21.44140625 76.98828125 -21.44140625 76.98828125 -19.0078125 76.21484375 C-10.03705984 72.77867826 -2.61853236 65.56038404 1.4296875 56.83984375 C4.71429869 48.62831578 4.90851017 37.85426512 1.9921875 29.46484375 C-2.55362492 19.9395195 -10.60341761 12.6266017 -20.32421875 8.73828125 C-35.83004458 4.44665677 -48.89022171 9.32507446 -59.5703125 20.83984375 Z " fill="#000000" transform="translate(399.5703125,285.16015625)"/>
<path d="M0 0 C4.91512651 1.39586209 8.53475542 5.30867111 12.26953125 8.64453125 C13.85739671 10.03832427 15.46069136 11.41482366 17.08203125 12.76953125 C17.76910156 13.37023437 18.45617187 13.9709375 19.1640625 14.58984375 C21.23483554 15.89385377 21.23483554 15.89385377 23.58203125 15.203125 C27.26176667 13.06909239 30.29277641 10.40903009 33.45703125 7.58203125 C34.69901127 6.48526736 35.94243488 5.39013538 37.1875 4.296875 C37.73172607 3.81210693 38.27595215 3.32733887 38.83666992 2.82788086 C41.79951766 0.38096947 44.49974044 0.29913543 48.29296875 0.375 C50.26953125 0.64453125 50.26953125 0.64453125 52.76953125 2.14453125 C54.86351765 5.63450859 55.14317963 8.740661 54.26953125 12.64453125 C52.62719014 14.77957469 51.32849087 15.98554612 49.26953125 17.64453125 C47.53728368 19.22449332 45.80836169 20.80810602 44.08203125 22.39453125 C39.535705 26.51144437 39.535705 26.51144437 37.26953125 27.64453125 C37.26953125 28.30453125 37.26953125 28.96453125 37.26953125 29.64453125 C38.94488584 31.16438008 40.68658747 32.61159578 42.45703125 34.01953125 C43.41996094 34.79039063 44.38289063 35.56125 45.375 36.35546875 C47.26521775 37.85029682 49.16336648 39.33516545 51.0703125 40.80859375 C53.26953125 42.64453125 53.26953125 42.64453125 54.26953125 44.64453125 C54.83825163 51.69666395 54.83825163 51.69666395 52.76953125 55.14453125 C49.99514816 56.8091611 47.79207506 57.45201489 44.5390625 57.2890625 C39.62393599 55.89320041 36.00430708 51.98039139 32.26953125 48.64453125 C30.68166579 47.25073823 29.07837114 45.87423884 27.45703125 44.51953125 C26.76996094 43.91882813 26.08289063 43.318125 25.375 42.69921875 C23.30422696 41.39520873 23.30422696 41.39520873 20.95703125 42.0859375 C17.27729583 44.21997011 14.24628609 46.88003241 11.08203125 49.70703125 C9.84005123 50.80379514 8.59662762 51.89892712 7.3515625 52.9921875 C6.80733643 53.47695557 6.26311035 53.96172363 5.70239258 54.46118164 C2.73954484 56.90809303 0.03932206 56.98992707 -3.75390625 56.9140625 C-5.73046875 56.64453125 -5.73046875 56.64453125 -8.23046875 55.14453125 C-10.32445515 51.65455391 -10.60411713 48.5484015 -9.73046875 44.64453125 C-8.08812764 42.50948781 -6.78942837 41.30351638 -4.73046875 39.64453125 C-2.99822118 38.06456918 -1.26929919 36.48095648 0.45703125 34.89453125 C5.0033575 30.77761813 5.0033575 30.77761813 7.26953125 29.64453125 C7.26953125 28.98453125 7.26953125 28.32453125 7.26953125 27.64453125 C5.59417666 26.12468242 3.85247503 24.67746672 2.08203125 23.26953125 C1.11910156 22.49867187 0.15617187 21.7278125 -0.8359375 20.93359375 C-2.72615525 19.43876568 -4.62430398 17.95389705 -6.53125 16.48046875 C-8.73046875 14.64453125 -8.73046875 14.64453125 -9.73046875 12.64453125 C-10.29918913 5.59239855 -10.29918913 5.59239855 -8.23046875 2.14453125 C-5.45608566 0.4799014 -3.25301256 -0.16295239 0 0 Z " fill="#000000" transform="translate(109.73046875,75.35546875)"/>
<path d="M0 0 C2.5 1.5 2.5 1.5 4 4 C4.90662535 11.34843705 2.68557495 14.94890982 -1.625 20.75 C-2.20314453 21.55840332 -2.78128906 22.36680664 -3.37695312 23.19970703 C-4.6055718 24.91759571 -5.8411189 26.63054716 -7.08300781 28.33886719 C-9.02724697 31.03782373 -10.92194444 33.76566173 -12.8046875 36.5078125 C-13.42263184 37.40532227 -14.04057617 38.30283203 -14.67724609 39.22753906 C-15.86659343 40.95500792 -17.05448748 42.68347852 -18.24072266 44.41308594 C-26.04163504 55.61474788 -26.04163504 55.61474788 -31.8125 56.75 C-37.39685793 56.30531965 -40.24214042 52.84032045 -44 49 C-45.2664898 47.75343869 -46.53489493 46.50882182 -47.8046875 45.265625 C-50.51412262 42.59736378 -53.21887771 39.9248668 -55.90234375 37.23046875 C-56.47460693 36.65707764 -57.04687012 36.08368652 -57.63647461 35.49291992 C-60.30355738 32.57273888 -60.34737535 29.86876762 -60.26953125 25.9765625 C-60 24 -60 24 -58.5 21.5 C-55.68600942 19.81160565 -53.4333397 19.25114164 -50.140625 19.421875 C-45.83325563 20.58517914 -43.08000884 23.93183735 -40 27 C-38.50889151 28.3225928 -37.00918024 29.63556634 -35.5 30.9375 C-34.33333333 31.95833333 -33.16666667 32.97916667 -32 34 C-31.79761719 33.35417969 -31.59523438 32.70835938 -31.38671875 32.04296875 C-29.41559841 27.71760891 -26.63421681 24.12128424 -23.8125 20.3125 C-22.63475282 18.7062157 -21.45766469 17.09944795 -20.28125 15.4921875 C-19.71535156 14.72100586 -19.14945312 13.94982422 -18.56640625 13.15527344 C-16.05890004 9.70510747 -13.65622656 6.18706972 -11.26953125 2.65234375 C-8.4700955 -0.99122954 -4.21646853 -0.57497298 0 0 Z " fill="#000000" transform="translate(344,76)"/>
<path d="M0 0 C4.68796317 2.8950501 8.77605467 6.42344712 10.234375 11.89453125 C11.16656452 18.74158704 11.3930195 24.99387098 7.671875 31.01953125 C3.66347868 35.99068326 0.31000422 38.47580101 -6.0078125 39.3359375 C-13.1275177 39.69575056 -18.34453314 39.19135672 -23.98828125 34.640625 C-29.08369757 29.63479842 -30.03494232 26.05750776 -30.390625 19.01953125 C-30.17838344 12.13997715 -28.58962241 7.80486419 -23.765625 2.89453125 C-17.29271618 -2.6344117 -7.84970384 -3.13766411 0 0 Z M-11.765625 15.89453125 C-12.095625 17.54453125 -12.425625 19.19453125 -12.765625 20.89453125 C-10.290625 21.38953125 -10.290625 21.38953125 -7.765625 21.89453125 C-7.435625 20.24453125 -7.105625 18.59453125 -6.765625 16.89453125 C-8.415625 16.56453125 -10.065625 16.23453125 -11.765625 15.89453125 Z " fill="#000000" transform="translate(377.765625,417.10546875)"/>
<path d="M0 0 C2.5 1.5 2.5 1.5 4 4 C4.791013 8.02098277 4.62153384 10.96411027 2.5 14.5 C-1.03588973 16.62153384 -3.97901723 16.791013 -8 16 C-10.5 14.5 -10.5 14.5 -12 12 C-12.791013 7.97901723 -12.62153384 5.03588973 -10.5 1.5 C-6.96411027 -0.62153384 -4.02098277 -0.791013 0 0 Z " fill="#000000" transform="translate(132,312)"/>
<path d="M0 0 C2.5 1.5 2.5 1.5 4 4 C4.791013 8.02098277 4.62153384 10.96411027 2.5 14.5 C-1.03588973 16.62153384 -3.97901723 16.791013 -8 16 C-10.5 14.5 -10.5 14.5 -12 12 C-12.791013 7.97901723 -12.62153384 5.03588973 -10.5 1.5 C-6.96411027 -0.62153384 -4.02098277 -0.791013 0 0 Z " fill="#000000" transform="translate(108,312)"/>
<path d="M0 0 C2.5 1.5 2.5 1.5 4 4 C4.791013 8.02098277 4.62153384 10.96411027 2.5 14.5 C-1.03588973 16.62153384 -3.97901723 16.791013 -8 16 C-10.5 14.5 -10.5 14.5 -12 12 C-12.791013 7.97901723 -12.62153384 5.03588973 -10.5 1.5 C-6.96411027 -0.62153384 -4.02098277 -0.791013 0 0 Z " fill="#000000" transform="translate(84,312)"/>
</svg>
