<?xml version="1.0" encoding="UTF-8"?>
<svg version="1.1" xmlns="http://www.w3.org/2000/svg" width="512" height="512">
<path d="M0 0 C4.9544684 3.26841924 4.9544684 3.26841924 7.19067383 5.34033203 C10.55052819 7.31597673 14.16824518 7.01307934 17.96411133 7.06689453 C49.31532397 8.2096582 78.64877691 20.47918129 100.27661133 43.56689453 C102.66284274 45.96086089 105.05509024 48.34814741 107.46020508 50.72314453 C146.0744762 90.8766327 163.45175197 154.22030191 165.27661133 208.56689453 C165.33848633 210.02289063 165.33848633 210.02289063 165.40161133 211.50830078 C165.70941664 225.03249664 164.3532089 238.98023156 161.46411133 252.19189453 C161.32328125 252.88371826 161.18245117 253.57554199 161.03735352 254.28833008 C160.24262329 257.58878333 159.35989999 259.48018305 156.99536133 261.94189453 C154.11145742 263.66560721 151.87980279 264.33559891 148.58911133 264.94189453 C139.26134943 267.07592124 131.65044771 271.53140878 126.27661133 279.56689453 C121.86883633 287.12105554 119.80436291 294.30983873 121.85473633 303.02392578 C124.36052291 310.25653706 128.94097029 315.21160104 134.27661133 320.56689453 C134.69257568 321.09814941 135.10854004 321.6294043 135.53710938 322.17675781 C138.06996488 324.20090928 140.02115636 323.93581575 143.22973633 323.93798828 C144.40665039 323.95539063 145.58356445 323.97279297 146.79614258 323.99072266 C149.26748564 323.99977993 151.73884577 324.00503729 154.21020508 324.00634766 C166.01370137 324.19298964 166.01370137 324.19298964 171.27661133 328.56689453 C174.72756524 333.61829083 175.85266029 337.31058502 175.66723633 343.46923828 C175.66157654 344.19180313 175.65591675 344.91436798 175.65008545 345.65882874 C175.6278939 347.94139039 175.57773682 350.22231651 175.52661133 352.50439453 C175.50652377 354.06231439 175.48827697 355.62025913 175.47192383 357.17822266 C175.42808662 360.97506603 175.35918554 364.7707041 175.27661133 368.56689453 C176.75085571 368.51976318 176.75085571 368.51976318 178.25488281 368.47167969 C181.939113 368.36219045 185.62320292 368.29388115 189.30859375 368.23730469 C190.89640571 368.20733077 192.4840549 368.16653544 194.07128906 368.11425781 C209.89062769 367.60668545 209.89062769 367.60668545 216.53466797 372.58398438 C221.56280039 378.30766924 222.89081163 382.86211244 222.84301758 390.28173828 C222.84921616 391.09630997 222.85541473 391.91088165 222.86180115 392.75013733 C222.86886822 394.46370252 222.86577996 396.17733683 222.85302734 397.89086914 C222.8391642 400.49446571 222.87327038 403.09446023 222.91137695 405.69775391 C222.9123284 407.3715829 222.91046797 409.04541634 222.90551758 410.71923828 C222.91877579 411.48719223 222.932034 412.25514618 222.94569397 413.04637146 C222.84759911 418.81938576 221.33050415 423.35035324 217.27661133 427.56689453 C210.540754 433.51463523 203.52796618 433.27571418 194.92919922 433.20181274 C193.46780713 433.20757888 192.00642229 433.21552331 190.54505253 433.22544897 C186.54221651 433.24627841 182.53997824 433.23602523 178.53714037 433.22051787 C174.21530179 433.20919217 169.89356508 433.22667311 165.57174683 433.24041748 C157.11044191 433.26264143 148.64935885 433.25785247 140.18804526 433.24335428 C133.31090205 433.23205872 126.43382097 433.23053251 119.55667114 433.23597336 C118.57758697 433.23673952 117.59850279 433.23750569 116.5897494 433.23829507 C114.6007095 433.23989371 112.61166962 433.24151478 110.62262976 433.24315803 C91.97483407 433.25741306 73.32716131 433.24102665 54.67938578 433.2141562 C38.6814593 433.19181765 22.68371422 433.19569784 6.68579102 433.21875 C-11.89562879 433.24551233 -30.47694088 433.25603979 -49.05837727 433.24068868 C-51.04006766 433.23909595 -53.02175806 433.2375241 -55.00344849 433.23597336 C-55.97845792 433.23520198 -56.95346736 433.2344306 -57.95802253 433.23363585 C-64.82627922 433.22932015 -71.69446753 433.2366026 -78.56271362 433.24837112 C-86.93375927 433.26239946 -95.30457051 433.25858916 -103.67558932 433.2319674 C-107.94602912 433.21883368 -112.21607821 433.2136691 -116.48651505 433.23021317 C-120.39744824 433.24513525 -124.30762937 433.2368881 -128.21849453 433.21032541 C-129.63157063 433.20474991 -131.04471053 433.20756013 -132.45774543 433.21970434 C-140.44290202 433.28305654 -146.5750071 433.05667982 -152.72338867 427.56689453 C-158.87726316 420.68822498 -158.4653852 411.41684455 -158.3203125 402.72558594 C-158.28583557 400.43837192 -158.29974089 398.15500148 -158.3190918 395.86767578 C-158.31141198 387.1259619 -157.95695638 380.36493793 -151.90698242 373.50830078 C-151.33077148 373.05326172 -150.75456055 372.59822266 -150.16088867 372.12939453 C-149.58209961 371.65630859 -149.00331055 371.18322266 -148.40698242 370.69580078 C-144.5672735 368.12114677 -140.63767044 368.43689762 -136.21166992 368.46923828 C-135.48344528 368.47065323 -134.75522064 368.47206818 -134.00492859 368.473526 C-131.68187328 368.47911794 -129.35891479 368.49166891 -127.03588867 368.50439453 C-125.45971819 368.50941058 -123.8835462 368.5139733 -122.30737305 368.51806641 C-118.44600769 368.52908473 -114.58471459 368.54634379 -110.72338867 368.56689453 C-110.74695435 367.21325806 -110.74695435 367.21325806 -110.77099609 365.83227539 C-110.82238221 362.4570532 -110.85986277 359.08225182 -110.88818359 355.70678711 C-110.9031918 354.25099086 -110.923605 352.79523921 -110.94970703 351.33959961 C-110.98644543 349.23686664 -111.00319427 347.13473568 -111.01635742 345.03173828 C-111.03206787 343.76966553 -111.04777832 342.50759277 -111.06396484 341.20727539 C-110.62188779 336.48196289 -109.39647166 332.46560958 -106.18823242 328.82470703 C-101.96689643 325.69379287 -99.93207093 324.43925843 -94.71557617 324.46923828 C-93.72944336 324.47246094 -92.74331055 324.47568359 -91.72729492 324.47900391 C-90.69475586 324.48738281 -89.6622168 324.49576172 -88.59838867 324.50439453 C-87.03797852 324.51116211 -87.03797852 324.51116211 -85.44604492 324.51806641 C-82.87176905 324.52987501 -80.29760721 324.54634378 -77.72338867 324.56689453 C-77.88323242 323.48150391 -78.04307617 322.39611328 -78.20776367 321.27783203 C-82.20598192 288.99434636 -74.29794905 254.84720011 -54.36010742 228.87548828 C-53.4849906 227.7696144 -52.60606454 226.66674443 -51.72338867 225.56689453 C-51.28720215 225.01791504 -50.85101563 224.46893555 -50.40161133 223.90332031 C-44.25263832 216.24665569 -37.51839675 209.2767588 -30.53588867 202.37939453 C-21.95846042 193.90009 -14.41469893 185.35972396 -7.78588867 175.25439453 C-7.40746826 174.67915039 -7.02904785 174.10390625 -6.63916016 173.51123047 C-2.59641583 167.14263758 -1.25338437 161.96946235 -1.72338867 154.56689453 C-2.60553754 151.68474566 -2.60553754 151.68474566 -3.72338867 149.56689453 C-4.25448242 149.91623047 -4.78557617 150.26556641 -5.33276367 150.62548828 C-6.39237305 151.30804688 -6.39237305 151.30804688 -7.47338867 152.00439453 C-8.16948242 152.45685547 -8.86557617 152.90931641 -9.58276367 153.37548828 C-14.90902627 156.33992276 -20.73230909 155.75811151 -26.66088867 155.75439453 C-28.24353516 155.75536133 -28.24353516 155.75536133 -29.8581543 155.75634766 C-40.22227518 155.68820341 -50.43646484 154.76703565 -60.72338867 153.56689453 C-60.42303711 154.27974609 -60.12268555 154.99259766 -59.81323242 155.72705078 C-55.76518148 165.92265027 -55.76518148 165.92265027 -57.72338867 171.56689453 C-62.20743522 175.99512307 -68.01942791 178.26574654 -73.66088867 180.87939453 C-79.81498537 183.75786915 -85.94198599 186.63226051 -91.93261719 189.83886719 C-101.90975899 195.12411677 -101.90975899 195.12411677 -107.72338867 193.56689453 C-112.8942898 188.35525717 -116.08625188 181.42245162 -119.34838867 174.94189453 C-120.38950353 172.90839222 -121.43252659 170.87586593 -122.47729492 168.84423828 C-123.27417725 167.29325439 -123.27417725 167.29325439 -124.0871582 165.7109375 C-127.22986909 159.67216835 -130.51946296 153.71354347 -133.80200195 147.75 C-141.68973048 133.39860356 -141.68973048 133.39860356 -140.72338867 128.56689453 C-136.47801576 122.77538191 -131.05898213 117.90056354 -125.78588867 113.06689453 C-124.36956189 111.7554329 -122.9541854 110.4429442 -121.53979492 109.12939453 C-120.54230225 108.20320313 -120.54230225 108.20320313 -119.5246582 107.25830078 C-117.37593915 105.2406367 -115.2889639 103.16942836 -113.22338867 101.06689453 C-110.87191577 98.67443735 -108.45968691 96.4354303 -105.91088867 94.25439453 C-102.52143262 91.34439002 -99.35887414 88.24529511 -96.22338867 85.06689453 C-92.55492369 81.34842492 -88.79189648 77.83021266 -84.81713867 74.44189453 C-82.1835334 72.08344205 -79.70512354 69.5824405 -77.22338867 67.06689453 C-73.55491286 63.34843948 -69.79189638 59.83021258 -65.81713867 56.44189453 C-62.68170159 53.63404043 -59.75514032 50.62207792 -56.80297852 47.62475586 C-53.5358847 44.32632439 -50.16094373 41.24356422 -46.57495117 38.29736328 C-44.02695309 35.91600642 -41.92122104 33.27453338 -39.72338867 30.56689453 C-40.11083252 30.10428223 -40.49827637 29.64166992 -40.89746094 29.16503906 C-53.45544868 14.13727017 -53.45544868 14.13727017 -58.09838867 7.87939453 C-58.88342773 6.82171875 -58.88342773 6.82171875 -59.68432617 5.74267578 C-61.06033247 2.86133928 -61.02567494 0.72174137 -60.72338867 -2.43310547 C-47.27257329 -21.91359671 -15.23080071 -9.78614105 0 0 Z M-35.72338867 4.56689453 C-36.05338867 5.22689453 -36.38338867 5.88689453 -36.72338867 6.56689453 C-35.63670898 7.94361328 -35.63670898 7.94361328 -34.52807617 9.34814453 C-32.53469201 11.87475121 -30.55082075 14.40852213 -28.57104492 16.94580078 C-26.96204544 19.00483303 -25.33628601 21.02863703 -23.65698242 23.03173828 C-21.11785418 26.12152084 -19.8278563 28.11688015 -18.91088867 32.06689453 C-20.74697639 39.97619545 -28.24749801 45.04771156 -34.11010742 50.20751953 C-36.78323255 52.62092399 -39.31959877 55.1281444 -41.84838867 57.69189453 C-44.7026915 60.58170968 -47.57140245 63.36794906 -50.66088867 66.00439453 C-54.01263963 68.86861808 -57.12895284 71.93023546 -60.22338867 75.06689453 C-63.89186088 78.78535443 -67.65488093 82.30357646 -71.62963867 85.69189453 C-74.26324395 88.05034701 -76.74165381 90.55134857 -79.22338867 93.06689453 C-82.89186449 96.78534958 -86.65488096 100.30357648 -90.62963867 103.69189453 C-93.76859215 106.50289764 -96.69689548 109.5195725 -99.65478516 112.51782227 C-102.86720409 115.7569696 -106.19551874 118.77377775 -109.66479492 121.73095703 C-113.8697137 125.48107435 -117.77733627 129.54806658 -121.72338867 133.56689453 C-121.29670898 134.35966797 -120.8700293 135.15244141 -120.43041992 135.96923828 C-113.74094939 148.43880657 -107.23642979 161.00453844 -100.72338867 173.56689453 C-97.06769185 172.97231038 -94.15517421 171.96115942 -90.86010742 170.28173828 C-89.97387695 169.83378906 -89.08764648 169.38583984 -88.17456055 168.92431641 C-87.26254883 168.45574219 -86.35053711 167.98716797 -85.41088867 167.50439453 C-84.47954102 167.03195313 -83.54819336 166.55951172 -82.58862305 166.07275391 C-80.29740098 164.90951809 -78.00917627 163.74076321 -75.72338867 162.56689453 C-76.04436523 161.50599609 -76.3653418 160.44509766 -76.69604492 159.35205078 C-77.90173291 154.90980113 -78.51993355 151.12213558 -77.72338867 146.56689453 C-74.71550898 141.64490958 -71.20874983 139.13450921 -65.72338867 137.56689453 C-62.3985929 137.2025045 -59.12640659 137.23670205 -55.78588867 137.31689453 C-54.9305957 137.32205078 -54.07530273 137.32720703 -53.1940918 137.33251953 C-49.30258503 137.38001313 -45.49141587 137.54427655 -41.63354492 138.06689453 C-37.42507867 138.60504007 -33.33476275 138.78641702 -29.09838867 138.81689453 C-28.37393555 138.83751953 -27.64948242 138.85814453 -26.90307617 138.87939453 C-22.10199173 138.914185 -18.88922986 138.19600319 -14.72338867 135.56689453 C-12.99115203 133.62340952 -11.32457264 131.61969449 -9.72338867 129.56689453 C-5.64748108 124.75941378 -5.64748108 124.75941378 -1.72338867 123.94189453 C2.13380747 124.74547706 3.93736538 126.54230897 6.27661133 129.56689453 C8.06582878 132.66460169 9.55292295 135.87189816 11.02661133 139.12939453 C11.6240918 140.40459961 11.6240918 140.40459961 12.23364258 141.70556641 C16.67774683 151.30935102 18.19276641 160.85999162 14.71411133 171.19189453 C8.72500878 185.64112795 -2.30067119 197.18418991 -12.72338867 208.56689453 C-13.58963867 209.52595703 -14.45588867 210.48501953 -15.34838867 211.47314453 C-19.84290858 216.43433496 -24.39115217 221.2398968 -29.22338867 225.87939453 C-50.22430832 246.79043864 -61.89179908 274.93295931 -62.03588867 304.50439453 C-62.04144775 305.46337646 -62.04700684 306.4223584 -62.05273438 307.41040039 C-61.98938955 313.63930777 -61.13767272 318.20261631 -59.72338867 324.56689453 C-2.63338867 324.56689453 54.45661133 324.56689453 113.27661133 324.56689453 C110.96661133 319.94689453 108.65661133 315.32689453 106.27661133 310.56689453 C102.26278993 299.22348623 103.65612229 287.49299214 108.27661133 276.56689453 C114.16370413 265.31730135 122.01527715 257.45350103 133.27661133 251.56689453 C135.2688433 250.99732052 137.26894914 250.45443263 139.27661133 249.94189453 C142.75976836 248.77091866 143.93338312 248.25335094 145.59692383 244.92626953 C146.45997625 241.45730154 146.93645608 238.1251477 147.27661133 234.56689453 C147.40165039 233.39771484 147.52668945 232.22853516 147.65551758 231.02392578 C151.57374382 186.33630748 140.6610572 137.87639107 119.27661133 98.56689453 C118.91422363 97.88900879 118.55183594 97.21112305 118.1784668 96.51269531 C113.4653983 87.71892399 108.44962567 79.43539831 102.27661133 71.56689453 C101.57922852 70.66583984 100.8818457 69.76478516 100.16333008 68.83642578 C82.76076903 46.92094481 60.98494917 31.25065614 33.27661133 25.56689453 C32.38200195 25.36708984 31.48739258 25.16728516 30.56567383 24.96142578 C27.62602176 24.60880718 24.98838868 24.58521008 22.03833008 24.67236328 C7.24725083 24.97977375 -0.71159489 22.39293546 -11.96899414 12.95654297 C-18.8625296 7.49620289 -27.18962038 5.67281808 -35.72338867 4.56689453 Z M-93.72338867 340.56689453 C-93.72338867 349.80689453 -93.72338867 359.04689453 -93.72338867 368.56689453 C-10.56338867 368.56689453 72.59661133 368.56689453 158.27661133 368.56689453 C158.27661133 359.32689453 158.27661133 350.08689453 158.27661133 340.56689453 C75.11661133 340.56689453 -8.04338867 340.56689453 -93.72338867 340.56689453 Z M-140.72338867 386.56689453 C-140.79748268 390.51781512 -140.85196273 394.46846748 -140.88818359 398.41992188 C-140.91071118 400.42608827 -140.94882437 402.43205979 -140.98706055 404.43798828 C-140.99672852 405.69482422 -141.00639648 406.95166016 -141.01635742 408.24658203 C-141.03206787 409.40915527 -141.04777832 410.57172852 -141.06396484 411.76953125 C-140.95157471 412.69266113 -140.83918457 413.61579102 -140.72338867 414.56689453 C-137.29280938 416.85394739 -136.06806795 416.81730968 -132.03430843 416.81857681 C-130.24544197 416.82640005 -130.24544197 416.82640005 -128.4204368 416.83438134 C-127.10372619 416.8299199 -125.78701559 416.82545846 -124.43040466 416.82086182 C-123.02268231 416.82316494 -121.61496117 416.82634046 -120.20724255 416.83031631 C-116.32991265 416.83869333 -112.45268074 416.83452592 -108.5753504 416.82834387 C-104.39740486 416.82383227 -100.21947657 416.83079667 -96.04153442 416.83630371 C-87.8536678 416.84521298 -79.66583777 416.84326896 -71.4779697 416.83747843 C-64.82616662 416.83296827 -58.17437382 416.83234623 -51.52256966 416.83452606 C-50.10444826 416.83498576 -50.10444826 416.83498576 -48.65767794 416.83545475 C-46.737317 416.83609417 -44.81695606 416.8367426 -42.89659513 416.83739993 C-24.87520366 416.84310764 -6.85383251 416.83653827 11.16755562 416.8257992 C26.64491705 416.81686184 42.12224849 416.8184164 57.59960938 416.82763672 C75.55648049 416.83832909 93.51333378 416.8425598 111.47020763 416.83641219 C113.38334111 416.83577507 115.29647459 416.83514633 117.20960808 416.83452606 C118.6217009 416.83406324 118.6217009 416.83406324 120.06232085 416.83359106 C126.70989734 416.83186112 133.35746256 416.83478561 140.00503731 416.83948517 C148.10072162 416.84508248 156.19636713 416.84360182 164.29204697 416.83292368 C168.42590627 416.82765163 172.55970077 416.82563617 176.69355965 416.83222198 C180.47277054 416.83815194 184.25185615 416.83495565 188.03105556 416.82426688 C190.05650475 416.82095041 192.08196254 416.8275301 194.10740286 416.83438134 C195.8923577 416.8265581 195.8923577 416.8265581 197.71337223 416.81857681 C198.74686363 416.81825211 199.78035504 416.8179274 200.84516436 416.81759286 C203.45746201 416.80661381 203.45746201 416.80661381 205.27661133 414.56689453 C205.73836779 409.91731478 205.60060207 405.23673177 205.58911133 400.56689453 C205.60522461 399.25720703 205.62133789 397.94751953 205.63793945 396.59814453 C205.63858398 395.35033203 205.63922852 394.10251953 205.63989258 392.81689453 C205.64287354 391.66705078 205.64585449 390.51720703 205.64892578 389.33251953 C205.52606201 388.41986328 205.40319824 387.50720703 205.27661133 386.56689453 C201.85410372 384.28522279 200.64593543 384.31648437 196.62435246 384.31521225 C194.84778628 384.30738901 194.84778628 384.30738901 193.03532988 384.29940772 C191.72776541 384.30386916 190.42020094 384.30833061 189.07301331 384.31292725 C187.67496593 384.3106241 186.27691977 384.30744857 184.87887615 384.30347276 C181.0282104 384.29509584 177.17764332 384.29926312 173.32697713 384.30544519 C169.17762342 384.30995692 165.02828707 384.30299227 160.87893677 384.29748535 C152.74654701 384.28857575 144.61419411 384.29052039 136.48180289 384.29631063 C129.87387663 384.30082128 123.26596072 384.30144262 116.65803337 384.299263 C115.24910422 384.2988033 115.24910422 384.2988033 113.81171186 384.29833432 C111.90375638 384.29769488 109.99580091 384.29704646 108.08784544 384.29638913 C90.18180142 384.29068117 72.27577786 384.29725087 54.3697372 384.30798987 C38.99648122 384.31692434 23.62325544 384.31537509 8.25 384.30615234 C-9.58896303 384.29545543 -27.42790811 384.29123207 -45.2668739 384.29737687 C-47.16824758 384.29801399 -49.06962126 384.29864273 -50.97099495 384.299263 C-52.3743733 384.29972583 -52.3743733 384.29972583 -53.80610273 384.300198 C-60.40765499 384.30192679 -67.00919589 384.29900586 -73.61074638 384.29430389 C-81.65367276 384.28870142 -89.69656009 384.29019808 -97.73948198 384.30086538 C-101.84523548 384.30613087 -105.95092381 384.30816398 -110.05667686 384.30156708 C-113.81255391 384.29562351 -117.56830515 384.29885627 -121.32417072 384.30952218 C-123.33223519 384.31282754 -125.34030835 384.30627097 -127.34836382 384.29940772 C-129.12884161 384.30723096 -129.12884161 384.30723096 -130.94528866 384.31521225 C-132.48527331 384.31569931 -132.48527331 384.31569931 -134.05636877 384.3161962 C-136.76449272 384.57075829 -138.41018404 385.17763282 -140.72338867 386.56689453 Z " fill="#000000" transform="translate(157.723388671875,79.43310546875)"/>
<path d="M0 0 C3.88734733 3.47815287 7.24276297 7.47394971 10.625 11.4375 C11.14280029 12.04295654 11.66060059 12.64841309 12.1940918 13.2722168 C16.77902169 18.67088292 21.18439122 24.19825286 25.51171875 29.8046875 C27.04152266 31.78622592 28.59745176 33.71271236 30.20703125 35.6328125 C33.79117833 39.93962875 36.33989951 43.10840855 36 49 C34.23358828 51.80189446 32.96950178 53.51524911 30 55 C26.35317442 55.40520284 24.59846629 55.41902185 21.55078125 53.28515625 C19.04800606 51.04300696 17.05167469 48.78059506 15 46.125 C12.06297877 42.34713801 9.0690625 38.682875 6 35 C5.67 62.72 5.34 90.44 5 119 C28.47013883 118.92087021 28.47013883 118.92087021 51.94018555 118.81982422 C56.48791504 118.81079102 56.48791504 118.81079102 58.61946106 118.80911255 C60.10258688 118.806049 61.58570784 118.79903064 63.06880188 118.78884888 C65.32028813 118.77416967 67.57147097 118.77218933 69.82299805 118.77294922 C71.09096725 118.768508 72.35893646 118.76406677 73.66532898 118.75949097 C78.12544321 119.0811712 80.77656483 119.61748923 83.78823853 123.02075195 C85.5158562 127.26828885 85.41853928 131.12292138 85.38818359 135.66796875 C85.39606903 137.12005234 85.39606903 137.12005234 85.40411377 138.60147095 C85.41730253 141.79697876 85.40857946 144.99198723 85.3984375 148.1875 C85.40045855 150.41040136 85.40337025 152.63330208 85.40713501 154.85620117 C85.41155685 159.51324786 85.40513166 164.17012184 85.39111328 168.82714844 C85.37402165 174.79599251 85.38386356 180.76443188 85.40183067 186.73326111 C85.41267218 191.32290698 85.40922044 195.91245695 85.4014473 200.50210571 C85.39944631 202.70293221 85.40190098 204.90376742 85.40888596 207.10458374 C85.41650627 210.18063418 85.4048876 213.25602958 85.38818359 216.33203125 C85.39425629 217.2412735 85.40032898 218.15051575 85.40658569 219.08731079 C85.35833488 223.88453281 85.11780535 227.10215807 82 231 C79.30468668 233.11774618 77.92785868 232.99746873 74.4375 232.875 C71 232 71 232 69.30644226 230.50152588 C67.37248508 226.79845834 67.6074303 223.1782186 67.65942383 219.10058594 C67.65876671 217.75371704 67.65876671 217.75371704 67.65809631 216.37963867 C67.66018487 213.41432892 67.68351925 210.44958588 67.70703125 207.484375 C67.71262696 205.42743234 67.71689718 203.37048568 67.71989441 201.3135376 C67.73134511 195.90145821 67.76081439 190.48962062 67.79400635 185.07763672 C67.82470228 179.55439525 67.83839874 174.03111469 67.85351562 168.5078125 C67.88568373 157.67176881 67.93688295 146.83590452 68 136 C67.05674866 136.01110306 66.11349731 136.02220612 65.1416626 136.03364563 C56.25446492 136.13498319 47.36738438 136.20994667 38.47974014 136.25906086 C33.91040222 136.28516006 29.34153052 136.3205635 24.77246094 136.37719727 C20.3633745 136.43150631 15.95473658 136.4614181 11.54534149 136.47438622 C9.86275927 136.48362818 8.18020173 136.50167589 6.49781036 136.52865028 C4.14155454 136.56492803 1.78715402 136.56994621 -0.56933594 136.56762695 C-1.61374847 136.59459152 -1.61374847 136.59459152 -2.67926025 136.62210083 C-6.06544623 136.58601514 -7.76493255 136.18798075 -10.43029785 134.05651855 C-12.61105559 129.81015468 -12.57256198 126.24047682 -12.54589844 121.52807617 C-12.55623611 120.58124969 -12.56657379 119.63442322 -12.57722473 118.65890503 C-12.60666632 115.53675295 -12.60815222 112.41524878 -12.609375 109.29296875 C-12.62435569 107.12533836 -12.6410826 104.9577194 -12.65948486 102.79011536 C-12.70318279 97.09045896 -12.72316303 91.39095654 -12.73822021 85.69116211 C-12.75778236 79.8727914 -12.79975344 74.0545872 -12.83984375 68.23632812 C-12.91517246 56.82427008 -12.96544794 45.41224925 -13 34 C-13.37286133 34.46374023 -13.74572266 34.92748047 -14.12988281 35.40527344 C-15.83416926 37.5221432 -17.54204674 39.63608783 -19.25 41.75 C-19.83652344 42.47960937 -20.42304688 43.20921875 -21.02734375 43.9609375 C-29.71213697 54.6949516 -29.71213697 54.6949516 -34.8125 55.375 C-38 55 -38 55 -40.875 52.9375 C-43.57225876 49.20893643 -43.51488755 47.5338709 -43 43 C-41.53502649 40.59026807 -40.19394605 38.72534202 -38.375 36.625 C-37.88862061 36.03557617 -37.40224121 35.44615234 -36.90112305 34.83886719 C-35.84381181 33.56072197 -34.77895487 32.2887897 -33.70751953 31.02246094 C-31.31659051 28.19053987 -28.9722199 25.32120528 -26.62280273 22.45483398 C-24.8380474 20.28111511 -23.04467919 18.1147468 -21.25 15.94921875 C-17.94418874 11.9499141 -14.72569938 7.88931872 -11.55078125 3.78515625 C-8.03505769 -0.26191092 -5.15382752 -0.62201367 0 0 Z " fill="#000000" transform="translate(380,94)"/>
<path d="M0 0 C2.02377553 1.01023248 3.95140292 2.10830947 5.88549805 3.28100586 C6.58239746 3.68963867 7.27929688 4.09827148 7.99731445 4.51928711 C13.75355997 7.96636438 18.97756964 11.84069189 24.01049805 16.28100586 C24.82776367 16.97838867 25.6450293 17.67577148 26.48706055 18.39428711 C64.33703813 51.38118708 82.15973157 102.94003051 85.7253418 151.94116211 C86.08641598 158.07245722 86.29105706 164.20253817 86.38549805 170.34350586 C86.41168213 171.37362793 86.43786621 172.40375 86.46484375 173.46508789 C86.48097626 180.59565557 86.48097626 180.59565557 84.20581055 183.90991211 C81.12426558 185.83450692 78.61866292 186.15214283 75.01049805 186.28100586 C72.41527128 185.50945195 71.41824749 184.90013292 69.93579102 182.64916992 C68.67479219 179.42181144 68.64645411 176.53905152 68.51831055 173.07788086 C68.45535701 171.61952131 68.39177351 170.16118885 68.32763672 168.70288086 C68.29689056 167.94040039 68.26614441 167.17791992 68.23446655 166.39233398 C67.594637 151.12639159 66.24639598 136.24597953 63.01049805 121.28100586 C62.83147949 120.45294434 62.65246094 119.62488281 62.46801758 118.77172852 C55.95943262 89.75888369 43.31663114 61.79122106 22.62768555 40.17163086 C21.01049805 38.28100586 21.01049805 38.28100586 21.01049805 36.28100586 C20.44073242 36.03608398 19.8709668 35.79116211 19.28393555 35.53881836 C16.62092967 34.06547146 14.80927128 32.28526496 12.63549805 30.15600586 C7.57973084 25.49779898 2.31426126 22.346498 -3.69262695 19.10522461 C-12.02830792 14.49294616 -12.02830792 14.49294616 -14.42700195 11.46850586 C-15.2892314 8.11539133 -14.83691358 5.61012296 -13.98950195 2.28100586 C-10.59594254 -1.92700781 -4.78293915 -1.72852568 0 0 Z " fill="#000000" transform="translate(197.989501953125,120.718994140625)"/>
<path d="M0 0 C7.42979569 5.34566356 12.87446929 11.89280974 14.71875 21.0078125 C15.91451644 29.4778248 14.33658007 36.87204187 10.125 44.3125 C4.86025952 50.97084825 -0.73761673 55.69444874 -9 58 C-19.87649741 59.03930975 -29.07757025 58.09579077 -37.8125 51.25 C-44.869292 44.64257919 -47.99150618 36.84971634 -48.375 27.25 C-48.17978729 18.06351976 -45.36946869 10.40785291 -39 3.72265625 C-28.52482735 -5.29990457 -11.86593644 -7.90285354 0 0 Z M-28.8125 19.0625 C-31.23959201 23.02249223 -31.38595477 26.44573368 -31 31 C-28.56479358 35.77675106 -25.81899576 38.63596434 -21 41 C-16.22976255 41.83928774 -12.94221183 41.48855428 -8.625 39.25 C-4.24238455 35.49347247 -2.47057505 33.05362085 -1.9375 27.08984375 C-2.04420285 23.52196708 -3.23690955 21.05602345 -5 18 C-9.58612414 13.74944592 -12.56604193 12.64604066 -18.6796875 12.71484375 C-23.15770911 13.265173 -25.92712687 15.77914437 -28.8125 19.0625 Z " fill="#000000" transform="translate(393,4)"/>
<path d="M0 0 C7.70856905 5.50450605 12.1566241 11.87614784 14.125 21.05078125 C15.50164665 29.76954338 13.56849709 38.55333117 8.6640625 45.90234375 C3.73089455 52.04056036 -1.93493495 55.4353429 -9.3359375 57.90234375 C-19.92804515 58.87195731 -28.3719477 58.30714867 -37.3359375 51.90234375 C-43.99535228 46.24607131 -47.74806489 39.17501559 -48.71484375 30.50390625 C-49.04365318 20.72447751 -47.29899775 13.27089224 -41.1484375 5.58984375 C-30.39634924 -5.85742263 -13.47209037 -7.71649381 0 0 Z M-30.3359375 19.90234375 C-31.79261567 24.27237825 -32.20576636 28.51504171 -30.6171875 32.875 C-28.52919168 36.8405082 -26.53932188 39.34891909 -22.3359375 40.90234375 C-17.28866868 41.57869468 -13.50973639 41.4785723 -8.8984375 39.21484375 C-5.53937738 36.18349681 -3.64238119 34.16094727 -3.01953125 29.5703125 C-2.81790644 25.23212708 -3.08392848 22.43543976 -4.9609375 18.46484375 C-8.63486613 14.50086812 -12.02019269 12.77042826 -17.3984375 12.52734375 C-23.28425046 13.08789737 -26.49828983 15.5164607 -30.3359375 19.90234375 Z " fill="#000000" transform="translate(473.3359375,362.09765625)"/>
<path d="M0 0 C5.33032044 1.08413297 7.93710255 3.95838939 11.6875 7.75 C12.51507813 8.5646875 13.34265625 9.379375 14.1953125 10.21875 C16.37665615 12.37957945 18.53892149 14.55665944 20.6875 16.75 C24.02026439 13.99684681 27.16982723 11.31381864 30.09765625 8.125 C37.49195631 0.07927011 37.49195631 0.07927011 42.0625 -0.125 C45.6875 0.75 45.6875 0.75 48.1875 2.1875 C50.43294503 6.0234686 50.62110565 9.41371643 49.6875 13.75 C47.60321637 16.90705548 44.99641242 19.29966214 42.1875 21.8125 C41.47207031 22.48732422 40.75664062 23.16214844 40.01953125 23.85742188 C38.26084113 25.51059058 36.48483021 27.139095 34.6875 28.75 C35.96071659 31.54934525 37.26273633 33.56197577 39.47265625 35.6953125 C40.00310547 36.21480469 40.53355469 36.73429687 41.08007812 37.26953125 C41.63115234 37.79933594 42.18222656 38.32914063 42.75 38.875 C49.58645757 45.49707388 49.58645757 45.49707388 50 50.625 C49.94090627 53.57968653 49.75314964 54.64058393 48.1875 57.25 C45.37301675 58.93868995 43.12161956 59.50109161 39.828125 59.32421875 C35.49908062 58.1629605 32.73206862 54.88239271 29.6875 51.75 C28.9346875 51.00878906 28.181875 50.26757812 27.40625 49.50390625 C25.48162336 47.6029986 23.57750072 45.68524009 21.6875 43.75 C17.39152861 45.39990206 14.68232354 48.56742807 11.5625 51.8125 C4.96202561 58.62665881 4.96202561 58.62665881 -0.1875 59.125 C-3.50531523 59.07070848 -4.12248641 58.90676121 -6.8125 56.6875 C-8.77308641 52.84801828 -8.97558288 51.04258918 -8.3125 46.75 C-5.99259229 43.56689706 -3.19985731 40.97794049 -0.3125 38.3125 C0.8321875 37.21518555 0.8321875 37.21518555 2 36.09570312 C3.88102151 34.2969763 5.77635731 32.51659982 7.6875 30.75 C4.23492418 26.63684166 0.72834364 22.68581213 -3.125 18.9375 C-8.16758791 14.03005683 -8.16758791 14.03005683 -8.6875 9.4375 C-8.3125 5.75 -8.3125 5.75 -6.25 2.8125 C-3.3125 0.75 -3.3125 0.75 0 0 Z " fill="#000000" transform="translate(242.3125,25.25)"/>
<path d="M0 0 C3.0303481 1.96479887 5.46727917 4.43944707 8 7 C8.82757813 7.8146875 9.65515625 8.629375 10.5078125 9.46875 C12.68915615 11.62957945 14.85142149 13.80665944 17 16 C21.98204139 11.86596566 26.56659962 7.49524962 31.08203125 2.85546875 C33.72093783 0.30255505 34.63540614 0.02700695 38.375 -0.25 C42.25516069 0.01759729 43.29281088 0.35460225 46 3 C47.02372129 6.43405014 46.80330132 9.528039 46 13 C43.93676229 16.2209748 41.35553139 18.60390021 38.5 21.125 C37.78457031 21.7953125 37.06914062 22.465625 36.33203125 23.15625 C34.57522391 24.79593685 32.79969362 26.40771788 31 28 C32.30332981 30.9279748 33.61620913 32.79616201 36.0390625 34.8828125 C45.47105206 43.36585189 45.47105206 43.36585189 46.9609375 47.96875 C47.01186429 51.43177178 46.94564884 53.83681426 44.71264648 56.58349609 C42.03005544 58.80222642 39.82885419 58.72090248 36.43798828 58.60546875 C31.58846698 57.40110135 28.68043378 53.59853195 25.4375 50 C24.71498047 49.236875 23.99246094 48.47375 23.24804688 47.6875 C21.47654659 45.81041361 19.7294599 43.91574862 18 42 C13.69727726 45.56071391 9.81109355 49.22098452 6.0625 53.375 C0.82167077 58.6796445 0.82167077 58.6796445 -3.375 58.8125 C-8.92939579 57.56754922 -8.92939579 57.56754922 -11 55 C-11.99672844 51.41177762 -12.53014456 49.13135922 -10.921875 45.69921875 C-8.39234232 42.14656208 -5.43339789 39.22048527 -2.3125 36.1875 C-1.70599609 35.59001953 -1.09949219 34.99253906 -0.47460938 34.37695312 C1.01240312 32.91335815 2.50558811 31.45603898 4 30 C2.69620607 27.08948677 1.35267716 25.15102596 -1.00390625 23.01171875 C-1.57947266 22.46966797 -2.15503906 21.92761719 -2.74804688 21.36914062 C-3.95396934 20.25148805 -5.16752165 19.1420099 -6.38867188 18.04101562 C-9.4926466 15.0903236 -10.8645352 13.5144437 -11.984375 9.26171875 C-12.00235143 5.50913847 -11.31320203 3.91292108 -9 1 C-5.73952371 -0.63023814 -3.62198965 -0.4673535 0 0 Z " fill="#000000" transform="translate(466,99)"/>
</svg>
