<?xml version="1.0" encoding="UTF-8"?>
<svg version="1.1" xmlns="http://www.w3.org/2000/svg" width="512" height="512">
<path d="M0 0 C8.85624583 7.47039514 14.45673905 15.99953765 15.62109375 27.5703125 C16.10406767 38.01462358 13.29605901 48.1034085 6.4140625 56.0859375 C-1.90740334 64.23238207 -10.52140308 68.12074104 -22.12890625 68.4609375 C-29.5974698 68.28458417 -36.02702638 66.5290948 -42.62890625 63.0859375 C-43.3559375 63.93414062 -44.08296875 64.78234375 -44.83203125 65.65625 C-81.62890625 108.5859375 -81.62890625 108.5859375 -83.12963867 110.33666992 C-84.1273582 111.50075727 -85.12491739 112.66498206 -86.12231445 113.8293457 C-88.65589368 116.78663637 -91.19240762 119.74132119 -93.734375 122.69140625 C-96.23851056 125.59784426 -98.72790217 128.51649593 -101.21386719 131.43847656 C-102.59948586 133.05168477 -104.00622235 134.64402813 -105.41796875 136.234375 C-106.25070312 137.19601563 -107.0834375 138.15765625 -107.94140625 139.1484375 C-108.68003906 139.98503906 -109.41867187 140.82164062 -110.1796875 141.68359375 C-111.87368827 143.98195586 -111.87368827 143.98195586 -111.48828125 146.625 C-110.66112802 148.99366608 -109.67956412 151.15217269 -108.56640625 153.3984375 C-104.93215708 162.36380953 -105.26233542 172.61585156 -108.69140625 181.5859375 C-113.54288508 191.70120214 -121.35886616 198.73699408 -131.62890625 203.0859375 C-140.29256068 205.98654427 -151.91267692 204.95131526 -160.16796875 201.40625 C-169.74063895 196.27043646 -176.62020823 188.70344587 -180.09765625 178.3125 C-182.0266056 170.22793285 -181.88335733 163.04282366 -179.62890625 155.0859375 C-180.58410156 154.74949219 -180.58410156 154.74949219 -181.55859375 154.40625 C-185.81432254 152.57617833 -189.74474643 150.2745253 -193.75390625 147.9609375 C-194.65173828 147.44684326 -195.54957031 146.93274902 -196.47460938 146.40307617 C-201.96297496 143.24633573 -207.41234474 140.02932119 -212.83984375 136.76953125 C-213.74901047 136.2249527 -213.74901047 136.2249527 -214.67654419 135.66937256 C-217.67426619 133.87376751 -220.66736418 132.07128069 -223.65283203 130.25537109 C-224.74837402 129.59746582 -225.84391602 128.93956055 -226.97265625 128.26171875 C-227.94396484 127.67302002 -228.91527344 127.08432129 -229.91601562 126.4777832 C-232.57532297 125.11342835 -234.66122714 124.37490582 -237.62890625 124.0859375 C-239.64677842 125.34603019 -239.64677842 125.34603019 -241.37890625 127.2734375 C-249.20329329 134.68367929 -257.98677936 136.42576136 -268.50390625 136.296875 C-277.1434837 135.71370352 -283.8763465 132.38856111 -290.62890625 127.0859375 C-291.10457031 126.5084375 -291.58023438 125.9309375 -292.0703125 125.3359375 C-293.59621567 123.81125741 -293.59621567 123.81125741 -295.91113281 124.32958984 C-298.88530079 125.15729128 -301.04607404 126.3181613 -303.671875 127.9375 C-304.65148193 128.5348999 -305.63108887 129.1322998 -306.64038086 129.74780273 C-307.68846924 130.39563721 -308.73655762 131.04347168 -309.81640625 131.7109375 C-312.04966813 133.07084009 -314.28408285 134.42885092 -316.51953125 135.78515625 C-317.09549545 136.13532303 -317.67145966 136.48548981 -318.26487732 136.8462677 C-324.24579005 140.47597866 -330.27794404 144.01535304 -336.3331604 147.51947021 C-338.04927367 148.51351361 -339.76232597 149.51283534 -341.4753418 150.51220703 C-342.514729 151.11274902 -343.55411621 151.71329102 -344.625 152.33203125 C-345.54466553 152.86497803 -346.46433105 153.3979248 -347.41186523 153.94702148 C-349.62890625 155.0859375 -349.62890625 155.0859375 -351.62890625 155.0859375 C-351.13390625 156.1996875 -351.13390625 156.1996875 -350.62890625 157.3359375 C-348.0629438 166.9582967 -349.4309678 176.13281213 -353.62890625 185.0859375 C-359.06451905 194.04437784 -366.56048849 200.10704232 -376.5078125 203.390625 C-387.68802916 205.8813366 -398.28611248 204.53647327 -408.05859375 198.61328125 C-416.38506679 192.68382317 -421.94399122 184.8681844 -424.19140625 174.8671875 C-425.89378382 164.04493007 -424.27070965 153.7954128 -417.81640625 144.7109375 C-410.18285296 135.48945207 -401.90334191 130.81723738 -390.0078125 129.2734375 C-379.06895711 128.66642587 -370.30788392 131.75797606 -362.12890625 138.8359375 C-360.95454741 139.91092752 -359.78500493 140.99133343 -358.62890625 142.0859375 C-354.98995697 140.71744025 -351.69649545 139.08133108 -348.33203125 137.13671875 C-346.78684814 136.24774902 -346.78684814 136.24774902 -345.21044922 135.34082031 C-342.95014106 134.02299738 -340.6940762 132.69787454 -338.44189453 131.36621094 C-337.26231269 130.66946725 -336.08245896 129.97318366 -334.90234375 129.27734375 C-334.30773346 128.92634613 -333.71312317 128.57534851 -333.10049438 128.2137146 C-329.50883832 126.11588138 -325.87561454 124.16583328 -322.14985657 122.31724548 C-310.06688272 117.07058935 -310.06688272 117.07058935 -301.62353516 107.75390625 C-300.78675278 102.78668683 -301.53459953 98.10924783 -302.38476562 93.19042969 C-303.1563718 86.53918447 -299.13827424 80.47484479 -295.44140625 75.2734375 C-288.70587791 67.21099565 -279.02126101 61.87617806 -268.5546875 60.890625 C-258.75870105 60.41738894 -248.90847529 63.09609951 -241.3359375 69.45703125 C-233.45018953 76.98187543 -228.6508711 85.08188612 -227.62890625 96.0859375 C-227.73235842 98.53380586 -227.88697348 100.97991367 -228.0859375 103.421875 C-228.18495361 104.67274902 -228.28396973 105.92362305 -228.38598633 107.21240234 C-228.50623169 108.63480225 -228.50623169 108.63480225 -228.62890625 110.0859375 C-227.95649902 110.47225342 -227.2840918 110.85856934 -226.59130859 111.2565918 C-223.39472398 113.09418028 -220.19906352 114.93336876 -217.00390625 116.7734375 C-216.42110901 117.10896637 -215.83831177 117.44449524 -215.237854 117.79019165 C-206.05999128 123.07668967 -196.92206764 128.42618401 -187.83740234 133.87182617 C-182.85973178 136.83834098 -177.84570706 139.56187337 -172.62890625 142.0859375 C-172.14421875 141.62703125 -171.65953125 141.168125 -171.16015625 140.6953125 C-162.37467718 132.65322012 -154.6688054 129.71190571 -142.62890625 129.0859375 C-135.67667099 129.59660427 -129.13762137 131.67530227 -122.62890625 134.0859375 C-122.08363281 133.40789062 -121.53835938 132.72984375 -120.9765625 132.03125 C-117.12584094 127.27873553 -113.24991988 122.60669672 -109.12890625 118.0859375 C-106.01431957 114.66854378 -103.03704005 111.180714 -100.12890625 107.5859375 C-96.51858183 103.12317537 -92.74462696 98.85874217 -88.87890625 94.6171875 C-86.55028572 91.9974894 -84.33327678 89.3107844 -82.12890625 86.5859375 C-79.22077245 82.991161 -76.24349293 79.50333122 -73.12890625 76.0859375 C-66.18076373 68.4466185 -59.72025441 60.42272381 -53.62890625 52.0859375 C-53.89445312 51.58964844 -54.16 51.09335938 -54.43359375 50.58203125 C-59.59973461 40.64569463 -61.40255395 30.90986841 -58.50390625 19.8984375 C-55.12050305 10.10849768 -48.29013963 1.56223728 -39.0390625 -3.265625 C-26.19973518 -8.63304304 -11.49318861 -8.36799765 0 0 Z M-42.06640625 17.859375 C-45.83978674 23.2364422 -46.32363346 28.69227613 -45.62890625 35.0859375 C-44.10982548 41.60136986 -41.01893727 46.76257085 -35.46875 50.56640625 C-29.26014306 54.07904124 -23.69547431 55.31578244 -16.62890625 54.0859375 C-9.19286454 51.74674977 -4.45922042 47.83586177 -0.62890625 41.0859375 C1.98045347 35.51139627 2.32421567 29.68729057 0.75390625 23.75390625 C-1.84968839 16.99147238 -6.30710441 12.39913049 -12.6796875 8.98828125 C-24.26455439 4.15188051 -34.50802677 8.50283266 -42.06640625 17.859375 Z M-283.62890625 83.0859375 C-288.47708506 90.04480101 -289.85562686 96.70720429 -288.62890625 105.0859375 C-286.43941866 112.76202341 -281.04991377 117.14951815 -274.31640625 120.9609375 C-268.28664462 122.80052579 -263.05114225 122.79590322 -257.00390625 121.0234375 C-250.74108727 117.42811549 -244.98099105 113.14219189 -242.62890625 106.0859375 C-240.78789181 98.42406859 -241.77611792 91.97873415 -245.62890625 85.0859375 C-250.35879856 79.35368391 -256.26515955 75.82973831 -263.62890625 74.80859375 C-271.21208512 74.43832134 -278.64252554 77.24274207 -283.62890625 83.0859375 Z M-406.62890625 153.0859375 C-410.50046094 158.96415716 -411.84112256 165.14227741 -410.62890625 172.0859375 C-408.35586563 178.89500166 -404.75751765 184.24257103 -398.62890625 188.0859375 C-392.37348245 191.13479952 -384.89753479 191.23943421 -378.21484375 189.43359375 C-371.86692783 186.57825705 -367.47361045 181.56113057 -364.75390625 175.2109375 C-362.65129873 168.62445611 -362.81944685 163.22053954 -365.69140625 156.8984375 C-369.22992457 150.51522799 -373.37120785 146.69191018 -380.25390625 144.2109375 C-390.61908293 141.27937238 -399.67301439 144.99951694 -406.62890625 153.0859375 Z M-161.125 150.359375 C-165.77061329 155.69278038 -167.92970589 162.0231619 -167.62890625 169.0859375 C-166.30481075 176.05794476 -163.31882638 182.40667564 -157.50390625 186.62890625 C-151.02257839 190.33697363 -144.99227126 191.15530586 -137.62890625 190.0859375 C-130.97928368 188.26210576 -126.47289414 183.66491451 -122.62890625 178.0859375 C-119.69858049 172.10807294 -119.41990807 165.07236393 -121.3515625 158.703125 C-124.50337408 151.99116997 -129.67128357 146.82845673 -136.62890625 144.0859375 C-145.94847582 141.81400263 -154.11579088 143.75673254 -161.125 150.359375 Z " fill="#000000" transform="translate(460.62890625,42.9140625)"/>
<path d="M0 0 C29.37 0 58.74 0 89 0 C89 105.93 89 211.86 89 321 C59.63 321 30.26 321 0 321 C0 215.07 0 109.14 0 0 Z M14 14 C14 110.69 14 207.38 14 307 C34.13 307 54.26 307 75 307 C75 210.31 75 113.62 75 14 C54.87 14 34.74 14 14 14 Z " fill="#000000" transform="translate(394,154)"/>
<path d="M0 0 C29.04 0 58.08 0 88 0 C88 83.49 88 166.98 88 253 C58.96 253 29.92 253 0 253 C0 169.51 0 86.02 0 0 Z M14 14 C14 88.25 14 162.5 14 239 C34.13 239 54.26 239 75 239 C75 164.75 75 90.5 75 14 C54.87 14 34.74 14 14 14 Z " fill="#000000" transform="translate(151,222)"/>
<path d="M0 0 C29.37 0 58.74 0 89 0 C89 61.05 89 122.1 89 185 C59.63 185 30.26 185 0 185 C0 123.95 0 62.9 0 0 Z M14 14 C14 65.81 14 117.62 14 171 C34.13 171 54.26 171 75 171 C75 119.19 75 67.38 75 14 C54.87 14 34.74 14 14 14 Z " fill="#000000" transform="translate(29,290)"/>
<path d="M0 0 C29.04 0 58.08 0 88 0 C88 61.05 88 122.1 88 185 C58.96 185 29.92 185 0 185 C0 123.95 0 62.9 0 0 Z M13 14 C13 65.81 13 117.62 13 171 C33.13 171 53.26 171 74 171 C74 119.19 74 67.38 74 14 C53.87 14 33.74 14 13 14 Z " fill="#000000" transform="translate(273,290)"/>
</svg>
