<?xml version="1.0" encoding="UTF-8"?>
<svg version="1.1" xmlns="http://www.w3.org/2000/svg" width="512" height="512">
<path d="M0 0 C0.67534518 -0.00350607 1.35069035 -0.00701215 2.04650053 -0.01062447 C4.31389984 -0.01994278 6.58104255 -0.01501411 8.84845257 -0.01015663 C10.48873898 -0.01389268 12.12902361 -0.01849402 13.76930541 -0.02388728 C18.2804105 -0.03613834 22.79144155 -0.03585433 27.30255949 -0.03349853 C32.16634908 -0.03309089 37.03011476 -0.0441244 41.89389324 -0.05361366 C51.42436117 -0.07023615 60.95480435 -0.07572377 70.48528556 -0.07683842 C78.23109749 -0.0777883 85.97690126 -0.08189557 93.72271061 -0.08823967 C115.67698501 -0.10585544 137.63123985 -0.11507801 159.58552138 -0.11357872 C161.36136453 -0.11345885 161.36136453 -0.11345885 163.17308331 -0.11333656 C164.35842199 -0.1132548 165.54376068 -0.11317304 166.76501872 -0.1130888 C185.97784664 -0.11227579 205.19059617 -0.13141637 224.40340141 -0.1596133 C244.12458035 -0.18832826 263.84572104 -0.20215436 283.56692141 -0.20042574 C294.64144874 -0.19976137 305.7158939 -0.20527462 316.79040241 -0.22678185 C326.21914667 -0.24497536 335.64777153 -0.24935602 345.07652573 -0.235763 C349.88764322 -0.22922414 354.69853152 -0.22914928 359.50962734 -0.2464695 C363.91461041 -0.26216466 368.31918186 -0.25937307 372.72415467 -0.24190123 C374.31700559 -0.23882349 375.90988696 -0.24249287 377.50270198 -0.25362138 C386.85248436 -0.31461482 394.08231171 -0.2198536 401.43358135 6.22211266 C401.97240948 6.87308922 402.5112376 7.52406578 403.06639385 8.19476891 C403.62069073 8.84316734 404.1749876 9.49156578 404.74608135 10.15961266 C407.47759739 14.12400215 408.44083507 17.66443523 408.45310688 22.44839764 C408.46057237 23.47898778 408.46803787 24.50957793 408.47572958 25.57139808 C408.47282748 27.25962354 408.47282748 27.25962354 408.46986675 28.98195457 C408.47565915 30.18270754 408.48145156 31.38346051 408.48741949 32.62059993 C408.50148403 35.95002614 408.50664988 39.27925158 408.50806808 42.608693 C408.51176299 46.20034682 408.52691893 49.79195438 408.54068279 53.38358116 C408.56295659 59.60515737 408.57796915 65.82671713 408.58804989 72.04832458 C408.60263543 81.04371824 408.62817191 90.03905458 408.65638117 99.03441461 C408.70185143 113.62878511 408.73846527 128.22316387 408.76951885 142.81757164 C408.79970344 156.99466971 408.83405329 171.1717476 408.87401104 185.34882164 C408.87770336 186.65963577 408.87770336 186.65963577 408.88147028 187.99693099 C408.89384486 192.38091089 408.9063014 196.76489056 408.91879869 201.14887011 C409.02236998 237.51830853 409.11157208 273.887771 409.19139385 310.25726891 C410.18139385 309.59726891 411.17139385 308.93726891 412.19139385 308.25726891 C415.71782627 307.79729946 417.56831582 307.88362084 420.6406126 309.72601891 C424.07559825 313.13470298 425.43396077 316.65363614 427.12889385 321.13226891 C427.46880352 322.00995934 427.80871319 322.88764977 428.15892315 323.79193687 C431.90969094 333.75114523 434.75071068 343.90663442 437.19139385 354.25726891 C437.37073467 354.99026207 437.55007549 355.72325523 437.73485088 356.47846031 C443.76238561 381.97128096 442.61791896 410.63268892 429.29881573 433.50189781 C426.47876025 437.97195929 423.04863482 441.67363846 419.19139385 445.25726891 C418.19752666 446.1873275 418.19752666 446.1873275 417.18358135 447.13617516 C399.51286698 462.15292292 375.75968099 466.56291226 353.19139385 465.25726891 C333.19342071 463.41704644 314.73645107 455.24290085 300.19139385 441.25726891 C299.81348937 440.60923294 299.4355849 439.96119697 299.04622877 439.29352355 C297.05207221 435.92646532 295.53092552 433.65095371 291.67595696 432.51798868 C288.45883063 432.24128037 285.32526708 432.22193015 282.09657574 432.28418541 C280.86794445 432.27608872 279.63931317 432.26799203 278.37345064 432.25964999 C274.96923909 432.24516613 271.56865464 432.26645752 268.16483259 432.30283713 C264.49191698 432.33331009 260.81916862 432.31746935 257.14618206 432.30711937 C250.78307537 432.29534438 244.42057022 432.31234914 238.05756283 432.34849358 C228.84911786 432.40040664 219.64113045 432.40434406 210.43256561 432.39587173 C195.48065472 432.38304449 180.52898373 432.4029452 165.57713604 432.44623375 C164.68245249 432.44881639 163.78776893 432.45139903 162.86597376 432.45405993 C161.52228617 432.45794147 161.52228617 432.45794147 160.15145338 432.46190143 C147.45644164 432.49850286 134.76144402 432.52736876 122.06639385 432.54681969 C121.17340775 432.54819609 120.28042165 432.5495725 119.36037536 432.55099061 C104.46658233 432.57328837 89.57280761 432.57941513 74.6789993 432.57729316 C65.49483586 432.57702874 56.31096458 432.59329127 47.12687694 432.6310114 C40.83298328 432.65620775 34.53916228 432.66788835 28.24521853 432.66899905 C24.61477095 432.67022712 20.98465125 432.6781786 17.35428715 432.7038002 C13.41616386 432.73152045 9.47840311 432.72835426 5.54017925 432.72241783 C4.39639927 432.73563521 3.25261928 432.74885258 2.07417929 432.76247048 C-5.68848898 432.71479954 -11.05079263 431.55026577 -17.05079365 426.29242516 C-17.58962177 425.64144859 -18.1284499 424.99047203 -18.68360615 424.31976891 C-19.23790302 423.67137047 -19.7921999 423.02297203 -20.36329365 422.35492516 C-23.49664221 417.80733548 -24.05946646 413.91994502 -24.06587505 408.44866276 C-24.07113417 407.43564499 -24.07113417 407.43564499 -24.07649952 406.40216222 C-24.08581783 404.13476292 -24.08088917 401.86762021 -24.07603168 399.60021019 C-24.07976773 397.95992378 -24.08436907 396.31963915 -24.08976233 394.67935735 C-24.1020134 390.16825226 -24.10172939 385.6572212 -24.09937358 381.14610326 C-24.09896594 376.28231368 -24.10999945 371.418548 -24.11948872 366.55476952 C-24.13611121 357.02430159 -24.14159883 347.49385841 -24.14271347 337.9633772 C-24.14366335 330.21756526 -24.14777062 322.4717615 -24.15411472 314.72595215 C-24.17173049 292.77167774 -24.18095306 270.8174229 -24.17945378 248.86314138 C-24.17937386 247.67924594 -24.17929395 246.49535051 -24.17921162 245.27557945 C-24.17912986 244.09024076 -24.17904809 242.90490208 -24.17896385 241.68364403 C-24.17815085 222.47081612 -24.19729142 203.25806659 -24.22548835 184.04526135 C-24.25420331 164.32408241 -24.26802941 144.60294172 -24.2663008 124.88174134 C-24.26563642 113.80721402 -24.27114967 102.73276886 -24.2926569 91.65826035 C-24.31085042 82.22951608 -24.31523107 72.80089123 -24.30163805 63.37213703 C-24.29509919 58.56101953 -24.29502433 53.75013124 -24.31234455 48.93903542 C-24.32803971 44.53405235 -24.32524813 40.1294809 -24.30777629 35.72450808 C-24.30469854 34.13165717 -24.30836792 32.5387758 -24.31949644 30.94596078 C-24.38048987 21.5961784 -24.28572865 14.36635105 -17.8437624 7.01508141 C-17.19278584 6.47625328 -16.54180927 5.93742516 -15.87110615 5.38226891 C-15.22270771 4.82797203 -14.57430927 4.27367516 -13.9062624 3.70258141 C-9.35867272 0.56923284 -5.47128226 0.00640859 0 0 Z M-5.80860615 19.25726891 C-11.38496566 33.19816769 -7.80860615 49.2424614 -7.80860615 64.25726891 C124.19139385 64.25726891 256.19139385 64.25726891 392.19139385 64.25726891 C394.12731521 40.4461579 394.12731521 40.4461579 389.19139385 18.25726891 C385.42577342 16.00794526 381.91621598 16.00601784 377.59584427 16.00279331 C376.94353713 15.99958683 376.29122999 15.99638036 375.61915597 15.99307671 C373.43013824 15.98476559 371.24139331 15.99070478 369.05237103 15.99657249 C367.46840673 15.99355232 365.88444389 15.98966351 364.30048364 15.98497993 C359.94513467 15.97467398 355.58986776 15.97688834 351.23451197 15.98116052 C346.53845394 15.98362303 341.84241592 15.97461953 337.14636517 15.96712303 C327.94543233 15.95436094 318.74452866 15.9525842 309.54358847 15.95492329 C302.06663838 15.95670486 294.58969717 15.95496029 287.11274815 15.95069885 C286.04941922 15.95010366 284.98609029 15.94950847 283.89053927 15.94889525 C281.73053333 15.94768353 279.57052738 15.94646939 277.41052144 15.94525287 C257.145221 15.9343716 236.8799372 15.93654266 216.61463582 15.94263772 C198.06652172 15.94780792 179.51846012 15.93654976 160.97035641 15.9175395 C141.93397527 15.89817806 122.89761899 15.88990209 103.86122793 15.89366275 C93.17019513 15.89557731 82.47920704 15.89306249 71.78818226 15.87894821 C62.68730985 15.86705504 53.58650966 15.86560632 44.4856363 15.87773838 C39.84087512 15.88364148 35.19624615 15.88468709 30.55149364 15.87273598 C26.30087277 15.86192591 22.05049529 15.86492208 17.79988604 15.87899766 C16.2609081 15.88165808 14.72191139 15.87923609 13.18295182 15.8712618 C11.09260125 15.86118089 9.00310087 15.86955514 6.91278458 15.8825388 C5.75127241 15.88248378 4.58976024 15.88242876 3.39305073 15.88237208 C-0.33659194 16.31909321 -2.67682015 17.18584792 -5.80860615 19.25726891 Z M-7.80860615 80.25726891 C-7.80860615 164.73726891 -7.80860615 249.21726891 -7.80860615 336.25726891 C89.54139385 336.25726891 186.89139385 336.25726891 287.19139385 336.25726891 C287.29301587 329.29078333 287.29301587 329.29078333 285.87889385 323.00726891 C285.63526104 322.19773766 285.39162823 321.38820641 285.1406126 320.55414391 C284.27207989 318.18250272 284.27207989 318.18250272 282.6093626 316.14789391 C280.56811684 313.42623289 280.77676688 311.57428468 281.19139385 308.25726891 C282.12889385 305.88226891 282.12889385 305.88226891 284.19139385 304.25726891 C292.9117615 302.87308356 299.79323961 306.37643369 306.81737041 311.42621422 C311.60509423 315.07932485 316.15012291 318.89744219 319.9765501 323.56976891 C321.07289776 324.90008141 321.07289776 324.90008141 322.19139385 326.25726891 C322.52139385 326.25726891 322.85139385 326.25726891 323.19139385 326.25726891 C323.20541241 325.32382652 323.20541241 325.32382652 323.21971416 324.37152672 C323.71490488 297.91280723 327.38305312 271.72175117 344.19139385 250.25726891 C345.12918682 249.03137047 345.12918682 249.03137047 346.0859251 247.78070641 C351.40123829 241.30706631 358.62796529 234.78185213 367.12889385 233.19476891 C370.17906363 233.25701727 371.74218699 233.46746389 374.19139385 235.25726891 C375.4078968 237.6902748 375.32461565 239.29407439 375.31639385 242.00726891 C375.31897198 242.84773766 375.3215501 243.68820641 375.32420635 244.55414391 C375.19139385 247.25726891 375.19139385 247.25726891 374.69578838 250.05389977 C373.85786321 255.37549521 373.96552095 260.69244144 373.94139385 266.06976891 C373.92076885 267.20736656 373.90014385 268.34496422 373.87889385 269.51703453 C373.84165122 277.58472016 374.10330842 285.1617585 379.7499876 291.40180016 C380.70002666 292.28222984 381.65006573 293.16265953 382.62889385 294.06976891 C384.05008526 295.40974937 384.05008526 295.40974937 385.4999876 296.77680016 C386.38815166 297.59535484 387.27631573 298.41390953 388.19139385 299.25726891 C389.51139385 300.57726891 390.83139385 301.89726891 392.19139385 303.25726891 C392.19139385 229.66726891 392.19139385 156.07726891 392.19139385 80.25726891 C260.19139385 80.25726891 128.19139385 80.25726891 -7.80860615 80.25726891 Z M356.19139385 261.25726891 C351.49298703 268.67455074 347.60406437 276.03350743 344.81639385 284.38226891 C344.45940411 285.4358358 344.45940411 285.4358358 344.09520245 286.51068687 C340.58032149 297.56216191 339.92712967 308.5409251 339.75389385 320.06976891 C339.10771028 350.50831963 339.10771028 350.50831963 335.19139385 362.25726891 C330.47773132 363.18151646 327.39044406 363.75701598 323.19139385 361.25726891 C321.71745958 358.76540797 320.53307724 356.45061922 319.37889385 353.81976891 C314.17946611 341.89117 314.17946611 341.89117 305.19139385 333.25726891 C305.14651836 334.16154625 305.10164288 335.06582359 305.05540752 335.99750328 C303.42452496 368.05460212 303.42452496 368.05460212 301.15697002 383.47992516 C299.07628113 397.99523909 299.69302588 411.46379968 308.3281126 423.83539391 C318.87372281 437.54247636 333.88231931 444.94006396 350.69139385 447.86664391 C369.99423649 450.02097902 390.06861131 446.624268 405.6874876 434.48383141 C418.92642322 422.71129895 422.97971334 408.03391035 424.4765501 391.01508141 C424.935937 375.63560691 421.62517035 359.90898718 417.19139385 345.25726891 C416.53139385 345.25726891 415.87139385 345.25726891 415.19139385 345.25726891 C414.04456786 346.94499478 412.97373069 348.68468109 411.94139385 350.44476891 C406.83567291 358.60339516 406.83567291 358.60339516 402.19139385 361.25726891 C399.13152758 361.50986575 397.24756664 361.07224832 394.19139385 360.25726891 C391.75917143 356.60893528 391.90088556 354.60465988 391.75389385 350.25726891 C390.74352496 330.9933634 382.0031347 315.97304756 368.55076885 302.64008141 C357.40427089 291.38285664 357.6430364 276.14589895 357.19139385 261.25726891 C356.86139385 261.25726891 356.53139385 261.25726891 356.19139385 261.25726891 Z M-7.80860615 352.25726891 C-7.87048115 361.37351891 -7.93235615 370.48976891 -7.99610615 379.88226891 C-8.02341816 382.75123863 -8.05073017 385.62020836 -8.07886982 388.57611656 C-8.08763418 390.85785056 -8.09527824 393.13958926 -8.1015749 395.42133141 C-8.1169228 396.59977623 -8.1322707 397.77822105 -8.14808369 398.99237633 C-8.28874647 407.11784299 -8.28874647 407.11784299 -4.80860615 414.25726891 C-0.4165283 416.65490037 3.96264904 416.52786648 8.83714581 416.48431969 C9.69619015 416.48461174 10.55523449 416.48490379 11.44031048 416.4852047 C14.27020264 416.48381511 17.09982913 416.46827136 19.9296751 416.45258141 C21.89550921 416.44884996 23.86134518 416.44600361 25.82718182 416.44400597 C30.99423158 416.4363799 36.16116841 416.41674018 41.32817364 416.39459801 C47.53149107 416.37051486 53.73484631 416.36135371 59.93819714 416.34969139 C69.35600785 416.33031524 78.77357091 416.29198544 88.19139385 416.25726891 C88.19139385 395.13726891 88.19139385 374.01726891 88.19139385 352.25726891 C56.51139385 352.25726891 24.83139385 352.25726891 -7.80860615 352.25726891 Z M104.19139385 352.25726891 C104.19139385 373.37726891 104.19139385 394.49726891 104.19139385 416.25726891 C164.25139385 416.25726891 224.31139385 416.25726891 286.19139385 416.25726891 C285.20139385 408.33726891 284.21139385 400.41726891 283.19139385 392.25726891 C268.67139385 392.25726891 254.15139385 392.25726891 239.19139385 392.25726891 C238.20139385 395.22726891 238.20139385 395.22726891 237.19139385 398.25726891 C234.01076789 399.84758189 230.6542081 399.65545699 227.19139385 399.25726891 C224.49481141 397.45954728 223.59634836 395.11440329 222.19139385 392.25726891 C221.07052883 392.25140266 219.94966381 392.24553642 218.79483318 392.23949242 C208.24414975 392.18233926 197.6936739 392.10961668 187.14320183 392.02155399 C181.7187698 391.97678036 176.2944141 391.93753973 170.86986065 391.91083336 C165.63721808 391.88487008 160.40486814 391.84451741 155.1724062 391.79408264 C153.17371345 391.77736662 151.17497003 391.76588193 149.17621708 391.759655 C146.3817271 391.75006529 143.58799383 391.72206811 140.79368877 391.68964195 C139.54751781 391.69179459 139.54751781 391.69179459 138.27617168 391.69399071 C132.60999945 391.6006843 132.60999945 391.6006843 130.48020172 389.85344219 C128.87535876 387.86586319 128.78764663 386.78702444 128.81639385 384.25726891 C128.80865948 383.57664391 128.8009251 382.89601891 128.79295635 382.19476891 C129.31150289 379.67320925 130.21726575 378.87680287 132.19139385 377.25726891 C135.12719872 376.9473861 137.85521383 376.81981994 140.79368877 376.82489586 C141.6719482 376.81470421 142.55020763 376.80451256 143.45508099 376.79401207 C146.36073902 376.76379531 149.26606786 376.75460289 152.1718626 376.74555016 C154.18540837 376.72870991 156.19894358 376.71056056 158.21246624 376.69115257 C163.5142668 376.64357546 168.81602458 376.61381598 174.11796856 376.58771324 C179.52729526 376.55794661 184.93647442 376.51140293 190.34569073 376.46625328 C200.96084805 376.38013243 211.57603567 376.31282622 222.19139385 376.25726891 C222.64514385 375.28789391 223.09889385 374.31851891 223.56639385 373.31976891 C225.19139385 370.25726891 225.19139385 370.25726891 227.19139385 369.25726891 C234.47463085 368.79484116 234.47463085 368.79484116 237.12889385 370.50726891 C238.19139385 372.25726891 238.19139385 372.25726891 239.19139385 376.25726891 C254.37139385 376.25726891 269.55139385 376.25726891 285.19139385 376.25726891 C287.47016536 363.63741187 287.47016536 363.63741187 287.19139385 352.25726891 C226.80139385 352.25726891 166.41139385 352.25726891 104.19139385 352.25726891 Z " fill="#000000" transform="translate(47.80860614776611,23.74273109436035)"/>
<path d="M0 0 C0.85207031 0.48339844 1.70414063 0.96679688 2.58203125 1.46484375 C22.60759293 13.91316588 35.36357223 34.4224447 41 57 C46.22276504 79.68668733 41.22215638 102.21944565 30 122 C29.51660156 122.85207031 29.03320312 123.70414063 28.53515625 124.58203125 C16.15714596 144.49448259 -4.44876958 157.56189675 -27 163 C-50.14222875 167.328791 -71.82180855 163.55820967 -92 152 C-92.85078125 151.51660156 -93.7015625 151.03320312 -94.578125 150.53515625 C-114.6099136 138.10535936 -127.36593763 117.56808033 -133 95 C-138.22276504 72.31331267 -133.22215638 49.78055435 -122 30 C-121.51660156 29.14792969 -121.03320312 28.29585937 -120.53515625 27.41796875 C-108.08683412 7.39240707 -87.5775553 -5.36357223 -65 -11 C-42.31331267 -16.22276504 -19.78055435 -11.22215638 0 0 Z M-98 27 C-112.12163286 41.34578576 -117.30219387 58.78100564 -117.3894043 78.50830078 C-117.27036544 87.81839213 -115.60834537 95.46755901 -112 104 C-111.61585938 104.9384375 -111.23171875 105.876875 -110.8359375 106.84375 C-104.51243858 120.78125783 -93.04660272 131.46496061 -80 139 C-79.34386719 139.39058594 -78.68773437 139.78117188 -78.01171875 140.18359375 C-62.1932594 148.88882727 -44.02670027 149.46766385 -26.83984375 145.21875 C-9.38186091 139.88244958 6.83460983 128.42166585 15.96484375 112.29589844 C24.89376934 95.45106794 28.64928581 75.99281085 23.51025391 57.2434082 C20.01562525 46.27736557 14.50514365 36.69439553 7 28 C6.42894531 27.33355469 5.85789062 26.66710937 5.26953125 25.98046875 C-8.14374732 11.48040002 -25.77184444 5.70633963 -45 4 C-65.77744822 4 -83.39561323 12.59567333 -98 27 Z " fill="#000000" transform="translate(286,156)"/>
<path d="M0 0 C1.05960938 0.60005859 2.11921875 1.20011719 3.2109375 1.81835938 C25.74531644 14.67344932 25.74531644 14.67344932 28.625 23.3125 C29.16281878 29.32159059 29.09350491 34.16954445 25.625 39.3125 C22.29313927 42.93540985 19.03981017 45.4822488 14.765625 47.90625 C13.09113281 48.86337891 13.09113281 48.86337891 11.3828125 49.83984375 C10.21362864 50.49755047 9.04435732 51.15510173 7.875 51.8125 C6.73289062 52.46347656 5.59078125 53.11445313 4.4140625 53.78515625 C2.17977578 55.05638835 -0.05865518 56.32036904 -2.30151367 57.57641602 C-4.20590511 58.65212715 -6.09929796 59.74789527 -7.97387695 60.87475586 C-14.5231437 64.76059418 -19.77868042 65.3862202 -27.375 64.3125 C-32.28925162 62.03088318 -35.23063556 58.62477123 -38.375 54.3125 C-39.31502348 51.4520068 -39.50961843 48.82228096 -39.53613281 45.82275391 C-39.54574036 44.94148834 -39.5553479 44.06022278 -39.56524658 43.1522522 C-39.56949646 42.2073996 -39.57374634 41.262547 -39.578125 40.2890625 C-39.58382507 39.31013031 -39.58952515 38.33119812 -39.59539795 37.32260132 C-39.60483567 35.25316444 -39.61137705 33.18371262 -39.61523438 31.11425781 C-39.62494278 27.95611262 -39.65597918 24.79861762 -39.6875 21.640625 C-39.69403024 19.62760802 -39.69928063 17.6145864 -39.703125 15.6015625 C-39.7154718 14.66075836 -39.7278186 13.71995422 -39.74053955 12.75064087 C-39.71986295 6.6355703 -38.9049849 2.31005173 -34.83203125 -2.515625 C-22.92078717 -12.81418283 -12.21823159 -7.09041097 0 0 Z M-22.375 9.3125 C-22.375 21.8525 -22.375 34.3925 -22.375 47.3125 C-17.8755491 46.41260982 -15.4535278 45.45692649 -11.55859375 43.2578125 C-10.46482422 42.64292969 -9.37105469 42.02804688 -8.24414062 41.39453125 C-6.54547852 40.42580078 -6.54547852 40.42580078 -4.8125 39.4375 C-3.67619141 38.79941406 -2.53988281 38.16132813 -1.36914062 37.50390625 C5.34218489 33.73660102 5.34218489 33.73660102 11.625 29.3125 C10.25486765 25.20210294 8.3093469 24.68386561 4.578125 22.5546875 C3.96990906 22.2061673 3.36169312 21.85764709 2.73504639 21.49856567 C1.44632563 20.76300529 0.1550043 20.03198541 -1.13867188 19.30517578 C-3.10998543 18.19594847 -5.07095015 17.06995916 -7.03125 15.94140625 C-8.28587455 15.22813883 -9.54106549 14.51586656 -10.796875 13.8046875 C-11.93737305 13.15870605 -13.07787109 12.51272461 -14.25292969 11.84716797 C-17.56912399 10.05131354 -17.56912399 10.05131354 -22.375 9.3125 Z " fill="#000000" transform="translate(249.375,203.6875)"/>
<path d="M0 0 C0.66 -0.0103125 1.32 -0.020625 2 -0.03125 C4.91796104 0.7438334 6.0931088 2.19104167 8 4.5 C8.51757812 7.09375 8.51757812 7.09375 8.53125 10 C8.53640625 11.051875 8.5415625 12.10375 8.546875 13.1875 C8.53140625 14.280625 8.5159375 15.37375 8.5 16.5 C8.51546875 17.593125 8.5309375 18.68625 8.546875 19.8125 C8.54171875 20.864375 8.5365625 21.91625 8.53125 23 C8.52673828 23.9590625 8.52222656 24.918125 8.51757812 25.90625 C7.857725 29.21298564 6.58886445 30.40908706 4 32.5 C2 33.03125 2 33.03125 0 33 C-0.99 33.01546875 -0.99 33.01546875 -2 33.03125 C-4.91796104 32.2561666 -6.0931088 30.80895833 -8 28.5 C-8.51757812 25.90625 -8.51757812 25.90625 -8.53125 23 C-8.53640625 21.948125 -8.5415625 20.89625 -8.546875 19.8125 C-8.53140625 18.719375 -8.5159375 17.62625 -8.5 16.5 C-8.51546875 15.406875 -8.5309375 14.31375 -8.546875 13.1875 C-8.53914063 11.6096875 -8.53914063 11.6096875 -8.53125 10 C-8.52673828 9.0409375 -8.52222656 8.081875 -8.51757812 7.09375 C-7.60329874 2.51200272 -4.67433964 -0.07303656 0 0 Z " fill="#000000" transform="translate(104,391.5)"/>
<path d="M0 0 C0.66 -0.0103125 1.32 -0.020625 2 -0.03125 C4.91796104 0.7438334 6.0931088 2.19104167 8 4.5 C8.51757812 7.09375 8.51757812 7.09375 8.53125 10 C8.53640625 11.051875 8.5415625 12.10375 8.546875 13.1875 C8.53140625 14.280625 8.5159375 15.37375 8.5 16.5 C8.51546875 17.593125 8.5309375 18.68625 8.546875 19.8125 C8.54171875 20.864375 8.5365625 21.91625 8.53125 23 C8.52673828 23.9590625 8.52222656 24.918125 8.51757812 25.90625 C7.857725 29.21298564 6.58886445 30.40908706 4 32.5 C2 33.03125 2 33.03125 0 33 C-0.99 33.01546875 -0.99 33.01546875 -2 33.03125 C-4.91796104 32.2561666 -6.0931088 30.80895833 -8 28.5 C-8.51757812 25.90625 -8.51757812 25.90625 -8.53125 23 C-8.53640625 21.948125 -8.5415625 20.89625 -8.546875 19.8125 C-8.53140625 18.719375 -8.5159375 17.62625 -8.5 16.5 C-8.51546875 15.406875 -8.5309375 14.31375 -8.546875 13.1875 C-8.53914063 11.6096875 -8.53914063 11.6096875 -8.53125 10 C-8.52673828 9.0409375 -8.52222656 8.081875 -8.51757812 7.09375 C-7.60329874 2.51200272 -4.67433964 -0.07303656 0 0 Z " fill="#000000" transform="translate(72,391.5)"/>
<path d="M0 0 C2.5 1.5 2.5 1.5 4 4 C4.791013 8.02098277 4.62153384 10.96411027 2.5 14.5 C-1.03588973 16.62153384 -3.97901723 16.791013 -8 16 C-10.5 14.5 -10.5 14.5 -12 12 C-12.791013 7.97901723 -12.62153384 5.03588973 -10.5 1.5 C-6.96411027 -0.62153384 -4.02098277 -0.791013 0 0 Z " fill="#000000" transform="translate(132,56)"/>
<path d="M0 0 C2.5 1.5 2.5 1.5 4 4 C4.791013 8.02098277 4.62153384 10.96411027 2.5 14.5 C-1.03588973 16.62153384 -3.97901723 16.791013 -8 16 C-10.5 14.5 -10.5 14.5 -12 12 C-12.791013 7.97901723 -12.62153384 5.03588973 -10.5 1.5 C-6.96411027 -0.62153384 -4.02098277 -0.791013 0 0 Z " fill="#000000" transform="translate(100,56)"/>
<path d="M0 0 C2.5 1.5 2.5 1.5 4 4 C4.791013 8.02098277 4.62153384 10.96411027 2.5 14.5 C-1.03588973 16.62153384 -3.97901723 16.791013 -8 16 C-10.5 14.5 -10.5 14.5 -12 12 C-12.791013 7.97901723 -12.62153384 5.03588973 -10.5 1.5 C-6.96411027 -0.62153384 -4.02098277 -0.791013 0 0 Z " fill="#000000" transform="translate(68,56)"/>
</svg>
